<svg xmlns="http://www.w3.org/2000/svg" width="71" height="66" viewBox="0 0 71 66"><g><g><g><path fill="#2b2a29" d="M68.563 7.881c1.44.265 2.203 1.57 2.268 2.91.029.615-.037 1.234-.06 1.85-.006.137-.027.275-.025.411.027 1.256.074 2.512.076 3.767 0 .82-.08 1.64-.097 2.461-.03 1.389-.063 2.779-.05 4.167.01 1.304.098 2.607.119 3.91.01.706-.148 1.426-.045 2.113.108.722-.134 1.174-.593 1.684-1.008 1.124-2.11 2.076-3.57 2.554-.997.327-1.984.685-2.979 1.019-1.102.37-2.192.793-3.316 1.075-1.348.34-2.724.578-4.097.813-.781.133-1.577.198-2.368.242-1.41.077-2.823.102-4.231.172-.928.046-1.853.145-2.782.197-.449.026-.902.012-1.353.002-1.303-.03-2.606-.066-3.909-.103-.73-.02-1.46-.084-2.19-.062-1.937.06-3.865-.175-5.8-.201-.678-.01-1.353-.164-2.031-.24-.263-.03-.53-.027-.796-.038a7.676 7.676 0 0 0-.067.141c.355.332.687.697 1.072.988.875.66 1.735 1.345 2.738 1.82.346.164.629.456.953.669 1.204.786 2.406 1.572 3.623 2.337.305.192.686.261.992.451.925.577 1.8 1.244 2.755 1.765.98.536 1.828 1.252 2.77 1.834.856.529 1.188 1.406 1.588 2.244.027.057.027.14.009.203-.239.827-.275 1.712-.829 2.449-.408.541-.874 1.068-1 1.779-.018.105-.104.202-.164.299-1.05 1.738-2.086 3.484-3.156 5.21-.577.932-1.215 1.829-1.82 2.745-.326.497-.616 1.021-.967 1.5-.554.754-1.12 1.513-2.015 1.903-.24.103-.521.166-.781.156a4.119 4.119 0 0 1-2.187-.687c-1.639-1.087-3.303-2.132-4.939-3.223a4.869 4.869 0 0 1-1.703-1.949c-.44-.93-1.242-1.444-1.995-2.007-1.152-.86-2.373-1.63-3.564-2.44-1.436-.977-2.88-1.945-4.304-2.94-1.607-1.126-3.27-2.17-4.699-3.546-1.001-.965-2.11-1.82-3.185-2.709-.149-.123-.384-.144-.605-.22-.116-.224-.226-.521-.406-.766a14.465 14.465 0 0 0-2.29-2.452c-.307-.26-.533-.618-.788-.938-.728-.91-1.508-1.786-2.162-2.747-.576-.846-1.045-1.773-1.5-2.693a21.542 21.542 0 0 1-1.035-2.46c-.221-.639-.337-1.317-.47-1.984-.128-.642-.192-1.287-.49-1.9-.24-.491-.048-1.043.141-1.532.527-1.364 1.094-2.712 1.619-4.075.18-.467.244-.978.423-1.445.343-.897.73-1.777 1.1-2.665.052-.127.116-.249.166-.377.769-2.027 1.507-4.066 2.315-6.077.372-.926.819-1.82 1.371-2.668.52-.799.884-1.698 1.338-2.543.239-.442.482-.892.793-1.283.555-.7 1.406-.836 2.28-1.165 0 .313.057.53-.011.694-.158.378-.327.77-.584 1.082-.313.38-.462.768-.361 1.316.2-.243.382-.461.612-.737.07.148.123.217.137.296.09.488.129.99.264 1.464.132.458.39.848.763 1.192 1.052.972 2.305 1.53 3.65 1.937.698.213 1.383.478 2.082.695 1.025.318 2.053.626 3.087.918.99.28 1.978.57 2.982.79 1.293.283 2.6.507 3.903.748.921.17 1.843.342 2.77.483.79.122 1.586.205 2.38.298.681.08 1.363.163 2.047.22.95.078 1.897.251 2.856-.002.364-.097.769-.038 1.156-.044.984-.016 1.972.005 2.953-.052.935-.055 1.865-.207 2.8-.28.612-.048 1.23-.04 1.843-.037 1.447.008 2.878-.156 4.306-.387 2.212-.358 4.432-.662 6.638-1.044.92-.159 1.817-.457 2.72-.704.094-.026.159-.145.246-.212.138-.106.267-.246.425-.298.909-.3 1.842-.533 2.734-.876.503-.193.942-.549 1.41-.831.176-.107.356-.207.53-.317.513-.321.535-.392.34-1.134-.209.1-.42.174-.605.292-.864.547-1.84.804-2.807 1.08-.964.277-1.929.549-2.898.812-.966.262-1.931.533-2.906.761-.62.146-1.263.189-1.882.337-1.199.287-2.375.677-3.582.905-.846.16-1.73.153-2.596.168-1.734.029-3.47.031-5.203.025-2.354-.009-4.71.011-7.062-.072-1.365-.049-2.721-.314-4.086-.413-1.936-.139-3.878-.197-5.815-.325-.517-.035-1.026-.194-1.538-.298-1.118-.229-2.233-.468-3.354-.686-.526-.103-1.073-.12-1.588-.257-1.06-.28-2.102-.622-3.066-1.162-.637-.357-1.253-.72-2.007-.838-.753-.116-1.427-.483-2-1.006a6.13 6.13 0 0 0-.58-.483c-.638-.458-.956-1.042-.956-1.858 0-1.035.2-1.89 1.232-2.391.42-.205.745-.596 1.156-.827.463-.261.938-.475 1.494-.58.75-.144 1.455-.533 2.174-.825.07-.029.113-.12.123-.297-.504.086-1.019.135-1.51.268-.484.13-.95.333-1.415.523-.487.199-.955.446-1.45.621-.44.157-.786.55-1.265.598l-.086-.137c.093-.11.165-.262.284-.324.649-.338 1.324-.622 1.96-.981.89-.505 1.866-.716 2.844-.948 1.776-.422 3.537-.935 5.332-1.255 2.024-.36 4.079-.53 6.14-.607C30.256.532 31.69.361 33.125.276c1.69-.098 3.381-.178 5.072-.231a58.887 58.887 0 0 1 3.775-.024c1.326.044 2.651.145 3.973.271 2.346.225 4.691.466 7.031.745 1.09.13 2.171.342 3.25.558 1.48.296 2.96.601 4.426.958.82.2 1.619.49 2.415.775.795.284 1.588.581 2.356.929.665.302 1.322.638 1.928 1.04.457.304.787.761.913 1.329.093.422.198.842.295 1.257zM41.26 45.135a.858.858 0 0 1 .006.02h.028a1.664 1.664 0 0 0-.014-.015 1.297 1.297 0 0 1-.02-.005zm.766.572c-.165-.292-.354-.555-.732-.552.213.225.38.512.732.552zm-1.804-1.405c.302.333.577.7 1.038.833-.151-.52-.69-.56-1.038-.833zM12.743 17.006l.001-.002-.002-.002zm.136-.307c.04-.908.074-1.817.087-2.725.001-.096-.148-.194-.278-.352 0 1.103-.003 2.073.002 3.043 0 .11.039.217.06.326.048-.097.124-.193.129-.292zm-.129.292a.665.665 0 0 0-.006.013l.007.008.001-.012a.842.842 0 0 0-.002-.009zm-.1 1.232c0 .214.075.456.193.633.452.684.914 1.364 1.412 2.014.452.589.956 1.136 1.438 1.703.059-.019.118-.039.178-.057.153-1.232.098-2.473.07-3.717-.03-1.252-.007-2.506-.007-3.886-.407.862-.372 1.654-.341 2.468a1.486 1.486 0 0 1-.288-.666c-.076-.59-.11-1.185-.18-1.776-.015-.132-.107-.253-.194-.446-.406.424-.442.903-.51 1.32-.07.435.06.902.102 1.353-.187-.113-.365-.26-.398-.435a6.207 6.207 0 0 1-.11-1.222c.003-.34.1-.678.132-1.02.032-.343-.147-.436-.48-.359-.053.495-.116.968-.15 1.442-.036.517-.232 1.034.006 1.557.031.068-.037.238-.108.283-.075.046-.238.036-.311-.017-.138-.1-.241-.249-.353-.383-.039.404-.102.808-.1 1.211zm-4.192-3.997a.536.536 0 0 1-.012-.023l-.006.008-.017.04a1.76 1.76 0 0 1 .036-.024zm-.625.99c-.03.313-.267.447-.515.438-.283-.01-.238-.265-.218-.47-.294-.132-.524-.175-.653-.312-.207-.22.054-.404.137-.605.343-.821.673-1.646.995-2.476.084-.217.12-.454.177-.681-.536.455-.82 1.054-1.069 1.65-.493 1.178-.928 2.378-1.387 3.569-.618 1.598-1.244 3.194-1.852 4.796-.445 1.168-.869 2.347-1.282 3.469.487.583.483.58.13 1.115-.201.306-.417.609-.566.94-.162.353-.43.682-.398 1.234.13-.19.197-.277.252-.372.306-.51.604-1.023.913-1.531.162-.266.37-.441.795-.256-.472.389-.875.754-.982 1.351.174.062.333.118.531.19-.541.63-1.03 1.226-1.124 2.137.315-.367.552-.672.82-.947.175-.177.396-.326.614-.023C1.994 29.72 1.304 30.96 1.368 31.7c.5-.92.768-2 1.979-2.164.687-1.128 1.006-2.37 1.351-3.603.055-.198.11-.398.187-.587.355-.867.719-1.73 1.078-2.594.359-.866.723-1.732 1.073-2.6.342-.846.652-1.704 1.009-2.543a60.37 60.37 0 0 1 1.3-2.859c.135-.277.242-.514.106-.92-.176.247-.326.415-.425.607-.45.868-.882 1.745-1.33 2.616-.06.118-.163.215-.34.437-.05-.66.17-1.082.352-1.513.242-.574.478-1.15.715-1.726-.342.23-.548.546-.59.965zm-.733-.033l.014.007a.708.708 0 0 1-.013-.023.04.04 0 0 1 0 .007l-.001.01zm2.112-1.98c.06-.086.009-.249.009-.512-.26.357-.452.557-.567.795-.105.22-.35.424-.208.717.259-.332.528-.654.766-1zm-2.111 1.964c-.003-.028-.032-.055 0 0zM45.984 2.256l.044.227c-.256.036-.512.09-.77.106-.479.028-.957.03-1.435.05-.32.013-.638.043-.959.055-1.405.055-2.812-.311-4.217.018-.066.016-.136.012-.205.013-1.46.032-2.917-.005-4.372.22-.944.144-1.909.15-2.863.231-1.25.11-2.498.223-3.745.353-1.34.142-2.68.286-4.014.47-.746.103-1.473.368-2.22.426-1.746.135-3.204 1.018-4.74 1.705a1.61 1.61 0 0 0-.504.355c-.41.435-.809.885-.714 1.558.156 1.128.846 1.812 1.972 2.362-.175-.552-.267-.975-.44-1.359-.193-.423-.125-.763.088-1.162.424-.799 1.106-1.272 1.896-1.599.865-.355 1.761-.63 2.636-.964 2.135-.816 4.357-.968 6.614-.919.845.019 1.692-.023 2.538-.062.614-.027 1.24-.185 1.84-.115a7.98 7.98 0 0 0 2.116-.029 16.242 16.242 0 0 1 3.42-.169c.5.031 1.003.014 1.505.009.64-.006 1.28-.042 1.92-.025 1.097.029 2.193.088 3.29.14.098.004.196.038.425.086-.225.13-.33.24-.442.245-.43.02-.862.013-1.293.008-1.12-.013-2.237-.032-3.356-.048-.73-.01-1.461-.017-2.191-.031-.82-.015-1.631-.031-2.45.147-.71.155-1.453.186-2.183.218-.496.023-1.002-.107-1.493-.063-1.297.117-2.588.213-3.894.197-.999-.013-2.003.133-2.999.25-1.581.185-3.068.704-4.505 1.367-.878.405-1.584 1-1.964 1.918-.427 1.034-.037 2.242.944 2.769.6.322 1.238.584 1.877.823 1.46.547 2.965.93 4.509 1.16.814.122 1.615.335 2.43.432 1.84.217 3.684.392 5.526.58 2.663.268 5.333.38 8.007.359.184-.002.367-.059.56-.091-.118-.43-.396-.375-.64-.391-.662-.045-1.326-.081-1.987-.14-.301-.026-.592-.116-.982-.39.327-.06.494-.109.663-.115.228-.009.457.031.683.022 1.047-.04 2.093-.087 3.14-.143.706-.037 1.416-.06 2.117-.149.487-.06.96-.22 1.44-.336-.53-.13-1.046-.145-1.562-.126-.408.017-.813.085-1.222.11-.569.038-1.138.07-1.708.083-.892.021-1.784.033-2.675.036-1.024.004-2.051-.056-3.072 0-1.184.065-2.322-.107-3.45-.424-.578-.162-1.003-.544-1.337-1.023-.323-.465-.253-.89.232-1.166a11.807 11.807 0 0 1 1.66-.804c1.356-.51 2.756-.845 4.219-.835.205.002.411-.035.616-.058 1.273-.148 2.544-.298 3.833-.186.934.082 1.873.114 2.81.164 1.443.077 2.929-.2 4.3.505.136.07.318.042.47.09.647.2 1.276.443 1.937.814-.156.208-.268.354-.388.513-.244-.17-.417-.325-.616-.423-.87-.429-1.8-.642-2.762-.744-1.802-.193-3.602-.23-5.407-.003-.97.122-1.955.126-2.929.23-.862.093-1.724.222-2.573.39-.604.118-1.204.292-1.778.51-.272.105-.653.246-.637.636.02.445.437.538.763.69.08.037.177.048.268.055.502.034 1.004.077 1.505.089.71.019 1.423-.021 2.13.024 1.459.093 2.913.305 4.378.075.042-.006.088.021.133.024.407.03.816.096 1.22.08 1.145-.044 2.286-.124 3.43-.187.199-.011.424-.068.518.25-.416.585-1.176.225-1.84.627.547.075.95.2 1.342.169 1.132-.09 2.169-.498 3.141-1.074.645-.382.89-.956.794-1.795.273.067.622.053.697.188.326.6.608 1.235.357 1.956-.247.708-.833 1.047-1.481 1.2-.797.19-1.623.265-2.439.356a5.09 5.09 0 0 0-1.709.49c1.068.235 2.137.135 3.197.082.515-.024 1.038-.18 1.526-.36.833-.307 1.637-.697 2.465-1.02.64-.252.975-.734 1.145-1.36.125-.463.04-.69-.383-.905-.385-.195-.79-.353-1.195-.504-.71-.265-1.427-.512-2.142-.767.286-.148.598-.266.849-.187.956.298 1.959.478 2.84.992.727.424.867.817.567 1.6-.11.283-.236.561-.414.982.863-.366 1.317-.911 1.615-1.593.263-.604.308-1.199-.211-1.718-.038-.038-.03-.12-.042-.181.46-.148.7-.062.863.341.27.669.123 1.306-.21 1.91-.178.325-.393.63-.591.94.443-.108.845-.245 1.16-.491.658-.517 1.104-1.22.995-2.072-.16-1.236-.94-2.324-2.355-2.49-.281-.032-.553-.137-.829-.206l.039-.17a3.068 3.068 0 0 1 2.479.532c1.136.834 1.607 1.994 1.217 3.522.873-.43 1.243-1.122 1.625-1.868.32.408.211.698-.026.985-.221.267-.434.54-.651.812.036.03.07.063.105.095.19-.118.402-.21.56-.358.387-.364.797-.788.757-1.332-.053-.715-.328-1.385-1.048-1.736-.555-.27-1.108-.543-1.676-.784-.589-.25-1.182-.507-1.798-.672-.315-.085-.73.141-1.01.02-.333-.144-.627-.332-1.01-.35a3.662 3.662 0 0 1-.868-.173c-.093-.028-.152-.17-.305-.357.621.054 1.115.148 1.603.127.938-.039 1.8.202 2.652.553.908.374 1.807.779 2.733 1.1.578.2.928.543 1.123 1.103.084.239.216.46.328.69l.174-.046c.011-.456.126-.942.008-1.36-.12-.425-.471-.786-.746-1.214.624.009 1.011.428 1.518 1.435.59 1.17.098 2.125-.54 3.064.038.002.084.016.12.004 1.196-.423 2.154-1.14 2.948-2.148.521-.663.656-1.307.321-2.028-.218-.471-.547-.892-.852-1.317-.065-.092-.233-.114-.356-.161-.4-.154-.812-.281-1.2-.461-.74-.347-1.464-.724-2.198-1.083-.058-.029-.136-.009-.202-.025-.287-.07-.578-.13-.86-.219-.52-.165-1.025-.401-1.557-.514-1.587-.337-3.183-.632-4.778-.934a51.63 51.63 0 0 0-2.422-.417c-1.019-.144-2.043-.244-3.064-.377-.7-.092-1.394-.246-2.096-.303C46.076.84 44.478.74 42.88.655 41.605.588 40.326.507 39.052.538c-1.32.034-2.634.194-3.962.154-.795-.023-1.594.066-2.389.136-.795.07-1.587.178-2.38.264-.408.044-.816.086-1.223.1-.41.014-.822-.034-1.23-.007-.683.046-1.37.086-2.043.21-.908.17-1.883.106-2.68.713-.096.073-.265.067-.4.066-.594-.006-1.11.235-1.626.487-.163.08-.328.158-.498.217-1.445.506-2.893 1.001-4.336 1.51-.453.16-.918.307-1.33.541-.79.447-1.61.883-1.718 1.957-.08.804.134 1.465.837 2.09.06-.481.115-.857.152-1.236.053-.518.21-1.004.593-1.358.64-.591 1.345-1.1 2.16-1.426 1.23-.492 2.514-.792 3.802-1.106 2.843-.694 5.736-.876 8.634-1.08 1.802-.126 3.6-.308 5.4-.464.16-.014.318-.033.479-.039 1.432-.053 2.868.163 4.3-.11.39-.075.82-.01 1.226.047 1.136.156 2.265.227 3.413.062.572-.083 1.167-.014 1.751-.014zm-2.736 34.212c.046-.122.122-.242.137-.37.105-.862.198-1.727.294-2.589.028-.25.027-.505.088-.746.025-.1.176-.168.27-.25.062.126.125.251.183.38.008.015-.013.041-.016.065-.093.77-.206 1.538-.272 2.31-.035.405-.013.824.244 1.194h.711c.228-1.484-.345-17.088-.665-18.254-.363-.047-.723-.276-1.203.009 0 .31-.003.672 0 1.033.008.87.019 1.74.029 2.609.002.223-.045.402-.358.386l-.13-4.037c-.605-.16-.743-.144-.78.174-.123 1.063-.298 2.133-.054 3.2.071.305.137.573-.287.872-.034-.087-.078-.17-.101-.259-.333-1.262-.208-2.532-.038-3.79-.785-.218-.931-.172-1.048.516-.122.715-.14 1.45-.217 2.175-.041.383-.094.766-.173 1.141-.019.086-.17.143-.35.281-.103-1.428.09-2.732.193-4.052-.14-.03-.226-.062-.314-.067-.584-.032-.584-.003-.7.566a5.643 5.643 0 0 0-.077 1.974c.05.357.033.733-.019 1.091-.046.31-.17.61-.292.9-.026.063-.195.096-.292.085-.058-.007-.133-.122-.148-.198a.907.907 0 0 1 .014-.341c.184-.93.143-1.868.116-2.806-.013-.427-.002-.853-.002-1.333-.893-.267-1.874-.182-2.85-.17-.323.005-.403.206-.48.472-.323 1.096-.324 2.204-.17 3.321.044.316-.009.587-.433.67-.157-1.482-.007-2.929.12-4.396-.794-.31-1.57-.418-2.357-.452-.35.708-.271 1.428-.292 2.13-.014.45-.003.907.068 1.35.076.475.046.554-.586.672-.037-.243-.118-.49-.102-.731.067-1.025.164-2.048.25-3.073.034-.404-.01-.458-.429-.528-.517-.086-.67-.024-.727.355-.154 1.05-.067 2.098.117 3.135.1.56.004.813-.674 1.124V20.1l-.143.005c-.096 1.202-.15 2.404-.097 3.614.083 1.94.169 3.88.221 5.82.019.681-.074 1.366-.09 2.049-.018.82-.02 1.64-.003 2.46.006.287.087.573.134.861l.144-.018c.041-.546.096-1.088.118-1.635.013-.306.076-.527.506-.561.04 1.012-.15 1.975-.234 3.003.354.05.656.096 1 .145.098-.754.18-1.43.276-2.106.032-.225.084-.452.169-.661.03-.075.191-.15.277-.134.08.012.172.135.199.227a.616.616 0 0 1-.027.337c-.265.788-.27 1.6-.234 2.42.198.071.329.066.362-.166.066-.474.146-.949.208-1.423.052-.409.067-.824.141-1.228.023-.126.183-.228.28-.341.117.12.3.226.334.366.043.185-.01.404-.057.6-.185.76-.27 1.52-.082 2.34h1.023c0-.62.013-1.188-.003-1.756-.01-.388-.075-.775-.079-1.163 0-.105.144-.308.195-.299.133.021.328.112.36.216.073.235.078.495.078.744 0 .545-.071 1.09.187 1.616.113.23.08.51-.302.54-.06.004-.116.079-.216.153 1.072.21 1.173.124 1.219-.81.068-1.347.157-2.694.248-4.039.013-.179.061-.364.133-.529.039-.087.17-.195.247-.186.117.015.241.104.326.196.05.055.037.175.042.265.048.96.129 1.919.13 2.879.002.587-.131 1.175-.185 1.763-.042.453.075.557.654.563 0-.317-.014-.635.002-.95.034-.617.067-1.236.14-1.848.017-.134.192-.338.31-.35.232-.024.26.192.254.39-.023.777-.044 1.553-.057 2.33-.002.151.036.305.059.493h.716c.04-.167.1-.317.11-.471.045-.728.082-1.457.113-2.185.013-.307-.008-.626.505-.539.112.524-.012 1.037-.067 1.554-.055.534-.094 1.068-.143 1.638h.703c.287-.954.49-1.903.403-2.9-.01-.114.134-.241.207-.363.106.1.285.192.3.303.042.31.037.634.01.948-.055.674-.137 1.348-.213 2.066.466.037.86.068 1.358.109v-2.883c0-.5.13-.581.658-.43l-.09 3.332h1.062zm-25.923 5.837c-.044.099-.064.19-.116.258-.623.8-1.076 1.69-1.466 2.623-.197.474-.548.88-.771 1.345-.275.572-.49 1.173-.727 1.763-.024.057-.014.13-.024.229l.48.378c.26-.36.515-.675.728-1.017.277-.447.498-.928.781-1.371.292-.456.625-.888 1.255-1.036.046.652-.55.822-.792 1.22-.26.43-.571.832-.8 1.278-.224.437-.372.914-.57 1.416l.778.533c.09-.158.143-.254.196-.35.427-.78.845-1.566 1.29-2.335.098-.17.278-.3.44-.422.154-.118.342-.17.482.025.127.175.092.333-.087.472-.776.606-1.095 1.504-1.46 2.364-.198.47-.021.818.448 1.034.077-.102.178-.198.236-.316.33-.654.627-1.324.983-1.963.183-.33.445-.626.717-.89.068-.066.312.05.476.083-.05.135-.06.319-.156.4-.841.704-1.235 1.684-1.635 2.65-.191.461-.11.546.439.799.095-.199.18-.402.288-.596.351-.64.708-1.278 1.07-1.913.157-.278.32-.554.503-.816.116-.165.276-.244.505.005-.665 1.155-1.14 2.44-2.1 3.494.447.356.846.714 1.423.87.333-.572.67-1.112.967-1.673.804-1.512 1.588-3.036 2.384-4.553.605-1.153 1.191-2.318 1.836-3.45.781-1.367 1.612-2.707 2.43-4.054.343-.567.706-1.121 1.056-1.684.284-.456.257-.576-.187-.903-.088-.064-.192-.11-.346-.195-.582 1.072-.893 2.32-2.14 2.999-.01-.219-.058-.348-.013-.42.18-.29.356-.595.593-.834.55-.552.833-1.253 1.148-1.937.025-.055-.036-.15-.078-.297-.17.143-.316.22-.395.343-.524.8-1.034 1.61-1.547 2.416-.036.058-.047.144-.098.178-.1.071-.218.116-.329.17-.054-.111-.177-.24-.153-.331.072-.262.17-.53.32-.755.402-.61.833-1.201 1.258-1.798.473-.662.381-.946-.416-1.237-.619.872-1.234 1.752-1.862 2.62-.09.123-.246.196-.372.292l-.147-.09c.023-.187 0-.396.08-.551.137-.26.338-.487.515-.726.482-.66.965-1.316 1.516-2.07-.285-.296-.518-.535-.752-.779-.58.452-.918.904-1.203 1.402-.204.357-.405.715-.615 1.066-.125.21-.282.368-.55.211-.005-.559.952-2.137 1.84-3.015l-.733-.61c-.5.762-1.088 1.397-1.466 2.183-.128.267-.25.544-.717.462.158-1.332 1.223-2.108 1.845-3.135l-.5-.612c-.18.191-.292.276-.36.387-.5.819-.996 1.641-1.48 2.468-.445.76-.758 1.588-1.196 2.35-.146.253-.241.56-.68.466.011-.138-.006-.28.039-.397.179-.47.4-.923.559-1.399.14-.423.602-.8.237-1.325-.034-.049.02-.174.057-.252.15-.308.288-.623.467-.913.36-.584.753-1.147 1.108-1.732.135-.222.41-.489-.07-.79-.2.245-.42.471-.583.73-.245.387-.441.803-.675 1.198a6.05 6.05 0 0 1-.54.791c-.056.067-.276.084-.348.028-.076-.059-.1-.236-.08-.35.02-.1.134-.18.198-.275.482-.696.957-1.395 1.446-2.086.179-.252.155-.475-.055-.67-.129-.12-.299-.198-.47-.307-.117.15-.229.266-.307.4-.426.733-.849 1.466-1.26 2.206-.088.159-.123.396-.361.307-.257-.096-.206-.316-.107-.52.14-.287.252-.588.412-.863.37-.63.76-1.248 1.184-1.939l-.828-.637c-.56.983-1.07 1.866-1.568 2.755-.138.247-.292.396-.594.263-.014-.087-.052-.16-.033-.216.396-1.164 1.186-2.088 1.946-3.104l-.703-.55c-.124.153-.208.232-.262.33-.446.798-.897 1.592-1.319 2.401-.15.289-.28.517-.737.326l1.989-3.48c-.224-.251-.415-.468-.677-.764-.153.253-.286.427-.371.622-.774 1.754-1.496 3.532-2.322 5.261-.69 1.444-1.349 2.896-1.932 4.385-.533 1.358-1.419 2.561-1.775 4-.053.212-.147.414-.272.762.252-.164.375-.246.5-.324.12-.075.242-.145.363-.217-.844 1.34-1.548 2.705-2.014 4.195a.398.398 0 0 0 .26-.187c.48-.859.949-1.723 1.436-2.576.134-.235.31-.452.493-.654.137-.15.313-.18.513.059-.225.288-.497.564-.682.889-.43.756-.818 1.535-1.218 2.308a3.281 3.281 0 0 0-.212.507c-.075.233.027.402.239.501.204.096.349.014.453-.173.122-.222.256-.434.374-.655.298-.565.565-1.151.894-1.698.23-.383.546-.714.818-1.064.46.335.495.455.23.786-.183.232-.415.423-.607.65-.628.746-.916 1.674-1.327 2.534-.044.092.074.263.118.4.637-.236.82-.77 1.11-1.224.38-.598.776-1.188 1.212-1.745.251-.32.326-.287.702.032-.47.613-.949 1.22-1.408 1.843a2.816 2.816 0 0 0-.403.71c-.124.347-.186.716-.29 1.135l.98.792c.679-1.258 1.314-2.44 1.957-3.62.273-.502.532-1.015.852-1.485.212-.31.498-.611.999-.437zm33.876-17.98v-6.779c-.36-.1-.472.041-.484.288-.017.32-.03.641-.02.962.022.845.053 1.691.093 2.537.016.327-.029.583-.496.625v-4.286c-.584-.183-.711-.163-.746.193-.065.656-.11 1.318-.107 1.976.001.638.084 1.275.102 1.913.004.122-.13.247-.199.372-.102-.105-.211-.203-.3-.317-.037-.049-.035-.132-.037-.2a812.566 812.566 0 0 1-.043-3.01c-.004-.29 0-.58 0-.996-.234.14-.457.193-.5.312-.138.38-.28.781-.294 1.179-.032.89.01 1.78.024 2.67.004.201.048.414-.247.56-.082-.118-.215-.227-.239-.357a4.995 4.995 0 0 1-.084-.953c.01-.87.05-1.74.064-2.61.01-.495-.121-.588-.633-.48-.065.015-.123.056-.178.082-.273.495-.237 1.024-.22 1.549.023.73.043 1.46.092 2.19.03.427-.135.723-.458.968-.31-.136-.26-.37-.255-.599.033-1.166.062-2.333.084-3.501.002-.152-.051-.304-.076-.447-.61-.029-.771.1-.76.68.016.71.123 1.418.105 2.124-.033 1.42.103 2.83.194 4.241.103 1.617.19 3.232.147 4.853-.013.48.032.959.046 1.44.022.84.05 1.682.058 2.523.005.502-.058 1.006-.027 1.503.022.36.15.714.23 1.07.168-.144.234-.282.243-.424.058-.979.103-1.96.159-2.939.015-.262-.006-.569.487-.587 0 .24.02.454-.004.664-.078.657-.183 1.313-.257 1.972-.05.43-.087.867.25 1.213.352.045.462-.135.481-.435.048-.731.104-1.462.162-2.192.016-.205.027-.415.083-.61.085-.292.27-.338.533-.138l-.063.537c-.081.68-.167 1.361-.236 2.044-.028.267-.04.548.374.715.042-.21.088-.37.106-.536.107-.93.197-1.864.317-2.793.027-.211.08-.53.385-.46.297.067.215.352.152.578-.007.02-.023.04-.026.063-.127.744-.26 1.486-.372 2.23-.026.177-.013.371.031.546.064.247.244.374.515.354.267-.018.341-.19.35-.42.02-.526.05-1.052.057-1.577.01-.732-.008-1.465.019-2.195.003-.115.166-.312.27-.322.209-.02.303.144.29.368a152.515 152.515 0 0 0-.17 3.013c-.014.35.033.7.057 1.116l.709-.107c.043-1.092.093-2.136.123-3.181.02-.687-.014-1.376.03-2.06.02-.301.157-.6.274-.889.067-.165.302-.151.378.016.044.1.068.219.067.328-.008.824-.027 1.646-.036 2.47-.01.985-.008 1.968-.021 2.953-.005.384.169.485.534.382.023-.138.063-.27.067-.402.036-1.072.063-2.142.096-3.214.002-.09-.01-.234.038-.261.117-.068.307-.154.39-.103.112.067.21.257.206.391-.007.293-.084.583-.129.875-.112.718-.265 1.432-.317 2.155-.028.41.071.426.547.299.072-1.125.143-2.24.216-3.357.009-.137.001-.282.048-.405.035-.09.142-.202.223-.208.084-.006.24.09.256.163.04.191.042.397.017.592-.12.976-.25 1.95-.374 2.877.573.543.573.543 1.188.296-.031-.875-.076-1.762-.086-2.648-.005-.407.05-.814.093-1.22.02-.199.133-.393.345-.317.112.04.173.266.221.42.024.076-.03.176-.052.266-.235.987-.25 1.992-.23 2.998.01.496.12.594.641.548.479-.042.953-.128 1.429-.198.25-.036.504-.054.744-.125.317-.094.376-.378.087-.534-.257-.14-.293-.322-.312-.55-.021-.25-.051-.502-.044-.752.025-.892.097-1.783.089-2.674-.015-1.579-.087-3.156-.117-4.734-.058-3.223-.104-6.447-.16-9.67-.004-.17-.049-.34-.082-.57l-1.15.259.176 4.96c-.619-1.56-.485-3.232-.687-4.907l-1.51.262c0 .414.052.777-.009 1.118-.135.757-.11 1.497.014 2.251.04.255-.025.54-.094.796-.024.09-.202.138-.31.205-.075-.123-.21-.246-.21-.368-.001-.27.094-.54.1-.81.016-.868.008-1.736.01-2.602.002-.154 0-.306 0-.552-.688.148-1.337.16-1.912.46.064.336.154.6.159.866.018 1.075.03 2.15.006 3.224-.019.869-.09 1.736-.14 2.604-.018.314-.154.466-.57.323zM31.243 60.427c.049-.053.097-.108.145-.162.522.307 1.046.61 1.565.92.215.13.405.362.63.4.399.07.642.303.91.559.212.202.469.363.725.508.288.161.595.114.836-.097.308-.271.62-.552.863-.88.432-.584.811-1.208 1.216-1.812.088-.132.179-.27.298-.37.072-.06.24-.1.298-.058.096.07.189.213.186.324 0 .119-.106.242-.18.354-.369.547-.744 1.091-1.114 1.637-.519.766-1.037 1.535-2.077 1.777.564.31 1.036.252 1.423-.272.663-.9 1.276-1.837 1.87-2.783.449-.715.757-1.528 1.267-2.188a11.48 11.48 0 0 0 1.266-2.016c.65-1.336 1.387-2.623 2.257-3.826.735-1.016 1.463-2.034 1.939-3.201.133-.327.16-.697.222-1.049.007-.048-.066-.11-.104-.174l-.358.198c-.253-.255-.35-.68-.85-.672.036.113.041.211.092.268.471.524.374 1.11.105 1.651-.354.712-.78 1.387-1.197 2.066-.06.099-.263.203-.357.174-.211-.068-.234-.27-.125-.454.258-.43.54-.846.787-1.283.189-.334.371-.68.488-1.042.055-.168.015-.45-.1-.573-.5-.53-.987-1.103-1.584-1.506-1.143-.774-2.209-1.622-3.179-2.645l.132-.456c-.606-.443-1.334-.587-2.178-.479-1.525.196-2.249 1.381-1.906 2.738.05.2.084.402.129.603.137.608-.127.943-.728 1.001-1.032.1-2.027.352-2.929.886-1.383.817-1.985 2.463-1.492 4.03.063.194.2.466.122.584-.218.332-.141.674-.117.983-.404.042-.773.03-1.111.126-.465.132-.907.337-1.019.9a.755.755 0 0 1-.191.354c-.5.519-.407 1.186-.426 1.808-.007.241.152.546.33.726a115.538 115.538 0 0 0 3.128 3.065c.386.363.828.68 1.428.733l-1.339-1.379zM8.917 43.62h-.001l-.004.006zm.167-.26c.781-1.876 1.53-3.767 2.348-5.626.755-1.715 1.595-3.39 2.377-5.094.639-1.388 1.26-2.785 1.862-4.19.186-.434.28-.907.45-1.485-.51.48-.507 1.169-1.218 1.508.046-.277.034-.455.105-.585.467-.862.952-1.714 1.433-2.567.045-.08.137-.156.137-.234-.001-.12-.064-.238-.1-.358-.118.038-.248.054-.35.117-.068.044-.097.152-.143.231-.48.83-.956 1.662-1.448 2.486-.068.114-.211.185-.32.275a8.163 8.163 0 0 0-.145-.077c.046-.2.046-.426.147-.592a76.294 76.294 0 0 1 1.534-2.436c.33-.503.348-.492-.168-.932-.08.066-.19.121-.248.21-.453.682-.903 1.367-1.342 2.06-.146.23-.23.503-.392.72-.07.097-.26.105-.398.153-.008-.145-.075-.323-.016-.434.279-.522.582-1.032.893-1.536.301-.487.634-.953.928-1.443.26-.434.245-.444-.273-.857-.419.69-.837 1.367-1.242 2.052-.198.334-.355.691-.562 1.02-.12.193-.301.265-.506.02.58-1.052 1.155-2.087 1.722-3.127.353-.646.296-.819-.447-1.272-.395.794-.806 1.575-1.177 2.374-.49 1.055-.984 2.105-1.586 3.102-.154.255-.332.411-.738.34.076-.248.117-.466.207-.66.385-.83.814-1.64 1.174-2.482.378-.882.7-1.788 1.037-2.688.046-.121.024-.268.034-.402-.783.91-1.394 1.877-1.714 3.038-.385-.215-.307-.456-.198-.682.308-.638.639-1.266.942-1.906.258-.546.561-1.043 1.124-1.328.028-.015.03-.081.046-.123-.3-.466-.332-.48-.686-.167a2.33 2.33 0 0 0-.395.467c-.187.286-.377.575-.52.885-.315.68-.616 1.365-.888 2.063-.143.368-.212.442-.743.386.687-1.656 1.493-3.223 2.57-4.681-.13-.172-.25-.33-.439-.575-.42.499-.828.925-1.167 1.402-.57.801-1.078 1.64-1.374 2.593-.078.254-.439.436-.598.33-.291-.197-.08-.41.03-.59.864-1.424 1.738-2.841 2.657-4.34l-.329-.722c-.217.239-.405.379-.507.565-.504.92-.98 1.856-1.482 2.778-.108.197-.285.356-.436.539-.335-.27-.268-.491-.124-.727.18-.292.358-.584.52-.886.499-.924.871-1.915 1.563-2.732.241-.285.183-.404-.262-.748-.168.322-.324.646-.505.956-.172.295-.39.564-.552.864a33.259 33.259 0 0 0-.771 1.53c-.343.72-.68 1.442-1.004 2.17a57.9 57.9 0 0 0-.745 1.769c-.518 1.269-1.048 2.535-1.54 3.814-.419 1.087-.775 2.199-1.189 3.288-.274.723-.609 1.423-.902 2.141-.1.249-.155.516-.23.774l.13.037c.217-.4.43-.8.65-1.2.243-.447.382-.537.833-.515-.587.806-1.082 1.635-1.28 2.615.264-.277.44-.625.703-.884.259-.253.38-.751.934-.665-.028.103-.027.186-.067.226-.786.77-1.218 1.765-1.694 2.725a.985.985 0 0 0-.036.707c.15.396.395.755.625 1.176.382-.277.63-.584.83-.948.264-.482.552-.95.827-1.424.28-.487.605-.885 1.292-.574.166-.333.314-.638.47-.937.126-.243.244-.492.4-.715.144-.21.36-.287.594-.12.224.158.16.402.05.554-.543.753-.788 1.636-1.163 2.463-.51 1.123-1.09 2.213-1.63 3.32-.057.115-.062.254-.089.382.158-.073.208-.17.262-.263.46-.787.907-1.58 1.386-2.353.192-.307.461-.558.912-.47-.195.223-.417.4-.54.63-.447.839-1.189 1.526-1.31 2.535-.013.099-.122.188-.196.274-.222.26-.094.396.234.56.48-.708.955-1.4 1.418-2.1.152-.227.25-.492.414-.71.255-.336.457-.321.83.036-.588.307-.847.867-1.13 1.414-.127.243-.285.468-.433.7-.267.419-.537.836-.848 1.322l.627.384c.242-.419.44-.773.648-1.122.36-.607.702-1.227 1.098-1.81.238-.351.397-.34.79-.097-.05.075-.085.17-.154.215-.559.374-.874.922-1.126 1.52-.08.19-.208.357-.285.547-.167.418-.335.839-.46 1.27-.03.11.068.325.17.385.106.062.306.034.433-.024.11-.052.193-.191.255-.31.392-.747.769-1.5 1.166-2.244.15-.28.328-.546.52-.8.126-.164.299-.186.479.008-.215.318-.467.615-.634.953-.415.837-.785 1.695-1.183 2.54-.262.558-.176.915.389 1.31.073-.11.134-.178.168-.258zm19.492-8.186c.029-.247.055-.359.052-.47-.018-.893-.053-1.783-.062-2.674-.01-1.257-.01-2.515-.003-3.772.003-.64.042-1.278.042-1.916.001-1.51-.011-3.017-.02-4.527-.004-.503-.001-1.007-.019-1.51-.027-.821-.065-1.642-.101-2.463-.007-.153-.02-.306-.03-.446-1.37-.286-1.153-.006-1.242.806-.008.068-.028.137-.025.204.03.703-.24 1.407.004 2.111.012.036-.013.086-.034.205l-.569.312.186-3.739c-.28-.166-.549-.288-.627.092-.194.934-.436 1.87-.264 2.841.083.47-.007.583-.628.682 0-.296-.026-.584.005-.865.097-.885.221-1.767.32-2.653.044-.385-.059-.484-.431-.557-.33-.064-.548.04-.604.377-.093.564-.199 1.128-.242 1.697-.048.633-.018 1.273-.054 1.909-.007.123-.151.31-.26.333-.095.02-.248-.132-.34-.237-.05-.056-.047-.176-.04-.264.074-.91.147-1.822.232-2.732.037-.399.098-.795.156-1.247h-.751a12.927 12.927 0 0 0-.218 3.295c.029.48-.102.604-.638.577-.008-.129-.03-.263-.023-.396.054-.865.121-1.73.17-2.596a5.172 5.172 0 0 0-.03-.888c-.012-.095-.135-.177-.243-.312-.05.142-.085.2-.09.261-.123 1.595-.257 3.189-.356 4.785-.023.392-.18.615-.551.803-.045-.142-.107-.243-.102-.341.032-.663.01-1.338.134-1.984.202-1.046.103-2.095.16-3.14.025-.49-.03-.507-.674-.538-.124.346-.286.698-.374 1.069-.088.37-.103.757-.149 1.137-.457-.778-.211-1.566-.038-2.376-.218-.048-.387-.085-.643-.143-.088.414-.178.783-.243 1.158-.062.36-.063.734-.15 1.087-.088.361.238.743-.046 1.115-.088-.056-.168-.077-.192-.126-.06-.122-.132-.255-.135-.385-.011-.956-.006-1.91-.006-2.947a72.791 72.791 0 0 1-.545-.198c-.033.832-.08 1.575-.082 2.319-.003.511-.178.87-.753 1.074-.049-1.242.055-2.443.056-3.66-.127.089-.216.19-.23.303-.036.294-.019.596-.06.89-.32 2.272-.365 4.557-.359 6.845.003.815.012.82.816 1.153.107.67.51 1.187 1.007 1.647.386.356.735.763 1.156 1.068.476.344.78 1.006 1.678.822-.31.61.118.742.438.962.207.141.382.329.58.485.746.59 1.246 1.451 2.118 1.9.05.027.086.106.102.17.157.582.65.843 1.084 1.193l.32-.681c.384.255.384.255.335.717-.06.564.005.66.634.881.027-.302.05-.591.078-.882.053-.562.053-.562.452-.64v2.37c.312.21.589.4.959.65zM59.34 15.986c-.325.024-.597.029-.865.067-.25.036-.4.183-.438.452-.116.842-.144 1.683.025 2.522.004.013.066.016.133.03 0-.489.006-.967-.001-1.446-.011-.702.068-1.036.358-1.316.036.124.094.226.093.327-.005.754-.025 1.507-.03 2.26-.002.273-.01.55.042.817.157.798.167.796-.539 1.197-.009.145-.027.304-.023.463.002.113.03.226.05.34.291 1.828.562 3.657.471 5.52-.022.455.033.915.055 1.372.027.592.06 1.183.083 1.776.034.82.068 1.643.087 2.464.008.342-.024.685-.04 1.027-.015.32-.05.64-.038.958.008.239.06.486.39.724.027-.28.056-.464.062-.65.037-1.007.068-2.014.104-3.019.005-.137.004-.286.06-.404.038-.08.168-.147.264-.16.055-.006.17.105.18.172.023.2.027.41.006.612-.078.728-.183 1.452-.245 2.181-.028.33.023.667.043 1.098l.808-.23c-.053-.28-.12-.478-.12-.675 0-.913.015-1.826.034-2.74.005-.227.019-.459.076-.677.027-.106.164-.182.25-.271.09.09.232.167.259.273.037.145-.012.314-.025.472-.086 1.134-.26 2.267-.036 3.454.565-.202 1.104-.381 1.628-.595.095-.038.188-.216.19-.33.01-.843.022-1.69-.018-2.53-.041-.866-.147-1.728-.205-2.592-.01-.137.08-.28.127-.42.155.058.386.073.452.185.156.266.298.57.331.872.054.475.015.96.015 1.44v3.005c.678.065 1.318-.253 1.984-.495-.003-1.48-.272-2.898-.085-4.5.22.21.368.288.403.402.06.191.064.406.063.611a145.67 145.67 0 0 1-.036 2.33c-.012.553-.001.575.619.77-.036-.385-.09-.739-.098-1.091-.023-1.074-.046-2.147-.031-3.22.016-1.28.062-2.561.113-3.842.02-.5.137-.998.131-1.496-.027-2.036-.083-4.072-.133-6.107-.008-.39-.02-.783-.227-1.285v2.868c-.33-.063-.298-.318-.304-.533-.033-1.05-.054-2.1-.086-3.149-.005-.181-.042-.362-.065-.542l-.173.007c-.079.723-.172 1.445-.228 2.169-.015.19.062.4.14.582.197.465-.004.912-.642 1.186.174-1.316-.17-2.614.431-3.861-.824.133-.874.157-.883.89-.01.869.036 1.737.044 2.605.001.197-.014.415-.097.587-.052.109-.251.215-.37.202-.117-.014-.265-.163-.312-.286-.062-.164-.057-.36-.05-.542.018-.524.098-1.05.065-1.568-.031-.496.015-1.019-.203-1.543-.35.226-.377.507-.356.812.025.36.052.72.062 1.082.011.48-.002.96.011 1.44.028.913.07 1.824.1 2.736.01.31-.095.534-.513.553-.082-.222-.23-.449-.239-.68-.037-.936-.025-1.874-.043-2.81-.014-.722-.046-1.442-.071-2.164a.913.913 0 0 0-.222.51c-.041.615-.055 1.231-.091 1.846-.006.11-.066.217-.145.466-.42-1.2.012-2.292-.132-3.375l-1.779.295c-.191 1.198-.264 2.358-.17 3.523.014.158.143.306.23.481-.13.205-.201.496-.65.43-.125-1.414.011-2.821-.013-4.32zM33.357 39.702c-.29.367-.536.664-.765.974-.417.57-.816 1.155-1.24 1.72-.156.21-.373.564-.64.346-.34-.277.06-.51.228-.72.67-.833 1.391-1.631 1.919-2.675l-.887-.538c-.56.861-1.068 1.645-1.582 2.425-.154.233-.24.559-.616.546-.132-.393-.112-.521.164-.931.446-.663.896-1.325 1.347-1.986.338-.496.29-.61-.446-.85-.454.615-.926 1.255-1.4 1.893-.204.273-.398.557-.625.809-.084.092-.251.105-.51.203.192-.77.639-1.242.975-1.758.357-.547.805-1.034 1.269-1.616l-.758-.538c-.116.158-.19.242-.246.338-.809 1.38-1.806 2.635-2.539 4.074-.85 1.67-1.87 3.253-2.765 4.901-1.06 1.948-1.919 4-3.11 5.883-.157.246-.16.587-.235.884.198-.016.288-.076.35-.159.373-.52.73-1.052 1.112-1.563.328-.437.677-.86 1.035-1.275.127-.148.324-.223.472-.026.131.175.077.344-.118.457-.02.012-.041.022-.059.037-.442.34-.83.72-1 1.274-.032.106-.107.202-.175.295-.315.437-.634.872-.95 1.302.201.354.388.626.788.695.09-.118.177-.22.25-.332.546-.843 1.089-1.688 1.634-2.53.075-.115.14-.262.247-.324.118-.067.282-.055.426-.076.005.142.068.32.005.418-.44.667-.87 1.347-1.377 1.961-.38.46-.487.945-.48 1.526l.624.255c.202-.389.38-.755.58-1.11.256-.457.51-.917.803-1.35.122-.18.323-.327.52-.431.106-.055.277.013.418.027-.036.12-.043.262-.114.355-.108.143-.292.232-.388.38a56.96 56.96 0 0 0-1.226 1.98c-.155.262-.125.538.138.735.212.158.438.297.7.472.197-.345.357-.618.511-.896.553-1 1.098-2.003 1.655-3.001.283-.51.507-.613 1.109-.5-.936 1.603-1.85 3.19-2.654 4.892l.931.529c.315-1.657 1.088-2.878 2.617-3.6-.24-.976-.215-1.944.182-2.883.034-.082.02-.182.044-.27.217-.785.554-1.524 1.198-2.037a6.424 6.424 0 0 1 3.303-1.388c.33-.038.653-.134 1.024-.213-.728-2.31.136-3.703 2.496-4.333-.621-.413-1.11-.746-1.605-1.063-.221-.142-.439-.112-.611.1-.377.458-.793.891-1.118 1.383-.517.781-.98 1.597-1.45 2.407-.135.235-.274.411-.565.385-.175-.404-.171-.401-.011-.68.243-.423.483-.85.725-1.276-.365.14-.44.673-1.037.492.231-.76.866-1.236 1.198-1.896.334-.664.796-1.265 1.214-1.914l-.909-.616zm35.767-8.825c.442-.236.385-.56.38-.879-.013-.637-.05-1.27.415-1.82.157-.185.201-.514.199-.775a84.551 84.551 0 0 0-.11-3.223c-.079-1.512-.091-3.016.095-4.525.102-.835.09-1.683.128-2.526l-.568-.21-.116-1.57c-.177.548-.236 1.088-.27 1.63-.033.547-.043 1.096-.063 1.645-.018.51.146 1.029-.038 1.54a.479.479 0 0 1-.137-.3c-.038-.64-.061-1.28-.1-1.92-.012-.203.011-.449-.094-.598-.266-.38-.193-.786-.193-1.192.002-.862.002-1.724.002-2.6-.214-.011-.32.113-.338.322-.071.77-.157 1.54-.194 2.312-.016.34.073.682.125 1.116a3.064 3.064 0 0 1-.162.141c-.507.413-1.001.813-.811 1.6.078.324.062.683.036 1.023-.095 1.274-.221 2.546-.315 3.82a53.08 53.08 0 0 0-.111 2.396c-.033 1.164-.049 2.33-.069 3.492-.002.181-.003.364.009.545.057.83.12 1.66.179 2.472.333-.156.345-.156.343-.477a65.904 65.904 0 0 0-.043-1.786c-.022-.584-.057-1.167-.087-1.752.264-.074.428-.007.465.21.046.265.06.54.06.809.003.685-.018 1.372-.01 2.057.002.151.09.302.139.453.057-.007.115-.016.172-.025.118-1.222.154-2.453.213-3.679.258.022.435.075.592.042.454-.093.482-.099.507.306.015.246-.033.496-.064.744-.051.395-.11.787-.166 1.182zm-.531-22.296c-.056.928-.343 1.762-.071 2.6-.3.425-.632.74-1.134.844-.15.031-.282.147-.426.216-1.047.504-2.094 1.006-3.141 1.512-.115.056-.223.125-.333.19a.41.41 0 0 0 .336.027c.454-.154.9-.333 1.36-.47 1.583-.474 2.935-1.305 4.048-2.535.784-.866.56-1.922-.638-2.383zM6.227 34.633c-1.013.968-1.443 2.21-2.184 3.304l.373.503c.639-.434 1.798-2.844 1.811-3.807zm2.398-23.899c-.543 1.402-1.15 2.631-1.434 4.03.122-.039.188-.039.203-.066.45-.842.899-1.687 1.341-2.534.231-.442.124-.864-.11-1.43zM3.063 30.02c-.898.716-1.223 1.716-1.387 2.794zm43.09-15.785l.004.203.847-.104-.014-.1h-.836zm-.518.188v.002zm-.011-.165c-.255-.003-.53-.143-.855.264l.866-.099-.011-.165zm23.936-1.094l-.57.169.313.45a81.1 81.1 0 0 1 .257-.619zm-1.858 1.956c-.063.134-.103.184-.092.204.032.056.087.1.133.15l-.04-.354zm-38.347 3.092l.047-.001v-.423a1.398 1.398 0 0 1-.072.003l.025.42zm39.167 13.342l.105.005v-.478l-.075-.002-.03.475z"/></g><g><path fill="#2b2a29" d="M40.453 6.628h.004zm-3.207 0c.943.355 1.925.27 2.898.33.007.115.016.223.026.356l.645.095-.01.1c-.414 0-.829-.008-1.245.001-.749.016-1.5.02-2.247.07-.863.06-1.735.11-2.585.264-1.207.219-2.432.413-3.554.952-.405.193-.78.455-1.248.645.066-.109.109-.245.2-.321.866-.722 1.882-1.114 2.98-1.31.9-.158 1.802-.306 2.703-.464.057-.01.106-.065.205-.13-.363-.262-.74-.166-1.072-.135-1.5.14-3.01.246-4.494.5-1.432.244-2.864.565-4.07 1.487-.528.403-.767.95-.926 1.555-.104.4-.094.403-.522.576.065-1.052.315-1.954 1.264-2.519.421-.25.846-.493 1.287-.749-.092-.084-.128-.142-.153-.138-.98.162-1.91.454-2.716 1.058-.49.367-.484.96-.677 1.462-.039.099-.043.21-.195.343-.049-.174-.174-.371-.13-.52.238-.841.492-1.687 1.47-1.991.87-.272 1.739-.552 2.607-.829.233-.074.466-.155.809-.27-.358-.253-.656-.188-.928-.182a66.22 66.22 0 0 0-2.675.098c-1.004.061-1.911.423-2.74.984-.13.088-.25.202-.35.325-.515.62-.531.906-.105 1.552-.076.235-.239.246-.433.159-.397-.18-.585-.595-.458-1.103.23-.918.89-1.47 1.686-1.88.911-.469 1.879-.658 2.915-.635 1.623.036 3.244.033 4.867.119 1.57.08 3.15-.098 4.727-.148 1.823-.057 3.645-.072 5.451.293h-3.207zm-7.342.586l-.032-.12-.419.132.025.09c.143-.033.284-.068.427-.102z"/></g><g><path fill="#2b2a29" d="M28.83 11.928c.044-.922.636-1.482 1.27-2.005.647-.532 1.421-.782 2.22-1.016 1.125-.33 2.268-.51 3.43-.61a.99.99 0 0 1 .413.046c-1.032.207-2.074.374-3.093.629-1.418.355-2.701.982-3.661 2.135-.214.256-.387.547-.578.821z"/></g><g><path fill="#2b2a29" d="M36.164 25.067c-.4-.127-.341-.364-.336-.555.028-1.093.048-2.188.114-3.28.043-.727.151-1.453.248-2.177.036-.27.11-.628.451-.575.385.061.223.426.205.683a2702.43 2702.43 0 0 1-.286 4.444c-.018.297-.01.602-.08.887-.049.205-.208.383-.317.574z"/></g><g><path fill="#2b2a29" d="M33.093 18.296c-.092.828-.186 1.573-.254 2.32-.027.294-.007.593.008.887.02.413.024.418-.433.744-.02-.25-.072-.468-.052-.68.088-.952.198-1.902.297-2.852.026-.242.098-.434.434-.419z"/></g><g><path fill="#2b2a29" d="M52.62 21.777c-.338-1.565-.37-3.006.052-4.438l.164-.019c.042.138.114.273.121.412.046.841.076 1.683.116 2.524.005.11.02.225.062.326.228.569.196.67-.514 1.195z"/></g><g><path fill="#2b2a29" d="M56.647 35.68c-.514-.137-.457-.493-.474-.75-.04-.57-.015-1.144-.024-1.715-.005-.411-.02-.822-.03-1.233-.004-.112-.057-.251-.008-.33.098-.161.242-.402.38-.412.294-.02.24.275.236.467-.02 1.297-.05 2.592-.078 3.974z"/></g><g><path fill="#2b2a29" d="M54.96 17.065c.315.291.265.621.264.93-.004.914-.027 1.827-.023 2.74 0 .236-.096.36-.306.36-.258.002-.26-.18-.23-.388.155-1.067.21-2.136.056-3.21a.525.525 0 0 1 .049-.261c.023-.054.093-.086.19-.17z"/></g><g><path fill="#2b2a29" d="M38.14 47.175h.001zm-1.356-1.3c.026-.837.573-1.29 1.528-1.265.76.02 1.181.442 1.187 1.194.008.804-.56 1.377-1.358 1.37-.8-.007-1.38-.562-1.357-1.298zm1.073-.691c-.354.4-.37.565-.104.801.304.27.535.206.933-.28l-.828-.521z"/></g><g><path fill="#2b2a29" d="M35.97 50.137c0 .167.028.34-.006.5-.23 1.144-2.393 7.463-2.688 7.833-.172-.24-.114-.488-.05-.711.623-2.148 1.255-4.293 1.886-6.438.019-.063.055-.173.083-.174.496-.001.315-.458.464-.688.067-.103.093-.234.136-.352.059.01.117.02.174.032z"/></g><g><path fill="#2b2a29" d="M31.109 57.497c.002.395-.212.694-.74.742-.354.034-.723-.028-1.08-.087-.115-.018-.252-.14-.307-.25-.504-1.026-.053-2.057 1.033-2.16.462-.043.928.275 1.003.727.049.292.054.59.09 1.026zm-.605-.298c.016-.265-.378-.954-.539-.944-.25.014-.578.485-.586.843-.008.334.2.549.546.56.307.009.563-.195.579-.46z"/></g><g><path fill="#2b2a29" d="M34.808 48.622c.016.468-.285.53-.622.575-.38.05-.77.09-1.134.2-1.122.34-1.738 1.115-1.876 2.275-.014.11-.041.218-.083.428-.454-.686-.482-1.29-.102-1.897.61-.98 2.159-1.874 3.519-1.713.104.013.201.087.298.132z"/></g><g><path fill="#2b2a29" d="M36.024 56.514c.585-2.926 1.848-5.608 2.977-8.34.323.091.316.244.23.44-.639 1.435-1.315 2.854-1.894 4.313-.41 1.033-.68 2.123-1.016 3.186-.047.146-.106.29-.16.435l-.136-.034z"/></g><g><path fill="#2b2a29" d="M28.779 55.368c0-.398.282-.547.565-.578.492-.053.992-.037 1.488-.02.096.004.188.15.28.23-.109.093-.208.204-.331.27-.068.037-.178-.01-.267-.005-.555.03-1.11.065-1.735.103z"/></g><g><path fill="#2b2a29" d="M38.559 43.839l-2.156.74c-.173-.234-.003-.366.161-.49.421-.32 1.384-.476 1.995-.25z"/></g><g><path fill="#2b2a29" d="M39.376 52.6c.085-.812.452-1.438.58-2.264"/></g><g><path fill="#2b2a29" d="M40.406 49.247c.234.31-.02.448-.209.61"/></g><g><path fill="#2b2a29" d="M41.017 48.22l-.253.538c-.043-.017-.086-.034-.128-.053.07-.186.138-.374.206-.561l.175.075z"/></g><g><path fill="#2b2a29" d="M41.177 47.47c.039-.135.076-.27.113-.402l.11.036-.146.386-.078-.02z"/></g><g><path fill="#2b2a29" d="M5.497 33.446c-.555.89-1.076 1.713-1.585 2.543-.128.21-.258.368-.59.284.027-.14.018-.28.078-.376.481-.75.978-1.49 1.462-2.239.156-.24.333-.355.634-.212z"/></g><g><path fill="#2b2a29" d="M64.44 33.573c-.054-.164-.13-.302-.141-.445a158.128 158.128 0 0 1-.25-3.598c-.009-.146.094-.395.196-.428.245-.074.382.146.398.356.042.52.053 1.043.06 1.566.008.635-.032 1.27.193 1.885.132.358-.08.543-.456.665z"/></g><g><path fill="#2b2a29" d="M61.749 32.51c.02.354.053.942.084 1.53.004.066.013.154-.023.197-.081.098-.184.231-.287.24-.077.006-.228-.154-.24-.253-.039-.292-.019-.59-.031-.886-.029-.658-.07-1.314-.094-1.972a2.834 2.834 0 0 1 .03-.608c.04-.216.176-.42.413-.335.118.042.236.273.237.42.004.477-.047.954-.09 1.669z"/></g><g><path fill="#2b2a29" d="M61.282 16.01c.01.207.05.416.03.618-.081.744-.2 1.486-.27 2.231-.03.328.025.663.045 1.07-.172.104-.354.102-.38-.234-.038-.496-.087-.994-.064-1.488.029-.565.123-1.13.208-1.692.028-.182.118-.355.179-.534l.252.029z"/></g></g></g></svg>