<svg xmlns="http://www.w3.org/2000/svg" width="77" height="70" viewBox="0 0 77 70"><g><g><g><path fill="#2b2a29" d="M73.777 8.48c1.55.285 2.371 1.689 2.441 3.132.03.662-.04 1.327-.066 1.99-.005.147-.028.296-.025.443.028 1.35.079 2.702.082 4.053 0 .883-.086 1.765-.105 2.648-.032 1.494-.068 2.99-.054 4.484.012 1.404.105 2.806.128 4.208.012.759-.16 1.534-.048 2.273.116.777-.145 1.263-.638 1.812-1.085 1.21-2.27 2.234-3.841 2.748-1.073.352-2.136.737-3.206 1.096-1.186.399-2.36.854-3.569 1.158-1.45.365-2.93.621-4.408.874a22.62 22.62 0 0 1-2.549.26c-1.517.083-3.036.11-4.552.186-.998.05-1.994.155-2.994.211-.482.028-.97.014-1.455.003-1.402-.032-2.804-.07-4.206-.11-.786-.022-1.572-.092-2.357-.068-2.085.066-4.159-.188-6.241-.216-.73-.01-1.456-.177-2.185-.258-.284-.032-.571-.03-.857-.042l-.072.153c.382.357.739.75 1.153 1.062.942.71 1.867 1.448 2.947 1.96.372.176.676.49 1.025.719 1.295.846 2.59 1.692 3.899 2.515.327.206.738.28 1.067.485.995.62 1.936 1.338 2.964 1.9 1.054.576 1.967 1.347 2.98 1.972.923.57 1.28 1.513 1.71 2.415.03.062.03.151.01.218-.257.89-.296 1.843-.892 2.636-.44.583-.941 1.15-1.076 1.914-.02.113-.112.218-.177.322-1.129 1.87-2.245 3.749-3.396 5.605-.621 1.004-1.307 1.97-1.958 2.955-.351.535-.663 1.1-1.04 1.614-.597.811-1.205 1.628-2.169 2.047-.258.111-.561.18-.84.169a4.432 4.432 0 0 1-2.354-.74c-1.763-1.169-3.554-2.294-5.314-3.468a5.24 5.24 0 0 1-1.833-2.097c-.473-1-1.336-1.554-2.146-2.16-1.24-.926-2.554-1.753-3.836-2.625-1.545-1.051-3.1-2.093-4.631-3.165-1.73-1.21-3.52-2.333-5.056-3.814-1.077-1.039-2.271-1.96-3.427-2.915-.16-.132-.413-.155-.651-.238-.126-.24-.243-.56-.437-.823a15.565 15.565 0 0 0-2.465-2.639c-.33-.28-.573-.665-.847-1.009-.783-.98-1.623-1.922-2.327-2.956-.62-.91-1.124-1.907-1.614-2.898-.424-.856-.8-1.744-1.114-2.646-.238-.688-.362-1.418-.505-2.136-.138-.69-.207-1.384-.528-2.043-.258-.53-.05-1.123.152-1.65.567-1.467 1.178-2.917 1.742-4.385.194-.502.263-1.052.456-1.554.369-.965.784-1.913 1.183-2.868.056-.137.125-.268.179-.405.827-2.182 1.62-4.376 2.491-6.54.4-.996.88-1.958 1.476-2.871.56-.86.95-1.827 1.439-2.736.257-.476.519-.96.853-1.38.597-.753 1.513-.9 2.454-1.254 0 .337.061.57-.012.747-.17.406-.352.829-.629 1.164-.336.409-.497.826-.389 1.415l.66-.792c.074.159.132.234.146.318.097.525.14 1.065.285 1.576.142.493.42.913.82 1.283 1.133 1.045 2.481 1.645 3.927 2.083.753.23 1.49.515 2.242.749 1.102.342 2.21.674 3.321.988 1.065.3 2.13.613 3.21.85 1.39.304 2.797.545 4.199.804.991.183 1.983.368 2.98.52.85.131 1.707.22 2.562.32.733.086 1.466.176 2.203.238 1.022.084 2.04.27 3.073-.003.391-.104.827-.04 1.244-.047 1.058-.017 2.12.005 3.177-.056 1.006-.059 2.007-.223 3.014-.302.657-.05 1.322-.043 1.982-.039 1.557.008 3.097-.168 4.634-.417 2.38-.385 4.768-.712 7.142-1.123.99-.17 1.955-.491 2.927-.757.102-.028.171-.157.265-.229.148-.114.287-.265.457-.32.978-.323 1.982-.574 2.941-.943.542-.207 1.015-.59 1.517-.894.19-.115.384-.223.571-.341.552-.346.576-.422.366-1.22-.224.107-.451.187-.65.314-.93.588-1.98.865-3.021 1.163-1.037.296-2.076.59-3.118.872-1.04.282-2.079.574-3.128.82-.667.156-1.359.203-2.025.362-1.29.309-2.555.728-3.854.974-.91.171-1.86.165-2.794.18-1.865.031-3.733.034-5.598.027-2.533-.009-5.068.012-7.599-.077-1.468-.052-2.928-.338-4.397-.444-2.083-.15-4.172-.212-6.257-.35-.556-.037-1.104-.208-1.655-.32-1.203-.247-2.403-.505-3.609-.739-.566-.11-1.155-.13-1.71-.276-1.14-.3-2.26-.67-3.298-1.251-.685-.384-1.348-.775-2.16-.901-.81-.126-1.535-.52-2.151-1.083a6.596 6.596 0 0 0-.625-.52c-.687-.493-1.029-1.12-1.029-1.999 0-1.113.217-2.033 1.326-2.573.452-.22.802-.641 1.244-.89.499-.28 1.01-.51 1.608-.624.808-.155 1.565-.574 2.34-.888.074-.03.12-.128.132-.319-.543.092-1.096.146-1.624.289-.522.14-1.023.358-1.524.562-.524.214-1.028.48-1.56.669-.473.168-.846.59-1.362.642l-.092-.147c.1-.118.178-.282.306-.348.698-.364 1.425-.67 2.108-1.056.958-.543 2.009-.77 3.06-1.02 1.912-.454 3.807-1.006 5.738-1.35 2.179-.388 4.39-.57 6.607-.653C32.559.572 34.1.388 35.646.297c1.819-.106 3.638-.191 5.457-.249 1.354-.042 2.71-.07 4.063-.025 1.426.047 2.852.155 4.274.291 2.525.242 5.049.502 7.567.802 1.173.14 2.336.368 3.496.6 1.593.319 3.186.647 4.763 1.03.882.216 1.742.529 2.599.835.855.306 1.709.625 2.535 1a14.83 14.83 0 0 1 2.074 1.12c.492.326.848.818.983 1.428.1.455.214.907.318 1.353zM44.398 48.568a.966.966 0 0 1 .006.022h.031a1.929 1.929 0 0 0-.015-.016 1.268 1.268 0 0 1-.022-.006zm.824.615c-.177-.314-.38-.596-.787-.594.23.243.409.551.787.594zm-1.94-1.511c.325.358.62.754 1.116.896-.163-.56-.742-.602-1.116-.896zM13.713 18.299l.001-.002-.002-.002zm.146-.33c.044-.977.08-1.956.094-2.933 0-.103-.16-.208-.3-.378 0 1.187-.002 2.23.003 3.275 0 .117.042.233.065.35.052-.104.133-.207.138-.314zm-.138.314a.686.686 0 0 0-.007.014l.007.009.002-.014a.976.976 0 0 0-.002-.009zm-.108 1.326c0 .23.08.49.207.681a38.15 38.15 0 0 0 1.52 2.167c.486.633 1.03 1.223 1.548 1.832l.19-.061c.165-1.326.106-2.661.076-4-.032-1.346-.007-2.696-.007-4.181-.438.927-.401 1.78-.368 2.655-.164-.23-.278-.467-.31-.716-.081-.635-.117-1.275-.192-1.911-.018-.142-.116-.273-.21-.48-.437.456-.476.972-.548 1.42-.075.469.064.971.11 1.456-.202-.121-.393-.28-.43-.468a6.678 6.678 0 0 1-.118-1.315c.004-.366.108-.73.143-1.097.034-.369-.158-.47-.518-.386-.056.532-.124 1.04-.16 1.551-.039.556-.25 1.112.007 1.675.033.074-.04.257-.117.305-.081.05-.256.039-.335-.019-.149-.108-.259-.267-.38-.411-.041.434-.11.869-.108 1.303zm-4.51-4.301a.58.58 0 0 1-.014-.025l-.007.009-.017.043c.012-.009.025-.018.039-.026zm-.673 1.065c-.033.337-.287.481-.555.472-.304-.012-.255-.286-.234-.507-.316-.142-.564-.188-.703-.335-.223-.237.058-.435.147-.651.37-.884.725-1.771 1.071-2.664.09-.234.13-.49.191-.734-.577.49-.882 1.135-1.15 1.777-.531 1.267-.999 2.558-1.494 3.84-.664 1.72-1.337 3.437-1.992 5.16-.479 1.258-.935 2.526-1.38 3.733.524.628.52.624.14 1.2-.216.329-.448.655-.609 1.01-.173.381-.462.736-.427 1.329.139-.205.21-.298.27-.4.33-.549.65-1.101.983-1.648.174-.286.399-.474.856-.275-.508.418-.943.811-1.058 1.454l.573.203c-.583.68-1.11 1.32-1.21 2.3.338-.394.593-.723.882-1.018.189-.191.426-.351.66-.025-1.244 1.386-1.987 2.72-1.918 3.516.539-.989.826-2.152 2.13-2.328.739-1.214 1.082-2.55 1.454-3.877.058-.213.117-.428.2-.631.382-.933.774-1.862 1.16-2.792.387-.932.778-1.863 1.155-2.798.368-.91.702-1.833 1.085-2.736a64.959 64.959 0 0 1 1.4-3.076c.145-.298.26-.554.113-.99-.188.265-.35.446-.457.653-.484.934-.949 1.878-1.43 2.815-.065.127-.176.23-.366.47-.054-.71.183-1.164.378-1.628.26-.618.515-1.237.77-1.857-.369.247-.59.587-.635 1.038zm-.79-.035l.016.007a.778.778 0 0 1-.015-.025v.017zm2.274-2.13c.064-.094.009-.269.009-.552-.28.385-.487.6-.61.855-.113.237-.376.456-.224.772.279-.357.569-.704.825-1.075zM7.64 16.32c-.002-.03-.033-.058 0 0zm41.84-13.893l.048.245c-.276.039-.551.098-.829.114-.515.03-1.03.032-1.544.053-.343.015-.687.047-1.032.06-1.511.06-3.025-.335-4.537.019-.07.017-.147.013-.22.015-1.571.033-3.14-.006-4.705.235-1.016.156-2.055.162-3.081.25-1.345.117-2.688.24-4.03.38-1.442.152-2.884.307-4.32.505-.801.11-1.584.397-2.388.458-1.879.146-3.448 1.096-5.101 1.835-.2.088-.392.225-.542.382-.44.468-.87.952-.768 1.676.168 1.214.91 1.95 2.122 2.542-.188-.594-.287-1.049-.474-1.462-.207-.455-.134-.822.095-1.25.457-.86 1.19-1.37 2.04-1.72.93-.383 1.896-.678 2.837-1.038 2.297-.878 4.688-1.042 7.117-.989.909.02 1.82-.025 2.73-.067.662-.03 1.334-.199 1.981-.124.771.09 1.524.081 2.276-.03 1.223-.183 2.445-.26 3.68-.183.538.034 1.08.015 1.62.01.69-.007 1.378-.046 2.066-.027 1.18.03 2.36.095 3.54.15.106.005.212.041.458.093-.242.14-.356.258-.476.264-.463.022-.928.014-1.392.009-1.204-.015-2.407-.035-3.61-.052-.787-.01-1.573-.019-2.359-.034-.882-.016-1.754-.033-2.635.158-.765.167-1.564.2-2.35.235-.533.024-1.077-.115-1.606-.068-1.396.126-2.784.23-4.19.213-1.075-.015-2.155.143-3.227.268-1.701.2-3.301.758-4.848 1.472-.944.436-1.704 1.074-2.113 2.063-.46 1.112-.04 2.413 1.016 2.98a16.57 16.57 0 0 0 2.02.886c1.57.588 3.19 1 4.851 1.248.876.131 1.738.36 2.616.464 1.98.234 3.963.422 5.945.624 2.865.289 5.739.409 8.617.386.197-.001.394-.063.602-.097-.127-.463-.426-.404-.69-.421-.712-.048-1.425-.087-2.136-.15-.325-.028-.638-.126-1.058-.421.352-.063.532-.116.714-.123.245-.01.492.033.735.024 1.127-.044 2.252-.093 3.378-.154.76-.04 1.525-.065 2.278-.16.524-.066 1.034-.238 1.55-.362-.57-.14-1.126-.157-1.68-.135-.44.017-.876.09-1.316.119-.612.04-1.224.073-1.837.088-.96.023-1.92.036-2.88.039-1.1.004-2.206-.06-3.305 0-1.273.07-2.498-.115-3.711-.456-.623-.175-1.08-.585-1.44-1.101-.347-.5-.272-.959.25-1.255a12.705 12.705 0 0 1 1.786-.865c1.46-.55 2.966-.909 4.54-.898.22.001.442-.038.663-.063 1.37-.16 2.737-.32 4.125-.2 1.005.088 2.015.122 3.023.176 1.553.083 3.151-.214 4.627.544.147.075.342.045.506.096.695.215 1.373.477 2.084.877-.168.223-.289.38-.417.552-.263-.183-.449-.35-.663-.456-.937-.461-1.938-.69-2.972-.8-1.94-.208-3.876-.248-5.818-.003-1.044.13-2.104.135-3.152.247-.927.1-1.855.24-2.77.42-.649.127-1.294.314-1.912.549-.292.112-.703.265-.685.684.021.479.47.58.82.742.087.04.191.052.289.059.54.037 1.08.083 1.62.096.763.02 1.53-.023 2.29.026 1.571.1 3.136.328 4.712.081.045-.007.095.023.143.025.438.033.878.103 1.314.086 1.23-.047 2.46-.132 3.69-.2.214-.012.456-.074.557.268-.447.63-1.265.242-1.979.675.588.08 1.022.215 1.443.182 1.218-.096 2.334-.536 3.38-1.156.694-.41.958-1.028.855-1.932.294.073.67.058.75.204.35.645.654 1.328.384 2.103-.266.762-.896 1.127-1.594 1.293-.857.204-1.746.284-2.624.382a5.477 5.477 0 0 0-1.839.528c1.15.253 2.299.144 3.44.088.554-.027 1.116-.194 1.642-.387.896-.33 1.761-.75 2.653-1.1.688-.269 1.049-.788 1.232-1.463.134-.497.043-.741-.413-.973-.414-.21-.85-.38-1.286-.542-.764-.285-1.535-.55-2.304-.825.307-.159.643-.286.913-.202 1.029.321 2.108.515 3.057 1.068.781.456.932.88.609 1.722-.118.304-.254.604-.445 1.057.929-.394 1.417-.981 1.737-1.715.284-.65.332-1.29-.227-1.848-.04-.042-.032-.13-.045-.195.496-.16.754-.067.929.367.291.72.132 1.405-.226 2.056-.191.349-.423.676-.636 1.011.477-.117.91-.264 1.248-.529.708-.556 1.188-1.312 1.07-2.23-.17-1.329-1.01-2.5-2.534-2.679-.302-.035-.594-.147-.891-.222l.041-.183c.96-.195 1.89.003 2.668.573 1.223.897 1.73 2.146 1.31 3.79.94-.463 1.338-1.207 1.748-2.01.345.44.227.75-.028 1.06-.238.287-.466.58-.7.873l.113.103c.203-.127.432-.226.603-.386.416-.392.857-.847.814-1.433-.057-.77-.353-1.49-1.128-1.868-.597-.29-1.192-.584-1.803-.844-.633-.268-1.272-.545-1.935-.723-.338-.09-.785.153-1.087.022-.358-.155-.675-.357-1.087-.376-.315-.015-.63-.096-.934-.187-.1-.03-.163-.183-.327-.384.668.058 1.199.16 1.724.137 1.009-.042 1.938.218 2.853.595.977.402 1.945.838 2.942 1.184.622.215.999.584 1.208 1.187.09.256.233.494.353.741a9.71 9.71 0 0 0 .187-.05c.012-.49.135-1.012.008-1.463-.13-.457-.506-.844-.802-1.305.671.009 1.088.46 1.634 1.543.635 1.26.105 2.287-.582 3.298.042.002.091.017.13.004 1.287-.455 2.318-1.226 3.172-2.311.56-.714.705-1.406.346-2.183-.235-.506-.59-.96-.917-1.417-.07-.099-.251-.123-.384-.173-.43-.166-.874-.302-1.29-.496-.797-.373-1.577-.78-2.366-1.166-.062-.03-.146-.01-.217-.026-.309-.075-.623-.14-.925-.236-.56-.177-1.104-.431-1.676-.553-1.708-.362-3.425-.68-5.142-1.005a55.567 55.567 0 0 0-2.606-.45c-1.096-.154-2.198-.261-3.297-.404-.754-.1-1.5-.265-2.255-.326A179.813 179.813 0 0 0 46.14.705c-1.37-.073-2.746-.16-4.117-.126-1.421.036-2.835.208-4.264.166-.855-.026-1.715.07-2.57.145-.856.075-1.708.193-2.562.285-.439.047-.877.092-1.315.108-.442.015-.885-.037-1.324-.008-.735.05-1.475.093-2.198.226-.977.182-2.026.114-2.884.767-.103.08-.285.073-.43.071-.64-.007-1.196.253-1.75.524a5 5 0 0 1-.536.234c-1.555.544-3.113 1.077-4.666 1.625-.487.171-.988.33-1.432.582-.85.48-1.732.95-1.848 2.106-.086.865.144 1.576.9 2.25.066-.52.125-.924.165-1.332.056-.557.226-1.08.638-1.46.688-.637 1.447-1.185 2.324-1.535 1.324-.53 2.705-.853 4.091-1.19 3.06-.747 6.172-.943 9.29-1.162 1.94-.137 3.875-.332 5.812-.5.17-.015.342-.035.514-.042 1.541-.057 3.086.176 4.627-.119.421-.08.884-.009 1.32.051 1.222.169 2.437.245 3.672.067.616-.09 1.257-.015 1.885-.015zm-2.944 36.814c.05-.13.131-.26.147-.398.114-.928.214-1.858.317-2.786.031-.268.03-.543.095-.803.027-.107.19-.18.29-.268.067.135.135.27.198.407.008.018-.015.046-.017.071-.1.829-.222 1.655-.293 2.486-.038.436-.015.886.262 1.284h.766c.244-1.597-.372-18.386-.717-19.641-.39-.051-.778-.297-1.293.009 0 .334-.004.723 0 1.112.008.936.02 1.871.03 2.807.003.24-.048.433-.385.415-.046-1.46-.093-2.903-.14-4.343-.65-.173-.8-.155-.84.187-.132 1.144-.32 2.295-.057 3.444.076.327.147.616-.309.937-.037-.094-.084-.183-.11-.278-.357-1.358-.222-2.725-.04-4.08-.844-.233-1.002-.184-1.127.557-.131.77-.151 1.56-.234 2.34-.044.412-.1.825-.186 1.228-.02.093-.183.154-.376.302-.112-1.537.097-2.94.208-4.36-.151-.033-.244-.066-.339-.072-.628-.034-.628-.004-.753.609a6.072 6.072 0 0 0-.083 2.125c.055.383.036.788-.02 1.173-.05.333-.183.656-.314.97-.028.066-.21.102-.314.09-.063-.008-.143-.13-.16-.212a.976.976 0 0 1 .015-.368c.198-1.001.154-2.01.125-3.02-.014-.459-.002-.917-.002-1.433-.96-.288-2.017-.197-3.067-.183-.348.005-.433.221-.517.507-.347 1.18-.348 2.371-.182 3.574.047.34-.01.631-.467.72-.168-1.594-.006-3.15.13-4.73-.854-.332-1.69-.45-2.537-.486-.375.762-.291 1.537-.314 2.292-.015.484-.003.976.074 1.452.081.512.05.597-.631.724-.04-.262-.127-.528-.11-.787.072-1.103.177-2.204.269-3.307.037-.434-.01-.493-.461-.568-.556-.092-.722-.025-.782.383-.166 1.129-.072 2.257.126 3.373.106.603.004.874-.726 1.21v-2.278l-.154.006c-.103 1.293-.16 2.587-.104 3.889.09 2.086.182 4.174.238 6.262.02.733-.08 1.47-.096 2.205-.02.882-.022 1.764-.004 2.646.006.31.093.618.144.928l.155-.02c.044-.587.103-1.171.127-1.76.013-.328.081-.566.544-.603.043 1.089-.16 2.125-.251 3.231l1.075.157c.106-.811.194-1.54.297-2.267a3.07 3.07 0 0 1 .182-.711c.032-.08.206-.16.298-.144.087.013.186.145.214.244.03.11.01.249-.028.362-.286.85-.292 1.722-.253 2.604.214.078.354.072.39-.178.071-.51.157-1.02.224-1.531.056-.44.072-.886.152-1.32.024-.137.197-.247.3-.368.126.13.324.243.36.394.047.199-.01.434-.061.645-.2.818-.29 1.636-.088 2.518h1.1c0-.668.014-1.279-.003-1.89-.01-.416-.08-.833-.084-1.25-.002-.114.155-.332.21-.323.143.023.352.12.387.233.078.253.083.532.083.8 0 .587-.076 1.173.202 1.74.121.247.085.547-.325.58-.065.005-.126.085-.233.165 1.154.226 1.262.134 1.312-.873.073-1.448.17-2.897.267-4.345.013-.192.065-.391.143-.569.041-.094.183-.21.266-.2.126.016.26.112.35.21.055.06.04.19.046.285.052 1.034.139 2.065.14 3.099.001.632-.142 1.264-.2 1.897-.045.487.08.6.704.606 0-.341-.015-.683.002-1.023.036-.664.073-1.33.151-1.988.018-.145.206-.364.333-.377.25-.026.28.207.274.42-.025.836-.048 1.671-.061 2.507-.003.163.038.329.063.53h.77c.044-.179.108-.34.118-.506.05-.783.089-1.568.122-2.351.015-.33-.008-.674.544-.58.12.564-.013 1.116-.072 1.672-.059.575-.102 1.15-.154 1.763h.757c.308-1.027.526-2.048.433-3.121-.011-.123.144-.26.223-.39.113.108.306.205.322.326.045.334.04.681.012 1.02-.06.725-.148 1.45-.23 2.222l1.46.118v-3.102c0-.538.141-.626.71-.463l-.097 3.585h1.143zm-27.893 6.28c-.048.107-.07.206-.126.279-.67.86-1.157 1.817-1.577 2.822-.212.51-.59.948-.83 1.448-.295.615-.526 1.261-.782 1.896-.025.062-.014.14-.025.246l.516.408c.28-.388.554-.727.783-1.095.298-.48.536-.998.84-1.475.315-.49.673-.956 1.35-1.115.05.702-.592.885-.85 1.314-.282.462-.616.894-.862 1.374-.241.47-.4.984-.614 1.523l.838.574.21-.376c.46-.84.91-1.685 1.388-2.512.106-.184.3-.324.473-.455.167-.127.37-.183.52.027.137.188.1.358-.093.508-.836.652-1.18 1.618-1.57 2.543-.215.505-.025.881.48 1.114.083-.11.191-.214.254-.341.354-.703.675-1.425 1.057-2.112.198-.354.48-.674.773-.958.072-.071.335.055.512.09-.054.145-.066.343-.168.43-.905.757-1.329 1.812-1.76 2.852-.205.496-.118.587.472.86.103-.215.196-.434.31-.642.379-.689.762-1.376 1.151-2.059.17-.299.346-.596.543-.878.124-.177.297-.262.543.006-.716 1.243-1.226 2.625-2.26 3.76.48.383.91.768 1.531.935.358-.615.722-1.196 1.041-1.8.865-1.627 1.708-3.267 2.565-4.899.651-1.24 1.282-2.494 1.976-3.711.84-1.472 1.734-2.914 2.614-4.363.37-.61.76-1.207 1.137-1.812.305-.49.277-.62-.202-.972-.095-.07-.205-.117-.371-.21-.627 1.154-.961 2.496-2.303 3.227-.012-.236-.063-.375-.015-.452.194-.311.384-.64.64-.897.591-.595.895-1.348 1.234-2.085.027-.059-.039-.162-.084-.32-.182.154-.34.239-.425.37-.564.86-1.112 1.732-1.664 2.6-.039.062-.05.154-.106.192-.108.076-.235.124-.354.183-.059-.12-.191-.26-.164-.357.077-.282.183-.57.343-.813.433-.656.897-1.292 1.354-1.934.51-.712.41-1.018-.448-1.33-.665.937-1.327 1.884-2.003 2.818-.096.132-.265.211-.4.314-.053-.032-.105-.066-.159-.098.026-.2 0-.425.087-.592.147-.28.364-.524.553-.78l1.632-2.228-.81-.838a4.844 4.844 0 0 0-1.293 1.509c-.22.383-.436.768-.662 1.146-.135.226-.303.396-.592.228-.005-.602 1.024-2.3 1.98-3.246l-.79-.656c-.538.82-1.17 1.504-1.576 2.35-.138.287-.27.585-.772.497.17-1.434 1.316-2.268 1.985-3.373l-.537-.66c-.194.207-.315.297-.389.418-.537.88-1.07 1.765-1.592 2.655-.478.817-.815 1.709-1.287 2.53-.156.27-.26.6-.731.5.012-.148-.007-.3.041-.427.193-.506.43-.993.602-1.505.15-.456.648-.861.255-1.426-.036-.052.022-.187.062-.272.16-.331.31-.67.502-.982.386-.628.81-1.234 1.192-1.863.146-.24.441-.527-.074-.852-.216.265-.452.508-.629.788-.263.415-.474.863-.725 1.288a6.509 6.509 0 0 1-.582.851c-.06.073-.296.09-.374.03-.082-.063-.107-.254-.086-.377.02-.107.143-.194.213-.295.519-.749 1.03-1.501 1.556-2.244.192-.272.167-.512-.06-.722-.138-.13-.321-.213-.504-.33-.127.161-.248.286-.332.43-.458.789-.913 1.577-1.355 2.374-.095.17-.132.426-.389.33-.277-.103-.222-.34-.115-.56.15-.308.271-.632.444-.928.397-.679.818-1.343 1.274-2.086l-.892-.686c-.603 1.058-1.15 2.008-1.687 2.965-.148.266-.314.426-.639.283-.016-.093-.056-.172-.036-.232.427-1.253 1.277-2.247 2.095-3.34l-.757-.593c-.133.165-.224.25-.282.355-.48.859-.965 1.713-1.42 2.584-.16.31-.3.557-.792.35l2.14-3.743a469.5 469.5 0 0 1-.728-.823c-.165.272-.308.46-.4.67-.833 1.887-1.61 3.8-2.498 5.66-.742 1.554-1.451 3.116-2.08 4.719-.573 1.46-1.526 2.756-1.91 4.304-.056.228-.157.446-.292.82.271-.176.403-.264.538-.349.129-.08.261-.156.39-.234-.907 1.443-1.665 2.911-2.166 4.515a.428.428 0 0 0 .28-.202c.517-.923 1.02-1.853 1.545-2.772.144-.252.334-.486.53-.703.147-.161.337-.193.552.063-.242.31-.534.607-.734.957-.462.814-.88 1.652-1.31 2.484a3.53 3.53 0 0 0-.228.545c-.082.251.028.433.257.54.219.103.375.014.487-.187.131-.238.276-.467.403-.705.32-.608.608-1.239.962-1.827.247-.411.587-.768.88-1.145.495.36.533.49.248.846-.198.25-.448.456-.653.7-.677.802-.987 1.8-1.43 2.727-.046.099.081.282.128.429.685-.253.883-.828 1.195-1.317.409-.643.835-1.277 1.304-1.878.27-.344.35-.308.755.035-.506.66-1.02 1.314-1.515 1.984a3.03 3.03 0 0 0-.433.764c-.134.373-.2.77-.312 1.22l1.053.853c.731-1.354 1.414-2.626 2.107-3.896.294-.54.572-1.092.917-1.597.228-.333.536-.658 1.074-.47zm36.451-19.347V18.88c-.387-.108-.508.044-.52.31-.018.344-.033.69-.022 1.035.024.91.057 1.82.1 2.73.017.352-.03.627-.533.673v-4.613c-.629-.196-.766-.175-.804.209-.07.705-.117 1.418-.115 2.126.002.686.091 1.371.11 2.058.004.131-.139.266-.214.4-.11-.112-.227-.218-.322-.34-.04-.053-.039-.142-.04-.216a872.8 872.8 0 0 1-.047-3.24c-.004-.311 0-.624 0-1.07-.251.15-.492.207-.538.335-.149.41-.301.84-.316 1.269-.035.957.01 1.915.026 2.873.004.217.052.445-.266.603-.089-.127-.232-.245-.257-.385a5.376 5.376 0 0 1-.09-1.025c.01-.937.053-1.873.069-2.808.01-.533-.131-.634-.682-.516-.07.015-.132.059-.191.087-.294.533-.255 1.102-.238 1.666.025.786.047 1.572.1 2.357.032.46-.146.779-.493 1.042-.333-.147-.28-.398-.274-.644.035-1.255.067-2.511.09-3.768.002-.163-.055-.327-.082-.48-.656-.032-.83.107-.817.732.016.763.131 1.525.113 2.285-.036 1.528.11 3.045.208 4.563.111 1.74.205 3.478.158 5.222-.013.516.035 1.032.05 1.549.023.905.054 1.811.062 2.716.005.54-.063 1.082-.03 1.617.025.388.162.769.25 1.152.18-.156.25-.305.26-.457.063-1.053.11-2.109.171-3.162.016-.282-.007-.612.524-.632 0 .258.021.489-.004.715-.084.707-.197 1.412-.277 2.12-.053.463-.093.934.269 1.307.38.048.497-.146.519-.468.05-.788.11-1.573.173-2.36.018-.22.03-.446.09-.656.09-.314.291-.363.573-.148l-.068.578c-.087.732-.18 1.464-.254 2.2-.03.287-.043.589.402.768.046-.226.095-.398.115-.576.115-1.001.212-2.006.341-3.006.03-.227.086-.57.414-.494.32.072.232.378.164.621-.007.023-.025.044-.029.068-.136.8-.279 1.599-.4 2.4-.027.19-.014.399.034.587.068.266.262.403.554.381.287-.02.367-.204.376-.452.022-.566.054-1.132.062-1.697.01-.787-.008-1.576.02-2.362.004-.124.18-.335.291-.346.225-.021.327.155.312.396-.068 1.08-.137 2.161-.183 3.242-.015.376.036.754.061 1.2l.763-.114c.047-1.175.1-2.3.133-3.423.021-.74-.015-1.481.032-2.218.021-.323.17-.645.295-.955.072-.178.325-.163.406.017a.864.864 0 0 1 .073.353c-.008.886-.03 1.77-.04 2.657-.01 1.06-.007 2.118-.022 3.178-.005.413.182.522.575.41.025-.148.068-.29.072-.431.039-1.154.068-2.306.103-3.459.003-.098-.01-.251.041-.28.126-.074.33-.166.42-.112.12.073.226.277.222.421-.008.316-.091.627-.14.941-.12.773-.284 1.541-.34 2.32-.03.44.076.458.588.321.078-1.21.154-2.41.233-3.612.009-.147.001-.304.052-.436.037-.096.152-.217.239-.223.09-.007.26.096.275.175.043.206.046.427.02.637-.13 1.05-.27 2.097-.403 3.096.616.584.616.584 1.278.318-.034-.941-.082-1.895-.093-2.85-.005-.437.055-.875.1-1.312.022-.214.144-.422.372-.341.12.043.186.286.238.452.025.081-.033.19-.056.286-.253 1.062-.269 2.144-.247 3.226.009.534.128.64.69.59.514-.046 1.024-.138 1.536-.213.269-.039.543-.059.8-.135.342-.101.406-.406.094-.575-.276-.15-.315-.346-.335-.592-.023-.268-.055-.54-.047-.808.027-.96.104-1.92.095-2.878-.016-1.699-.093-3.396-.126-5.093-.062-3.469-.112-6.938-.172-10.407-.004-.183-.052-.366-.088-.612l-1.238.278.19 5.338c-.666-1.678-.521-3.479-.74-5.28l-1.623.282c0 .445.055.835-.01 1.203-.146.813-.118 1.61.014 2.421.044.274-.027.58-.1.857-.027.096-.218.148-.334.22-.08-.132-.226-.264-.226-.395-.002-.291.101-.581.107-.873.017-.933.009-1.867.012-2.799v-.594c-.74.159-1.44.172-2.059.494.07.362.166.646.171.933.02 1.156.033 2.314.007 3.468-.02.936-.096 1.869-.15 2.803-.02.338-.167.501-.613.348zM33.62 65.023l.156-.174c.562.33 1.126.655 1.684.99.231.14.436.39.678.431.429.074.69.325.98.6.227.218.503.392.779.547.31.173.64.123.9-.105.33-.29.667-.593.928-.946.465-.628.873-1.3 1.309-1.95.094-.141.192-.291.32-.398.078-.064.258-.107.321-.063.103.075.203.23.2.349 0 .128-.114.26-.195.38-.395.59-.799 1.176-1.197 1.762-.559.825-1.116 1.652-2.235 1.913.607.334 1.115.271 1.53-.293a48.014 48.014 0 0 0 2.013-2.995c.483-.768.814-1.644 1.364-2.354.53-.687.986-1.395 1.362-2.169.699-1.438 1.493-2.823 2.428-4.118.791-1.093 1.575-2.188 2.086-3.444.143-.351.173-.75.24-1.128.008-.052-.071-.119-.113-.187l-.385.212c-.272-.274-.375-.73-.915-.723.04.122.045.228.1.29.507.563.403 1.193.112 1.775-.38.766-.839 1.493-1.287 2.223-.065.107-.283.22-.385.187-.227-.072-.25-.29-.133-.488.276-.462.581-.91.846-1.38.203-.36.4-.731.525-1.122.059-.18.016-.485-.107-.616-.538-.57-1.062-1.187-1.705-1.621-1.23-.833-2.377-1.746-3.42-2.846l.141-.49c-.652-.477-1.435-.632-2.343-.516-1.641.211-2.42 1.486-2.051 2.946.054.215.09.433.139.65.147.653-.137 1.014-.784 1.077-1.11.108-2.18.378-3.151.953-1.489.879-2.136 2.65-1.605 4.337.067.208.215.5.13.628-.235.357-.152.724-.125 1.057-.436.045-.833.033-1.196.136-.5.142-.976.363-1.096.968a.813.813 0 0 1-.206.38c-.539.56-.438 1.277-.458 1.947-.008.26.163.587.355.78a124.324 124.324 0 0 0 3.366 3.299c.415.39.891.731 1.537.789l-1.441-1.484zM9.596 46.938h-.001a4.671 4.671 0 0 0-.005.007zm.18-.28c.84-2.019 1.645-4.053 2.526-6.054.813-1.845 1.716-3.648 2.558-5.48a185.637 185.637 0 0 0 2.004-4.509c.2-.468.3-.977.485-1.598-.55.517-.547 1.257-1.311 1.622.05-.298.036-.489.112-.63.502-.927 1.025-1.844 1.542-2.762.048-.086.147-.167.147-.251-.001-.129-.068-.257-.107-.385-.127.04-.267.057-.377.125-.073.047-.104.164-.153.249-.517.893-1.03 1.788-1.559 2.674-.073.123-.227.2-.343.297a8.817 8.817 0 0 0-.157-.083c.05-.215.05-.458.158-.637a82.072 82.072 0 0 1 1.65-2.621c.356-.541.375-.53-.18-1.003-.086.071-.204.13-.267.225-.488.735-.972 1.471-1.443 2.217-.158.248-.249.542-.423.775-.076.105-.28.113-.427.165-.01-.157-.082-.348-.018-.467.3-.562.626-1.11.961-1.653.324-.524.682-1.025.999-1.553.279-.466.263-.477-.294-.922-.45.743-.901 1.471-1.337 2.208-.213.36-.382.744-.604 1.098-.13.208-.325.285-.545.02.624-1.13 1.243-2.245 1.853-3.364.38-.695.318-.88-.48-1.368-.426.854-.868 1.695-1.268 2.554-.526 1.136-1.058 2.265-1.707 3.339-.165.274-.356.442-.794.366.082-.267.126-.503.224-.711.414-.893.875-1.766 1.263-2.67.406-.95.754-1.925 1.116-2.893.05-.13.025-.289.036-.433-.842.98-1.5 2.02-1.845 3.27-.414-.232-.33-.491-.212-.735.331-.686.687-1.361 1.013-2.051.278-.587.604-1.121 1.21-1.429.03-.016.033-.087.049-.132-.323-.501-.357-.516-.738-.18-.163.145-.306.321-.425.503-.202.308-.406.62-.56.952a39.226 39.226 0 0 0-.955 2.22c-.154.395-.228.476-.8.416.74-1.782 1.607-3.469 2.767-5.038-.142-.184-.27-.354-.473-.619-.452.538-.892.996-1.257 1.51-.612.861-1.16 1.765-1.478 2.79-.084.273-.472.47-.643.354-.314-.211-.087-.44.031-.635.93-1.531 1.871-3.056 2.86-4.67l-.354-.776c-.234.256-.436.408-.545.608-.543.99-1.055 1.997-1.595 2.988-.116.213-.307.384-.469.58-.36-.29-.288-.527-.133-.781.192-.314.384-.628.56-.953.536-.995.936-2.061 1.68-2.94.26-.307.197-.435-.281-.805-.18.346-.349.695-.544 1.029-.184.317-.418.607-.593.929-.293.54-.566 1.092-.83 1.646-.37.776-.732 1.552-1.08 2.335-.281.63-.543 1.266-.802 1.904-.558 1.366-1.128 2.727-1.658 4.104-.45 1.17-.834 2.366-1.279 3.538-.295.778-.655 1.532-.97 2.304-.108.267-.167.555-.247.833l.14.04c.233-.43.463-.862.698-1.293.262-.48.411-.577.897-.553-.631.868-1.165 1.759-1.377 2.814.283-.299.473-.673.756-.95.278-.273.408-.81 1.005-.717-.03.11-.029.2-.072.243-.846.829-1.31 1.9-1.823 2.932a1.06 1.06 0 0 0-.038.761c.161.426.425.813.672 1.266.411-.298.679-.629.894-1.02.283-.519.593-1.023.889-1.533.302-.524.65-.952 1.39-.618.179-.358.338-.685.505-1.007.136-.262.263-.53.43-.77.157-.226.39-.309.64-.13.241.171.173.433.054.598-.584.81-.847 1.76-1.251 2.65-.548 1.208-1.172 2.38-1.755 3.573-.06.122-.065.272-.095.41.17-.079.223-.183.282-.283.495-.847.976-1.7 1.492-2.532.206-.33.496-.6.98-.505-.209.24-.448.43-.58.678-.482.902-1.28 1.64-1.41 2.727-.014.106-.132.202-.21.294-.24.28-.102.427.25.603.517-.762 1.029-1.506 1.527-2.259.163-.244.269-.53.445-.764.274-.362.492-.346.893.039-.632.33-.911.933-1.216 1.52-.137.263-.306.505-.465.755l-.913 1.422.675.413c.26-.45.474-.832.697-1.207.388-.654.756-1.32 1.182-1.949.255-.377.426-.365.85-.103-.055.08-.092.182-.166.231-.601.403-.94.992-1.212 1.636-.086.203-.223.384-.306.588-.18.45-.361.902-.495 1.368-.033.117.073.348.182.413.115.066.33.037.467-.026.117-.056.207-.206.274-.334.422-.803.827-1.614 1.255-2.414.161-.3.352-.588.56-.86.135-.177.32-.2.514.008-.231.342-.502.661-.681 1.025-.447.9-.845 1.824-1.274 2.734-.282.6-.189.984.419 1.41.078-.119.144-.193.18-.28zM30.75 37.85c.031-.266.06-.386.056-.507-.02-.96-.057-1.918-.066-2.876-.012-1.353-.011-2.706-.004-4.059.004-.688.045-1.375.045-2.062.001-1.624-.012-3.247-.021-4.87-.004-.542-.002-1.085-.02-1.626-.03-.883-.071-1.767-.11-2.65-.007-.165-.021-.33-.032-.48-1.474-.307-1.24-.007-1.337.867-.008.074-.03.147-.026.22.032.756-.258 1.514.004 2.272.013.038-.014.092-.036.22l-.613.336.2-4.023c-.3-.18-.59-.31-.674.099-.209 1.005-.47 2.012-.285 3.056.09.505-.006.627-.675.734 0-.318-.028-.628.006-.93.104-.953.238-1.902.344-2.855.047-.414-.064-.521-.465-.6-.354-.068-.59.043-.65.406-.1.607-.213 1.214-.26 1.826-.05.681-.019 1.37-.057 2.054-.008.132-.163.333-.28.358-.103.022-.267-.141-.367-.255-.054-.06-.05-.188-.042-.283.08-.98.158-1.961.249-2.94.04-.43.106-.856.168-1.343h-.808a13.91 13.91 0 0 0-.234 3.546c.03.517-.11.65-.687.622-.008-.14-.032-.284-.024-.427.057-.931.13-1.861.182-2.793.017-.318.005-.64-.032-.956-.012-.103-.145-.19-.261-.335-.054.152-.092.215-.098.28-.132 1.717-.276 3.431-.382 5.149-.025.422-.195.661-.593.865-.048-.154-.115-.262-.11-.368.035-.714.01-1.44.144-2.134.217-1.126.111-2.255.172-3.38.028-.526-.033-.544-.725-.578-.134.372-.307.751-.402 1.15-.095.398-.111.815-.16 1.224-.492-.838-.228-1.686-.042-2.557l-.691-.154c-.095.445-.192.842-.262 1.246-.067.388-.068.79-.162 1.17-.095.388.257.799-.05 1.2-.094-.06-.18-.083-.205-.137-.065-.13-.143-.274-.146-.414-.012-1.028-.006-2.056-.006-3.17l-.587-.214c-.035.895-.086 1.695-.088 2.495-.003.55-.191.937-.81 1.156-.052-1.336.059-2.629.06-3.938-.136.096-.233.205-.247.326-.04.316-.02.641-.066.958-.343 2.444-.391 4.904-.385 7.366.003.876.012.882.878 1.24.115.722.548 1.278 1.083 1.772.416.384.791.82 1.244 1.15.512.37.84 1.082 1.806.884-.333.655.127.798.472 1.035.222.152.41.354.623.522.803.634 1.341 1.562 2.28 2.045.053.028.092.114.11.182.168.627.698.908 1.166 1.285l.345-.734c.412.275.412.275.36.772-.065.607.005.71.681.948.03-.325.055-.636.084-.949.058-.605.058-.605.487-.69v2.55l1.032.7zm33.104-20.648c-.35.025-.643.03-.932.072-.269.039-.429.196-.47.486-.126.906-.155 1.811.026 2.713.004.015.071.018.143.034 0-.527.007-1.041-.001-1.557-.012-.755.074-1.115.385-1.416.039.134.102.244.1.352-.005.811-.027 1.621-.032 2.432-.003.293-.01.592.046.878.168.86.179.857-.58 1.289-.01.156-.03.327-.026.498.003.122.034.244.054.365.314 1.968.605 3.936.507 5.94-.024.49.035.985.06 1.477.029.637.063 1.274.089 1.911.036.883.073 1.768.093 2.652.008.367-.025.736-.042 1.105-.016.344-.054.688-.042 1.03.01.257.064.523.42.78.03-.301.06-.5.067-.7.04-1.083.073-2.167.112-3.248.005-.147.004-.308.064-.435.042-.087.18-.159.285-.172.059-.007.183.112.192.184.026.217.03.441.007.66-.083.782-.197 1.562-.263 2.346-.03.356.025.718.046 1.182l.87-.248c-.057-.3-.13-.514-.13-.727 0-.982.017-1.964.037-2.947.005-.244.02-.494.081-.73.03-.113.177-.195.27-.29.097.095.249.18.278.293.04.157-.013.338-.026.508-.093 1.22-.281 2.44-.04 3.717.61-.218 1.19-.41 1.753-.64.102-.042.202-.233.203-.356.011-.907.024-1.817-.018-2.722-.045-.932-.158-1.86-.22-2.79-.012-.147.086-.3.135-.451.167.062.416.078.487.199.168.286.32.613.357.938.057.512.016 1.033.016 1.55v3.233c.73.07 1.418-.272 2.134-.533-.002-1.592-.292-3.118-.09-4.842.235.227.395.31.432.433.065.206.07.437.069.658-.006.836-.02 1.672-.04 2.507-.013.595 0 .619.666.829-.038-.415-.097-.796-.105-1.175-.024-1.155-.05-2.31-.034-3.465.018-1.378.067-2.756.122-4.134.021-.538.148-1.074.142-1.61-.03-2.19-.09-4.381-.143-6.57-.01-.42-.023-.844-.245-1.384v3.086c-.355-.068-.32-.342-.327-.573-.035-1.13-.058-2.259-.093-3.388-.005-.195-.045-.39-.07-.584l-.186.008c-.084.778-.185 1.554-.245 2.333-.016.205.067.43.15.627.212.5-.004.981-.69 1.277.187-1.417-.184-2.814.464-4.156-.887.143-.94.17-.95.959-.012.934.039 1.868.047 2.802 0 .213-.015.447-.105.632-.056.117-.27.232-.398.217-.126-.015-.285-.175-.335-.307-.067-.177-.062-.388-.055-.583.02-.564.107-1.13.07-1.688-.033-.534.017-1.096-.217-1.66-.377.243-.407.545-.384.874.027.387.056.775.067 1.164.012.516-.003 1.033.012 1.55.03.981.075 1.962.107 2.943.01.333-.102.575-.552.595-.088-.239-.247-.482-.257-.732-.04-1.007-.026-2.016-.046-3.023-.015-.777-.05-1.552-.077-2.329-.143.178-.227.361-.239.55-.044.661-.059 1.324-.097 1.986-.007.119-.071.234-.157.5-.452-1.29.014-2.465-.142-3.63l-1.913.316c-.206 1.29-.285 2.538-.184 3.792.015.17.154.329.248.517-.14.22-.217.534-.7.463-.134-1.521.013-3.036-.014-4.649zm-27.96 25.52c-.31.394-.577.713-.823 1.047-.449.614-.878 1.243-1.334 1.851-.168.225-.402.607-.69.372-.365-.298.066-.55.247-.774.721-.897 1.497-1.756 2.065-2.879l-.955-.578c-.602.926-1.15 1.77-1.702 2.608-.166.252-.258.602-.663.589-.142-.424-.12-.562.176-1.003.48-.714.965-1.426 1.45-2.137.364-.533.312-.656-.48-.914-.489.661-.997 1.35-1.507 2.037-.22.294-.428.598-.672.87-.09.099-.27.113-.548.219.205-.83.687-1.337 1.049-1.893.383-.588.866-1.112 1.364-1.738l-.815-.58c-.124.17-.204.261-.265.364-.87 1.485-1.943 2.837-2.731 4.384-.916 1.797-2.012 3.5-2.976 5.274-1.14 2.096-2.065 4.305-3.346 6.33-.169.265-.173.632-.253.952.213-.018.31-.082.376-.171.402-.559.786-1.132 1.197-1.682.353-.47.729-.926 1.114-1.372.136-.16.348-.24.507-.028.142.188.083.37-.127.491-.021.014-.044.024-.062.04-.476.365-.893.774-1.076 1.372-.035.113-.117.216-.189.317-.34.47-.683.938-1.022 1.4.216.381.417.674.847.749.096-.127.191-.237.269-.357.588-.908 1.172-1.816 1.759-2.724.08-.123.15-.28.266-.348.127-.072.303-.058.458-.081.005.152.074.345.005.449-.473.718-.935 1.45-1.482 2.11-.409.495-.524 1.018-.516 1.643.217.088.415.168.671.274.218-.418.41-.813.624-1.195.276-.492.55-.986.865-1.453.131-.193.348-.351.56-.463.114-.06.297.014.45.029-.04.13-.048.282-.124.382-.116.154-.314.25-.417.41a61.287 61.287 0 0 0-1.319 2.13c-.167.282-.135.578.148.79.228.17.47.32.753.509.212-.372.385-.666.55-.965.595-1.076 1.182-2.155 1.78-3.23.306-.547.546-.658 1.194-.537-1.007 1.725-1.991 3.433-2.856 5.264l1.003.57c.338-1.784 1.17-3.098 2.816-3.874-.258-1.05-.232-2.092.195-3.102.037-.089.023-.197.048-.29.233-.846.596-1.642 1.288-2.194a6.912 6.912 0 0 1 3.554-1.493c.356-.041.703-.144 1.103-.23-.783-2.484.146-3.984 2.685-4.661-.668-.445-1.194-.804-1.727-1.144-.238-.153-.472-.12-.657.107-.405.493-.853.96-1.203 1.488-.556.841-1.055 1.72-1.56 2.59-.146.253-.295.443-.608.415-.189-.434-.185-.432-.012-.731.262-.456.52-.916.78-1.374-.393.151-.474.724-1.116.53.249-.817.932-1.33 1.289-2.04.36-.715.856-1.362 1.307-2.06-.324-.22-.623-.42-.978-.663zm38.488-9.497zm.407-.946c-.013-.686-.053-1.366.448-1.958.168-.2.216-.553.214-.834a90.995 90.995 0 0 0-.118-3.468c-.085-1.627-.099-3.245.102-4.87.11-.897.096-1.81.137-2.718-.247-.09-.42-.155-.61-.226l-.126-1.689c-.19.59-.254 1.17-.29 1.754-.036.589-.047 1.18-.068 1.77-.019.55.158 1.107-.04 1.656a.515.515 0 0 1-.149-.322c-.04-.688-.065-1.376-.107-2.066-.013-.218.013-.482-.101-.643-.286-.409-.207-.846-.207-1.283l.001-2.797c-.23-.012-.343.121-.363.346-.077.828-.169 1.657-.209 2.488-.017.365.079.734.135 1.2a3.288 3.288 0 0 1-.175.153c-.545.444-1.077.874-.873 1.721.084.35.067.736.039 1.1-.102 1.372-.238 2.74-.338 4.112a57.112 57.112 0 0 0-.12 2.578c-.035 1.252-.053 2.506-.074 3.757-.003.195-.004.391.01.587.06.892.129 1.787.192 2.66.358-.168.371-.168.369-.514a70.908 70.908 0 0 0-.046-1.922c-.024-.628-.061-1.255-.093-1.884.283-.08.46-.008.5.225.049.285.064.58.065.87.003.738-.02 1.477-.012 2.214.003.163.098.325.15.488l.185-.027c.127-1.315.166-2.64.229-3.959.278.024.468.08.638.046.487-.1.518-.107.545.328.016.265-.036.534-.07.801-.054.425-.117.847-.177 1.272.475-.254.414-.602.407-.946zm-.98-23.046c-.06.999-.368 1.897-.076 2.799-.323.457-.68.796-1.22.907-.162.034-.303.158-.458.233-1.127.543-2.254 1.083-3.38 1.626-.123.06-.24.135-.359.205a.44.44 0 0 0 .363.03c.487-.166.967-.359 1.462-.506 1.704-.51 3.16-1.405 4.357-2.728.843-.933.601-2.069-.687-2.565zM6.703 37.267c-1.09 1.041-1.553 2.378-2.351 3.555l.402.542c.687-.468 1.934-3.061 1.949-4.097zm2.58-25.716c-.585 1.507-1.238 2.83-1.543 4.335.131-.041.202-.041.218-.07.485-.907.968-1.815 1.443-2.727.249-.476.134-.93-.119-1.538zM3.295 32.303c-.966.77-1.315 1.846-1.491 3.006zm46.368-16.986c0 .074.002.146.004.22l.911-.113-.015-.107h-.9zm-.558.203v.002zm-.012-.178c-.274-.004-.57-.153-.92.284l.932-.106-.012-.178zm25.757-1.177l-.614.182c.123.178.22.314.337.484.084-.205.147-.357.277-.666zm-2 2.105c-.068.144-.11.198-.099.22.035.06.094.107.143.16l-.042-.38zm-41.263 3.327c.018-.002.034-.002.051-.002v-.454a1.497 1.497 0 0 1-.077.003l.026.453zm42.145 14.357l.114.005v-.514a1.67 1.67 0 0 1-.082-.003l-.032.512z"/></g><g><path fill="#2b2a29" d="M40.08 7.132c1.014.382 2.07.29 3.117.354.008.125.018.24.028.384.234.035.464.07.694.103l-.01.107c-.446 0-.892-.008-1.34.001-.806.017-1.613.021-2.418.076-.928.064-1.867.118-2.78.284-1.3.235-2.618.443-3.826 1.023-.436.209-.838.49-1.342.695.07-.117.116-.264.215-.346.932-.776 2.025-1.199 3.207-1.408.967-.172 1.939-.33 2.908-.5.061-.011.114-.07.22-.14-.39-.283-.795-.178-1.153-.145-1.615.151-3.24.265-4.836.537-1.54.264-3.082.608-4.38 1.6-.567.434-.824 1.023-.995 1.673-.112.432-.102.435-.563.62.071-1.131.34-2.102 1.36-2.71.454-.269.91-.53 1.385-.806-.099-.09-.137-.152-.164-.148-1.055.174-2.054.488-2.923 1.139-.527.394-.52 1.033-.728 1.573-.042.105-.046.226-.21.369-.052-.188-.187-.4-.14-.56.256-.905.53-1.816 1.582-2.143.937-.293 1.871-.593 2.805-.891.252-.08.501-.168.87-.29-.385-.273-.705-.204-.998-.197-.96.02-1.92.047-2.878.106-1.08.065-2.057.454-2.948 1.058-.14.095-.269.218-.377.35-.555.667-.572.975-.114 1.67-.081.252-.256.264-.465.17-.427-.192-.63-.64-.493-1.186.247-.988.958-1.583 1.814-2.022.98-.505 2.022-.709 3.137-.685 1.747.04 3.49.037 5.238.129 1.688.087 3.39-.106 5.085-.16 1.962-.06 3.923-.077 5.866.316h-3.45zm-7.901.631c-.01-.043-.023-.086-.035-.13l-.45.142a2.6 2.6 0 0 0 .027.098l.46-.11z"/></g><g><path fill="#2b2a29" d="M31.024 12.835c.047-.992.683-1.594 1.365-2.157.697-.573 1.53-.842 2.39-1.093 1.21-.356 2.44-.55 3.691-.657.144-.013.293 0 .444.05-1.11.222-2.232.402-3.328.676-1.526.382-2.907 1.057-3.94 2.298-.23.275-.416.588-.622.883z"/></g><g><path fill="#2b2a29" d="M38.915 26.973c-.43-.136-.367-.392-.362-.597.03-1.177.052-2.354.123-3.529.047-.783.163-1.564.267-2.343.039-.291.118-.676.485-.619.415.066.24.459.22.735a2925.44 2925.44 0 0 1-.306 4.783c-.02.319-.013.647-.086.954-.053.22-.225.412-.342.617z"/></g><g><path fill="#2b2a29" d="M35.61 19.688c-.099.89-.2 1.692-.273 2.496-.03.316-.008.638.008.954.022.444.027.45-.465.801-.023-.27-.077-.504-.056-.731.095-1.025.212-2.048.32-3.07.027-.26.105-.466.466-.45z"/></g><g><path fill="#2b2a29" d="M56.622 23.433c-.364-1.685-.399-3.235.056-4.776l.176-.02c.046.148.123.294.131.444.05.905.082 1.81.124 2.716.006.117.023.242.067.35.246.612.211.72-.553 1.286z"/></g><g><path fill="#2b2a29" d="M60.956 38.394c-.553-.149-.492-.53-.51-.809-.043-.612-.017-1.23-.026-1.844-.005-.443-.021-.885-.033-1.327-.004-.12-.06-.27-.008-.355.105-.173.26-.433.409-.443.316-.022.258.295.254.502-.022 1.396-.055 2.79-.085 4.276z"/></g><g><path fill="#2b2a29" d="M59.141 18.363c.338.313.285.668.283 1.001-.004.982-.029 1.965-.025 2.947.001.254-.103.388-.329.388-.278.002-.28-.194-.247-.417.167-1.148.226-2.3.06-3.454a.565.565 0 0 1 .052-.282c.026-.057.1-.092.206-.183z"/></g><g><path fill="#2b2a29" d="M41.043 50.762zm-1.46-1.398c.027-.9.615-1.389 1.643-1.362.818.022 1.271.476 1.278 1.285.008.865-.602 1.481-1.461 1.475-.86-.008-1.486-.605-1.46-1.398zm1.459 1.398zm-.305-2.142c-.381.43-.398.608-.112.862.327.291.576.222 1.003-.302l-.89-.56z"/></g><g><path fill="#2b2a29" d="M38.705 53.95c0 .179.031.366-.005.538-.247 1.23-2.576 8.03-2.892 8.429-.186-.26-.123-.526-.054-.766.67-2.311 1.35-4.62 2.03-6.928.02-.068.058-.185.089-.187.533-.001.338-.493.498-.74.072-.111.1-.251.147-.378.063.01.126.021.187.033z"/></g><g><path fill="#2b2a29" d="M33.475 61.869c.003.425-.228.747-.795.799-.382.036-.779-.03-1.163-.094-.124-.02-.27-.15-.33-.27-.542-1.104-.057-2.213 1.11-2.322.498-.047 1 .295 1.08.781.053.314.058.635.097 1.104zm-.65-.321c.017-.285-.407-1.026-.58-1.016-.27.016-.622.523-.631.908-.008.36.216.59.588.603.33.009.605-.21.623-.495z"/></g><g><path fill="#2b2a29" d="M37.456 52.32c.017.503-.306.57-.67.618-.409.055-.827.096-1.22.215-1.207.365-1.87 1.2-2.018 2.449-.015.117-.045.234-.09.46-.488-.738-.519-1.388-.11-2.041.657-1.055 2.323-2.017 3.787-1.843.112.013.216.093.32.141z"/></g><g><path fill="#2b2a29" d="M38.764 60.812c.63-3.15 1.989-6.035 3.204-8.975.347.099.34.263.247.474-.687 1.544-1.415 3.07-2.038 4.64-.441 1.113-.733 2.285-1.093 3.429-.051.158-.114.311-.172.468a23.406 23.406 0 0 0-.147-.036z"/></g><g><path fill="#2b2a29" d="M30.968 59.578c0-.428.304-.588.608-.622.53-.057 1.068-.04 1.601-.02.103.003.202.16.302.246-.117.1-.224.22-.356.29-.074.04-.192-.01-.288-.005-.597.032-1.195.07-1.867.11z"/></g><g><path fill="#2b2a29" d="M41.492 47.172l-2.32.797c-.186-.251-.003-.394.174-.528.453-.344 1.488-.512 2.146-.269z"/></g><g><path fill="#2b2a29" d="M42.371 56.6c.091-.874.487-1.548.625-2.436"/></g><g><path fill="#2b2a29" d="M43.48 52.991c.25.335-.022.483-.225.657"/></g><g><path fill="#2b2a29" d="M44.137 51.886c-.09.194-.182.386-.273.58-.045-.019-.092-.037-.137-.057.075-.2.148-.403.222-.604l.188.081z"/></g><g><path fill="#2b2a29" d="M44.31 51.079l.121-.432c.039.014.079.027.118.039l-.157.416-.084-.022z"/></g><g><path fill="#2b2a29" d="M5.916 35.99c-.597.956-1.157 1.842-1.705 2.735-.138.226-.278.397-.635.306.03-.15.018-.302.084-.405.517-.807 1.052-1.602 1.573-2.408.167-.26.358-.382.682-.229z"/></g><g><path fill="#2b2a29" d="M69.341 36.126c-.058-.177-.14-.325-.152-.479-.101-1.29-.196-2.58-.269-3.872-.009-.156.102-.425.212-.46.263-.08.41.157.427.383.046.56.058 1.122.066 1.685.008.683-.035 1.366.207 2.029.142.385-.087.584-.49.715z"/></g><g><path fill="#2b2a29" d="M66.445 34.983c.022.38.058 1.013.091 1.645.004.071.013.166-.025.213-.087.105-.198.248-.31.258-.082.006-.244-.166-.257-.273-.041-.314-.02-.635-.033-.953-.031-.708-.075-1.414-.102-2.122a3.052 3.052 0 0 1 .033-.654c.042-.232.189-.453.444-.36.127.045.254.293.255.451.004.513-.05 1.026-.097 1.796z"/></g><g><path fill="#2b2a29" d="M65.943 17.228c.012.222.054.447.032.665-.087.8-.215 1.598-.29 2.4-.032.353.026.714.048 1.152-.185.111-.381.11-.408-.252-.041-.534-.095-1.07-.07-1.602.031-.608.133-1.216.224-1.82.03-.197.127-.382.192-.575l.272.031z"/></g></g></g></svg>