<svg xmlns="http://www.w3.org/2000/svg" width="45" height="41" viewBox="0 0 45 41"><g><g><g><path fill="#2b2a29" d="M43.377 4.902c.895.164 1.37.976 1.41 1.81.019.382-.022.767-.037 1.15-.003.085-.016.171-.015.256.016.781.046 1.562.047 2.343 0 .51-.05 1.02-.06 1.53-.018.864-.04 1.729-.032 2.593.007.81.061 1.621.075 2.432.007.438-.092.886-.028 1.314.067.449-.084.73-.369 1.047-.627.7-1.312 1.291-2.22 1.589-.62.203-1.235.425-1.853.633-.686.23-1.364.494-2.063.67-.838.21-1.694.358-2.548.504-.486.083-.981.124-1.473.151-.877.048-1.756.063-2.632.107-.577.03-1.152.09-1.73.123-.28.016-.561.007-.841.001-.81-.018-1.621-.04-2.432-.064-.454-.012-.908-.053-1.362-.039-1.205.038-2.404-.109-3.608-.125-.421-.006-.84-.102-1.263-.149-.164-.018-.33-.017-.495-.024a4.836 4.836 0 0 0-.042.088c.221.206.428.434.667.614.545.41 1.08.837 1.704 1.133.214.102.39.283.592.416.749.489 1.497.978 2.254 1.454.189.119.426.162.616.28.576.358 1.12.773 1.714 1.098.61.333 1.137.779 1.722 1.14.534.33.74.875.989 1.396a.19.19 0 0 1 .005.126c-.148.515-.17 1.065-.515 1.524-.254.336-.544.664-.622 1.106-.012.066-.065.126-.102.186-.653 1.08-1.298 2.167-1.963 3.24-.36.58-.756 1.138-1.132 1.708-.203.31-.383.635-.602.933-.344.469-.696.94-1.253 1.183a1.16 1.16 0 0 1-.486.098 2.562 2.562 0 0 1-1.36-.428c-1.02-.676-2.055-1.326-3.072-2.004a3.028 3.028 0 0 1-1.06-1.213c-.273-.578-.772-.898-1.24-1.248-.717-.535-1.476-1.014-2.217-1.517-.893-.608-1.792-1.21-2.677-1.83-1-.7-2.034-1.349-2.923-2.205-.622-.6-1.312-1.132-1.98-1.685-.093-.076-.24-.09-.377-.137-.072-.14-.14-.324-.252-.476A8.997 8.997 0 0 0 4.81 26.21c-.19-.162-.332-.385-.49-.583-.453-.567-.938-1.111-1.345-1.71-.358-.525-.65-1.102-.933-1.674a13.399 13.399 0 0 1-.644-1.53c-.137-.398-.21-.82-.292-1.234-.08-.4-.12-.8-.305-1.182-.149-.305-.03-.648.088-.953.328-.848.68-1.686 1.007-2.535.112-.29.152-.608.263-.898.213-.558.454-1.106.684-1.658.032-.079.073-.155.103-.234.479-1.26.938-2.53 1.44-3.78.232-.576.51-1.132.853-1.66.324-.496.55-1.056.833-1.581.148-.275.3-.555.492-.798.346-.435.875-.52 1.419-.725 0 .195.035.33-.007.432-.098.235-.203.479-.363.673-.195.236-.288.477-.225.818l.38-.458c.044.092.077.135.086.184.055.303.08.616.164.91a1.6 1.6 0 0 0 .475.742c.654.604 1.434.951 2.27 1.205.434.133.86.297 1.295.432.637.198 1.277.39 1.92.571.616.174 1.23.355 1.855.492.804.176 1.617.315 2.427.465.573.106 1.147.212 1.723.3.491.076.987.128 1.481.186.423.05.847.1 1.273.136.591.049 1.18.156 1.776-.001.227-.06.478-.023.72-.027.611-.01 1.226.003 1.836-.033.582-.034 1.16-.129 1.742-.174.38-.03.764-.025 1.146-.023.9.005 1.79-.097 2.678-.24 1.376-.223 2.757-.412 4.129-.65.572-.099 1.13-.284 1.692-.438.058-.016.099-.09.153-.132.085-.065.166-.153.264-.185.565-.186 1.146-.332 1.7-.545.313-.12.587-.341.877-.517.11-.066.222-.129.33-.197.319-.2.333-.244.212-.705-.13.062-.261.108-.377.181-.537.34-1.144.5-1.746.673-.6.171-1.2.34-1.802.504-.601.163-1.201.332-1.808.474-.385.09-.785.117-1.17.209-.746.178-1.477.421-2.228.563-.526.1-1.076.095-1.615.105-1.078.017-2.158.019-3.236.015-1.464-.005-2.93.007-4.392-.045-.85-.03-1.693-.195-2.542-.256-1.204-.087-2.412-.123-3.617-.203-.321-.021-.638-.12-.956-.185-.696-.142-1.39-.291-2.086-.427-.328-.064-.668-.075-.988-.16-.66-.173-1.308-.387-1.907-.723-.396-.221-.78-.448-1.249-.52-.468-.073-.887-.3-1.243-.626a3.815 3.815 0 0 0-.361-.3c-.397-.286-.595-.649-.595-1.156 0-.644.125-1.175.766-1.488.261-.127.464-.37.72-.514.288-.162.583-.295.929-.36.467-.09.905-.332 1.352-.514.043-.018.07-.074.076-.185-.313.054-.633.085-.938.167-.302.081-.591.207-.88.326-.304.123-.595.277-.903.386-.273.097-.489.341-.787.371l-.053-.084c.058-.07.103-.163.177-.202.403-.21.823-.387 1.218-.61.554-.314 1.161-.445 1.77-.59 1.104-.263 2.2-.582 3.316-.78 1.26-.224 2.537-.33 3.819-.378.894-.032 1.786-.139 2.679-.192 1.051-.06 2.103-.11 3.154-.143.783-.025 1.567-.04 2.349-.015.824.027 1.649.09 2.47.168 1.46.14 2.919.29 4.374.464.678.081 1.35.212 2.021.347.92.184 1.842.374 2.753.596.51.124 1.007.305 1.502.482a19.3 19.3 0 0 1 1.466.577c.413.188.822.398 1.199.648.284.188.49.473.568.826.058.262.123.524.184.782zm-16.982 23.17a.52.52 0 0 1 .004.014h.017a1.177 1.177 0 0 0-.008-.01.83.83 0 0 1-.013-.003zm.476.357c-.102-.182-.22-.345-.455-.344.133.14.237.319.455.344zm-1.121-.874c.188.207.358.436.645.518-.094-.323-.429-.348-.645-.518zM8.658 10.577v-.002zm.084-.19c.026-.565.047-1.131.055-1.696 0-.06-.092-.12-.173-.218 0 .686-.002 1.289.001 1.892 0 .068.024.135.038.203.03-.06.077-.12.08-.182zm-.08.18a.442.442 0 0 0-.003.01l.004.004v-.008-.005zm-.062.767a.75.75 0 0 0 .12.394c.281.425.569.848.878 1.253.282.366.595.706.895 1.059l.11-.036c.096-.766.062-1.538.044-2.311-.019-.78-.004-1.56-.004-2.418-.253.536-.232 1.03-.212 1.535a.924.924 0 0 1-.18-.414c-.047-.367-.068-.737-.11-1.104-.011-.082-.068-.158-.122-.278-.253.264-.275.562-.317.821-.043.27.037.561.063.842-.116-.07-.227-.163-.248-.27a3.86 3.86 0 0 1-.068-.76c.002-.213.062-.423.082-.635.02-.213-.09-.271-.299-.223-.032.307-.072.601-.092.897-.023.32-.145.642.003.968.02.042-.023.148-.067.176-.047.028-.148.022-.194-.011-.086-.063-.15-.155-.22-.238-.023.25-.062.502-.062.753zM5.993 8.848a.33.33 0 0 1-.008-.015c0 .002-.002.004-.004.006l-.01.025.023-.015zm-.389.616c-.019.194-.166.278-.32.273-.176-.007-.148-.165-.136-.294-.183-.081-.326-.108-.406-.193-.129-.137.033-.251.085-.376.213-.511.419-1.024.619-1.54.053-.135.075-.283.11-.424-.333.283-.51.656-.665 1.026-.306.733-.577 1.48-.863 2.22-.384.994-.773 1.987-1.152 2.983-.276.727-.54 1.46-.797 2.158.303.363.3.36.081.693-.125.19-.26.379-.352.584-.1.22-.267.425-.247.768.08-.118.122-.172.157-.23.19-.318.375-.637.567-.953.1-.166.23-.274.495-.16-.294.242-.545.47-.611.841l.33.118c-.336.392-.64.763-.699 1.33.196-.229.343-.419.51-.59.11-.11.247-.203.382-.014-.72.801-1.149 1.573-1.109 2.032.312-.571.478-1.243 1.23-1.345.428-.702.627-1.474.841-2.242.034-.122.068-.247.116-.364.221-.54.448-1.076.67-1.614.224-.539.45-1.077.668-1.617.213-.526.406-1.06.628-1.582.255-.598.522-1.193.809-1.778.084-.172.15-.32.065-.572-.109.153-.202.258-.264.377-.28.54-.548 1.086-.827 1.627-.037.074-.102.134-.211.272-.031-.41.106-.673.218-.94.15-.358.298-.716.445-1.074a.79.79 0 0 0-.367.6zm-.456-.02c.003 0 .006.002.01.004a.457.457 0 0 1-.01-.01v.005zm1.314-1.232c.037-.054.005-.155.005-.319-.161.223-.28.347-.352.495-.065.137-.217.263-.13.445.161-.205.33-.406.477-.62zM5.149 9.433c-.002-.017-.02-.034 0 0zm24.185-8.03l.027.141c-.16.023-.319.057-.48.066-.297.018-.594.019-.892.03-.198.01-.397.028-.596.036-.874.034-1.75-.194-2.623.01-.04.01-.085.008-.127.009-.908.02-1.815-.003-2.72.136-.587.09-1.187.093-1.78.144-.778.068-1.554.139-2.33.22-.833.088-1.667.178-2.497.292-.463.064-.916.23-1.38.265-1.087.084-1.994.633-2.95 1.06-.114.052-.226.13-.312.222-.255.27-.503.55-.444.968.097.702.526 1.127 1.226 1.47-.108-.344-.166-.607-.274-.845-.12-.264-.077-.476.055-.724.264-.496.688-.79 1.18-.994.537-.22 1.095-.392 1.64-.6 1.327-.507 2.71-.602 4.113-.571.525.012 1.052-.015 1.578-.039.383-.017.771-.115 1.145-.072.446.052.881.048 1.316-.017.707-.105 1.413-.15 2.127-.105.311.019.624.008.936.005.399-.004.797-.026 1.195-.015.682.017 1.364.054 2.046.086.061.003.122.024.264.054-.14.08-.205.15-.275.152-.267.013-.536.009-.804.006-.696-.009-1.391-.02-2.087-.03-.455-.007-.909-.011-1.363-.02-.51-.009-1.015-.019-1.524.091-.442.097-.904.116-1.358.136-.308.014-.623-.066-.929-.039-.806.073-1.609.133-2.421.123-.622-.009-1.246.083-1.865.155-.984.115-1.909.438-2.803.85-.546.253-.985.622-1.22 1.194-.267.642-.024 1.394.586 1.722.373.2.77.363 1.168.512.907.34 1.844.578 2.804.721.506.076 1.004.208 1.512.268 1.144.136 2.29.245 3.436.361 1.657.167 3.318.237 4.98.224.115-.001.229-.037.35-.057-.074-.267-.247-.233-.4-.243-.411-.028-.824-.05-1.235-.087-.187-.016-.368-.072-.61-.243.202-.036.307-.067.412-.071.141-.006.284.02.425.014.651-.026 1.301-.054 1.952-.09.44-.022.881-.037 1.317-.092.303-.038.597-.137.896-.21-.33-.08-.65-.09-.972-.077-.254.01-.506.052-.76.069-.354.023-.707.042-1.062.05-.555.014-1.11.021-1.664.023-.637.002-1.276-.035-1.91 0-.737.04-1.445-.067-2.146-.264-.36-.1-.624-.338-.832-.636-.2-.289-.158-.554.144-.726a7.345 7.345 0 0 1 1.033-.5c.843-.317 1.714-.525 2.624-.519.127.001.256-.021.383-.036.792-.092 1.582-.185 2.384-.116.581.051 1.165.071 1.748.102.897.048 1.821-.123 2.674.315.085.043.198.026.293.055.402.125.794.276 1.205.507-.098.13-.167.22-.241.32-.153-.107-.26-.203-.384-.264-.541-.267-1.12-.4-1.718-.463-1.12-.12-2.24-.143-3.363-.002-.603.076-1.216.078-1.821.143-.537.058-1.073.139-1.601.243a6.77 6.77 0 0 0-1.106.317c-.169.065-.406.153-.396.396.012.277.272.335.474.429.05.023.11.03.167.034.312.021.624.048.937.055.44.012.884-.013 1.324.015.907.058 1.812.19 2.723.047.026-.004.055.013.083.015.253.018.507.06.759.05.712-.028 1.422-.077 2.133-.117.124-.007.264-.042.322.156-.259.364-.731.14-1.144.39.34.046.591.124.834.105.704-.056 1.35-.31 1.954-.668.401-.238.553-.594.494-1.117.17.042.387.034.433.118.204.373.379.768.223 1.216-.154.44-.519.651-.922.747-.495.118-1.009.164-1.516.22-.375.042-.726.14-1.063.306.664.146 1.328.083 1.988.05.32-.015.645-.111.949-.223.518-.191 1.018-.434 1.533-.635.398-.156.607-.456.713-.846.077-.288.024-.429-.239-.563a7.305 7.305 0 0 0-.743-.313c-.442-.165-.888-.319-1.332-.477.178-.092.371-.165.528-.117.594.186 1.218.298 1.766.618.452.263.54.508.353.995-.068.176-.147.349-.258.61a1.784 1.784 0 0 0 1.005-.99c.164-.376.191-.746-.132-1.069-.023-.024-.018-.075-.026-.113.287-.091.436-.038.537.213.168.416.077.812-.13 1.188-.111.202-.245.391-.368.585.276-.068.526-.153.721-.306.41-.321.687-.759.62-1.289-.1-.768-.585-1.445-1.466-1.549-.174-.02-.343-.085-.515-.128l.024-.106a1.908 1.908 0 0 1 1.542.332c.707.518 1 1.24.757 2.19.543-.267.773-.698 1.01-1.162.2.254.132.434-.016.613-.137.166-.27.336-.404.505l.065.06c.118-.074.25-.131.349-.224.24-.226.495-.49.47-.828-.033-.445-.204-.861-.652-1.08-.345-.168-.689-.338-1.042-.488-.366-.155-.736-.315-1.119-.418-.195-.052-.453.089-.628.013-.207-.09-.39-.206-.628-.217a2.278 2.278 0 0 1-.54-.108c-.058-.017-.094-.106-.19-.222.387.033.694.092.997.079.584-.024 1.12.126 1.65.343.565.233 1.124.485 1.7.685.36.124.577.338.699.686.051.148.134.286.204.429l.108-.029c.007-.283.078-.585.004-.846-.075-.264-.292-.488-.463-.755.388.006.629.267.944.893.367.728.061 1.322-.336 1.906.024.001.052.01.075.002.744-.263 1.34-.708 1.833-1.336.325-.412.408-.813.2-1.261-.136-.293-.34-.555-.53-.82-.04-.056-.145-.07-.222-.1-.248-.096-.505-.174-.746-.286-.46-.216-.91-.45-1.367-.674-.036-.018-.084-.005-.125-.015-.179-.044-.36-.08-.535-.136-.324-.103-.638-.25-.969-.32-.987-.21-1.98-.394-2.972-.581a32.13 32.13 0 0 0-1.506-.26c-.634-.09-1.271-.151-1.906-.234-.436-.057-.867-.153-1.304-.188-.992-.08-1.987-.144-2.98-.196-.793-.042-1.588-.092-2.381-.072-.821.02-1.639.12-2.465.095-.494-.014-.99.041-1.485.085-.495.043-.988.11-1.481.164-.254.027-.507.053-.76.063-.255.008-.512-.022-.765-.005-.425.029-.853.053-1.271.13-.565.106-1.171.066-1.667.444-.06.046-.165.042-.249.041-.37-.004-.69.146-1.011.303a2.89 2.89 0 0 1-.31.135c-.899.314-1.8.623-2.697.94-.281.098-.571.19-.828.336-.49.278-1 .549-1.068 1.217-.05.5.083.91.52 1.3.039-.3.073-.534.096-.77.032-.321.13-.623.368-.844.398-.367.837-.684 1.344-.887.765-.305 1.563-.492 2.365-.688 1.768-.43 3.567-.545 5.37-.671 1.12-.079 2.24-.192 3.359-.29.099-.008.197-.02.297-.023.89-.033 1.784.101 2.675-.069.243-.046.51-.005.762.03.707.097 1.41.14 2.123.038.356-.052.726-.008 1.09-.008zm-1.702 21.28c.028-.076.075-.151.085-.23.065-.537.123-1.075.183-1.61.017-.156.017-.315.055-.465.015-.062.11-.105.167-.156.039.078.078.157.114.236.005.01-.008.026-.01.041-.058.479-.128.956-.169 1.437-.021.252-.008.512.152.742h.442c.142-.923-.214-10.628-.414-11.353-.225-.03-.45-.172-.748.005 0 .193-.002.418 0 .643l.018 1.622c.002.14-.028.25-.222.24l-.081-2.51c-.377-.1-.462-.09-.486.108-.076.661-.185 1.327-.033 1.99.044.19.085.357-.178.543-.022-.055-.049-.106-.064-.161-.207-.785-.129-1.575-.023-2.358-.488-.135-.58-.107-.652.321-.076.445-.087.902-.135 1.353a7.056 7.056 0 0 1-.107.71c-.012.053-.106.089-.218.175-.064-.889.056-1.7.12-2.52-.087-.02-.14-.039-.195-.042-.363-.02-.363-.002-.436.351a3.51 3.51 0 0 0-.048 1.229c.032.221.021.456-.011.678-.03.192-.106.38-.182.56-.016.039-.121.06-.182.053-.036-.005-.082-.076-.092-.123a.564.564 0 0 1 .009-.213c.114-.578.089-1.162.072-1.745-.008-.266 0-.53 0-.829-.556-.166-1.167-.113-1.774-.106-.2.003-.25.129-.299.294-.2.681-.2 1.37-.105 2.066.027.196-.005.364-.27.416-.097-.921-.003-1.821.075-2.734-.493-.192-.976-.26-1.466-.281-.217.44-.168.888-.182 1.325-.008.28-.001.564.043.839.047.296.029.345-.365.419-.023-.152-.073-.306-.063-.455.042-.638.102-1.274.155-1.912.022-.25-.006-.285-.266-.328-.322-.053-.417-.015-.452.22-.096.654-.042 1.306.072 1.95.062.35.003.506-.42.7v-1.316l-.088.003c-.06.747-.093 1.495-.06 2.248.052 1.206.105 2.412.137 3.62.012.423-.046.849-.055 1.274-.012.51-.013 1.02-.003 1.53.004.179.054.356.084.536l.09-.012c.025-.339.059-.677.073-1.017.008-.19.047-.327.314-.349.025.63-.092 1.229-.145 1.868l.622.09c.06-.468.112-.89.171-1.31.02-.14.053-.28.105-.41.019-.047.12-.093.173-.084.05.008.107.084.123.141a.383.383 0 0 1-.016.21c-.165.49-.168.995-.146 1.505.124.044.205.041.226-.103.04-.295.09-.59.129-.885.032-.255.041-.513.088-.764.014-.079.113-.142.174-.212.072.075.187.14.207.228.028.115-.006.25-.035.373-.115.473-.168.946-.051 1.455h.637c0-.386.007-.739-.003-1.092-.006-.241-.046-.482-.048-.723-.001-.066.09-.192.12-.186.083.013.205.07.225.134.045.146.048.308.048.463 0 .339-.044.677.116 1.005.07.143.05.317-.187.335-.038.003-.073.05-.135.096.667.13.73.077.758-.504.043-.838.098-1.675.155-2.512.007-.111.038-.226.082-.33.024-.053.106-.12.154-.115.073.01.15.065.202.122.032.034.024.109.027.165.03.597.08 1.193.08 1.79.002.366-.081.731-.114 1.097-.027.282.046.347.406.35 0-.197-.008-.394.002-.59.02-.385.041-.77.087-1.15.01-.084.119-.21.192-.218.145-.015.163.12.159.243-.015.483-.028.966-.036 1.449-.001.094.023.19.036.307h.446c.025-.104.062-.197.068-.293a66.6 66.6 0 0 0 .07-1.36c.009-.19-.004-.389.315-.334.07.326-.008.645-.042.966-.034.332-.058.664-.089 1.019h.438c.178-.593.304-1.184.25-1.804-.006-.071.083-.15.129-.225.066.062.177.118.186.188.026.193.023.394.007.59-.035.419-.086.838-.133 1.284l.845.068V20.88c0-.31.08-.361.41-.267-.02.685-.037 1.367-.056 2.072h.66zm-16.124 3.63c-.028.061-.04.119-.072.16-.387.498-.67 1.05-.912 1.632-.123.294-.34.548-.48.837-.17.355-.304.729-.452 1.096-.014.035-.008.08-.014.142l.298.236c.162-.224.32-.42.453-.633.172-.278.31-.577.485-.853.182-.284.39-.552.78-.644.03.405-.341.511-.491.76-.163.266-.356.516-.498.793-.14.272-.232.569-.355.881l.484.331.122-.217c.266-.485.526-.974.802-1.452.061-.106.173-.187.274-.263.096-.073.213-.106.3.016.079.109.057.207-.054.293-.483.377-.681.936-.908 1.47-.123.292-.014.51.278.644.048-.063.11-.124.147-.197.205-.406.39-.824.611-1.22.115-.205.278-.39.447-.555.042-.04.194.032.296.052-.031.084-.038.199-.098.249-.523.438-.768 1.048-1.016 1.649-.12.286-.07.339.272.496.06-.123.113-.25.18-.37.218-.398.44-.795.665-1.19.098-.173.2-.345.313-.508.072-.103.172-.151.314.003-.413.719-.708 1.518-1.305 2.174.277.221.526.444.884.54.207-.355.417-.691.602-1.04.5-.94.987-1.888 1.482-2.832.377-.717.741-1.441 1.142-2.145.486-.85 1.003-1.684 1.511-2.522.214-.353.44-.697.658-1.047.176-.284.16-.359-.117-.562-.055-.04-.119-.068-.215-.121-.362.666-.555 1.442-1.33 1.865-.008-.136-.037-.217-.01-.262.113-.18.223-.37.37-.518.342-.344.518-.78.714-1.205.015-.034-.022-.094-.049-.185-.105.09-.196.138-.245.214-.326.497-.643 1-.962 1.502-.023.036-.03.09-.061.111-.063.044-.136.072-.205.106-.034-.07-.11-.15-.095-.206a1.65 1.65 0 0 1 .199-.47c.25-.38.518-.747.782-1.118.294-.411.237-.588-.259-.77-.384.543-.767 1.09-1.158 1.63-.055.077-.153.122-.23.182l-.093-.057c.015-.116 0-.245.05-.342.086-.161.21-.303.32-.451l.944-1.288-.468-.484a2.8 2.8 0 0 0-.748.872c-.127.222-.252.444-.383.663-.078.13-.175.228-.342.131-.003-.348.592-1.33 1.145-1.876l-.457-.379c-.311.474-.676.87-.911 1.358-.08.166-.156.339-.446.288.098-.83.76-1.312 1.147-1.95l-.31-.381c-.112.119-.183.171-.225.24-.31.51-.619 1.021-.92 1.536-.277.472-.472.987-.744 1.462-.09.156-.15.347-.423.29.007-.087-.004-.175.024-.248.111-.292.249-.574.348-.87.087-.263.374-.497.147-.824-.02-.03.013-.108.036-.157.093-.192.18-.387.29-.568.224-.363.468-.713.69-1.077.084-.138.254-.304-.044-.492-.124.153-.26.294-.363.455-.152.24-.274.5-.42.745-.1.17-.209.34-.335.492-.035.042-.172.052-.217.017-.047-.036-.062-.147-.05-.218.012-.062.083-.112.124-.17.3-.433.594-.868.899-1.298.111-.157.096-.296-.034-.417-.08-.075-.186-.123-.292-.19-.074.093-.143.165-.192.248a80.39 80.39 0 0 0-.783 1.372c-.055.099-.077.247-.225.19-.16-.059-.128-.195-.066-.323.086-.177.156-.365.256-.536.23-.392.473-.776.736-1.206l-.515-.396c-.348.61-.665 1.16-.975 1.713-.086.154-.181.247-.37.164-.008-.054-.032-.1-.02-.134.246-.724.738-1.299 1.21-1.931l-.437-.342c-.077.095-.13.144-.163.205-.277.496-.558.99-.82 1.494-.094.179-.174.321-.458.202.415-.728.82-1.437 1.237-2.164l-.422-.476c-.095.158-.177.266-.23.387-.482 1.091-.93 2.197-1.444 3.273-.43.898-.84 1.8-1.203 2.727-.331.844-.882 1.593-1.104 2.488-.032.132-.09.258-.169.474.157-.102.234-.153.312-.202.074-.046.15-.09.225-.135-.524.834-.962 1.683-1.252 2.61a.248.248 0 0 0 .161-.117c.3-.534.59-1.071.893-1.602.084-.146.194-.281.307-.406.085-.094.195-.113.32.036-.14.179-.31.35-.425.553-.267.47-.509.955-.758 1.435a2.041 2.041 0 0 0-.131.316c-.047.145.016.25.148.312.127.06.217.008.282-.108.076-.138.16-.27.233-.408.185-.351.351-.716.556-1.056.143-.238.34-.444.508-.662.287.209.309.284.144.49-.114.144-.259.263-.378.404-.39.464-.57 1.04-.826 1.576-.027.057.047.163.074.248.396-.146.51-.478.69-.76.237-.373.483-.74.754-1.086.157-.2.203-.179.437.02-.293.381-.59.76-.876 1.146-.1.135-.194.285-.25.442-.078.216-.116.445-.18.705l.608.493c.423-.782.818-1.518 1.218-2.252.17-.312.33-.63.53-.923.132-.192.31-.38.621-.272zm21.07-11.184v-4.216c-.224-.062-.293.026-.301.18-.01.198-.019.398-.012.597.014.526.033 1.053.058 1.579.01.203-.018.362-.309.388v-2.666c-.363-.113-.442-.101-.464.12-.04.409-.068.82-.066 1.23 0 .396.052.792.063 1.19.002.075-.08.153-.124.23-.063-.064-.131-.125-.186-.196-.023-.03-.022-.082-.023-.125-.01-.624-.02-1.248-.027-1.873-.002-.18 0-.36 0-.618-.145.086-.284.12-.311.194-.086.236-.174.486-.183.733-.02.553.006 1.107.015 1.66.002.126.03.258-.154.35-.05-.074-.133-.142-.148-.223a3.107 3.107 0 0 1-.053-.593c.006-.541.031-1.082.04-1.623.007-.308-.075-.366-.394-.298-.04.008-.076.034-.11.05-.17.308-.148.637-.138.963.015.455.028.909.058 1.362.019.266-.084.45-.285.603-.192-.085-.161-.23-.158-.372.02-.726.039-1.452.052-2.178.001-.094-.032-.19-.047-.278-.38-.018-.48.062-.472.423.009.441.075.881.064 1.321-.02.883.065 1.76.121 2.638.064 1.005.118 2.01.091 3.018-.008.298.02.596.029.895.014.523.031 1.047.036 1.57.003.312-.036.626-.017.935.014.224.094.444.144.666.104-.09.145-.176.15-.264.037-.609.064-1.22.1-1.828.009-.163-.005-.354.302-.366 0 .15.012.283-.002.414-.049.408-.114.816-.16 1.226-.031.267-.054.54.155.755.22.027.288-.085.3-.27.03-.456.064-.91.1-1.364.01-.128.017-.258.052-.38.053-.181.169-.21.332-.085l-.04.333c-.05.424-.103.847-.147 1.272-.017.166-.024.34.233.444.026-.13.055-.23.066-.333.067-.578.122-1.16.197-1.737.017-.132.05-.33.24-.286.184.042.133.218.094.36-.004.012-.014.025-.016.038-.079.463-.162.924-.231 1.388a.882.882 0 0 0 .02.34c.039.153.15.232.319.22.166-.012.212-.119.218-.262.012-.327.03-.654.035-.98.007-.456-.004-.912.012-1.366.002-.072.103-.194.168-.2.13-.012.189.09.18.229-.039.624-.078 1.249-.105 1.874-.009.217.02.435.035.694l.441-.067c.027-.679.058-1.329.077-1.978.012-.428-.009-.856.018-1.282.013-.187.098-.373.171-.552.042-.103.188-.095.235.01a.5.5 0 0 1 .042.203c-.005.513-.017 1.024-.023 1.536-.006.613-.004 1.225-.013 1.837-.003.24.105.302.332.238.015-.086.04-.168.042-.25.022-.667.04-1.333.06-2 .001-.056-.006-.145.023-.162.073-.042.191-.095.243-.064.07.042.13.16.128.244-.004.182-.052.362-.08.544-.07.446-.165.89-.197 1.34-.018.255.044.265.34.186l.134-2.088c.006-.085.001-.175.03-.252.022-.056.088-.125.139-.129.052-.004.15.056.159.101.025.12.026.248.01.369-.074.606-.155 1.212-.232 1.79.356.337.356.337.739.183-.02-.544-.047-1.096-.054-1.647-.003-.253.032-.506.058-.759.013-.123.083-.244.215-.197.07.025.107.165.138.261.014.047-.02.11-.033.166-.146.614-.155 1.239-.143 1.865.006.308.074.369.399.34.297-.026.592-.08.888-.123.156-.022.314-.034.463-.078.197-.058.234-.234.054-.332-.16-.086-.182-.2-.194-.342-.013-.155-.031-.312-.027-.467.016-.555.06-1.11.055-1.664-.01-.982-.054-1.963-.073-2.944-.036-2.005-.064-4.01-.1-6.015-.002-.106-.03-.212-.05-.354l-.716.16.11 3.086c-.385-.97-.301-2.01-.427-3.052l-.939.163c0 .257.032.483-.006.695-.084.47-.068.931.008 1.4.026.159-.015.335-.057.495-.016.056-.126.086-.194.128-.046-.077-.13-.153-.13-.229 0-.168.059-.336.062-.504.01-.54.005-1.08.007-1.618v-.344c-.428.092-.832.1-1.19.286.04.21.096.373.099.54.011.667.018 1.337.004 2.004-.012.54-.056 1.08-.087 1.62-.012.196-.096.29-.355.2zM20.165 37.585l.09-.1c.325.19.65.378.974.572.133.08.251.225.391.249.248.042.4.187.567.347.13.126.29.226.45.316.18.1.37.07.52-.06.191-.17.386-.344.537-.548.269-.363.504-.751.756-1.127.055-.082.111-.168.186-.23.044-.037.149-.062.185-.036.06.043.117.133.116.201 0 .074-.067.151-.113.22-.229.341-.462.68-.692 1.019-.323.476-.645.955-1.292 1.105.35.193.644.157.885-.169a27.75 27.75 0 0 0 1.163-1.731c.28-.444.47-.95.788-1.36a7.14 7.14 0 0 0 .787-1.255 15.96 15.96 0 0 1 1.404-2.38c.458-.632.91-1.265 1.206-1.99.083-.204.1-.434.138-.653.005-.03-.04-.069-.064-.108l-.223.123c-.158-.158-.217-.423-.53-.418.024.07.027.131.059.167.293.326.232.69.065 1.027-.22.442-.486.863-.744 1.284-.038.062-.164.127-.223.109-.131-.042-.145-.168-.077-.282.16-.268.336-.527.489-.799.117-.207.23-.422.304-.648.034-.104.009-.28-.062-.356-.312-.33-.614-.686-.986-.937a11.796 11.796 0 0 1-1.977-1.645l.082-.283c-.377-.276-.83-.366-1.354-.298-.95.122-1.4.859-1.186 1.702.031.125.052.25.08.376.085.377-.079.586-.453.622-.642.063-1.26.219-1.821.551-.861.509-1.235 1.532-.928 2.507.038.12.124.29.076.363-.136.207-.089.419-.073.611-.252.027-.481.02-.692.08-.288.081-.564.209-.633.559a.47.47 0 0 1-.119.22c-.311.323-.253.737-.265 1.125-.005.15.094.339.205.45a71.864 71.864 0 0 0 1.946 1.907c.24.226.515.423.888.456l-.833-.857zM6.278 27.13l-.003.004zm.104-.161c.486-1.167.951-2.343 1.46-3.5.47-1.067.992-2.109 1.48-3.168.396-.864.783-1.732 1.157-2.606.116-.27.174-.565.28-.924-.318.3-.315.727-.757.938.028-.172.02-.283.065-.364.29-.536.592-1.066.891-1.597.028-.05.085-.096.085-.145 0-.074-.04-.148-.062-.222-.073.023-.154.033-.217.072-.043.027-.06.094-.09.144-.298.516-.594 1.034-.9 1.546-.043.07-.131.115-.199.171a5.061 5.061 0 0 0-.09-.048c.029-.124.029-.265.091-.368.308-.51.627-1.016.954-1.515.206-.313.217-.306-.104-.58-.05.041-.118.075-.155.13-.282.425-.561.85-.834 1.282-.091.143-.144.313-.244.448-.044.06-.162.065-.247.095-.006-.09-.047-.2-.01-.27.173-.325.361-.642.555-.955.187-.303.394-.593.577-.898.162-.27.152-.276-.17-.533-.26.43-.52.85-.772 1.276-.123.208-.221.43-.35.635-.074.12-.187.165-.315.012.361-.654.719-1.298 1.072-1.945.22-.401.184-.509-.278-.79-.246.493-.502.979-.733 1.476-.304.656-.612 1.31-.986 1.93-.096.158-.207.255-.46.211.048-.154.073-.29.13-.41.24-.517.506-1.021.73-1.544.235-.549.436-1.113.645-1.672.029-.076.015-.167.02-.25-.486.566-.866 1.167-1.065 1.89-.24-.135-.191-.284-.123-.425.192-.397.397-.787.586-1.186.16-.339.349-.648.699-.826.017-.009.019-.05.028-.076-.187-.29-.206-.298-.426-.104a1.45 1.45 0 0 0-.246.29c-.116.178-.235.358-.324.55-.195.423-.383.85-.552 1.284-.089.229-.131.275-.462.24.427-1.03.929-2.004 1.6-2.911l-.274-.358c-.261.31-.515.575-.726.872-.354.498-.671 1.02-.855 1.613-.049.158-.273.271-.371.205-.182-.122-.05-.255.017-.367.538-.885 1.082-1.767 1.654-2.7l-.205-.448c-.135.148-.252.235-.315.351-.314.573-.61 1.154-.922 1.728-.067.123-.178.221-.271.335-.209-.168-.167-.305-.077-.452.11-.182.222-.363.323-.55.31-.576.542-1.192.972-1.7.15-.177.114-.252-.163-.466-.104.2-.201.402-.314.595-.107.183-.242.351-.343.537-.17.312-.327.631-.48.952-.213.448-.423.897-.624 1.35-.163.364-.314.731-.464 1.1-.322.79-.652 1.577-.958 2.372-.26.676-.482 1.368-.74 2.045-.17.45-.378.886-.56 1.332-.063.155-.097.32-.143.482l.081.023c.135-.25.267-.499.403-.747.152-.278.238-.334.519-.32-.365.501-.673 1.016-.796 1.626.164-.172.274-.389.437-.55.161-.157.236-.467.581-.413-.017.064-.017.116-.041.14-.49.48-.758 1.098-1.054 1.695a.613.613 0 0 0-.023.44c.094.246.246.47.389.731.238-.172.393-.363.517-.589.164-.3.343-.591.514-.886.174-.303.376-.55.803-.357.104-.207.196-.396.292-.583.079-.151.152-.305.249-.445.09-.13.225-.178.37-.075.139.1.1.25.03.346-.337.468-.489 1.017-.722 1.532-.317.698-.678 1.376-1.015 2.065-.034.07-.038.157-.054.237.098-.046.129-.106.163-.164.285-.489.563-.982.862-1.463.119-.19.286-.347.567-.292-.122.138-.26.249-.336.392-.278.521-.74.948-.815 1.576-.008.062-.076.117-.122.17-.138.162-.058.247.146.349.298-.44.594-.87.882-1.306.094-.141.155-.306.257-.442.158-.209.284-.2.516.023-.365.19-.527.539-.703.879-.079.151-.177.291-.269.436l-.527.822.39.238c.15-.26.274-.48.403-.697.224-.378.437-.764.683-1.127.148-.217.246-.21.491-.06-.031.047-.053.106-.095.135-.348.232-.544.573-.701.945-.05.118-.13.222-.177.34-.104.26-.209.522-.286.79-.02.068.042.202.105.24.067.038.191.02.27-.016.068-.032.12-.119.158-.193.244-.464.478-.933.726-1.395.093-.174.204-.34.323-.497.078-.102.186-.116.298.004-.134.198-.29.383-.394.593-.258.52-.489 1.054-.737 1.58-.162.347-.109.569.243.815.045-.068.083-.111.104-.161zm12.124-5.092c.018-.154.034-.223.033-.293-.012-.554-.034-1.108-.04-1.662a169.75 169.75 0 0 1-.001-2.347c.002-.397.026-.795.026-1.192 0-.938-.007-1.876-.012-2.815-.003-.313-.001-.626-.012-.94-.017-.51-.041-1.02-.063-1.531-.004-.095-.013-.19-.019-.278-.852-.177-.717-.003-.773.502-.004.042-.017.085-.015.127.019.437-.15.875.002 1.313.008.022-.007.053-.02.127l-.354.194c.041-.84.078-1.586.116-2.325-.174-.104-.342-.18-.39.057-.121.581-.272 1.163-.165 1.767.052.292-.004.362-.39.424 0-.184-.017-.363.003-.538.06-.55.137-1.1.2-1.65.026-.24-.038-.301-.27-.347-.204-.04-.34.025-.375.235-.058.35-.124.702-.15 1.055-.03.394-.012.792-.034 1.188-.005.076-.094.192-.162.207-.059.012-.154-.082-.212-.148-.03-.034-.029-.109-.024-.163.046-.567.091-1.134.144-1.7.023-.248.06-.495.097-.776h-.467a8.04 8.04 0 0 0-.135 2.05c.017.299-.064.375-.398.36-.004-.081-.018-.165-.013-.247.033-.539.074-1.077.105-1.615.01-.184.003-.37-.019-.552-.007-.06-.083-.11-.15-.194-.032.088-.054.124-.057.162-.076.992-.16 1.983-.221 2.976-.015.244-.113.382-.343.5-.028-.09-.066-.152-.063-.213.02-.412.006-.832.083-1.234.125-.65.064-1.303.099-1.953.016-.304-.019-.315-.419-.334-.077.215-.177.434-.232.664-.055.23-.064.472-.093.708-.284-.484-.131-.974-.024-1.478l-.4-.089c-.054.257-.11.487-.15.72-.04.224-.04.457-.094.676-.055.225.148.462-.029.694-.055-.035-.104-.048-.119-.079-.038-.076-.082-.158-.084-.24-.007-.593-.004-1.187-.004-1.832l-.339-.123c-.02.517-.05.98-.051 1.442-.002.318-.11.542-.468.668-.03-.772.034-1.52.035-2.277-.08.056-.135.12-.143.189-.023.183-.012.37-.038.554-.199 1.413-.227 2.834-.223 4.257.002.507.007.51.508.717.066.418.317.739.626 1.025.24.222.457.474.719.664.296.214.485.626 1.044.512-.193.378.073.46.272.598.129.088.238.204.36.302.465.366.776.902 1.318 1.182.031.016.054.065.064.105.097.362.404.524.674.742l.2-.424c.237.16.237.16.207.447-.037.35.003.41.394.547l.049-.548c.033-.35.033-.35.281-.399v1.474l.597.405zM37.641 9.943c-.203.014-.372.018-.539.042-.155.022-.248.113-.272.28-.072.525-.09 1.048.016 1.569.002.009.04.01.083.02 0-.305.003-.602-.001-.9-.007-.437.042-.645.222-.819.023.077.059.14.058.203-.003.47-.015.937-.018 1.406-.002.17-.007.343.026.508.097.497.103.495-.335.745-.006.09-.017.189-.015.288.002.07.02.14.03.21.182 1.138.35 2.276.294 3.434-.013.284.02.57.034.854.017.368.038.736.052 1.104.021.511.043 1.023.054 1.533.005.213-.014.426-.024.64-.01.198-.031.397-.024.595a.52.52 0 0 0 .242.45c.017-.174.035-.289.039-.405.023-.625.042-1.252.065-1.877.003-.085.002-.178.037-.251.024-.05.104-.092.164-.1.034-.004.106.065.112.107.014.125.017.255.003.38-.047.453-.113.904-.152 1.357-.017.206.015.415.027.683.211-.06.362-.102.502-.143-.032-.173-.074-.297-.074-.42 0-.568.01-1.136.021-1.703.003-.142.012-.286.047-.422.017-.066.102-.113.156-.169.056.056.144.105.161.17.023.09-.008.196-.015.294-.054.705-.163 1.41-.023 2.148.352-.125.687-.237 1.013-.37.059-.024.117-.134.117-.205.007-.525.014-1.05-.01-1.574-.026-.538-.092-1.074-.128-1.612-.006-.085.05-.174.079-.261.097.036.24.045.281.115.098.165.186.354.206.542.034.296.01.597.01.896v1.87c.422.04.82-.158 1.233-.31-.001-.92-.169-1.801-.052-2.798.136.131.229.18.25.25.037.12.04.253.04.38a90.59 90.59 0 0 1-.023 1.45c-.007.343 0 .357.385.479-.022-.24-.056-.46-.061-.68-.014-.667-.029-1.334-.02-2.002.01-.796.04-1.593.071-2.39.012-.31.086-.62.082-.93-.017-1.267-.052-2.533-.083-3.798-.005-.243-.013-.488-.141-.8v1.784c-.206-.04-.186-.198-.19-.331-.02-.653-.033-1.306-.053-1.959-.003-.113-.026-.225-.04-.338l-.108.005c-.049.45-.107.899-.141 1.349-.01.118.038.249.086.362.123.29-.002.567-.399.738.109-.819-.106-1.626.269-2.402-.513.083-.544.098-.55.554-.007.54.023 1.08.027 1.62a.851.851 0 0 1-.06.366c-.032.067-.156.133-.23.125-.073-.009-.165-.101-.194-.178a.889.889 0 0 1-.032-.337c.012-.326.062-.653.041-.975-.02-.309.01-.634-.126-.96-.218.14-.235.315-.222.505.016.224.033.448.04.673.006.298-.002.597.006.896.017.567.043 1.134.062 1.702.006.192-.059.332-.32.343-.05-.138-.142-.279-.148-.423-.023-.582-.015-1.165-.027-1.748-.008-.448-.028-.897-.044-1.345a.568.568 0 0 0-.138.317c-.025.383-.034.766-.056 1.148-.004.069-.041.135-.09.29-.262-.746.007-1.426-.083-2.1l-1.106.184a9.127 9.127 0 0 0-.106 2.192c.009.098.09.19.143.299-.08.127-.125.308-.404.267-.078-.88.007-1.755-.008-2.687zM21.48 24.694c-.18.228-.334.413-.476.606-.26.354-.508.718-.771 1.07-.098.13-.233.35-.399.214-.212-.172.038-.317.142-.447.417-.518.866-1.015 1.194-1.664l-.552-.334c-.348.535-.664 1.022-.984 1.508-.096.145-.15.347-.383.34-.082-.245-.07-.325.102-.58.277-.412.558-.824.838-1.235.21-.308.18-.38-.277-.529l-.872 1.178c-.126.17-.247.346-.388.503-.052.057-.156.065-.317.126.119-.48.397-.772.606-1.094.222-.34.501-.642.79-1.005l-.472-.334c-.072.098-.118.15-.153.21-.503.858-1.123 1.64-1.58 2.534-.528 1.038-1.162 2.023-1.719 3.048-.659 1.212-1.194 2.489-1.934 3.66-.098.152-.1.365-.146.55.122-.01.179-.048.217-.1.232-.322.454-.654.692-.971.204-.272.42-.536.643-.794.08-.092.202-.138.294-.016.082.109.048.214-.073.284-.013.008-.026.014-.037.023-.275.211-.516.448-.622.793-.02.066-.067.125-.109.183-.196.272-.394.543-.59.81.125.22.24.39.49.432.055-.073.11-.136.155-.206.34-.524.677-1.05 1.016-1.574.047-.071.087-.163.154-.201.073-.042.175-.034.265-.047.003.088.042.199.003.26-.273.414-.54.838-.857 1.22-.236.285-.303.587-.298.949l.388.158c.126-.242.236-.47.36-.69.16-.285.318-.57.5-.84a.9.9 0 0 1 .324-.269c.066-.034.172.009.26.017-.023.075-.027.163-.071.221-.067.09-.182.145-.241.237-.262.405-.518.816-.763 1.231-.096.163-.078.335.086.458.131.098.272.184.435.293.123-.215.222-.385.318-.558.344-.621.683-1.245 1.03-1.866.175-.317.314-.381.69-.31-.583.996-1.152 1.983-1.652 3.042l.58.329c.195-1.03.676-1.79 1.627-2.24-.149-.606-.133-1.208.113-1.792.022-.051.013-.114.028-.168.134-.489.345-.949.745-1.268a3.995 3.995 0 0 1 2.054-.863c.205-.024.406-.083.637-.132-.452-1.437.085-2.303 1.552-2.695-.386-.257-.69-.464-.998-.661-.137-.089-.272-.07-.38.061-.234.285-.493.555-.695.861-.322.486-.61.994-.902 1.497-.084.146-.17.256-.351.24-.11-.251-.107-.25-.007-.423.151-.263.3-.53.451-.794-.227.087-.274.419-.645.306.144-.472.538-.769.745-1.18.207-.412.495-.786.755-1.19l-.565-.383zm22.246-5.489c.275-.147.24-.348.236-.547-.008-.396-.031-.79.259-1.132.097-.115.125-.32.123-.482a52.58 52.58 0 0 0-.068-2.005c-.05-.94-.057-1.875.06-2.814.062-.52.055-1.047.079-1.571a72.53 72.53 0 0 1-.353-.131l-.073-.977c-.11.341-.147.677-.168 1.014-.02.34-.027.682-.04 1.024-.01.317.092.64-.022.957a.298.298 0 0 1-.086-.186c-.023-.398-.038-.796-.062-1.195-.008-.126.007-.279-.059-.371-.165-.237-.12-.49-.12-.742l.001-1.617c-.132-.007-.198.07-.21.2-.044.48-.097.958-.12 1.439-.01.21.045.424.078.693a1.901 1.901 0 0 1-.101.089c-.316.256-.623.505-.505.995.049.201.039.425.023.635-.06.793-.138 1.584-.196 2.377-.036.495-.055.993-.07 1.49-.02.724-.03 1.449-.042 2.172-.001.113-.002.226.006.339.035.516.074 1.033.11 1.537.208-.096.216-.096.214-.296-.003-.37-.013-.741-.026-1.111-.014-.363-.036-.726-.054-1.09.163-.046.265-.004.289.13.028.165.037.336.037.504.002.426-.011.854-.007 1.28.002.093.057.187.087.281.036-.004.072-.01.107-.015.074-.76.096-1.526.133-2.289.16.014.27.047.368.027.282-.058.3-.062.315.19.01.153-.02.308-.04.463-.032.245-.068.49-.103.735zm-.33-13.868c-.035.577-.214 1.096-.044 1.618-.187.264-.394.46-.706.524-.093.02-.175.091-.265.135-.651.313-1.302.625-1.954.94-.07.034-.138.078-.207.118.082.04.149.038.21.017.282-.096.56-.207.845-.292a5.421 5.421 0 0 0 2.519-1.577c.487-.54.347-1.196-.398-1.482zM4.606 21.54c-.631.602-.898 1.375-1.36 2.055l.233.313c.397-.27 1.118-1.769 1.126-2.368zm1.49-14.865c-.337.872-.715 1.637-.891 2.507.076-.024.117-.024.126-.041.28-.524.56-1.05.834-1.576.144-.275.077-.538-.069-.89zM2.637 18.672c-.559.445-.76 1.067-.862 1.737zm26.802-9.819l.002.127.527-.065-.009-.062h-.52zm-.323.118zm-.007-.103c-.158-.002-.33-.089-.531.164l.538-.061-.007-.103zm14.888-.68l-.354.105.195.28c.048-.119.085-.207.16-.385zm-1.155 1.216c-.04.084-.064.115-.057.127.02.035.054.063.082.093a66.404 66.404 0 0 1-.025-.22zM18.99 11.327h.03v-.263a.87.87 0 0 1-.045.001l.015.262zm24.362 8.299l.065.003v-.297a.95.95 0 0 1-.047-.002l-.018.296z"/></g><g><path fill="#2b2a29" d="M25.893 4.122h.003zm-1.994 0c.586.221 1.197.168 1.802.205l.016.222.401.06-.005.061c-.258 0-.516-.005-.775 0-.466.01-.933.013-1.398.045-.537.037-1.079.068-1.607.164-.751.136-1.513.256-2.211.591-.252.121-.485.284-.776.402.04-.068.067-.153.124-.2.539-.449 1.17-.693 1.854-.814.559-.1 1.12-.191 1.68-.29.036-.005.066-.04.128-.08-.225-.163-.46-.103-.667-.084-.933.088-1.872.153-2.795.31-.89.153-1.781.352-2.531.926-.329.25-.477.59-.576.967-.065.25-.059.251-.325.358.04-.654.196-1.215.786-1.566.262-.156.526-.307.8-.466-.056-.053-.079-.088-.094-.086-.61.1-1.188.282-1.69.658-.304.228-.3.597-.421.91-.024.06-.026.13-.121.213-.03-.108-.108-.231-.081-.324.148-.523.306-1.05.914-1.238.542-.17 1.082-.343 1.622-.516.145-.046.29-.096.503-.167-.223-.158-.408-.118-.577-.114-.555.012-1.11.027-1.664.061-.625.038-1.189.263-1.704.612a1.041 1.041 0 0 0-.218.202c-.32.386-.33.564-.065.965-.047.146-.149.153-.27.1-.246-.112-.363-.37-.284-.687.143-.57.554-.914 1.048-1.169.567-.292 1.169-.41 1.813-.395 1.01.022 2.018.02 3.028.074.976.05 1.96-.061 2.94-.092 1.134-.035 2.267-.045 3.39.182H23.9zm-4.567.365l-.02-.075-.26.082.015.056c.089-.02.177-.042.266-.063z"/></g><g><path fill="#2b2a29" d="M18.664 7.419c.027-.573.395-.922.79-1.247.402-.332.884-.487 1.38-.632.7-.206 1.411-.318 2.134-.38.084-.007.17 0 .257.03-.642.127-1.29.232-1.924.39-.882.221-1.68.611-2.277 1.328-.133.16-.24.34-.36.51z"/></g><g><path fill="#2b2a29" d="M23.226 15.591c-.25-.079-.213-.226-.21-.345.018-.68.03-1.36.071-2.04.027-.453.095-.904.155-1.354.022-.169.068-.391.28-.358.24.038.139.265.128.425l-.178 2.764c-.012.185-.007.374-.05.552-.03.127-.13.238-.197.357z"/></g><g><path fill="#2b2a29" d="M21.315 11.38c-.057.514-.115.978-.158 1.443-.016.182-.004.368.005.551.013.257.016.26-.269.463-.013-.156-.045-.291-.032-.422.055-.593.123-1.184.184-1.775.017-.15.062-.27.27-.26z"/></g><g><path fill="#2b2a29" d="M33.46 13.544c-.21-.973-.23-1.87.033-2.76l.102-.011c.026.085.071.17.076.256.028.523.047 1.047.072 1.57.003.068.013.14.038.202.142.354.122.417-.32.743z"/></g><g><path fill="#2b2a29" d="M35.966 22.192c-.32-.085-.284-.306-.295-.467-.025-.354-.01-.71-.015-1.066-.003-.256-.012-.511-.02-.767-.002-.07-.034-.156-.004-.205.061-.1.15-.25.237-.256.183-.013.149.17.146.29-.012.807-.031 1.612-.048 2.471z"/></g><g><path fill="#2b2a29" d="M34.917 10.614c.195.18.164.386.164.579-.003.568-.017 1.135-.015 1.703 0 .147-.06.224-.19.224-.16.002-.162-.112-.143-.24.097-.664.13-1.33.035-1.997a.326.326 0 0 1 .03-.163c.014-.033.058-.053.119-.106z"/></g><g><path fill="#2b2a29" d="M24.456 29.342c-.498-.005-.86-.35-.845-.808.016-.521.356-.803.95-.788.473.013.735.275.739.743.005.5-.348.857-.845.853zm-.177-1.239c-.22.25-.23.352-.065.499.19.168.333.128.58-.175-.165-.103-.328-.205-.515-.324z"/></g><g><path fill="#2b2a29" d="M23.104 31.184c0 .104.018.212-.003.312-.143.71-1.488 4.641-1.672 4.871-.107-.15-.07-.303-.03-.442.387-1.336.78-2.67 1.172-4.004.012-.04.034-.108.052-.109.308 0 .196-.285.288-.428.042-.064.058-.145.085-.218.037.006.073.012.108.02z"/></g><g><path fill="#2b2a29" d="M20.081 35.762c.002.245-.132.432-.46.462-.22.02-.45-.018-.671-.054-.072-.012-.157-.088-.191-.156-.314-.639-.033-1.28.642-1.343.287-.027.577.17.624.452.03.181.033.367.056.638zm-.376-.186c.01-.164-.235-.593-.335-.587-.155.01-.36.302-.365.525-.004.208.125.341.34.348.19.006.35-.121.36-.286z"/></g><g><path fill="#2b2a29" d="M22.382 30.242c.01.291-.177.33-.387.358-.236.031-.478.055-.705.124-.698.21-1.081.694-1.167 1.415-.008.068-.025.135-.052.266-.282-.426-.3-.802-.063-1.18.38-.61 1.343-1.165 2.189-1.065.065.008.125.054.185.082z"/></g><g><path fill="#2b2a29" d="M23.138 35.15c.364-1.82 1.15-3.487 1.852-5.187.201.057.196.152.143.274-.397.892-.818 1.775-1.178 2.682-.255.643-.423 1.32-.632 1.982-.03.091-.066.18-.099.27a10.902 10.902 0 0 0-.085-.02z"/></g><g><path fill="#2b2a29" d="M18.632 34.438c0-.248.175-.34.352-.36.305-.033.617-.023.925-.012.06.002.117.093.175.143-.068.058-.13.127-.207.167-.042.024-.11-.006-.166-.003-.345.019-.69.041-1.079.065z"/></g><g><path fill="#2b2a29" d="M24.715 27.267l-1.341.46c-.107-.145-.002-.228.1-.305.262-.199.861-.296 1.241-.155z"/></g><g><path fill="#2b2a29" d="M25.224 32.716c.052-.505.28-.894.36-1.408"/></g><g><path fill="#2b2a29" d="M25.864 30.63c.145.194-.012.28-.13.38"/></g><g><path fill="#2b2a29" d="M26.244 29.991l-.158.336-.08-.033.13-.35.108.047z"/></g><g><path fill="#2b2a29" d="M26.344 29.525l.07-.25.068.023-.09.24c-.017-.004-.033-.009-.05-.012z"/></g><g><path fill="#2b2a29" d="M4.151 20.803c-.345.553-.669 1.065-.986 1.581-.08.13-.16.23-.367.177.017-.087.011-.175.05-.234.298-.467.607-.926.908-1.392.097-.15.207-.221.394-.132z"/></g><g><path fill="#2b2a29" d="M40.813 20.881c-.034-.102-.081-.187-.088-.276a98.402 98.402 0 0 1-.155-2.238c-.006-.09.058-.246.122-.266.152-.046.237.09.247.221.026.324.033.649.038.974.004.395-.02.79.12 1.173.081.222-.05.338-.284.413z"/></g><g><path fill="#2b2a29" d="M39.139 20.22l.052.952c.003.04.008.096-.014.123-.05.06-.115.143-.179.149-.048.004-.141-.096-.149-.158-.024-.181-.011-.367-.02-.55-.017-.41-.042-.818-.058-1.227a1.764 1.764 0 0 1 .02-.378c.023-.135.108-.262.256-.209.073.027.147.17.147.261.003.297-.029.594-.056 1.039z"/></g><g><path fill="#2b2a29" d="M38.848 9.958c.007.128.032.258.019.384-.05.463-.124.924-.168 1.388-.018.204.016.412.028.666-.107.064-.22.063-.236-.146-.024-.309-.054-.618-.04-.926.018-.351.077-.703.13-1.052.017-.114.073-.221.11-.332l.157.017z"/></g></g></g></svg>