<svg xmlns="http://www.w3.org/2000/svg" width="130" height="120" viewBox="0 0 130 120"><g><g><path fill="#2b2a29" d="M125.836 14.424c2.635.484 4.033 2.87 4.15 5.326.053 1.125-.067 2.257-.11 3.385-.01.25-.048.502-.044.752.048 2.298.134 4.596.139 6.894 0 1.5-.146 3.001-.177 4.504-.055 2.54-.116 5.085-.094 7.626.02 2.387.18 4.771.219 7.156.02 1.291-.27 2.61-.082 3.866.198 1.321-.246 2.149-1.084 3.083-1.846 2.057-3.863 3.798-6.534 4.673-1.825.598-3.632 1.253-5.453 1.864-2.016.678-4.012 1.453-6.07 1.969-2.465.62-4.984 1.057-7.496 1.487-1.43.243-2.887.363-4.335.443-2.58.14-5.164.186-7.742.316-1.698.084-3.392.264-5.092.359-.82.048-1.65.023-2.475.005-2.385-.055-4.77-.12-7.154-.19-1.337-.035-2.673-.154-4.008-.113-3.546.112-7.074-.32-10.615-.368-1.241-.018-2.476-.3-3.717-.439-.482-.054-.97-.05-1.457-.07-.04.084-.082.17-.123.259.65.607 1.257 1.275 1.962 1.807 1.603 1.207 3.176 2.462 5.012 3.333.632.3 1.15.834 1.744 1.222 2.202 1.44 4.403 2.878 6.63 4.279.557.35 1.255.477 1.815.825 1.693 1.054 3.293 2.275 5.041 3.23 1.794.98 3.346 2.291 5.07 3.355 1.568.968 2.175 2.573 2.907 4.108.05.104.05.256.016.37-.437 1.514-.503 3.135-1.516 4.483-.748.99-1.6 1.955-1.83 3.255-.034.193-.191.37-.3.548-1.921 3.18-3.82 6.376-5.776 9.533-1.057 1.707-2.224 3.349-3.33 5.026-.598.91-1.128 1.869-1.771 2.744-1.014 1.38-2.048 2.769-3.687 3.482a3.415 3.415 0 0 1-1.43.287c-1.44-.048-2.776-.443-4.003-1.257-2.999-1.99-6.045-3.903-9.038-5.899-1.346-.898-2.437-2.132-3.117-3.567-.804-1.702-2.273-2.643-3.65-3.673-2.11-1.575-4.344-2.982-6.524-4.464-2.628-1.79-5.272-3.56-7.877-5.383-2.941-2.06-5.985-3.97-8.6-6.488-1.831-1.766-3.861-3.332-5.828-4.958-.272-.225-.702-.263-1.107-.404-.213-.41-.413-.953-.743-1.4a26.473 26.473 0 0 0-4.192-4.488c-.561-.477-.975-1.132-1.44-1.716-1.333-1.666-2.76-3.269-3.958-5.028-1.055-1.548-1.912-3.244-2.746-4.928a39.424 39.424 0 0 1-1.894-4.501c-.404-1.17-.616-2.412-.859-3.633-.234-1.175-.352-2.355-.898-3.475-.439-.9-.086-1.91.26-2.805.963-2.496 2.002-4.963 2.961-7.459.33-.854.448-1.788.775-2.643.628-1.641 1.335-3.253 2.012-4.878.095-.232.214-.455.305-.69 1.407-3.709 2.757-7.441 4.237-11.122.68-1.693 1.498-3.33 2.51-4.882.952-1.462 1.616-3.108 2.447-4.654.437-.809.882-1.632 1.45-2.348 1.017-1.28 2.574-1.53 4.174-2.132 0 .573.105.968-.02 1.27-.289.692-.598 1.41-1.069 1.98-.572.696-.845 1.406-.661 2.408l1.12-1.348c.128.27.226.398.25.541.164.893.237 1.812.485 2.68.24.839.714 1.553 1.396 2.182 1.925 1.778 4.219 2.799 6.678 3.544 1.28.391 2.532.875 3.812 1.273 1.875.582 3.758 1.146 5.649 1.68 1.812.511 3.621 1.043 5.458 1.446 2.366.518 4.757.927 7.142 1.368 1.687.311 3.373.625 5.07.884 1.445.223 2.902.375 4.357.546 1.245.145 2.493.298 3.746.402 1.739.143 3.471.46 5.226-.004.666-.178 1.407-.069 2.116-.08 1.8-.03 3.608.01 5.403-.095 1.712-.1 3.415-.38 5.126-.514 1.119-.086 2.248-.073 3.371-.066 2.649.014 5.267-.286 7.881-.71 4.049-.654 8.111-1.21 12.148-1.909 1.685-.29 3.326-.836 4.978-1.289.173-.047.291-.265.45-.388.253-.193.49-.45.778-.546 1.664-.548 3.37-.975 5.003-1.602.92-.353 1.725-1.005 2.58-1.521.323-.196.652-.38.97-.58.94-.588.98-.718.624-2.075-.382.182-.769.318-1.107.534-1.583 1-3.367 1.47-5.138 1.978-1.764.504-3.53 1.002-5.303 1.484-1.769.48-3.535.975-5.32 1.394-1.134.265-2.311.345-3.443.616-2.194.525-4.346 1.238-6.556 1.657-1.548.29-3.164.28-4.75.307-3.174.052-6.35.056-9.523.045-4.308-.016-8.62.02-12.923-.132-2.498-.088-4.98-.575-7.478-.755-3.544-.254-7.097-.361-10.643-.595-.946-.064-1.878-.355-2.814-.546-2.046-.418-4.088-.857-6.138-1.254-.964-.19-1.964-.22-2.907-.471-1.94-.511-3.846-1.139-5.61-2.128-1.167-.652-2.294-1.318-3.674-1.532-1.377-.213-2.612-.884-3.66-1.841a11.223 11.223 0 0 0-1.061-.884c-1.169-.839-1.75-1.907-1.75-3.4 0-1.894.368-3.458 2.254-4.377.769-.375 1.364-1.09 2.117-1.514.848-.477 1.716-.868 2.734-1.061 1.373-.264 2.662-.975 3.978-1.51.128-.052.207-.218.225-.543-.923.157-1.864.248-2.761.491-.887.239-1.74.61-2.592.957-.89.364-1.748.816-2.653 1.137-.804.286-1.439 1.004-2.316 1.093l-.157-.25c.17-.202.303-.48.52-.593 1.187-.619 2.424-1.14 3.585-1.796 1.63-.923 3.417-1.31 5.206-1.734 3.25-.773 6.474-1.712 9.759-2.296 3.705-.66 7.465-.97 11.236-1.112C55.732.974 58.355.66 60.983.505c3.094-.18 6.188-.325 9.281-.422 2.303-.073 4.61-.119 6.91-.044 2.426.08 4.852.264 7.27.496 4.294.411 8.586.852 12.869 1.364 1.995.239 3.973.625 5.946 1.02 2.71.541 5.42 1.1 8.102 1.753 1.5.366 2.962.898 4.419 1.419 1.454.52 2.907 1.063 4.312 1.7 1.216.552 2.418 1.168 3.528 1.905a3.888 3.888 0 0 1 1.67 2.43c.17.773.364 1.54.541 2.3zm-49.93 68.188a2.293 2.293 0 0 1-.037-.011l.01.038.052-.001a3.232 3.232 0 0 0-.025-.026zm1.364 1.036c-.301-.534-.646-1.015-1.339-1.01.39.412.696.937 1.34 1.01zm-3.3-2.57c.553.608 1.055 1.282 1.899 1.523-.277-.95-1.262-1.023-1.9-1.524zM23.68 31.121l.002-.002-.004-.004zm.249-.561c.075-1.662.136-3.326.159-4.987.002-.175-.27-.355-.51-.644 0 2.019-.004 3.794.005 5.57 0 .199.071.396.11.596.088-.178.227-.353.236-.535zm-.235.535a1.141 1.141 0 0 0-.012.024l.012.015c-.07.738-.186 1.477-.184 2.215 0 .391.137.834.353 1.16.827 1.25 1.673 2.495 2.584 3.684.828 1.078 1.75 2.08 2.632 3.117l.326-.105c.28-2.255.18-4.526.127-6.801-.055-2.291-.012-4.587-.012-7.113-.745 1.578-.681 3.028-.625 4.517-.28-.391-.472-.796-.527-1.218-.139-1.08-.2-2.17-.327-3.251-.03-.241-.198-.464-.357-.816-.744.775-.81 1.652-.932 2.416-.128.796.109 1.65.186 2.476-.343-.207-.668-.478-.73-.796-.14-.732-.209-1.491-.202-2.237.007-.623.184-1.24.243-1.866.06-.627-.268-.798-.88-.657-.095.905-.21 1.77-.272 2.64-.066.945-.425 1.89.011 2.847.057.126-.068.437-.197.519-.14.084-.437.066-.571-.032-.207-.15-.462-.472-.632-.683l.083.102a8.27 8.27 0 0 0-.097-.118l.003-.024a2.126 2.126 0 0 0-.003-.015zm-7.856-5.06a.989.989 0 0 1-.022-.044l-.012.016-.03.073a3.22 3.22 0 0 1 .067-.044zm-1.143 1.81c-.057.574-.489.82-.943.803-.517-.02-.435-.485-.4-.862-.537-.24-.959-.32-1.194-.57-.38-.402.098-.739.25-1.107a190.123 190.123 0 0 0 1.821-4.53c.155-.398.22-.832.325-1.248-.982.834-1.5 1.93-1.957 3.02-.903 2.156-1.698 4.352-2.54 6.532-1.129 2.925-2.275 5.846-3.388 8.776-.814 2.14-1.59 4.296-2.346 6.35.89 1.067.884 1.06.238 2.04-.368.56-.763 1.114-1.036 1.719-.296.648-.787 1.25-.728 2.26.237-.348.36-.508.462-.68.559-.935 1.105-1.873 1.67-2.803.296-.487.678-.807 1.455-.468-.863.711-1.602 1.38-1.798 2.473l.973.345c-.99 1.155-1.887 2.246-2.057 3.912.575-.67 1.01-1.23 1.5-1.732.32-.325.725-.598 1.123-.043-2.116 2.357-3.38 4.628-3.262 5.98.916-1.681 1.405-3.659 3.621-3.959 1.257-2.064 1.842-4.337 2.474-6.594.1-.362.2-.728.34-1.073.65-1.587 1.317-3.167 1.974-4.749.657-1.584 1.323-3.169 1.964-4.758.625-1.548 1.193-3.118 1.845-4.653a110.506 110.506 0 0 1 2.38-5.233c.248-.507.444-.94.194-1.684-.32.452-.596.76-.778 1.112-.823 1.588-1.614 3.193-2.432 4.787-.111.216-.3.393-.623.8-.09-1.21.312-1.98.643-2.769.443-1.05.876-2.104 1.31-3.16-.627.423-1.003 1-1.08 1.767zm-1.343-.059l.027.012a1.323 1.323 0 0 1-.025-.042v.013l-.002.017zm3.866-3.623c.11-.159.016-.457.016-.939-.475.655-.827 1.021-1.036 1.455-.193.403-.64.776-.382 1.312.474-.606.967-1.197 1.402-1.828zm-3.864 3.593c-.005-.051-.058-.1 0 0zm10.34 3.378zm60.82-27.006l.08.416c-.468.066-.936.166-1.409.193-.875.052-1.75.055-2.626.09-.584.026-1.168.08-1.754.103-2.571.1-5.147-.57-7.718.032-.12.03-.25.023-.375.025-2.67.057-5.34-.01-8.001.4-1.728.266-3.494.275-5.24.425-2.287.2-4.571.407-6.853.646-2.453.259-4.906.523-7.347.859-1.364.189-2.696.675-4.062.78-3.196.247-5.865 1.864-8.677 3.12-.339.15-.666.383-.92.65-.75.796-1.48 1.62-1.308 2.851.287 2.064 1.548 3.317 3.61 4.324-.32-1.012-.489-1.785-.807-2.487-.352-.775-.227-1.398.162-2.128.777-1.461 2.025-2.327 3.47-2.925 1.583-.65 3.224-1.153 4.824-1.764 3.908-1.494 7.974-1.773 12.105-1.682 1.546.034 3.096-.043 4.644-.114 1.125-.05 2.268-.339 3.369-.211 1.311.152 2.591.138 3.87-.053 2.08-.309 4.158-.44 6.259-.309.916.057 1.836.025 2.755.016 1.173-.011 2.343-.077 3.514-.045 2.007.052 4.014.161 6.022.254.18.01.359.07.777.16-.411.236-.605.438-.81.447-.786.039-1.577.025-2.365.016-2.049-.025-4.094-.059-6.143-.088-1.336-.019-2.673-.032-4.01-.057-1.5-.028-2.984-.057-4.482.268-1.3.284-2.66.34-3.996.4-.907.04-1.832-.196-2.733-.116-2.373.214-4.734.391-7.126.361-1.827-.025-3.664.244-5.487.457-2.894.34-5.615 1.29-8.245 2.503-1.607.741-2.898 1.828-3.594 3.51-.782 1.891-.068 4.103 1.728 5.067 1.098.588 2.264 1.068 3.435 1.507 2.67 1 5.426 1.7 8.251 2.123 1.489.223 2.955.611 4.449.789 3.366.398 6.74.718 10.11 1.061 4.874.491 9.761.696 14.656.657.336-.002.67-.107 1.025-.166-.216-.786-.725-.686-1.173-.716-1.212-.082-2.426-.148-3.635-.254-.552-.048-1.084-.214-1.798-.716.598-.107.905-.198 1.214-.21.416-.015.836.057 1.25.041 1.916-.075 3.83-.159 5.744-.261 1.294-.068 2.594-.111 3.876-.273.891-.111 1.757-.404 2.635-.616-.969-.238-1.914-.266-2.858-.23-.748.03-1.489.155-2.237.203a75.476 75.476 0 0 1-3.125.15c-1.632.039-3.264.061-4.896.066-1.874.007-3.753-.102-5.622 0-2.166.118-4.248-.196-6.313-.775-1.059-.298-1.836-.996-2.448-1.873-.59-.85-.463-1.63.425-2.135.976-.555 1.987-1.075 3.037-1.47 2.483-.935 5.044-1.546 7.722-1.528.375.002.753-.064 1.128-.107 2.33-.27 4.655-.546 7.015-.341 1.709.15 3.428.21 5.141.3 2.642.141 5.36-.364 7.87.925.25.128.582.078.862.164 1.182.366 2.334.811 3.543 1.491l-.709.939c-.448-.311-.764-.596-1.127-.775-1.594-.784-3.296-1.175-5.056-1.362-3.298-.352-6.592-.42-9.895-.004-1.775.222-3.578.23-5.36.42-1.577.17-3.155.407-4.71.714a19.919 19.919 0 0 0-3.253.934c-.497.191-1.195.45-1.166 1.164.037.814.8.984 1.396 1.262.148.068.325.088.49.1.92.063 1.838.14 2.756.163 1.298.034 2.603-.038 3.896.044 2.671.17 5.333.559 8.013.138.077-.011.161.039.243.043.746.055 1.494.175 2.235.146 2.093-.08 4.182-.225 6.276-.341.364-.02.775-.125.948.457-.762 1.07-2.153.411-3.367 1.148 1 .136 1.74.366 2.455.309 2.071-.164 3.97-.912 5.75-1.966 1.179-.698 1.627-1.748 1.452-3.285.5.123 1.138.098 1.275.345.598 1.098 1.114 2.26.655 3.578-.453 1.296-1.526 1.917-2.712 2.199-1.457.347-2.97.484-4.463.65a9.315 9.315 0 0 0-3.127.898c1.955.43 3.91.245 5.85.15.942-.046 1.899-.33 2.792-.66 1.525-.561 2.996-1.275 4.512-1.868 1.171-.46 1.785-1.341 2.096-2.49.227-.845.073-1.26-.702-1.654-.705-.357-1.446-.646-2.187-.923-1.3-.484-2.612-.937-3.919-1.403.523-.27 1.093-.486 1.553-.343 1.75.546 3.584.875 5.198 1.816 1.33.776 1.587 1.496 1.037 2.928-.2.519-.432 1.028-.757 1.798 1.58-.67 2.41-1.668 2.955-2.916.482-1.105.564-2.194-.386-3.144-.069-.07-.055-.22-.078-.332.844-.27 1.282-.113 1.58.625.496 1.223.225 2.39-.384 3.496-.325.594-.718 1.15-1.082 1.721.811-.2 1.548-.45 2.123-.9 1.205-.946 2.02-2.232 1.82-3.792-.29-2.261-1.718-4.253-4.309-4.557-.514-.06-1.012-.25-1.516-.378.022-.102.045-.206.07-.311 1.632-.332 3.214.005 4.537.975 2.08 1.525 2.942 3.649 2.228 6.445 1.598-.787 2.276-2.053 2.973-3.42.587.749.387 1.278-.047 1.803-.405.49-.794.99-1.191 1.487.065.057.13.116.193.175.345-.216.734-.384 1.025-.657.707-.666 1.457-1.441 1.384-2.437-.097-1.31-.6-2.534-1.918-3.178-1.016-.493-2.028-.993-3.067-1.434-1.077-.457-2.164-.927-3.291-1.23-.575-.154-1.335.26-1.848.037-.61-.264-1.148-.607-1.848-.64-.537-.024-1.073-.163-1.59-.317-.17-.05-.277-.312-.556-.653 1.136.098 2.039.27 2.932.232 1.716-.07 3.296.37 4.853 1.012 1.662.684 3.308 1.425 5.003 2.014 1.057.366 1.699.993 2.055 2.018.153.437.396.841.6 1.262.107-.027.212-.055.319-.084.02-.835.23-1.723.013-2.49-.22-.777-.861-1.436-1.363-2.22 1.14.016 1.85.784 2.777 2.625 1.08 2.144.18 3.89-.989 5.608.071.005.155.03.221.007 2.189-.773 3.942-2.085 5.394-3.93.955-1.214 1.2-2.392.589-3.712-.4-.862-1.003-1.633-1.56-2.41-.12-.168-.427-.21-.652-.295-.732-.282-1.486-.514-2.196-.844-1.355-.634-2.68-1.325-4.023-1.982-.105-.052-.248-.016-.368-.045-.526-.128-1.06-.237-1.573-.4-.953-.303-1.878-.735-2.851-.942-2.905-.616-5.826-1.157-8.745-1.709-1.473-.28-2.948-.555-4.432-.764-1.864-.263-3.74-.445-5.608-.689-1.282-.168-2.55-.45-3.835-.554a305.86 305.86 0 0 0-8.772-.575C76.5 1.076 74.16.929 71.828.985c-2.416.061-4.821.355-7.251.282-1.455-.043-2.917.12-4.371.248-1.455.127-2.905.327-4.358.484-.746.08-1.491.157-2.237.184-.75.025-1.505-.064-2.25-.014-1.25.084-2.51.157-3.74.384-1.661.31-3.446.194-4.905 1.305-.175.134-.484.123-.732.12-1.086-.01-2.032.43-2.975.892-.298.145-.6.289-.912.398-2.644.925-5.294 1.832-7.936 2.764-.827.29-1.68.561-2.434.989-1.446.818-2.946 1.616-3.144 3.582-.145 1.47.246 2.68 1.532 3.826.112-.882.212-1.571.28-2.264.095-.948.384-1.837 1.084-2.485 1.17-1.082 2.462-2.014 3.953-2.61 2.253-.9 4.601-1.45 6.958-2.025 5.203-1.268 10.498-1.602 15.8-1.975 3.3-.232 6.59-.564 9.885-.85.29-.025.581-.06.875-.07 2.62-.099 5.248.297 7.87-.203.715-.136 1.502-.016 2.243.086 2.08.287 4.146.416 6.247.114 1.047-.152 2.136-.025 3.205-.025zM79.508 66.74c.084-.222.223-.443.25-.677.193-1.578.364-3.16.539-4.737.052-.457.05-.925.161-1.366.046-.182.323-.307.493-.457.114.23.23.459.337.693.014.03-.025.077-.03.12-.17 1.41-.377 2.815-.497 4.229-.064.74-.025 1.507.445 2.184h1.303c.416-2.716-.632-31.272-1.219-33.406-.664-.087-1.323-.505-2.2.016 0 .568-.007 1.23 0 1.891.013 1.591.034 3.182.052 4.774.005.409-.082.736-.655.707l-.238-7.388c-1.107-.293-1.36-.264-1.428.318-.225 1.946-.545 3.903-.098 5.858.13.557.25 1.048-.525 1.593-.063-.159-.143-.311-.186-.472-.61-2.31-.38-4.635-.068-6.938-1.437-.398-1.705-.314-1.919.946-.223 1.309-.257 2.652-.398 3.98-.075.7-.17 1.402-.316 2.089-.034.157-.311.261-.638.514-.191-2.614.163-5.001.352-7.415-.257-.057-.414-.114-.575-.123-1.068-.06-1.068-.007-1.282 1.034-.248 1.205-.318 2.39-.141 3.614.093.653.061 1.342-.034 1.996-.084.566-.312 1.116-.534 1.648-.048.114-.357.175-.535.155-.106-.014-.243-.223-.27-.362a1.66 1.66 0 0 1 .025-.625c.336-1.702.261-3.418.211-5.135-.022-.782-.002-1.561-.002-2.439-1.634-.488-3.43-.334-5.217-.311-.59.009-.736.377-.88.864-.588 2.005-.59 4.032-.309 6.078.08.577-.016 1.073-.793 1.225-.286-2.712-.011-5.36.22-8.044-1.452-.566-2.873-.766-4.314-.828-.639 1.296-.495 2.614-.534 3.899-.025.822-.005 1.659.125 2.468.139.87.084 1.016-1.073 1.232-.068-.445-.216-.898-.186-1.339.122-1.875.3-3.748.456-5.623.064-.74-.018-.84-.784-.966-.945-.157-1.227-.044-1.33.65-.281 1.92-.122 3.839.214 5.737.182 1.025.007 1.487-1.234 2.057v-3.873l-.262.009c-.175 2.2-.272 4.4-.177 6.615.152 3.548.31 7.099.405 10.65.034 1.247-.137 2.5-.164 3.75-.034 1.5-.036 3-.007 4.501.012.527.16 1.05.246 1.578l.263-.035c.075-.997.175-1.99.216-2.991.023-.56.139-.964.926-1.027.072 1.852-.273 3.614-.428 5.496.648.093 1.2.175 1.83.266.18-1.38.33-2.619.505-3.855.059-.412.154-.828.309-1.21.054-.136.35-.272.507-.245.147.023.316.248.363.416.053.186.016.423-.047.616-.487 1.443-.496 2.928-.43 4.428.364.132.602.123.664-.302.12-.869.266-1.737.38-2.605.095-.748.122-1.507.259-2.246.04-.232.334-.418.511-.625.214.22.55.413.612.67.08.339-.019.74-.105 1.098-.339 1.391-.493 2.783-.15 4.283h1.873c0-1.137.023-2.176-.007-3.214-.018-.71-.136-1.419-.143-2.128-.002-.193.264-.564.357-.548.243.039.6.205.66.396.13.43.14.904.14 1.361 0 .998-.13 1.994.343 2.958.207.42.146.932-.552.986-.111.01-.214.146-.396.282 1.962.384 2.146.227 2.23-1.484.125-2.464.289-4.929.455-7.39a2.99 2.99 0 0 1 .243-.969c.07-.159.312-.357.453-.34.213.027.44.19.595.358.093.1.068.321.077.485.09 1.757.237 3.512.24 5.269.001 1.075-.242 2.15-.34 3.228-.077.827.137 1.018 1.196 1.03 0-.58-.025-1.162.005-1.74.061-1.13.122-2.261.256-3.382.03-.245.35-.618.566-.641.426-.043.478.352.467.716a296.23 296.23 0 0 0-.105 4.262c-.005.278.066.56.107.903h1.311c.073-.305.182-.58.2-.862.085-1.332.15-2.666.207-3.998.025-.562-.013-1.146.925-.987.205.96-.022 1.898-.122 2.844-.1.977-.173 1.955-.262 2.998h1.287c.525-1.746.896-3.482.736-5.308-.018-.209.246-.44.38-.663.193.184.52.35.548.554a8.04 8.04 0 0 1 .02 1.735c-.102 1.234-.252 2.466-.39 3.78.852.068 1.575.125 2.484.2v-5.276c0-.914.239-1.064 1.205-.787-.055 2.017-.107 4.022-.164 6.097h1.943zm-47.44 10.682c-.082.182-.119.35-.214.473-1.14 1.464-1.969 3.091-2.683 4.8-.361.867-1.002 1.612-1.411 2.462-.503 1.046-.896 2.146-1.33 3.226-.043.105-.025.236-.043.418.243.191.495.391.877.694.478-.66.944-1.237 1.332-1.862.507-.818.912-1.698 1.43-2.51.534-.834 1.144-1.625 2.296-1.895.084 1.193-1.007 1.504-1.448 2.234-.477.787-1.046 1.52-1.464 2.337-.411.8-.682 1.673-1.046 2.591l1.426.975.359-.638c.782-1.428 1.546-2.867 2.36-4.274.179-.311.509-.55.804-.773.284-.216.627-.311.884.046.232.32.169.609-.159.864-1.42 1.109-2.005 2.752-2.67 4.325-.364.86-.042 1.498.818 1.894.14-.187.325-.364.432-.58.602-1.195 1.147-2.423 1.798-3.591.336-.603.816-1.146 1.313-1.63.123-.12.571.093.871.152-.09.248-.111.584-.286.732-1.54 1.289-2.26 3.082-2.992 4.85-.35.844-.202.999.803 1.463.175-.364.331-.737.527-1.092.643-1.17 1.296-2.339 1.957-3.5.289-.51.589-1.014.923-1.494.211-.302.505-.445.923.01-1.216 2.113-2.085 4.464-3.842 6.394.816.652 1.548 1.307 2.603 1.591.61-1.046 1.228-2.034 1.77-3.06 1.472-2.768 2.906-5.557 4.363-8.333 1.107-2.11 2.18-4.242 3.36-6.313 1.43-2.502 2.95-4.955 4.446-7.42.63-1.038 1.293-2.052 1.934-3.081.519-.835.471-1.055-.343-1.653-.161-.118-.35-.2-.632-.357-1.066 1.962-1.634 4.244-3.916 5.487-.02-.4-.107-.636-.025-.768.33-.53.652-1.089 1.086-1.525 1.007-1.012 1.523-2.294 2.1-3.546.046-.1-.065-.275-.143-.544-.309.262-.577.405-.722.628-.96 1.464-1.892 2.946-2.83 4.421-.066.107-.087.264-.18.327-.184.13-.4.212-.603.312-.1-.205-.325-.441-.28-.607.133-.48.312-.968.585-1.382.737-1.116 1.525-2.198 2.303-3.29.866-1.211.698-1.732-.762-2.263-1.132 1.595-2.257 3.205-3.407 4.794-.164.225-.45.359-.68.534-.09-.055-.18-.112-.27-.166.043-.341 0-.723.147-1.007.25-.475.619-.891.941-1.328.882-1.207 1.767-2.41 2.776-3.789l-1.378-1.425c-1.061.827-1.68 1.655-2.2 2.566-.373.653-.741 1.307-1.125 1.95-.23.385-.516.673-1.007.387-.01-1.023 1.741-3.912 3.369-5.52a917.02 917.02 0 0 1-1.344-1.115c-.916 1.395-1.991 2.557-2.682 3.996-.234.489-.46.995-1.312.845.289-2.439 2.237-3.857 3.376-5.737a624.45 624.45 0 0 0-.914-1.12c-.33.35-.536.504-.661.709a292.725 292.725 0 0 0-2.708 4.516c-.813 1.39-1.386 2.905-2.189 4.301-.266.462-.44 1.023-1.243.853.02-.253-.011-.512.07-.728.328-.86.732-1.689 1.023-2.56.257-.775 1.103-1.463.434-2.425-.06-.089.037-.318.105-.461.273-.564.527-1.14.855-1.671.657-1.068 1.377-2.098 2.027-3.169.248-.407.75-.895-.127-1.448-.366.45-.768.864-1.068 1.339-.448.707-.807 1.468-1.235 2.191-.297.503-.616 1-.988 1.448-.103.123-.505.153-.637.05-.139-.107-.182-.432-.145-.64.034-.183.243-.33.361-.503.882-1.273 1.75-2.553 2.646-3.817.327-.461.284-.87-.1-1.227-.236-.22-.548-.362-.86-.562-.215.275-.42.487-.563.732a236.66 236.66 0 0 0-2.305 4.037c-.161.291-.225.726-.662.562-.47-.175-.377-.577-.195-.953.255-.522.461-1.075.755-1.577.675-1.155 1.39-2.285 2.166-3.549l-1.516-1.166c-1.025 1.798-1.957 3.415-2.869 5.042-.252.453-.534.725-1.086.482-.028-.159-.096-.293-.062-.395.725-2.13 2.171-3.822 3.562-5.681l-1.286-1.007c-.228.28-.382.425-.48.602-.816 1.462-1.641 2.915-2.414 4.397-.275.527-.512.945-1.348.595l3.64-6.367c-.41-.461-.76-.857-1.24-1.4-.28.464-.522.782-.68 1.139-1.415 3.21-2.736 6.465-4.248 9.629-1.261 2.641-2.468 5.298-3.537 8.024-.975 2.484-2.596 4.687-3.248 7.32-.096.388-.268.759-.498 1.395.461-.3.686-.45.916-.593.218-.136.443-.266.664-.398-1.544 2.453-2.833 4.951-3.685 7.679.239-.066.389-.187.475-.343.88-1.571 1.737-3.153 2.628-4.715.245-.43.568-.827.902-1.196.25-.275.573-.33.94.107-.412.528-.91 1.032-1.249 1.628-.786 1.384-1.498 2.81-2.23 4.223-.154.298-.284.61-.386.928-.139.427.048.736.436.918.373.175.639.025.83-.318.223-.405.468-.793.684-1.198.546-1.034 1.034-2.107 1.637-3.107.42-.7.998-1.308 1.496-1.949.843.614.907.835.422 1.44-.336.424-.761.774-1.111 1.19-1.15 1.364-1.678 3.062-2.43 4.638-.08.168.136.48.216.73 1.166-.43 1.502-1.408 2.032-2.24.696-1.093 1.42-2.173 2.219-3.193.459-.587.595-.526 1.284.059-.862 1.123-1.737 2.234-2.578 3.373-.295.398-.57.836-.736 1.3-.228.634-.341 1.31-.53 2.076.493.397 1.062.859 1.791 1.45 1.244-2.303 2.405-4.467 3.583-6.626.5-.919.973-1.858 1.56-2.717.388-.566.91-1.118 1.827-.8zm61.995-32.906V32.11c-.66-.184-.864.075-.887.528a21.62 21.62 0 0 0-.036 1.759c.041 1.548.098 3.096.17 4.644.03.598-.052 1.066-.906 1.143v-7.844c-1.069-.334-1.303-.298-1.367.354-.118 1.2-.2 2.412-.195 3.617.002 1.166.155 2.332.186 3.5.007.223-.236.453-.363.68-.187-.19-.387-.37-.548-.58-.068-.088-.066-.24-.068-.365-.03-1.837-.057-3.674-.08-5.51-.007-.53 0-1.062 0-1.821-.427.254-.836.352-.916.57-.252.696-.511 1.43-.536 2.158-.06 1.627.018 3.257.043 4.887.007.368.088.757-.453 1.025-.15-.216-.393-.416-.436-.655a9.143 9.143 0 0 1-.155-1.743c.019-1.594.091-3.185.119-4.776.018-.907-.223-1.077-1.16-.877-.118.025-.225.1-.325.147-.5.907-.434 1.876-.404 2.835.043 1.337.08 2.673.17 4.007.055.782-.248 1.326-.839 1.774-.566-.25-.475-.678-.466-1.096.06-2.135.114-4.271.153-6.408.004-.277-.094-.557-.14-.818-1.115-.053-1.41.184-1.388 1.245.027 1.298.223 2.594.19 3.887-.06 2.599.19 5.179.356 7.76.188 2.96.347 5.916.268 8.882-.023.877.059 1.755.084 2.635.04 1.539.093 3.08.107 4.619.009.918-.107 1.84-.05 2.75.04.66.275 1.307.423 1.96.306-.266.427-.519.443-.778.107-1.791.188-3.587.29-5.378.028-.48-.01-1.041.892-1.075 0 .438.036.832-.007 1.216-.143 1.202-.334 2.403-.47 3.607-.091.787-.16 1.587.456 2.221.646.082.846-.248.882-.795.087-1.34.189-2.676.296-4.012.03-.376.05-.76.152-1.117.155-.534.496-.618.975-.252l-.116.982c-.147 1.246-.304 2.491-.431 3.742-.05.488-.073 1.002.684 1.307.077-.384.161-.678.195-.98.196-1.703.36-3.412.58-5.112.05-.387.145-.97.705-.841.543.122.393.643.277 1.057-.011.038-.041.075-.048.116-.232 1.361-.475 2.718-.68 4.082-.047.323-.025.678.057.998.116.452.446.684.941.648.49-.034.625-.348.641-.768.037-.964.091-1.926.105-2.887.018-1.34-.014-2.68.034-4.017.007-.211.305-.57.496-.589.381-.036.554.264.53.673a279.073 279.073 0 0 0-.312 5.515c-.025.639.061 1.282.104 2.041l1.298-.195c.08-1.999.17-3.91.225-5.822.037-1.257-.025-2.519.055-3.771.036-.55.289-1.098.502-1.625.123-.303.553-.278.691.03.082.181.125.4.123.6-.014 1.506-.05 3.011-.066 4.518-.018 1.803-.013 3.603-.038 5.406-.01.702.309.886.977.698.043-.253.116-.494.123-.735.066-1.961.116-3.92.175-5.882.004-.166-.016-.428.07-.478.214-.125.562-.282.714-.188.205.122.384.47.377.716-.013.536-.154 1.066-.236 1.6-.205 1.314-.484 2.62-.58 3.944-.052.75.13.78 1 .548.132-2.06.262-4.101.396-6.145.016-.25.002-.516.089-.74.063-.164.259-.369.407-.38.154-.012.44.163.468.297.073.35.077.728.032 1.085-.219 1.784-.46 3.566-.685 5.264 1.048.994 1.048.994 2.174.541-.057-1.6-.14-3.223-.157-4.846-.01-.743.093-1.489.17-2.232.037-.364.243-.719.632-.58.205.073.316.487.405.768.043.14-.057.323-.096.487-.43 1.807-.457 3.646-.42 5.487.016.907.218 1.087 1.173 1.003.875-.078 1.743-.234 2.614-.362.457-.066.923-.1 1.361-.23.58-.172.69-.69.16-.977-.471-.254-.537-.589-.571-1.007-.039-.457-.093-.918-.08-1.375.046-1.632.178-3.264.162-4.894-.027-2.89-.16-5.776-.214-8.663-.107-5.899-.19-11.8-.293-17.699-.007-.311-.089-.623-.15-1.04-.78.174-1.45.324-2.105.472.111 3.135.216 6.106.323 9.079-1.132-2.855-.887-5.917-1.257-8.981-1.06.184-1.994.345-2.762.48 0 .756.093 1.42-.018 2.045-.248 1.384-.2 2.74.025 4.119.075.466-.046.987-.17 1.457-.046.164-.371.252-.57.375-.136-.225-.383-.45-.383-.673-.003-.495.172-.988.182-1.484.03-1.587.015-3.176.02-4.76.002-.282 0-.561 0-1.012-1.26.271-2.448.294-3.5.842.118.616.281 1.097.29 1.586.034 1.966.055 3.935.012 5.899-.034 1.591-.164 3.178-.255 4.767-.034.575-.284.852-1.043.59zm-36.525 66.073c.089-.097.177-.197.266-.295.955.561 1.914 1.114 2.864 1.684.393.237.741.662 1.153.732.73.125 1.175.553 1.666 1.02.386.371.857.667 1.325.93.527.296 1.089.21 1.53-.177.564-.495 1.137-1.009 1.58-1.609.79-1.068 1.484-2.212 2.225-3.317.162-.24.328-.495.546-.677.132-.11.438-.182.545-.107.175.127.346.391.341.593-.002.219-.195.444-.332.648-.672 1.003-1.359 1.998-2.036 2.996-.95 1.403-1.898 2.81-3.801 3.253 1.032.568 1.896.462 2.603-.498 1.214-1.645 2.337-3.362 3.423-5.094.82-1.307 1.384-2.796 2.319-4.003.902-1.168 1.677-2.373 2.316-3.689 1.189-2.446 2.54-4.8 4.13-7.004 1.346-1.86 2.678-3.72 3.549-5.858.243-.597.293-1.275.407-1.918.013-.089-.12-.202-.191-.318-.225.125-.432.236-.655.361-.464-.466-.639-1.243-1.557-1.23.068.207.077.387.17.491.862.96.685 2.03.191 3.021-.647 1.303-1.427 2.54-2.189 3.78-.111.182-.482.373-.654.319-.387-.123-.428-.493-.228-.83.47-.786.99-1.548 1.44-2.348.345-.611.679-1.243.893-1.907.1-.307.027-.825-.182-1.048-.916-.97-1.807-2.019-2.9-2.757-2.092-1.417-4.042-2.97-5.818-4.84l.241-.834c-1.11-.812-2.441-1.075-3.985-.878-2.791.36-4.116 2.528-3.489 5.01.093.366.155.737.236 1.105.25 1.112-.231 1.725-1.332 1.832-1.889.184-3.71.644-5.36 1.621-2.532 1.496-3.632 4.508-2.73 7.376.114.355.366.853.223 1.069-.4.607-.26 1.232-.214 1.798-.74.077-1.416.057-2.034.232-.85.24-1.66.616-1.864 1.645a1.382 1.382 0 0 1-.35.648c-.916.95-.746 2.171-.78 3.31-.014.441.277.998.605 1.328a211.425 211.425 0 0 0 5.724 5.61c.707.663 1.516 1.243 2.614 1.34-.819-.84-1.635-1.681-2.45-2.522zm-40.86-30.757l-.001-.001a2.855 2.855 0 0 0-.008.012zm.307-.476c1.43-3.434 2.798-6.894 4.296-10.297 1.382-3.14 2.919-6.206 4.351-9.322a315.745 315.745 0 0 0 3.408-7.668c.34-.795.511-1.661.825-2.718-.937.88-.93 2.139-2.23 2.76.084-.508.061-.833.19-1.071.855-1.578 1.744-3.137 2.624-4.699.082-.145.25-.284.25-.427-.002-.218-.116-.437-.182-.655-.216.068-.455.098-.64.214-.126.08-.178.277-.262.423-.88 1.518-1.75 3.041-2.65 4.548-.126.21-.387.339-.585.505-.089-.048-.177-.096-.266-.141.084-.366.084-.78.268-1.084.907-1.503 1.844-2.99 2.808-4.458.604-.92.636-.9-.307-1.705-.148.12-.348.22-.455.382-.83 1.25-1.652 2.503-2.455 3.771-.268.42-.423.92-.718 1.319-.13.177-.478.19-.728.28-.016-.267-.138-.592-.03-.794a50.249 50.249 0 0 1 1.635-2.812c.55-.891 1.16-1.744 1.698-2.641.475-.794.448-.812-.5-1.569-.766 1.264-1.532 2.503-2.273 3.755-.361.612-.65 1.266-1.027 1.869-.221.352-.553.484-.928.034 1.062-1.923 2.114-3.819 3.153-5.722.646-1.182.541-1.498-.818-2.327-.723 1.452-1.476 2.882-2.155 4.344-.896 1.932-1.8 3.853-2.903 5.678-.282.466-.607.752-1.35.623.138-.455.213-.855.38-1.21.704-1.518 1.488-3.002 2.147-4.541.691-1.614 1.282-3.274 1.898-4.92.085-.222.044-.49.062-.736-1.432 1.666-2.55 3.435-3.137 5.56-.705-.393-.562-.834-.362-1.248.564-1.168 1.169-2.316 1.723-3.489.473-.998 1.028-1.907 2.058-2.43.052-.027.057-.148.084-.225-.55-.852-.607-.877-1.255-.305-.277.246-.52.546-.723.855-.343.523-.69 1.053-.952 1.619a66.7 66.7 0 0 0-1.626 3.775c-.261.673-.386.81-1.359.707 1.257-3.03 2.732-5.899 4.705-8.567-.24-.314-.459-.603-.804-1.053-.769.914-1.516 1.694-2.137 2.567-1.041 1.466-1.973 3.003-2.514 4.746-.143.464-.803.798-1.093.602-.535-.359-.148-.75.052-1.08 1.582-2.604 3.182-5.198 4.864-7.942l-.602-1.32c-.398.436-.741.693-.927 1.034-.923 1.684-1.794 3.396-2.712 5.083-.198.361-.523.652-.798.986-.614-.493-.491-.898-.228-1.33.328-.534.655-1.068.953-1.62.911-1.692 1.593-3.506 2.86-5.001.44-.52.334-.74-.48-1.369-.307.589-.593 1.182-.925 1.75-.314.54-.712 1.033-1.01 1.58a60.85 60.85 0 0 0-1.411 2.801 174.061 174.061 0 0 0-1.837 3.971c-.477 1.07-.923 2.153-1.364 3.237-.948 2.323-1.918 4.64-2.818 6.981-.767 1.989-1.419 4.023-2.176 6.017-.502 1.323-1.114 2.605-1.65 3.919-.184.455-.284.943-.42 1.416l.238.068c.395-.732.786-1.466 1.187-2.198.445-.816.7-.982 1.525-.941-1.073 1.475-1.98 2.992-2.342 4.785.482-.507.805-1.143 1.287-1.616.473-.464.693-1.375 1.71-1.219-.053.19-.05.341-.123.414-1.44 1.41-2.23 3.23-3.1 4.987-.18.362-.208.919-.067 1.294.275.725.723 1.382 1.144 2.153a5.042 5.042 0 0 0 1.52-1.735c.482-.882 1.01-1.739 1.512-2.607.514-.891 1.107-1.619 2.364-1.05.305-.61.575-1.167.86-1.714.231-.446.447-.9.731-1.31.266-.384.662-.525 1.09-.22.408.29.292.736.09 1.016-.993 1.377-1.441 2.994-2.128 4.508-.932 2.055-1.993 4.048-2.984 6.076-.103.209-.112.463-.162.698.289-.135.38-.312.48-.482.841-1.44 1.66-2.89 2.537-4.306.35-.561.843-1.02 1.668-.859-.357.407-.763.732-.989 1.153-.818 1.534-2.175 2.791-2.398 4.64-.022.179-.222.342-.357.5-.406.474-.172.724.428 1.024.877-1.295 1.748-2.561 2.596-3.841.277-.416.457-.903.757-1.3.466-.617.836-.59 1.518.065-1.075.562-1.55 1.587-2.068 2.587-.232.446-.521.857-.791 1.282-.49.766-.982 1.53-1.553 2.419l1.148.702c.443-.766.807-1.414 1.186-2.052.66-1.112 1.285-2.246 2.01-3.315.434-.64.725-.62 1.446-.175-.094.137-.157.31-.282.394-1.023.684-1.6 1.686-2.062 2.782-.145.346-.38.652-.52 1-.307.764-.614 1.535-.842 2.326-.056.2.123.593.31.702.195.114.561.064.793-.043.2-.096.352-.35.466-.568.718-1.367 1.407-2.746 2.134-4.106.275-.511.6-1 .953-1.464.23-.3.545-.34.875.014-.393.582-.855 1.125-1.16 1.743-.759 1.533-1.436 3.103-2.166 4.651-.479 1.02-.32 1.673.713 2.398.133-.202.246-.328.308-.475zm35.673-14.982c.052-.452.1-.657.095-.861-.034-1.633-.098-3.262-.114-4.892-.02-2.3-.018-4.603-.006-6.904.006-1.17.077-2.339.077-3.507.002-2.762-.02-5.522-.036-8.284-.007-.92-.003-1.843-.035-2.764-.05-1.502-.12-3.005-.186-4.507-.011-.28-.036-.56-.055-.817-2.507-.522-2.109-.01-2.273 1.476-.013.125-.05.25-.045.373.054 1.286-.439 2.575.007 3.864.022.066-.023.157-.062.375l-1.04.57.34-6.842c-.511-.304-1.005-.527-1.148.169-.354 1.709-.798 3.423-.484 5.198.152.86-.011 1.066-1.148 1.248 0-.54-.048-1.068.01-1.582.176-1.62.404-3.235.586-4.855.08-.705-.11-.887-.791-1.021-.603-.116-1.003.073-1.105.691-.17 1.032-.364 2.064-.443 3.105-.087 1.16-.032 2.33-.098 3.494-.014.225-.277.566-.475.61-.175.036-.455-.242-.625-.435-.091-.102-.084-.32-.07-.482.133-1.666.267-3.335.422-5 .068-.73.18-1.456.286-2.283h-1.375a23.658 23.658 0 0 0-.398 6.03c.053.88-.186 1.105-1.168 1.058-.014-.237-.055-.482-.041-.726.098-1.584.22-3.166.31-4.75.029-.541.008-1.09-.055-1.626-.02-.175-.246-.325-.444-.57-.09.259-.156.366-.166.477-.225 2.919-.47 5.835-.65 8.756-.043.719-.332 1.125-1.009 1.471-.082-.261-.195-.446-.186-.625.059-1.214.018-2.448.245-3.63.368-1.914.189-3.835.291-5.747.048-.895-.054-.927-1.232-.984-.227.632-.523 1.277-.684 1.955-.162.677-.189 1.386-.273 2.082-.836-1.425-.386-2.866-.07-4.349l-1.176-.261c-.161.757-.327 1.432-.445 2.119-.114.659-.116 1.343-.275 1.989-.162.661.436 1.359-.084 2.04-.162-.101-.307-.14-.35-.231-.112-.223-.244-.466-.248-.705-.02-1.748-.012-3.496-.012-5.392-.234-.084-.59-.213-.997-.363-.06 1.523-.146 2.882-.15 4.244-.005.936-.326 1.593-1.378 1.966-.089-2.273.1-4.471.102-6.699-.232.164-.395.35-.42.555-.066.538-.034 1.09-.112 1.63-.584 4.157-.666 8.34-.654 12.527.004 1.491.02 1.5 1.493 2.11.196 1.227.932 2.172 1.841 3.014.707.652 1.346 1.395 2.117 1.954.87.63 1.427 1.842 3.07 1.505-.565 1.114.217 1.357.803 1.76.377.259.698.602 1.06.888 1.366 1.078 2.282 2.655 3.877 3.478.091.048.157.194.187.31.286 1.066 1.189 1.543 1.984 2.184l.587-1.248c.7.468.7.468.611 1.314-.109 1.032.01 1.207 1.16 1.612.05-.553.093-1.082.143-1.614.097-1.03.097-1.03.827-1.173v4.337l1.755 1.191zm56.301-35.118c-.596.043-1.093.052-1.584.123-.457.066-.73.334-.8.827-.214 1.542-.264 3.08.045 4.615.007.025.12.03.243.057 0-.896.011-1.771-.002-2.649-.02-1.284.125-1.895.655-2.407.065.227.172.414.17.598-.01 1.38-.045 2.757-.055 4.137-.004.498-.018 1.007.078 1.494.286 1.461.304 1.457-.987 2.19-.016.267-.05.558-.043.849.005.207.057.414.09.62.535 3.346 1.03 6.695.865 10.102-.041.834.059 1.676.1 2.512.05 1.084.109 2.166.152 3.25.061 1.503.125 3.008.16 4.51.013.626-.044 1.253-.074 1.88-.027.585-.09 1.171-.07 1.753.016.437.11.889.714 1.325.05-.511.102-.85.113-1.19.069-1.842.125-3.686.191-5.525.01-.25.007-.522.11-.738.07-.148.306-.27.484-.294.1-.01.311.191.327.314.043.368.05.75.011 1.12-.14 1.333-.334 2.658-.448 3.992-.05.605.044 1.221.08 2.01l1.478-.42c-.096-.512-.219-.876-.219-1.237 0-1.671.028-3.342.062-5.012.009-.416.034-.842.138-1.242.05-.193.3-.332.46-.495.163.163.422.307.472.5.069.266-.022.575-.045.864-.157 2.075-.477 4.148-.066 6.321 1.034-.37 2.02-.698 2.98-1.088.173-.071.343-.396.346-.605.018-1.544.04-3.092-.032-4.63-.075-1.585-.268-3.162-.375-4.745-.018-.25.147-.511.232-.768.284.107.707.134.827.339.286.486.546 1.043.607 1.596.098.87.027 1.757.027 2.636v5.5c1.241.117 2.412-.465 3.63-.908-.004-2.707-.497-5.303-.154-8.235.4.386.673.527.736.736.11.35.119.743.116 1.118-.009 1.423-.034 2.844-.066 4.265-.022 1.011-.002 1.052 1.132 1.41-.066-.706-.166-1.353-.18-1.999-.04-1.964-.083-3.928-.056-5.892.03-2.344.114-4.687.207-7.03.036-.917.252-1.828.24-2.74-.05-3.726-.152-7.451-.242-11.175-.016-.713-.04-1.434-.416-2.352v5.248c-.605-.116-.546-.582-.557-.975-.06-1.92-.098-3.842-.157-5.762-.01-.332-.077-.664-.118-.994l-.319.014c-.143 1.323-.313 2.644-.416 3.969-.027.348.114.732.255 1.066.361.85-.007 1.668-1.173 2.17.318-2.409-.314-4.784.789-7.066-1.51.243-1.6.288-1.616 1.63-.02 1.588.066 3.177.08 4.766.001.362-.026.76-.178 1.075-.096.198-.46.394-.678.369-.213-.025-.484-.298-.57-.523-.114-.3-.105-.66-.093-.991.034-.96.182-1.921.12-2.871-.057-.907.027-1.864-.37-2.823-.641.413-.691.927-.653 1.486.046.66.096 1.319.114 1.98.02.878-.005 1.757.02 2.635.05 1.67.128 3.339.182 5.007.018.566-.173.978-.939 1.012-.15-.407-.42-.82-.436-1.246-.068-1.711-.046-3.428-.08-5.142-.025-1.32-.084-2.639-.13-3.96-.242.303-.386.614-.406.935-.075 1.125-.1 2.253-.166 3.378-.011.202-.12.398-.266.852-.768-2.196.023-4.194-.24-6.176-1.176.196-2.192.361-3.256.539-.35 2.193-.484 4.316-.312 6.449.025.288.262.559.421.88-.236.374-.368.906-1.189.786-.23-2.587.02-5.162-.025-7.906zM61.406 72.66c-.53.67-.982 1.214-1.4 1.782-.764 1.043-1.494 2.114-2.269 3.148-.286.382-.684 1.032-1.173.632-.623-.507.112-.934.418-1.316 1.228-1.525 2.546-2.987 3.512-4.896-.522-.319-1.027-.623-1.623-.985-1.025 1.576-1.955 3.01-2.896 4.437-.281.428-.438 1.023-1.127 1-.241-.72-.205-.954.3-1.704a637.74 637.74 0 0 1 2.466-3.635c.619-.907.53-1.116-.816-1.555-.832 1.125-1.696 2.296-2.564 3.464-.373.5-.727 1.019-1.143 1.48-.153.169-.46.194-.932.373.35-1.412 1.168-2.273 1.784-3.219.653-1 1.473-1.89 2.321-2.957l-1.387-.984c-.21.288-.347.443-.45.618-1.48 2.525-3.305 4.824-4.646 7.456-1.557 3.055-3.421 5.953-5.06 8.97-1.939 3.564-3.512 7.322-5.692 10.765-.286.45-.293 1.076-.43 1.619.362-.03.528-.139.64-.291.683-.95 1.336-1.925 2.036-2.86.6-.8 1.239-1.575 1.893-2.334.232-.27.594-.407.864-.048.241.32.141.63-.216.837-.036.022-.075.04-.107.068-.809.62-1.518 1.316-1.83 2.332-.058.193-.197.368-.32.539-.577.8-1.161 1.595-1.739 2.382.368.648.71 1.146 1.441 1.273.164-.216.325-.402.457-.607 1-1.543 1.994-3.09 2.992-4.633.136-.209.254-.477.452-.59.216-.123.516-.1.78-.14.009.26.125.587.009.764-.805 1.221-1.591 2.467-2.521 3.59-.696.84-.891 1.73-.878 2.793l1.142.466c.37-.711.695-1.382 1.061-2.032.468-.836.934-1.677 1.47-2.47.224-.33.592-.599.953-.79.194-.1.505.026.764.05-.066.221-.08.48-.209.65-.198.262-.534.426-.71.696-.77 1.194-1.522 2.4-2.243 3.624-.284.48-.23.984.252 1.345.387.289.8.544 1.28.864.362-.632.655-1.132.937-1.641 1.011-1.83 2.01-3.664 3.028-5.492.518-.932.927-1.12 2.03-.914-1.714 2.933-3.387 5.838-4.858 8.952l1.705.968c.575-3.032 1.991-5.267 4.79-6.587-.44-1.787-.394-3.558.331-5.276.064-.15.039-.335.082-.494.395-1.439 1.014-2.791 2.191-3.73 1.76-1.402 3.78-2.273 6.045-2.539.604-.07 1.195-.245 1.875-.391-1.332-4.226.248-6.776 4.567-7.929-1.137-.757-2.03-1.366-2.937-1.946-.405-.259-.803-.204-1.119.182-.688.84-1.45 1.632-2.045 2.533-.946 1.43-1.794 2.923-2.653 4.405-.248.43-.503.752-1.035.705-.32-.74-.313-.735-.02-1.244.446-.775.884-1.557 1.328-2.337-.669.257-.807 1.232-1.899.9.423-1.388 1.585-2.261 2.192-3.468.611-1.216 1.457-2.317 2.223-3.503-.55-.373-1.06-.716-1.664-1.128zm65.458-16.151c.809-.432.704-1.025.693-1.61-.023-1.166-.091-2.323.761-3.33.287-.338.369-.94.364-1.418a154.75 154.75 0 0 0-.2-5.899c-.145-2.766-.168-5.52.173-8.28.186-1.528.163-3.081.234-4.625-.42-.154-.716-.263-1.039-.384l-.214-2.873c-.322 1.003-.432 1.991-.493 2.982-.061 1.003-.08 2.008-.116 3.012-.032.935.268 1.883-.068 2.817a.876.876 0 0 1-.252-.548c-.068-1.17-.112-2.341-.182-3.514-.023-.37.02-.82-.173-1.094-.486-.695-.352-1.439-.352-2.182.002-1.578.002-3.155.002-4.758-.391-.02-.584.207-.618.59-.13 1.408-.287 2.818-.355 4.232-.03.62.134 1.248.23 2.041.009-.007-.141.132-.298.26-.928.754-1.832 1.486-1.484 2.927.143.593.113 1.25.065 1.87-.172 2.333-.404 4.66-.575 6.993a97.117 97.117 0 0 0-.204 4.385c-.06 2.13-.089 4.262-.125 6.39-.005.332-.007.666.016.998.104 1.518.22 3.039.327 4.523.61-.284.632-.284.627-.873-.009-1.089-.038-2.18-.077-3.269-.04-1.068-.104-2.134-.159-3.205.482-.136.782-.013.85.384.084.485.11.987.111 1.48.005 1.255-.034 2.512-.02 3.765.005.277.166.552.255.83.104-.014.211-.03.316-.046.216-2.237.281-4.49.388-6.733.473.04.796.136 1.085.077.83-.17.882-.182.927.56.027.45-.061.906-.118 1.36-.093.724-.2 1.442-.302 2.165zm-.973-40.805c-.103 1.698-.628 3.225-.13 4.76-.55.777-1.157 1.354-2.075 1.543-.275.057-.516.268-.78.396-1.916.923-3.833 1.84-5.749 2.766-.209.102-.407.23-.609.348a.75.75 0 0 0 .616.05c.83-.282 1.646-.61 2.487-.86 2.898-.868 5.374-2.388 7.41-4.639 1.435-1.587 1.023-3.519-1.168-4.362zM11.756 63.383c-1.855 1.77-2.642 4.044-3.999 6.047l.685.92c1.168-.795 3.289-5.205 3.314-6.967zm4.387-43.738c-.993 2.564-2.105 4.815-2.623 7.374.223-.07.343-.07.37-.12a501.216 501.216 0 0 0 2.455-4.637c.423-.81.228-1.582-.202-2.617zM5.963 54.94c-1.643 1.31-2.236 3.14-2.536 5.113zm78.86-28.889l.008.373 1.55-.191c-.01-.06-.016-.12-.025-.182h-1.53zm-.947.346v.002zm-.02-.303c-.466-.007-.971-.261-1.564.482.68-.077 1.132-.127 1.584-.18l-.02-.302zm43.805-2.002l-1.043.309.573.823c.143-.348.25-.607.47-1.132zm-3.4 3.58c-.116.245-.189.336-.168.373.059.102.159.184.243.275l-.073-.648zM54.08 33.33c.03-.003.058-.003.087-.003v-.772a2.557 2.557 0 0 1-.132.004l.046.77zm71.68 24.418l.193.009v-.875c-.045 0-.093-.003-.138-.005l-.055.87z"/></g></g></svg>