<svg xmlns="http://www.w3.org/2000/svg" width="43" height="90" viewBox="0 0 43 90"><g><g><g><path fill="#262523" d="M19.47 77.13c-1.096-.474-1.976-1.165-2.048-2.664-3.241-.205-6.774-.953-9.63-1.793-1.049-.307-2.19-.449-2.972-.82-.184-.086-.422-.314-.666-.46-.85-.507-1.792-1.163-2.101-2.152.423-5.783 1.468-11.09 2.92-15.83.245-.796.476-1.613.718-2.407.421-1.394.71-2.518.921-4.252.078-.636.25-1.27.256-1.845.008-.625-.17-1.342-.256-2.049a69.202 69.202 0 0 0-.973-5.942c-.55-2.594-1.181-5.082-2.203-6.967-.259-.477-.58-.924-1.076-1.178.012-.251-.12-.357-.256-.461-.68-2.364-1.268-5.034-1.742-7.838-.143-.848-.498-2.034-.307-2.766.166-.64 1.415-1.634 1.895-1.999.362-.274.817-.463 1.23-.717.402-.247.78-.563 1.127-.77 2.66-1.572 5.047-2.312 7.07-4.302.837-.824 2.03-1.928 2.15-3.279.106-1.16.111-3.14 0-4.302-.017-.198-.174-.49-.153-.718.051-.542.789-.727 1.23-1.076.202-.16.171-.305.358-.358.697-.201 2.045-.026 2.972-.052 1-.028 1.954.063 2.92 0 2.255-.145 4.221-.185 5.993-.051 1.1.084 1.881.541 2.46 1.127-.353.792-.257 2.19-.257 3.791 0 1.044-.115 2.098.052 2.766.102.412.642.799.922 1.23.302.466.51 1.033.82 1.332.233.225 1.115.714 1.433.87.91.448 1.877.839 2.818 1.332 2.554 1.34 5.655 2.879 7.326 4.97.04 2.998-.853 6.697-1.64 9.58-.1.365-.086.794-.205 1.075-.156.373-.562.64-.768.974-1.354 2.197-2.214 4.49-2.971 7.377-.41 1.56-.828 3.213-1.076 4.764-.426 2.665.14 5.77.768 8.146 1.454 5.491 3.2 10.579 4.15 16.751.094.614.124 1.265.153 1.947.03.658.183 1.403.103 1.947-.048.33-.312.392-.204.717-.204.053-.324.189-.41.358-4.636 1.632-9.616 2.919-15.42 3.382-.278 1.139-.817 2.017-1.844 2.407.56 17.63-4.87 14.99-3.587.204z"/></g><g><path fill="#fefefe" d="M22.032 1.056c-.449.303-.567.935-1.383.871"/></g><g><path fill="#fefefe" d="M24.491 1.056c.005.205-.228.583-.256.922-.895.025-1.65-.09-2.561-.05.511-.71 1.29-1.04 2.817-.872z"/></g><g><path fill="#fefefe" d="M25.464 1.107l-.358.718c-.29-.035-.42.092-.666.102.078-.314.28-.506.358-.82.324.014.41-.045.666 0z"/></g><g><path fill="#fefefe" d="M16.09 1.107c-.275.135-.349.471-.768.461"/></g><g><path fill="#fefefe" d="M17.575 1.107c.254.044-.199.143-.153.308.018.067.09.08.102.153.576.013.568-.56 1.28-.41-.201.226-.525.329-.717.564-.339-.07-.787-.032-1.126-.102.159-.216.397-.354.614-.513z"/></g><g><path fill="#fefefe" d="M19.984 1.107c-.384.285-.652.773-1.282.666"/></g><g><path fill="#fefefe" d="M20.956 1.107c-.378.288-.672.66-1.229.769"/></g><g><path fill="#fefefe" d="M25.772 1.107h.513c-.21.27-.311.646-.82.615.08-.228.26-.355.307-.615z"/></g><g><path fill="#fefefe" d="M27.514 1.21c-.32.21-.802.257-1.23.358"/></g><g><path fill="#fefefe" d="M14.706 3.362c.083-.015.089.048.154.051.015.271-.089.423-.103.666-.118-.138-.018-.494-.051-.717z"/></g><g><path fill="#fefefe" d="M15.117 3.566c.067.019.08.09.153.103-.056 1.242-.364 2.675-.666 3.842-.313-.144-.107-.562-.051-.82.193-.893.423-2.014.564-2.97v-.155z"/></g><g><path fill="#fefefe" d="M15.527 3.771c.17.085.392.12.563.205-.176 1.43-.462 2.75-.666 4.15-.26-.234-.062-.656 0-.973.179-.923.458-2.138.359-3.228-.316 1.427-.48 3.006-.82 4.406-.147-1.455.641-2.835.564-4.56z"/></g><g><path fill="#fefefe" d="M16.295 4.028h.154c-.09.592-.06 1.305-.308 1.741-.03-.662.183-1.08.154-1.741z"/></g><g><path fill="#fefefe" d="M16.039 6.076c.156.515-.118 1.044-.154 1.537"/></g><g><path fill="#fefefe" d="M16.243 6.896c.437 1.272.79 2.627 1.179 3.945a5.071 5.071 0 0 1-.615-.205c-.035-.246-.234-.458-.102-.717-.41-.427-.436-1.238-.717-1.794.104-.39.2-.789.255-1.23z"/></g><g><path fill="#fefefe" d="M15.731 7.972c.138.242-.104.544-.052.87"/></g><g><path fill="#fefefe" d="M15.168 8.228c.155-.002.127.18.154.308h-.257c.03-.107.127-.146.103-.308z"/></g><g><path fill="#fefefe" d="M14.297 8.485c.116.372-.163.792-.513.87"/></g><g><path fill="#fefefe" d="M15.885 8.535c.2.416.3.93.46 1.384-.091-.007-.107.062-.204.051-.275-.362-.536-.94-.256-1.434z"/></g><g><path fill="#fefefe" d="M15.834 10.123c-.194.024-.241-.1-.359-.153"/></g><g><path fill="#fefefe" d="M16.397 10.175c.103.068.114.227.154.358-.105-.048-.203-.104-.308-.153-.045-.165.134-.107.154-.205z"/></g><g><path fill="#fefefe" d="M5.23 15.042c.023.473-.204.959-.41 1.28-.068-.256.123-.694.102-1.075.086-.085.23-.112.307-.205z"/></g><g><path fill="#fefefe" d="M4.614 15.349c.157.234-.181.837-.153 1.281"/></g><g><path fill="#fefefe" d="M3.744 15.964c-.053.58.061 1.769-.564 1.946"/></g><g><path fill="#fefefe" d="M3.026 16.476c.14.243-.138.781 0 1.025-.014.104-.138.1-.153.205.007.126.008.246-.051.307v.256c.006.127-.063.087-.052 0-.005-.63.05-1.004 0-1.588.077-.077.216-.092.256-.205z"/></g><g><path fill="#fefefe" d="M39.809 17.296c.158-.038.098.14.256.102.025.162-.092.18-.052.358-.115-.106-.16-.283-.204-.46z"/></g><g><path fill="#fefefe" d="M41.346 17.808c-.5 3.224-.876 7.013-1.588 10.195-.534-.662-.022-1.91.153-2.92.385-2.22.844-4.696 1.127-6.967.02-.186.315-.095.308-.308z"/></g><g><path fill="#fefefe" d="M3.437 18.167c.151.121-.063.31-.052.46"/></g><g><path fill="#fefefe" d="M38.067 18.423c.458.84.82 1.775 1.332 2.561-.067.121-.022.355-.103.461-.48-.955-1.396-1.724-1.229-3.022z"/></g><g><path fill="#fefefe" d="M2.873 18.833c.178.026.134.275.205.41-.135.025-.173.282-.308.153a.887.887 0 0 1 .103-.563z"/></g><g><path fill="#fefefe" d="M37.862 19.652c.199.175.458.701.717 1.178.33.606.709.913.564 1.691-.625-.621-.958-1.535-1.486-2.254.062-.211.175-.372.205-.615z"/></g><g><path fill="#fefefe" d="M3.18 19.704c.243.134-.203.3-.205.512"/></g><g><path fill="#fefefe" d="M6.561 19.806c.134 1.193-.867 1.693-1.486 2.305-.086-.135-.117-.325-.204-.462.46-.718 1.155-1.2 1.69-1.843z"/></g><g><path fill="#fefefe" d="M3.385 20.164c.111.11.145.3.205.462-.099.26-.34.376-.46.614-.285-.387.04-.867.255-1.076z"/></g><g><path fill="#fefefe" d="M37.555 20.472c.543.788.936 1.728 1.485 2.51-.023.266-.115.465-.102.768-.636-.748-1.042-1.724-1.64-2.51.048-.294.222-.462.257-.768z"/></g><g><path fill="#fefefe" d="M3.744 21.087c.517.487-.271.84-.41 1.28"/></g><g><path fill="#fefefe" d="M6.407 21.19c.285.95-.583 1.19-.87 1.74-.15-.071-.163-.28-.257-.409.29-.53.776-.863 1.127-1.332z"/></g><g><path fill="#fefefe" d="M37.196 21.445c.211.283.505.898.82 1.434.428.732 1.013 1.139.716 2.152-.668-.902-1.19-1.951-1.792-2.92.069-.238.174-.44.256-.666z"/></g><g><path fill="#fefefe" d="M4.051 21.855c.175-.038.085.189.206.205-.27.413-.522.845-.872 1.178-.05-.733.467-.9.666-1.383z"/></g><g><path fill="#fefefe" d="M4.358 22.367c.106.083.13.247.205.359-.33.507-.634 1.039-1.076 1.435-.042-.932.578-1.2.871-1.794z"/></g><g><path fill="#fefefe" d="M6.407 22.367c.14.652.104 1.571-.46 1.69-.051-.307-.211-.505-.308-.767.174-.39.528-.599.768-.923z"/></g><g><path fill="#fefefe" d="M36.377 23.34c.043-.01.047.02.051.052.598 1.008 1.09 2.054 1.741 3.074.199.31.574.647.41 1.075-.907-1.107-1.535-2.495-2.408-3.637.066-.19.165-.348.206-.564z"/></g><g><path fill="#fefefe" d="M5.28 23.75c.151.073.175.304.103.462"/></g><g><path fill="#fefefe" d="M5.127 23.956c.138.667-.413 1.09-.666 1.536"/></g><g><path fill="#fefefe" d="M6.357 23.956c.21.3.059.964.154 1.383"/></g><g><path fill="#fefefe" d="M37.657 24.006c.384.556.894.985 1.025 1.794"/></g><g><path fill="#fefefe" d="M36.018 24.212c.46.58 1.26 2.037 1.844 2.92.334.504.716.735.563 1.331-.677-.686-1.28-1.837-1.946-2.817-.31-.457-.844-.841-.46-1.434z"/></g><g><path fill="#fefefe" d="M5.537 24.365c.056.013.035.102.102.103-.05.171-.205.238-.256.41.318-.002-.043.256-.102.46-.102-.307.061-.79.257-.973z"/></g><g><path fill="#fefefe" d="M5.742 24.98c.218.106.222.426.307.666-.29.426-.508.926-.922 1.23-.246-.896.396-1.3.615-1.896z"/></g><g><path fill="#fefefe" d="M35.762 24.98c.043-.01.048.02.051.051.7 1.094 1.29 2.2 2.05 3.28.223.315.694.662.46 1.177-.367-.091-.5-.528-.717-.82-.643-.865-1.418-1.842-2.203-2.612.108-.37.229-.728.359-1.076z"/></g><g><path fill="#fefefe" d="M4.358 25.083c.135.63-.399 1.035-.614 1.485"/></g><g><path fill="#fefefe" d="M4.922 25.236c.076.147.047.626-.154.666"/></g><g><path fill="#fefefe" d="M2.77 25.85c-.017.301.29.826-.05.974a3.027 3.027 0 0 0-.257-.871c.063-.073.176-.097.307-.102z"/></g><g><path fill="#fefefe" d="M6.1 25.953c.587.482-.04 1.16-.307 1.537"/></g><g><path fill="#fefefe" d="M4.358 26.056c.302.233.03.553-.102.768"/></g><g><path fill="#fefefe" d="M4.103 26.466c.115.304-.12.699-.257.922"/></g><g><path fill="#fefefe" d="M5.69 26.568c.035.326-.12.903-.205 1.28"/></g><g><path fill="#fefefe" d="M4.614 26.773c.228.597-.18 1.324-.614 1.588"/></g><g><path fill="#fefefe" d="M2.924 26.927c.202.446.264 1.034.461 1.485"/></g><g><path fill="#fefefe" d="M6.51 26.927c.323.294-.013.614-.103.922"/></g><g><path fill="#fefefe" d="M6.151 27.234c.072.5-.136 1.16-.409 1.486"/></g><g><path fill="#fefefe" d="M39.347 27.695c.35.211.112.54-.102.718"/></g><g><path fill="#fefefe" d="M4.87 27.746c.444.528.108 1.074-.204 1.486"/></g><g><path fill="#fefefe" d="M7.074 28.31c.137.116.104.34 0 .461"/></g><g><path fill="#fefefe" d="M4.41 28.36c.062.253-.09.73-.153 1.026"/></g><g><path fill="#fefefe" d="M5.178 28.822c.327.59-.28 1.068-.461 1.486"/></g><g><path fill="#fefefe" d="M6.459 29.642c.06.25.023.842-.256.921-.186-.456-.015-.684.256-.921z"/></g><g><path fill="#fefefe" d="M5.434 29.744c.27.236.123.71-.102.87"/></g><g><path fill="#fefefe" d="M5.075 30.103c.109.196-.108.504-.05.82-.134-.072-.146-.266-.206-.41.117-.106.182-.263.256-.41z"/></g><g><path fill="#fefefe" d="M8.047 30.256c-.063.485-.123 1.414-.718 1.538"/></g><g><path fill="#fefefe" d="M5.332 31.69c-.27-.211-.168-.854.102-.972"/></g><g><path fill="#fefefe" d="M10.147 30.82c-.353.605-1.223 1.132-1.639 1.844-.06-.965 1.047-1.207 1.435-1.895.09-.007.107.063.204.05z"/></g><g><path fill="#fefefe" d="M20.034 30.82c-.682 1.538-1.832 3.05-2.766 4.508-.35-.01-.587.096-.87.154a39.789 39.789 0 0 0 2.1-3.279c.389-.679.645-1.263 1.536-1.383z"/></g><g><path fill="#fefefe" d="M18.805 31.28c-.868 1.507-1.857 2.892-2.818 4.304-.188.034-.344.1-.563.103.539-.945 1.356-2.225 1.998-3.381.332-.599.56-1.579 1.383-1.025z"/></g><g><path fill="#fefefe" d="M10.66 31.127c.097.022.128.111.257.103-.054.135-.204.172-.257.307-.145-.082.072-.23 0-.41z"/></g><g><path fill="#fefefe" d="M8.456 31.179c.07.375-.188.868-.46 1.076"/></g><g><path fill="#fefefe" d="M10.352 31.332c.055.653-.746 1.167-1.076 1.435"/></g><g><path fill="#fefefe" d="M6.971 31.435c.124.246-.067.615-.205.768"/></g><g><path fill="#fefefe" d="M11.53 31.537c-.094.157-.242-.059-.409 0"/></g><g><path fill="#fefefe" d="M5.946 31.486c.319.383-.138.75-.307.973"/></g><g><path fill="#fefefe" d="M11.172 31.793c-.308.188-.492.499-.82.666"/></g><g><path fill="#fefefe" d="M16.704 31.794c.092-.015.105.048.052.051-.637 1.068-1.262 2.184-1.946 3.278-.194.31-.418.885-.922.82-.038-.142.154-.379.306-.615.22-.339.44-.7.717-.973.249-.896.791-1.497 1.128-2.305.263-.045.464-.151.665-.256z"/></g><g><path fill="#fefefe" d="M11.787 31.998c-.55.578-1.21 1.045-1.691 1.69-.05-.87 1-1.082 1.28-1.792.188-.017.285.057.411.102z"/></g><g><path fill="#fefefe" d="M7.586 31.947c.27.314-.332.617-.512.82"/></g><g><path fill="#fefefe" d="M12.094 32.1c.121 0 .151.089.307.052-.103.323-.476.377-.614.665-.109-.246.21-.505.307-.716z"/></g><g><path fill="#fefefe" d="M13.016 32.255c-.294.613-1.16 1.093-1.536 1.793-.028-.864.953-1.164 1.33-1.793h.206z"/></g><g><path fill="#fefefe" d="M14.963 32.357c-.195.557-.876 1.07-1.179 1.69-.127-.623.492-.943.614-1.485-.25-.047-.194.214-.41.205-.115-.383.74-.211.974-.41z"/></g><g><path fill="#fefefe" d="M13.682 32.408c-.267.433-.686.715-.973 1.127-.171-.016.154-.242-.103-.205.326-.34.622-.71 1.076-.922z"/></g><g><path fill="#fefefe" d="M8.15 32.46c.096.067-.048.325-.052.46-.091-.007-.108.063-.204.052-.023-.046-.045-.092-.103-.103.035-.22.302-.21.358-.41z"/></g><g><path fill="#fefefe" d="M9.123 32.51c.024.55-.325 1.098-.871 1.128"/></g><g><path fill="#fefefe" d="M5.844 32.562c.156.095-.059.243 0 .41"/></g><g><path fill="#fefefe" d="M6.357 32.87c.341.327-.064.686-.36.819"/></g><g><path fill="#fefefe" d="M13.734 32.87c-.175.797-1.09 1.3-1.435 2.1"/></g><g><path fill="#fefefe" d="M7.381 32.92c.066.239-.067.718-.359.769"/></g><g><path fill="#fefefe" d="M7.432 34.508c-.094-.368.11-.88.41-1.024"/></g><g><path fill="#fefefe" d="M9.686 33.637c.134.323-.163.656-.153 1.025-.235-.039-.342-.205-.513-.308.191-.269.474-.448.666-.717z"/></g><g><path fill="#fefefe" d="M6.407 33.791c.045.131.013.627-.204.666"/></g><g><path fill="#fefefe" d="M8.765 33.791c.155.064-.056.177 0 .308"/></g><g><path fill="#fefefe" d="M13.374 33.945c.071.788-.567 1.31-.87 1.895-.166-.022-.278-.098-.462-.102.379-.663.876-1.209 1.332-1.793z"/></g><g><path fill="#fefefe" d="M8.252 34.048c.06.127.28.096.358.204-.16.215-.491.26-.563.564-.125-.246.066-.615.205-.768z"/></g><g><path fill="#fefefe" d="M6.869 34.355c.341.48-.184.884-.358 1.179"/></g><g><path fill="#fefefe" d="M7.586 34.713c.139.532-.355.875-.564 1.23"/></g><g><path fill="#fefefe" d="M9.686 35.175c.089.065.202.105.205.256-.102.052-.219.088-.256.205-.13-.1.06-.313.051-.461z"/></g><g><path fill="#fefefe" d="M10.506 35.892c-.202.822-1.025 1.297-1.435 1.741.197-.81.323-1.693.923-2.1.184.107.328.252.512.359z"/></g><g><path fill="#fefefe" d="M6.766 35.584c.081.135-.009.536-.051.718"/></g><g><path fill="#fefefe" d="M13.016 35.584c.114.007.022.218.052.308-.067.07-.223.05-.36.05.072-.15.237-.207.308-.358z"/></g><g><path fill="#fefefe" d="M10.916 35.738c.192-.122.432.147.717.102"/></g><g><path fill="#fefefe" d="M7.278 35.994c.053.36-.098.96-.41 1.127"/></g><g><path fill="#fefefe" d="M7.33 37.788c-.3-.611.686-1.774.717-1.025"/></g><g><path fill="#fefefe" d="M7.842 37.429c.123.499-.322.872-.564 1.177"/></g><g><path fill="#fefefe" d="M8.456 38.402c.078.215-.145.57-.153.871-.11-.112-.024-.42-.154-.513.072-.15.237-.206.307-.358z"/></g><g><path fill="#fefefe" d="M7.483 38.812c.133.102-.052.32-.102.41"/></g><g><path fill="#fefefe" d="M7.842 39.017c.165.421-.004.952-.359 1.024"/></g><g><path fill="#fefefe" d="M8.815 39.324c.164.445-.115.64-.41.769"/></g><g><path fill="#fefefe" d="M8.918 40.04c.12.102.087.358.153.514-.19.099-.29.29-.512.358-.053-.134-.061-.314-.05-.512.153-.103.319-.192.409-.36z"/></g><g><path fill="#fefefe" d="M7.893 40.092c.25.237.022.69-.256.718"/></g><g><path fill="#fefefe" d="M8.098 40.86c.103.438-.034.604-.256.82"/></g><g><path fill="#fefefe" d="M9.071 40.964c.132.289.126.66-.153.768-.173-.032-.067-.343-.205-.41.086-.153.234-.244.358-.358z"/></g><g><path fill="#fefefe" d="M33.61 40.964c.386.45.964.709.82 1.69"/></g><g><path fill="#fefefe" d="M7.893 42.654c-.041-.443-.07-.68.205-.871"/></g><g><path fill="#fefefe" d="M9.02 42.653c-.195-.137-.061-.74.103-.716"/></g><g><path fill="#fefefe" d="M33.61 42.244c.322.463.907.665.82 1.537-.076.063-.736-.462-.82-.769-.064-.233.046-.473 0-.768z"/></g><g><path fill="#fefefe" d="M8.2 42.808c.265.218.021.708-.153.82"/></g><g><path fill="#fefefe" d="M9.173 42.859c.076.195.165.845-.204.768"/></g><g><path fill="#fefefe" d="M33.61 43.525c.327.475.956.65.871 1.537"/></g><g><path fill="#fefefe" d="M8.252 43.73c.127.279.116.616-.103.768"/></g><g><path fill="#fefefe" d="M9.173 43.934c.102.156.095.64-.102.667"/></g><g><path fill="#fefefe" d="M33.61 44.702c.304.381.744.623.922 1.128"/></g><g><path fill="#fefefe" d="M8.252 44.754c.264.195.039.744-.103.871"/></g><g><path fill="#fefefe" d="M9.173 44.907c.062.218.19.94-.203.872"/></g><g><path fill="#fefefe" d="M33.713 45.574c.102.085.238.138.256.307-.089-.002-.133.039-.154.103-.118-.052-.106-.235-.102-.41z"/></g><g><path fill="#fefefe" d="M8.406 45.728c-.014.327-.095.588-.308.717-.153-.174.069-.407 0-.666.157.037.151-.089.308-.051z"/></g><g><path fill="#fefefe" d="M34.686 46.65c-.168-.157-.378-.27-.461-.512"/></g><g><path fill="#fefefe" d="M33.558 49.416c.13.227.36.733.155.973.336.53.352 1.185.512 1.793 1.063 4.052 1.764 8.815 2.97 12.86-.01.16.035.375-.05.46.626.807 1.41 1.46 2.202 2.1-.109-.432-.564-.75-.973-1.126-.522-.48-1.232-.847-1.076-1.743.165-.045.357.204.512.359.474.474 1.03 1.137 1.588 1.536-.272-1.282-2.064-1.487-2.202-3.073.095-.073.38.191.563.358.166.151.325.391.512.565.556.508 1.243.785 1.281 1.844.045 1.23-.083 2.943-.512 3.842-.908.168-1.836.589-2.664.666.33-.49 1.215-.425 1.588-.871h.307c.065-.244.34-.276.513-.41-.373-.138-.765.117-1.127.205a70.96 70.96 0 0 1-9.017 1.536c1.034-.193 2.054-.63 3.023-.921.281-.084.777-.023.871-.41-.46-.128-.92.113-1.383.205-1.924.376-3.813.943-6.302.819-2.367-.117-4.221-1.273-6.096-1.793-.189.107.156.216 0 .308-1.18.355-1.83 1.243-2.714 1.895-.395.036-.667-.051-1.025-.051-.046-.216.412-.446.665-.666.742-.641 1.682-1.384 2.408-2.05-.24-.153-.403.21-.665.206-.438-.314-.916-.588-1.281-.973-.16.023-.183-.13-.102-.205-.124-.066-.31-.067-.41-.155-2.844-2.474-4.976-6.592-5.328-11.423-.041-.567-.12-1.15-.051-1.691.062-.483.36-.957.512-1.486.444-1.548.532-3.433.768-5.174 3.318.61 7.576.615 11.681.615 4.161 0 7.022.078 9.58-1.742.608-.434.791 1.749.82 2.356.01.238-.026.387-.053.462z"/></g><g><path fill="#fefefe" d="M8.252 46.65c.189.276-.12.493-.257.614"/></g><g><path fill="#fefefe" d="M33.866 46.752c.418.47 1.12.656 1.127 1.537"/></g><g><path fill="#fefefe" d="M9.071 46.854c.411.227-.089.589-.256.718"/></g><g><path fill="#fefefe" d="M9.02 57.818c-.3.11-.38.438-.665.563.045-.808.14-1.567.614-1.947-.119-.147-.32.324-.41.206-.225-.555.07-1.173.206-1.743.57-2.407 1.188-4.92 1.33-7.632.235.176.502.318.872.358-.167 2.018-.576 3.796-.768 5.79-.116-.023-.002-.273-.103-.309-.416 1.484-.256 3.527 0 5.123-.158.27-.539.588-.717.666-.039-.796.303-1.736.102-2.356-.545.974-.13 3.182-1.23 3.432-.057-1.031.184-1.762.769-2.151z"/></g><g><path fill="#fefefe" d="M8.2 47.572c-.096.296-.06.724-.409.769"/></g><g><path fill="#fefefe" d="M9.071 47.879c.19.463-.195.794-.512.923"/></g><g><path fill="#fefefe" d="M34.07 48.033c.447.494 1.219.66 1.23 1.588"/></g><g><path fill="#fefefe" d="M7.893 48.75c.193.205-.06.82-.307.922-.097-.302.098-.755.307-.922z"/></g><g><path fill="#fefefe" d="M8.97 48.955c.128.454-.225.87-.615.973"/></g><g><path fill="#fefefe" d="M34.225 49.16c.422.45 1.036.706 1.332 1.28"/></g><g><path fill="#fefefe" d="M7.74 49.877c.096.302-.108.746-.359.871-.137-.19.103-.441.05-.717.174.02.22-.089.308-.154z"/></g><g><path fill="#fefefe" d="M8.764 50.082c.186.363-.184 1.04-.563 1.179"/></g><g><path fill="#fefefe" d="M34.429 50.235c.43.409 1.19.484 1.332 1.18"/></g><g><path fill="#fefefe" d="M34.634 51.107c.433.353.99.582 1.332 1.024-.403-.108-.643-.38-1.075-.46.21.473.822.544 1.23.82.052.287.138.544.255.768-.433-.013-.98-.35-1.281-.666-.035-.138.106-.1.154-.155-.072-.098-.265-.076-.358-.153-.044-.435-.227-.73-.257-1.178z"/></g><g><path fill="#fefefe" d="M8.508 51.363c.103.513-.136 1.126-.614 1.23"/></g><g><path fill="#fefefe" d="M6.407 53.873c.252.027.448-.268.564-.205-.057.506-.598.53-.82.87.147-.74.303-1.916 1.025-2.253.31.69-.473 1.163-.769 1.588z"/></g><g><path fill="#fefefe" d="M8.303 52.746c-.01.382-.257.528-.512.666"/></g><g><path fill="#fefefe" d="M35.095 53.053c.38.083.882.484 1.384.615.107.285.16.626.307.87-.488-.109-1.015-.623-1.537-.87-.047-.21-.05-.461-.154-.615z"/></g><g><path fill="#fefefe" d="M8.047 53.412c.174.267-.093.96-.513.973"/></g><g><path fill="#fefefe" d="M35.352 54.027c.564.357 1.248.596 1.589 1.178"/></g><g><path fill="#fefefe" d="M6.715 54.437c.253.497-.45.912-.82 1.127"/></g><g><path fill="#fefefe" d="M7.791 54.59c.221.25-.22.695-.462.82"/></g><g><path fill="#fefefe" d="M35.506 54.642c.53.306 1.009.664 1.588.922.038.354.182.603.256.922-.13.09-.284-.142-.41-.256-.267-.24-1.226-.85-1.383-1.178-.068-.143-.01-.287-.051-.41z"/></g><g><path fill="#fefefe" d="M6.407 55.563c.272.516-.501.861-.768 1.179-.123-.568.448-.883.768-1.179z"/></g><g><path fill="#fefefe" d="M7.022 56.485c-.128-.402.254-.735.512-.922"/></g><g><path fill="#fefefe" d="M35.71 55.615c.731.72 1.768 1.135 2.05 2.304-.14.071-.33-.174-.462-.307-.415-.414-.955-.97-1.434-1.331-.027-.247-.109-.438-.154-.666z"/></g><g><path fill="#fefefe" d="M6.1 56.64c.2.427-.4.928-.717 1.178"/></g><g><path fill="#fefefe" d="M6.254 59.2c-.068-.598.349-1.153.768-1.434"/></g><g><path fill="#fefefe" d="M5.178 58.843c-.18-.47.303-.722.513-.974"/></g><g><path fill="#fefefe" d="M9.891 58.893c.151.43-.074 1.357-.615 1.435"/></g><g><path fill="#fefefe" d="M10.2 59.047c.006.482.45 1.132.357 1.588-.068.334-.411.309-.563.615-.048-.407-.016-1.177.256-1.435-.282-.064-.043-.512-.05-.768z"/></g><g><path fill="#fefefe" d="M5.383 59.099c.04.45-.184 1.078-.512 1.332"/></g><g><path fill="#fefefe" d="M6.664 59.252c.285.58-.401 1.063-.82 1.28"/></g><g><path fill="#fefefe" d="M36.58 59.661c.904.823 2.043 1.41 2.255 2.92-.198.068-.35-.246-.512-.409-.492-.493-1.144-1.09-1.588-1.64-.054-.287-.12-.561-.154-.87z"/></g><g><path fill="#fefefe" d="M8.867 59.917c.164.661-.273 1.162-.666 1.435"/></g><g><path fill="#fefefe" d="M9.686 60.43c.09.535-.116 1.488-.563 1.486"/></g><g><path fill="#fefefe" d="M6.459 60.48c.082.17-.099.516-.102.77-.313.097-.512.308-.718.512-.174-.67.504-.93.82-1.28z"/></g><g><path fill="#fefefe" d="M4.973 60.737c.04.212-.059.725-.306.82"/></g><g><path fill="#fefefe" d="M7.688 61.096c.202.716-.374 1.095-.666 1.486"/></g><g><path fill="#fefefe" d="M10.557 61.096c.032.75-.215 1.937-.82 2.05"/></g><g><path fill="#fefefe" d="M36.837 61.096c.418 1 1.286 1.55 2.101 2.152.106.56.228 1.104.358 1.64-.19.081-.35-.213-.512-.36-.498-.446-1.137-.982-1.64-1.434-.055-.712-.192-1.343-.307-1.998z"/></g><g><path fill="#fefefe" d="M8.662 61.352c.191.537-.132 1.437-.667 1.588"/></g><g><path fill="#fefefe" d="M10.762 61.557c.147.093.165.313.205.513-.068.051-.155.083-.205.153-.158-.178.057-.42 0-.666z"/></g><g><path fill="#fefefe" d="M6.203 61.608c.225.141-.088.583 0 .922-.293.22-.65.376-.871.667-.168-.784.487-1.186.87-1.589z"/></g><g><path fill="#fefefe" d="M4.717 61.916c.062.183-.065.616-.205.768"/></g><g><path fill="#fefefe" d="M8.918 63.965c-.018-.6.005-1.6.512-1.844"/></g><g><path fill="#fefefe" d="M11.018 62.376c.48.478.664 1.25 1.025 1.844-.648.31-1.194.993-1.69 1.281.06-.486.1-.99.153-1.485.298-.266.658-.469.82-.87-.299-.114-.482.293-.769.358-.07-.6.244-.815.461-1.128z"/></g><g><path fill="#fefefe" d="M7.586 62.479c.086.855-.303 1.235-.666 1.639"/></g><g><path fill="#fefefe" d="M6.1 62.889c.076.146-.05.53 0 .82a1.26 1.26 0 0 0-.41.308c-.079-.388.106-.953.41-1.128z"/></g><g><path fill="#fefefe" d="M8.456 62.991c.018.65.008 1.714-.614 1.896"/></g><g><path fill="#fefefe" d="M4.461 63.042c.1.274-.03.756-.154.974"/></g><g><path fill="#fefefe" d="M10.25 63.196c.23.606-.317.878-.666 1.077"/></g><g><path fill="#fefefe" d="M5.28 63.555c.154.1-.08.658-.153.87"/></g><g><path fill="#fefefe" d="M7.381 63.965c.104.737-.093 1.887-.667 1.947"/></g><g><path fill="#fefefe" d="M9.173 64.17c.218.26-.156.793-.46.87"/></g><g><path fill="#fefefe" d="M5.997 64.22c.119.24.018.7.052 1.025-.27.14-.427.393-.717.513.053-.682.168-1.302.665-1.538z"/></g><g><path fill="#fefefe" d="M12.094 64.272c.201.279.415.543.563.87-.894.643-1.715 1.633-2.51 2.204.045-.348.111-.674.103-1.076.614-.665 1.394-1.166 1.844-1.998z"/></g><g><path fill="#fefefe" d="M4.257 64.324c.05.41-.058 1.103-.206 1.485"/></g><g><path fill="#fefefe" d="M9.328 66.476c.125-.849.095-1.852.768-2.152"/></g><g><path fill="#fefefe" d="M8.15 65.092c.24.252-.18.701-.359.87"/></g><g><path fill="#fefefe" d="M4.922 65.246c.157.103-.056.684-.051.972"/></g><g><path fill="#fefefe" d="M8.508 67.398c-.045-.728-.013-1.824.512-2.152.06-.008.092.012.103.051-.15.756-.071 1.74-.615 2.101z"/></g><g><path fill="#fefefe" d="M13.17 65.81c-1.288.76-2.172 1.926-3.177 2.97-.096-.946.725-1.386 1.383-1.998.572-.53 1.06-.953 1.435-1.384.207.05.274.24.359.41z"/></g><g><path fill="#fefefe" d="M5.997 65.655c.209.048.077.534.257.46-.107.612-.646.79-1.024 1.129-.16-.944.392-1.18.768-1.589z"/></g><g><path fill="#fefefe" d="M7.176 65.963c.214.54-.31.782-.512 1.077"/></g><g><path fill="#fefefe" d="M4.051 66.116c.068.188.025.707-.102.87"/></g><g><path fill="#fefefe" d="M8.047 66.168c.076.468-.137 1.092-.103 1.69-.13.057-.28.095-.358.205.013-.568-.06-1.665.461-1.895z"/></g><g><path fill="#fefefe" d="M9.943 66.526c.134.817-.267 1.544-.77 1.896"/></g><g><path fill="#fefefe" d="M13.836 66.578c.184.173.412.304.512.563-1.57 1.044-2.764 2.462-4.2 3.638-.102-.215.192-.39.307-.513.44-.478.886-1.02 1.383-1.537.69-.717 1.516-1.341 1.998-2.151z"/></g><g><path fill="#fefefe" d="M4.768 66.782c.15-.005-.103 1.453-.051.462"/></g><g><path fill="#fefefe" d="M6.049 66.987c.299.73-.538 1.202-.871 1.64"/></g><g><path fill="#fefefe" d="M7.022 67.296c.225.738-.148 1.76-.665 2.099"/></g><g><path fill="#fefefe" d="M4 67.346c.121.787-.016 1.209.204 1.895-.15.014-.156-.116-.307-.103.056-.575-.118-1.38.103-1.792z"/></g><g><path fill="#fefefe" d="M8.713 67.705c.248.578-.06 1.472-.461 1.74"/></g><g><path fill="#fefefe" d="M4.667 68.166c.264.33-.04 1.009.153 1.332"/></g><g><path fill="#fefefe" d="M5.896 68.32c.125.467-.124 1.003-.103 1.536-.355-.003-.522-.194-.82-.255-.025-.231.026-.385.051-.565.425-.006.574-.447.872-.716z"/></g><g><path fill="#fefefe" d="M7.791 68.677c.065.464.142 1.205-.052 1.486.294-.03.571-.522.871-.718.1.24.065.783 0 1.025-.685.096-1.395-.202-2.049-.307.048-.242.25-.33.359-.512.116.089.034.376.205.41.552-.132.158-1.208.666-1.384z"/></g><g><path fill="#fefefe" d="M6.869 69.087c.12.216-.407.647-.512.975"/></g><g><path fill="#fefefe" d="M19.778 70.01c-1.22.325-1.55 1.789-3.279 1.435.698-.737 1.61-1.26 2.408-1.896.352.093.542.345.871.46z"/></g><g><path fill="#fefefe" d="M20.341 70.266c-.796.363-1.101 1.22-2.202 1.281.517-.542 1.25-.869 1.742-1.435.154.05.305.104.46.154z"/></g><g><path fill="#fefefe" d="M19.214 71.597c-.093-.221.327-.339.564-.51.32-.234.561-.49.871-.668 1.524.56 2.946 1.221 5.123 1.128.091-.015.105.049.051.05-2.134.122-4.454.027-6.609 0z"/></g><g><path fill="#fefefe" d="M5.742 70.625c.565-.053 1.078.39 1.486.665.175.023.153-.152.255-.204.35.043.571.214.769.409.47-.337.949.109 1.28.359-1.258-.208-2.94-.44-3.79-1.23z"/></g><g><path fill="#fefefe" d="M35.71 70.83c.11.076-.036.124.052.256-.345.013-.563.154-.87.204-.047-.472.595-.258.818-.46z"/></g><g><path fill="#fefefe" d="M34.328 71.188c-.05.583-.953.311-1.281.615-.152-.09.03-.273 0-.41.426-.069.811-.18 1.28-.205z"/></g><g><path fill="#fefefe" d="M32.534 71.495c-.086.136-.118.326-.204.462-.363.08-.752.137-1.076.255-.2-.66.7-.665 1.28-.717z"/></g><g><path fill="#fefefe" d="M9.635 71.649c.387-.114.806.184.973.462-.261.072-.671-.148-1.024-.154.079-.012.183-.253.051-.308z"/></g><g><path fill="#fefefe" d="M10.814 71.803c.417.01.672.181.819.461-.197.127-.487-.092-.768-.052.14-.146-.03-.27-.051-.409z"/></g><g><path fill="#fefefe" d="M30.588 72.316c-.281.043-.59.059-.82.153-.164-.119.11-.23.05-.41.405-.07 1.116-.436.77.257z"/></g><g><path fill="#fefefe" d="M11.838 71.957c.438.023.824.098.922.461-.138.067-.536-.043-.768-.051-.008-.182-.148-.23-.154-.41z"/></g><g><path fill="#fefefe" d="M13.118 72.11c.223.068.526.054.77.102.016.189.125.283.153.461-.457-.038-.85-.14-.923-.562z"/></g><g><path fill="#fefefe" d="M29.102 72.161c.226-.072 0 .307.153.308-.147.142-.447.133-.717.154.009-.146.094-.214.102-.36.173-.014.35-.025.462-.102z"/></g><g><path fill="#fefefe" d="M14.246 72.315c.137-.117.493-.018.717-.051.093.18.249.297.307.512-.312.04-.48-.067-.768-.05-.11-.114-.141-.304-.256-.41z"/></g><g><path fill="#fefefe" d="M15.475 72.315h.46c.114.196.193.423.36.564-.432.174-.734-.222-.82-.564z"/></g><g><path fill="#fefefe" d="M16.397 72.418c.5-.243.69.266.872.512-.09.117-.392.018-.564.051a1.341 1.341 0 0 0-.308-.563z"/></g><g><path fill="#fefefe" d="M28.026 72.366c.042.177-.076.197-.051.359-.256-.035-.397.048-.615.05.057-.097.066-.241.102-.357.211.006.321-.09.564-.052z"/></g><g><path fill="#fefefe" d="M17.371 72.469c.054-.117.322-.02.46-.051.069.171.045.433.154.563-.379.207-.422-.363-.614-.512z"/></g><g><path fill="#fefefe" d="M18.292 72.52c.122-.117.46-.018.667-.051.034.187.055.388.102.562h-.614c-.062-.16-.058-.386-.154-.511z"/></g><g><path fill="#fefefe" d="M24.082 72.623v.306c-1.345.212-3.275.073-4.662.102-.078-.143-.05-.395-.103-.562 1.538.1 3.24.038 4.765.154z"/></g><g><path fill="#fefefe" d="M26.899 72.47c.025.16-.092.18-.052.358-.156-.037-.186.05-.307.05-.07-.065-.05-.222-.051-.357.074-.08.262-.047.41-.052z"/></g><g><path fill="#fefefe" d="M24.901 72.981h-.36v-.41c.343-.125.4.041.36.41z"/></g><g><path fill="#fefefe" d="M25.31 72.52h.718c-.006.148.029.335-.051.41-.258-.032-.606.048-.718 0 .032-.123.074-.234.052-.41z"/></g><g><path fill="#fefefe" d="M18.907 74.57c.357-.134.896-.01 1.23.05.141.305.375.514.513.82-.707-.163-1.333-.409-1.743-.87z"/></g><g><path fill="#fefefe" d="M23.005 74.57c.047.217-.316.468-.512.613-.215-.023-.236-.242-.41-.307.278-.131.717-.103.922-.307z"/></g><g><path fill="#fefefe" d="M20.598 74.775c.374-.085.577.447.769.717"/></g><g><path fill="#fefefe" d="M21.418 74.876c.008-.06.093-.042.153-.05.2.16.403.313.512.562-.072-.004-.145-.008-.153.051-.26-.096-.313-.403-.512-.563z"/></g><g><path fill="#fefefe" d="M22.288 77.13h.102c-.04 1.11.336 3.106.238 4.753-.303 5.094-1.239 9.853-1.262-.808-.003-1.282.197-2.618.205-3.842.193-.08.54-.005.717-.103z"/></g><g><path fill="#fefefe" d="M21.06 77.233c.035.787-.552.951-.77 1.486"/></g><g><path fill="#fefefe" d="M20.956 78.309c.117.646-.558.943-.768 1.434"/></g><g><path fill="#fefefe" d="M20.854 79.334c.26.806-.456 1.079-.666 1.588"/></g><g><path fill="#fefefe" d="M20.803 80.614c.257.804-.352 1.185-.615 1.639"/></g><g><path fill="#fefefe" d="M20.7 82.049c.209.567-.316.846-.563 1.127"/></g><g><path fill="#fefefe" d="M20.65 83.176c.168.579-.212 1.053-.462 1.383"/></g><g><path fill="#fefefe" d="M20.546 84.61c.212.434-.275.61-.358.922"/></g><g><path fill="#fefefe" d="M16.858 1.107c-.118.19-.45.164-.41.512h-.307c.263-.146.384-.435.717-.512z"/></g><g><path fill="#fefefe" d="M37.657 17.962c-.378.467-.189 1.48-.461 2.254-.262.743-.764 1.445-1.076 2.202-.8 1.947-1.448 3.968-1.998 6.2-.093.378-.398.804-.204 1.229.358-.115.313-.6.41-.871.293-.836.761-1.752.972-2.715 1.082 1.052 1.901 2.368 2.818 3.586-.121.152-.218.328-.308.512-.852-1.128-1.462-2.499-2.51-3.432-.087.327.226.704.41.973.608.889 1.384 1.867 1.896 2.87-.117.172-.254.326-.308.562-.937-.959-1.483-2.308-2.458-3.227.57 1.359 1.513 2.346 2.254 3.535-.055.286-.203.48-.308.717-.698-.941-1.318-1.96-2.1-2.817.37 1.133 1.386 2.06 1.997 3.124-.536 1.633-1.256 3.08-1.69 4.816-.443-.257-.651-.75-1.075-1.025-.15.216.24.422.41.615.204.233.383.501.563.666 0 .221-.12.325-.103.563-.545-.428-.89-1.057-1.434-1.485.016.998 1.446 1.218 1.28 2.407-.385-.212-.502-.692-.921-.87-.06.758 1 .843.82 1.895-.419-.18-.504-.692-.975-.82.01.725 1.083.83.923 1.896-.384-.334-.894-.54-.87-1.282-.129-.14-.078.33-.36.206-.047.235.129.248.103.46-.317 1.59-.249 3.957-.102 5.687-1.901.052-3.806.857-6.045.974-2.036.106-4.347-.045-6.404.051-3.142.146-6.467-.145-9.221-.564-.061-1.424.16-3.131-.308-4.15-.336 1.098-.108 2.761-.256 4.048-.383-.027-.587-.232-.922-.307.031-3.14-.137-6.078-1.076-8.249.087-.262.401-.483.615-.716.19-.21.37-.608.564-.513-.091.37-.227.694-.308 1.076.584-.389.625-1.32.922-1.998.234.074.476.14.717.205-.175.342.014.794-.154 1.076.302-.245.238-.857.616-1.025.265-.032.076.106.102.256.22 0 .189-.255.41-.256 2.127.12 3.782-.272 5.276-.921-.007-.113-.129-.111-.256-.103.852-1.07 1.57-2.283 2.306-3.535.198-.338.375-.994.922-.973-.694 1.51-1.703 2.703-2.203 4.405 1.078-1.244 1.764-2.88 2.561-4.405h.564c-.691 1.478-1.508 2.83-2.151 4.354.99-1.06 1.646-2.896 2.407-4.354.143-.062.353-.057.563-.051-.603 1.103-1.212 2.203-1.792 3.33.957-.905 1.415-2.309 2.202-3.382.505.075.767.394 1.179.563-.513.547-1.136.983-1.64 1.538.113-.52.683-1.025.87-1.64-.875.627-1.231 1.773-1.792 2.715.53-.414 1.383-1.198 2.1-1.844.357-.32.632-.84 1.128-.461-.971.976-2.03 1.864-2.818 3.022 1.011-.748 1.973-2.01 3.022-2.92.205.12.448.201.666.308-1.025.837-2.044 1.679-2.92 2.664.632-.197 1.115-.78 1.64-1.23.54-.463 1.112-.901 1.639-1.332.187.001.23.146.358.205.005-.289.118-.147.462-.153-.182-.092-.409-.14-.615-.206-.06-.075-.06-.128 0-.204-.437.124-.528-.481-.871-.615.586.2 1.698.317 2.253.718-.117-.432-.673-.538-1.075-.718-.404-.18-.843-.358-1.28-.513-1.104-.388-1.958-.79-3.177-1.024-.414-.08-1.065-.355-1.486-.307-.394.045-.935.507-1.383.768-1.343.786-2.829 1.505-4.406 1.895-.164.046-.07-.168-.205-.153-.249-.027-.226.218-.46.205-1.525.09-2.267-.602-3.33-.973.017-.188.202-.207.154-.461-.378-.055-.429.38-.77.205-.098-.127.229-.214 0-.36-.554.283-.937.736-1.382 1.128-.112-.812.795-1.05 1.075-1.64-.33-.114-.497.348-.768.461-.114-.237.115-.538 0-.82-.368.453-.283 1.357-.87 1.59-.044-.677.356-1.351.768-1.743-.286-.015-.388.418-.615.154-.124.372-.548.715-.769.82-.017-.768.54-.964.77-1.486-.678.041-1.005.874-1.59 1.178.128-.42.077-1.016.513-1.127 0 .136-.028.301.103.308.06-1.069-.547-1.913-.563-3.074.275.834.507 1.712.92 2.408-.057-1.514-.774-3.148-.819-4.918-.036-1.427-.01-2.902.257-4.304.11-.162.287-.259.358-.46-.428-.964.78-1.514 1.025-2.306-.25-.171-.333.195-.462.308.16-.541.555-1.29 1.076-1.64-.25-.146-.201-.138-.204-.41-1.031.518-1.804 1.354-2.613 2.1-.41.38-.783.785-1.179 1.179-.378.379-.734.896-1.28 1.076.247-.767.93-1.237 1.486-1.742.552-.503 1.072-1.05 1.639-1.537 1.144-.98 2.46-1.771 3.432-2.92-.51.15-.928.523-1.383.82-1.7 1.109-3.297 2.547-4.661 4.047.525-1.643 2.28-2.5 3.534-3.587-.84.237-1.789.808-2.407 1.435-.118-.205.135-.478.102-.768 1.637-.78 3.32-1.589 4.816-2.561 1.29-.84 2.741-1.53 4.097-2.408.225-.146.475-.451.77-.359-.173.326-.618.472-.974.666-1.022.558-2.28 1.147-3.176 1.896 1.052-.264 2.161-1.037 3.176-1.589.292-.158.71-.508 1.024-.256-1.313.924-3.092 1.382-4.302 2.408.841-.119 1.552-.646 2.304-1.024.77-.387 1.555-.742 2.357-1.076-.009.128.079.16.154.205-1.36.929-3.082 1.493-4.457 2.408 1.657-.615 3.124-1.418 4.662-2.152 1.548 1.246 5.188 2.08 7.685 1.127.232-.05.383.134.46-.051-.063-.283-.333-.125-.512-.154-1.053-.167-2.607-.24-3.944-.256-.282-.47-1.228-.275-1.434-.82.778.118 2.078.56 3.124.257-.731-.413-2.09-.198-2.766-.666-.264-1.239-.651-2.355-.973-3.535.071 1.141.598 2.27.82 3.432-.185.013-.189-.154-.36-.154-.435-1.699-.944-3.324-1.434-4.969.11 1.598.772 3.088 1.127 4.61-.1.2-.327-.306-.512-.357.242.542.77.8.82 1.536-.215.027-.287-.09-.461-.102-.354-1.108-.66-2.214-1.025-3.433-.113-.376-.341-.78-.36-1.127-.036-.743.363-1.448.309-2.305 1.984.01 4.82.028 6.762-.564-1.628-.196-3.555.005-5.328-.102-.744-.044-1.478-.333-2.1-.358-.485-.02-1-.016-1.332-.359.1-.2.36-.01.512 0 .507.035 1.03-.023 1.537 0 .944.043 1.86.238 2.818.307 2.356.172 4.685-.15 7.12-.204.009 2.791.12 5.48 1.179 7.223-.185-2.223-.601-4.66-.462-7.377.193-.047.362-.116.564-.154-.214 2.682.112 5.196.82 7.12.054.172.155.004.307.103 1.165 1.264 2.36 2.507 3.893 3.381 1.472.84 2.848 2.097 4.765 2.46.28.317.618.576.922.87.252 1.051 1.086 1.776 1.075 2.92-.599-.954-1.036-2.07-1.588-3.073-.138.76.308 1.447.614 2.1.307.65.815 1.288.77 2.05-.623-.966-1.046-2.132-1.691-3.074-.158.312.113.636.205.87-.174.147-.213-.127-.359-.256zM26.488 9.867c-.484.42-1.021.789-1.536 1.179-.127.146-.485.06-.461.359.999-.045 2.025-.501 2.305-1.435-.091-.046-.13-.143-.308-.103zm3.587 2.46c.169-.103-.127-.22 0-.257.123-.02.111.094.256.051-.194-.574-.94-.597-1.178-1.127-.19.036-.22-.088-.41-.051-.052-.102-.088-.22-.205-.256.305.754.737 1.381 1.537 1.64zm-15.164.87c-.77.016.071.122.41 0zm.205.87c.664.662 1.747 1.007 2.766 1.333 1.032.33 2.186.726 3.279.615a6.108 6.108 0 0 1-.87-.256c1.508.148 3.526.265 5.071.153.7-.05 1.764.07 1.998-.41-.39-.39-1.314.153-1.896-.102 1.07-.397 2.109-.829 3.023-1.383-.868-.144-1.713.308-2.561.563-3.24.977-7.893.763-10.093-.921-.07.428.458.53.462.717-.467-.105-.802-.386-1.179-.308zm19.979 18.188c-.244-.225-.438-.508-.461-.82-1.353 1.447-2.463 3.138-3.893 4.508-1.568-.105-2.918-.466-4.098-.82-.225-.476-.823-.579-1.486-.614.438-.353.943-.73 1.486-1.128.567-.415 1.33-1.16 1.997-1.178-.191-.03-.557.114-.46-.205-.246.152-.545.272-.922.154-.027-.17.288-.222.05-.307-1.069.809-2.32 1.437-3.124 2.51.457-.15.95-.573 1.536-1.025.457-.35 1.358-1.338 1.896-.973-1.043.647-1.971 1.41-2.868 2.203-.44.022-.8.123-1.18.204.224.403.561.261 1.077.359 2.14.405 4.599 1.695 6.967 1.486.289-.026.616-.048.87-.256-.294-.286-.921-.24-1.383-.359 1.336-1.191 2.35-2.705 3.433-4.15.103.256.31.408.41.666-.637 1.004-1.528 1.751-2.152 2.767.613-.289.84-.726 1.383-1.383.118-.143.88-1.231.974-1.23.281.004.253.606.512.666.208-.414-.721-.718-.256-1.076.295.149.323.565.717.615-.38-.884-1.17-1.358-1.588-2.203h-.154c.019.674 1.044 1.072.717 1.588zm-9.016 2.049c.687-.408 1.465-1.031 2.1-1.486.215-.154.582-.268.513-.512-.942.595-1.885 1.19-2.613 1.998zm6.61-1.896a26.863 26.863 0 0 0-1.692 2.152 5.533 5.533 0 0 0 1.844-2.1c-.065-.003-.07-.066-.153-.052zm-6.046 2.203c.417-.14.765-.509 1.126-.82.456-.39 1.027-.825 1.128-1.23-.723.712-1.656 1.214-2.254 2.05zm.768.205zm1.844-1.69c-.005-.063-.015-.122-.102-.103-.565.613-1.367.99-1.742 1.793.706-.473 1.302-1.055 1.844-1.69zm-.768 1.587c.507-.313 1.12-.792 1.28-1.28zm-8.043 0c.03.364.64.147.974.205"/></g><g><path fill="#fefefe" d="M14.655 8.485c.156-.02.107.167.154.256-.095.007-.17.033-.205.102-.109-.047.097-.206.052-.358z"/></g><g><path fill="#fefefe" d="M15.322 8.792v.256c.045-.023.09-.045.102-.102.104.1.153.256.154.46-.137-.112-.567-.542-.256-.614z"/></g><g><path fill="#fefefe" d="M15.014 9.1c.093.268-.3.314-.461.409-.524.308-1.16.738-1.69 1.076-.058-.111.262-.283.307-.462.733-.188 1.217-.9 1.844-1.023z"/></g><g><path fill="#fefefe" d="M8.15 15.759c-.529.47-.615 1.36-.974 1.998-.563 1.001-2.133 1.752-2.613 2.869.853-.395 1.588-1.623 2.357-2.101-.019.272-.161.42-.154.717-.767.633-1.389 1.413-2.1 2.1.04-.422-.263-.434-.41-.768-.01-.215.25-.158.205-.41-.087-.273-.333.111-.461-.05a.516.516 0 0 0-.154-.308 110.91 110.91 0 0 1 4.303-4.048z"/></g><g><path fill="#fefefe" d="M39.195 16.937c.028-.148.08.078.152.051-.038.17.245.466.103.41-.092-.147-.135-.343-.256-.461z"/></g><g><path fill="#fefefe" d="M1.387 19.243v-.154c.25 1.133.637 2.403.666 3.586.195.263.36.937.205 1.229.236.44.538 1.46.205 1.844-.566-1.962-.567-4.488-1.076-6.505z"/></g><g><path fill="#fefefe" d="M36.991 23.084c.047.742.608 1.406.923 2.05-.47-.469-.874-1.45-1.384-2.05.048-.259.183-.431.257-.666.305.36.482.85.717 1.281-.163-.01-.263-.522-.513-.615z"/></g><g><path fill="#fefefe" d="M5.178 23.34c-.491.773-1.034 1.494-1.537 2.255-.27-1.277.758-1.702 1.127-2.51.063.108.193.148.205.307.152-.122-.062-.31-.051-.461.129.093.127.317.256.41z"/></g><g><path fill="#fefefe" d="M6.715 27.541c.422.673-.103 1.913-.718 2.203.11-.591.224-1.176.615-1.486-.105-.151-.264.074-.307.155-.032-.256.402-.486.41-.871z"/></g><g><path fill="#fefefe" d="M7.381 29.898c.05.632-.459 1.147-.82 1.537"/></g><g><path fill="#fefefe" d="M17.524 31.435c.059.01.028.051 0 .051-.576 1.18-1.32 2.266-1.997 3.381-.206.338-.319.855-.77.973.845-1.323 1.586-2.75 2.306-4.2a1.86 1.86 0 0 0 .461-.205z"/></g><g><path fill="#fefefe" d="M15.68 32.203c-.028.195-.16.318-.358.205-.306 1.066-.95 1.87-1.486 2.766-.158.264-.237.714-.615.769.344-1.603 1.468-2.426 2.152-3.689.156.038.15-.088.307-.051z"/></g><g><path fill="#fefefe" d="M10.045 32.562c-.173.715-.816.96-1.076 1.588"/></g><g><path fill="#fefefe" d="M11.018 34.099c.02.327-.237.82-.308 1.23-.31-.151-.636-.286-.921-.462.121-1.023 1.08-1.48 1.587-1.946-.195.88-1.002 1.148-1.23 1.997.333-.027.605-.557.872-.82z"/></g><g><path fill="#fefefe" d="M12.504 33.381c-.135.515-.589 1.154-.871 1.69.077.203.214-.217.256-.05a5.07 5.07 0 0 1-.205.614c-.199-.09-.481-.1-.666-.204.155-1.023.98-1.378 1.486-2.05z"/></g><g><path fill="#fefefe" d="M8.61 34.509c.039.72-.468 1.342-.922 1.741"/></g><g><path fill="#fefefe" d="M8.815 34.509c.24.1.375.308.615.41-.063.892-.51 1.4-.922 1.946.263-.01.322-.224.461-.359.046.202-.128.622-.204.871-.151-.157-.19-.426-.36-.563a.515.515 0 0 1 .154-.308c-.012-.073-.152-.017-.153-.102.027-.74.434-1.102.717-1.588-.207.066-.265.282-.41.41-.063-.134.12-.46.102-.717z"/></g><g><path fill="#fefefe" d="M8.15 37.633c-.088-.041-.033-.37.102-.358.028.33.198.519.256.82-.264.128-.432.353-.614.563-.14-.414.304-.686.409-1.025-.011-.065-.153-.067-.154 0z"/></g><g><path fill="#fefefe" d="M7.586 51.004c-.076.556-.252 1.012-.666 1.23"/></g><g><path fill="#fefefe" d="M7.432 56.537c.003.635-.395.869-.768 1.127"/></g><g><path fill="#fefefe" d="M36.07 56.844c.64.59 1.275 1.184 1.894 1.793"/></g><g><path fill="#fefefe" d="M36.12 57.51c1.016.743 2.334 1.628 2.408 3.484-.309-.1-.364-.367-.614-.614-.43-.426-1.255-.8-1.486-1.333-.2-.457-.047-.998-.308-1.537z"/></g><g><path fill="#fefefe" d="M7.33 61.147c.065-.908.413-1.977.665-2.869-.048-.212.154-.01 0 0-.14 1.038-.01 2.346-.666 2.869z"/></g><g><path fill="#fefefe" d="M9.533 69.754c.191-.129-.033.054 0 .205.26-.032.258-.323.307-.564 1.086-1.202 2.375-2.201 3.33-3.534.276.116.412.372.564.614-1.472 1.277-2.778 2.722-3.997 4.252-.291-.067-.624-.092-.922-.154.159-.354.517-.508.718-.82z"/></g><g><path fill="#fefefe" d="M13.273 71.137c-.915-.01-1.622-.223-2.51-.257.456-.661 1.181-1.201 1.843-1.793.66-.588 1.34-1.197 1.896-1.843.294.148.493.394.768.562-1.125 1.027-2.544 1.76-3.381 3.074 1.255-.744 2.39-2.05 3.74-2.867.47.382 1.142.564 1.69.87-.96.747-1.877 1.537-2.715 2.407-.378.002-.693-.058-1.024-.102.956-.905 2.008-1.714 3.022-2.562-1.379.362-2.294 1.635-3.33 2.51z"/></g><g><path fill="#fefefe" d="M9.789 68.37c.054.857-.503 1.103-.82 1.589"/></g></g></g></svg>