<svg xmlns="http://www.w3.org/2000/svg" width="35" height="72" viewBox="0 0 35 72"><g><g><g><path fill="#262523" d="M15.701 62.202c-.884-.382-1.593-.94-1.652-2.148-2.613-.166-5.462-.768-7.766-1.446-.845-.248-1.766-.362-2.397-.66-.148-.07-.34-.255-.537-.372-.685-.41-1.445-.938-1.694-1.736.34-4.664 1.183-8.943 2.355-12.765.197-.643.384-1.301.579-1.942.34-1.124.572-2.03.743-3.43.063-.512.2-1.023.206-1.487.006-.504-.137-1.082-.206-1.652a55.812 55.812 0 0 0-.785-4.792c-.443-2.092-.952-4.099-1.776-5.619-.21-.385-.469-.745-.868-.95.01-.202-.098-.288-.207-.372-.549-1.906-1.022-4.059-1.405-6.32-.115-.684-.401-1.64-.247-2.231.134-.517 1.14-1.318 1.528-1.612.292-.221.66-.374.992-.578.324-.2.629-.454.909-.62 2.145-1.27 4.07-1.866 5.7-3.47.676-.665 1.638-1.556 1.736-2.645.084-.936.089-2.532 0-3.47-.015-.16-.14-.395-.124-.578.041-.437.636-.586.992-.868.163-.129.138-.246.289-.29.561-.161 1.649-.02 2.396-.04.807-.023 1.576.05 2.354 0 1.82-.118 3.405-.15 4.834-.042a3.01 3.01 0 0 1 1.984.909c-.285.639-.207 1.766-.207 3.057 0 .842-.093 1.692.041 2.23.083.333.518.645.744.992.244.376.411.834.661 1.075.188.182.9.576 1.156.702.734.361 1.514.676 2.272 1.074 2.06 1.08 4.56 2.321 5.908 4.008.034 2.417-.688 5.4-1.321 7.725-.081.295-.07.64-.166.868-.126.3-.454.516-.62.785-1.092 1.772-1.785 3.621-2.396 5.949-.33 1.258-.667 2.591-.867 3.842-.344 2.15.113 4.653.62 6.569 1.172 4.429 2.58 8.532 3.346 13.51.076.494.1 1.02.123 1.57.025.53.148 1.13.084 1.569-.04.267-.253.317-.165.579a.508.508 0 0 0-.331.288c-3.738 1.317-7.755 2.354-12.436 2.728-.223.918-.658 1.626-1.487 1.94.451 14.218-3.927 12.09-2.892.166z"/></g><g><path fill="#fefefe" d="M17.767.853c-.362.244-.458.754-1.115.702"/></g><g><path fill="#fefefe" d="M19.75.853c.004.165-.183.47-.207.743-.722.02-1.33-.073-2.065-.041.413-.571 1.04-.839 2.272-.702z"/></g><g><path fill="#fefefe" d="M20.535.894l-.289.578c-.234-.027-.338.075-.537.083.063-.253.226-.408.289-.661.26.011.33-.036.537 0z"/></g><g><path fill="#fefefe" d="M12.975.894c-.222.109-.281.38-.62.372"/></g><g><path fill="#fefefe" d="M14.173.894c.204.035-.16.115-.124.248.015.054.072.065.082.124.465.01.458-.451 1.034-.33-.163.181-.424.264-.58.454-.272-.057-.634-.026-.908-.083.129-.174.32-.285.496-.413z"/></g><g><path fill="#fefefe" d="M16.115.894c-.31.23-.526.623-1.033.537"/></g><g><path fill="#fefefe" d="M16.9.894c-.306.232-.543.532-.992.62"/></g><g><path fill="#fefefe" d="M20.783.894h.414c-.17.217-.251.52-.662.496.064-.185.21-.287.248-.496z"/></g><g><path fill="#fefefe" d="M22.188.977c-.258.168-.647.207-.992.289"/></g><g><path fill="#fefefe" d="M11.86 2.712c.066-.012.07.039.123.041.013.219-.071.342-.083.538-.095-.112-.014-.399-.041-.579z"/></g><g><path fill="#fefefe" d="M12.19 2.877c.055.015.065.073.124.083-.045 1.002-.293 2.157-.537 3.098-.253-.116-.087-.453-.042-.661.156-.72.342-1.625.455-2.396v-.124z"/></g><g><path fill="#fefefe" d="M12.52 3.042c.139.069.317.097.455.165-.142 1.154-.372 2.217-.537 3.347-.21-.188-.05-.529 0-.785.144-.744.369-1.723.289-2.603-.254 1.151-.386 2.424-.661 3.553-.118-1.173.517-2.286.455-3.676z"/></g><g><path fill="#fefefe" d="M13.14 3.25h.124c-.073.477-.048 1.052-.248 1.403-.024-.533.148-.87.125-1.404z"/></g><g><path fill="#fefefe" d="M12.934 4.901c.125.415-.095.842-.124 1.24"/></g><g><path fill="#fefefe" d="M13.098 5.562c.353 1.026.637 2.119.951 3.181a4.091 4.091 0 0 1-.496-.165c-.028-.198-.189-.369-.082-.578-.33-.344-.352-.999-.578-1.446.084-.315.162-.637.206-.992z"/></g><g><path fill="#fefefe" d="M12.686 6.43c.111.195-.084.439-.042.702"/></g><g><path fill="#fefefe" d="M12.232 6.637c.125-.002.102.145.123.247h-.207c.024-.086.103-.117.084-.247z"/></g><g><path fill="#fefefe" d="M11.53 6.843c.092.3-.133.639-.414.703"/></g><g><path fill="#fefefe" d="M12.81 6.884c.16.336.241.75.371 1.116-.074-.005-.087.05-.165.041-.222-.291-.432-.758-.206-1.157z"/></g><g><path fill="#fefefe" d="M12.769 8.165c-.157.019-.195-.081-.29-.124"/></g><g><path fill="#fefefe" d="M13.223 8.207c.082.054.092.183.123.288-.084-.039-.163-.084-.248-.123-.036-.133.108-.086.125-.166z"/></g><g><path fill="#fefefe" d="M4.217 12.131c.018.382-.164.774-.331 1.033-.054-.207.1-.56.082-.868.07-.068.186-.09.249-.165z"/></g><g><path fill="#fefefe" d="M3.72 12.379c.127.189-.146.675-.123 1.033"/></g><g><path fill="#fefefe" d="M3.018 12.875c-.042.467.05 1.426-.454 1.57"/></g><g><path fill="#fefefe" d="M2.44 13.288c.112.196-.112.63 0 .826-.012.084-.112.081-.124.166.006.102.007.198-.041.247v.207c.005.102-.05.07-.041 0-.005-.507.04-.81 0-1.281.061-.062.174-.074.206-.165z"/></g><g><path fill="#fefefe" d="M32.103 13.949c.127-.03.08.113.206.082.02.131-.074.146-.041.29-.093-.086-.129-.23-.165-.372z"/></g><g><path fill="#fefefe" d="M33.342 14.362c-.402 2.6-.706 5.656-1.28 8.222-.43-.534-.018-1.54.123-2.355.311-1.79.68-3.787.91-5.619.015-.15.254-.076.247-.248z"/></g><g><path fill="#fefefe" d="M2.77 14.651c.123.098-.05.25-.04.372"/></g><g><path fill="#fefefe" d="M30.698 14.858c.37.677.662 1.432 1.074 2.065-.054.098-.017.286-.083.373-.386-.771-1.125-1.391-.99-2.438z"/></g><g><path fill="#fefefe" d="M2.316 15.189c.144.021.108.222.165.33-.109.02-.14.228-.247.124a.715.715 0 0 1 .082-.454z"/></g><g><path fill="#fefefe" d="M30.533 15.85c.16.14.37.565.579.95.265.488.57.736.454 1.363-.504-.5-.773-1.238-1.198-1.818.05-.17.14-.3.165-.495z"/></g><g><path fill="#fefefe" d="M2.564 15.89c.196.11-.164.243-.165.414"/></g><g><path fill="#fefefe" d="M5.29 15.974c.109.961-.7 1.365-1.198 1.859-.07-.11-.095-.263-.165-.373.37-.579.932-.968 1.364-1.486z"/></g><g><path fill="#fefefe" d="M2.73 16.262c.089.09.116.242.165.373-.08.209-.275.303-.372.495-.23-.312.032-.7.206-.868z"/></g><g><path fill="#fefefe" d="M30.285 16.51c.438.636.755 1.394 1.198 2.024-.019.215-.093.376-.082.62-.513-.603-.84-1.39-1.322-2.024.038-.237.178-.372.206-.62z"/></g><g><path fill="#fefefe" d="M3.018 17.006c.418.394-.218.677-.33 1.033"/></g><g><path fill="#fefefe" d="M5.167 17.09c.229.765-.471.96-.702 1.403-.121-.058-.132-.227-.207-.33.234-.427.626-.696.909-1.074z"/></g><g><path fill="#fefefe" d="M29.996 17.296c.17.227.407.724.66 1.156.347.59.818.918.579 1.735-.539-.727-.96-1.573-1.445-2.354.055-.193.14-.355.206-.537z"/></g><g><path fill="#fefefe" d="M3.267 17.626c.14-.03.068.152.165.165-.217.334-.42.682-.703.95-.04-.591.376-.725.538-1.115z"/></g><g><path fill="#fefefe" d="M3.514 18.04c.085.066.104.198.165.288-.266.41-.511.838-.867 1.158-.035-.752.466-.968.702-1.447z"/></g><g><path fill="#fefefe" d="M5.167 18.039c.112.526.083 1.267-.372 1.363-.041-.248-.17-.408-.248-.62.14-.314.425-.482.62-.743z"/></g><g><path fill="#fefefe" d="M29.335 18.824c.035-.008.039.016.042.042.482.813.878 1.656 1.404 2.478.16.25.462.522.33.868-.731-.894-1.238-2.013-1.942-2.934.054-.153.133-.28.166-.454z"/></g><g><path fill="#fefefe" d="M4.258 19.154c.121.06.14.245.082.372"/></g><g><path fill="#fefefe" d="M4.134 19.32c.111.538-.333.879-.537 1.239"/></g><g><path fill="#fefefe" d="M5.126 19.32c.17.243.047.778.124 1.115"/></g><g><path fill="#fefefe" d="M30.368 19.361c.31.448.72.794.826 1.446"/></g><g><path fill="#fefefe" d="M29.046 19.526c.372.468 1.016 1.644 1.487 2.355.27.407.577.593.454 1.074-.546-.553-1.033-1.482-1.57-2.272-.25-.368-.68-.678-.371-1.157z"/></g><g><path fill="#fefefe" d="M4.465 19.65c.045.01.028.082.082.083-.04.138-.165.192-.207.33.257 0-.034.207-.082.372-.082-.248.05-.638.207-.785z"/></g><g><path fill="#fefefe" d="M4.63 20.146c.176.086.18.344.247.537-.233.344-.41.747-.743.991-.199-.721.32-1.047.496-1.528z"/></g><g><path fill="#fefefe" d="M28.84 20.146c.034-.008.038.016.04.041.565.882 1.04 1.775 1.653 2.644.18.256.56.535.372.95-.296-.073-.404-.425-.579-.66-.518-.699-1.143-1.486-1.776-2.107.087-.298.184-.587.29-.868z"/></g><g><path fill="#fefefe" d="M3.514 20.229c.109.508-.322.835-.496 1.198"/></g><g><path fill="#fefefe" d="M3.969 20.353c.061.118.037.504-.125.537"/></g><g><path fill="#fefefe" d="M2.234 20.848c-.015.243.233.666-.042.785a2.443 2.443 0 0 0-.207-.702c.052-.059.143-.078.249-.083z"/></g><g><path fill="#fefefe" d="M4.919 20.93c.473.39-.032.935-.248 1.24"/></g><g><path fill="#fefefe" d="M3.514 21.014c.244.188.024.446-.082.62"/></g><g><path fill="#fefefe" d="M3.308 21.344c.093.245-.096.564-.207.744"/></g><g><path fill="#fefefe" d="M4.589 21.427c.027.263-.098.728-.166 1.033"/></g><g><path fill="#fefefe" d="M3.72 21.592c.184.481-.145 1.068-.495 1.28"/></g><g><path fill="#fefefe" d="M2.357 21.716c.163.36.213.834.372 1.198"/></g><g><path fill="#fefefe" d="M5.25 21.716c.26.237-.012.495-.083.743"/></g><g><path fill="#fefefe" d="M4.96 21.964c.058.403-.11.936-.33 1.198"/></g><g><path fill="#fefefe" d="M31.73 22.336c.283.17.091.435-.081.578"/></g><g><path fill="#fefefe" d="M3.927 22.377c.358.425.087.866-.164 1.198"/></g><g><path fill="#fefefe" d="M5.704 22.831c.11.094.084.274 0 .373"/></g><g><path fill="#fefefe" d="M3.556 22.873c.05.203-.073.588-.124.826"/></g><g><path fill="#fefefe" d="M4.175 23.245c.264.475-.226.86-.372 1.198"/></g><g><path fill="#fefefe" d="M5.208 23.905c.05.202.019.68-.206.744"/></g><g><path fill="#fefefe" d="M4.381 23.988c.218.19.1.572-.082.702"/></g><g><path fill="#fefefe" d="M4.092 24.277c.088.158-.087.406-.04.661-.109-.057-.118-.214-.166-.33.094-.086.147-.212.206-.33z"/></g><g><path fill="#fefefe" d="M6.489 24.401c-.05.39-.1 1.14-.579 1.24"/></g><g><path fill="#fefefe" d="M4.3 25.558c-.218-.17-.137-.69.081-.785"/></g><g><path fill="#fefefe" d="M8.182 24.856c-.284.488-.986.913-1.321 1.487-.049-.778.844-.973 1.157-1.528.073-.006.086.05.164.04z"/></g><g><path fill="#fefefe" d="M16.156 24.855c-.55 1.24-1.478 2.46-2.23 3.636-.283-.008-.474.078-.703.124a32.071 32.071 0 0 0 1.693-2.644c.315-.548.521-1.018 1.24-1.116z"/></g><g><path fill="#fefefe" d="M15.165 25.227c-.7 1.215-1.498 2.332-2.273 3.47-.152.028-.278.081-.454.084.434-.762 1.093-1.795 1.61-2.727.269-.483.454-1.273 1.117-.827z"/></g><g><path fill="#fefefe" d="M8.596 25.103c.078.018.103.09.207.083-.043.109-.164.14-.207.248-.117-.066.058-.186 0-.33z"/></g><g><path fill="#fefefe" d="M6.819 25.145c.055.303-.152.7-.372.867"/></g><g><path fill="#fefefe" d="M8.348 25.269c.044.526-.602.94-.868 1.157"/></g><g><path fill="#fefefe" d="M5.621 25.352c.1.198-.054.495-.165.62"/></g><g><path fill="#fefefe" d="M9.298 25.434c-.077.126-.196-.048-.33 0"/></g><g><path fill="#fefefe" d="M4.795 25.393c.257.31-.112.605-.248.785"/></g><g><path fill="#fefefe" d="M9.009 25.64c-.248.152-.397.403-.661.538"/></g><g><path fill="#fefefe" d="M13.47 25.64c.075-.011.085.04.042.042-.513.862-1.018 1.762-1.57 2.644-.156.25-.336.713-.743.66-.03-.114.125-.304.247-.495.177-.273.354-.565.579-.785.2-.722.638-1.207.909-1.859.212-.035.374-.122.537-.206z"/></g><g><path fill="#fefefe" d="M9.505 25.806c-.443.466-.975.843-1.364 1.363-.04-.702.807-.873 1.033-1.446.151-.014.23.046.33.083z"/></g><g><path fill="#fefefe" d="M6.117 25.764c.217.254-.267.498-.413.662"/></g><g><path fill="#fefefe" d="M9.753 25.888c.097 0 .121.072.247.042-.083.26-.384.304-.495.537-.088-.2.169-.408.248-.579z"/></g><g><path fill="#fefefe" d="M10.496 26.012c-.237.495-.935.882-1.239 1.446-.022-.696.769-.938 1.074-1.446h.165z"/></g><g><path fill="#fefefe" d="M12.066 26.095c-.157.45-.706.864-.95 1.363-.103-.503.396-.76.495-1.198-.202-.037-.157.173-.33.165-.094-.308.596-.17.785-.33z"/></g><g><path fill="#fefefe" d="M11.033 26.137c-.215.349-.553.576-.785.908-.138-.013.124-.195-.083-.165.263-.275.502-.573.868-.743z"/></g><g><path fill="#fefefe" d="M6.571 26.178c.078.054-.038.262-.041.372-.074-.006-.087.05-.165.04-.018-.036-.036-.073-.082-.082.028-.178.243-.17.288-.33z"/></g><g><path fill="#fefefe" d="M7.356 26.219c.02.442-.262.885-.702.909"/></g><g><path fill="#fefefe" d="M4.712 26.26c.126.077-.047.197 0 .33"/></g><g><path fill="#fefefe" d="M5.126 26.508c.275.265-.052.554-.29.661"/></g><g><path fill="#fefefe" d="M11.075 26.508c-.141.644-.88 1.049-1.157 1.694"/></g><g><path fill="#fefefe" d="M5.952 26.55c.053.192-.055.578-.29.62"/></g><g><path fill="#fefefe" d="M5.993 27.83c-.076-.297.089-.71.33-.826"/></g><g><path fill="#fefefe" d="M7.81 27.128c.109.26-.131.529-.123.826-.19-.031-.276-.165-.414-.248.155-.217.383-.361.538-.578z"/></g><g><path fill="#fefefe" d="M5.167 27.252c.035.106.01.505-.165.537"/></g><g><path fill="#fefefe" d="M7.067 27.252c.126.051-.045.142 0 .248"/></g><g><path fill="#fefefe" d="M10.785 27.376c.057.635-.458 1.057-.702 1.528-.134-.018-.224-.079-.372-.083.305-.534.706-.974 1.074-1.445z"/></g><g><path fill="#fefefe" d="M6.654 27.459c.049.103.225.077.29.165-.13.173-.397.209-.455.454-.101-.198.053-.495.165-.62z"/></g><g><path fill="#fefefe" d="M5.538 27.706c.276.387-.147.713-.288.95"/></g><g><path fill="#fefefe" d="M6.117 27.995c.112.43-.286.706-.455.992"/></g><g><path fill="#fefefe" d="M7.81 28.367c.072.054.163.086.166.207-.082.042-.177.071-.206.165-.105-.08.048-.252.04-.372z"/></g><g><path fill="#fefefe" d="M8.472 28.946c-.163.663-.827 1.046-1.157 1.404.159-.654.26-1.365.744-1.693.148.085.264.203.413.289z"/></g><g><path fill="#fefefe" d="M5.456 28.698c.065.109-.008.432-.042.578"/></g><g><path fill="#fefefe" d="M10.496 28.698c.092.005.018.175.042.248-.054.057-.18.04-.29.04.057-.12.19-.166.248-.288z"/></g><g><path fill="#fefefe" d="M8.803 28.822c.155-.099.348.118.578.082"/></g><g><path fill="#fefefe" d="M5.869 29.028c.042.291-.08.774-.33.91"/></g><g><path fill="#fefefe" d="M5.91 30.475c-.242-.493.554-1.43.579-.827"/></g><g><path fill="#fefefe" d="M6.324 30.185c.099.403-.26.703-.455.95"/></g><g><path fill="#fefefe" d="M6.819 30.97c.063.174-.117.46-.124.702-.088-.09-.019-.339-.124-.413.058-.121.191-.167.248-.289z"/></g><g><path fill="#fefefe" d="M6.034 31.3c.107.083-.042.259-.082.331"/></g><g><path fill="#fefefe" d="M6.324 31.466c.133.34-.004.768-.29.826"/></g><g><path fill="#fefefe" d="M7.108 31.714c.132.358-.093.516-.33.62"/></g><g><path fill="#fefefe" d="M7.191 32.292c.097.082.07.288.124.414-.154.08-.234.233-.413.289a1.03 1.03 0 0 1-.041-.413c.124-.083.258-.156.33-.29z"/></g><g><path fill="#fefefe" d="M6.365 32.333c.202.191.018.556-.207.579"/></g><g><path fill="#fefefe" d="M6.53 32.953c.083.353-.027.486-.206.661"/></g><g><path fill="#fefefe" d="M7.315 33.036c.106.233.101.533-.124.62-.14-.026-.054-.277-.165-.331.07-.124.189-.197.289-.29z"/></g><g><path fill="#fefefe" d="M27.104 33.036c.311.363.777.572.66 1.363"/></g><g><path fill="#fefefe" d="M6.365 34.399c-.034-.357-.057-.548.165-.702"/></g><g><path fill="#fefefe" d="M7.273 34.399c-.157-.112-.049-.597.084-.578"/></g><g><path fill="#fefefe" d="M27.104 34.068c.26.374.731.537.66 1.24-.06.05-.593-.372-.66-.62-.052-.188.038-.382 0-.62z"/></g><g><path fill="#fefefe" d="M6.613 34.523c.213.176.016.571-.124.66"/></g><g><path fill="#fefefe" d="M7.397 34.564c.061.157.133.682-.164.62"/></g><g><path fill="#fefefe" d="M27.104 35.101c.264.383.77.524.702 1.24"/></g><g><path fill="#fefefe" d="M6.654 35.267c.103.225.093.496-.083.62"/></g><g><path fill="#fefefe" d="M7.397 35.432c.082.125.076.515-.082.537"/></g><g><path fill="#fefefe" d="M27.104 36.051c.245.307.6.502.744.91"/></g><g><path fill="#fefefe" d="M6.654 36.093c.213.157.031.6-.083.702"/></g><g><path fill="#fefefe" d="M7.397 36.217c.05.174.153.757-.164.702"/></g><g><path fill="#fefefe" d="M27.187 36.754c.082.069.192.111.207.248-.072-.002-.108.03-.125.083-.095-.043-.085-.19-.082-.331z"/></g><g><path fill="#fefefe" d="M6.778 36.878c-.01.264-.077.475-.248.579-.124-.14.055-.329 0-.538.127.03.122-.07.248-.041z"/></g><g><path fill="#fefefe" d="M27.972 37.621c-.136-.126-.305-.218-.372-.413"/></g><g><path fill="#fefefe" d="M27.063 39.853c.104.182.29.59.124.784.27.428.284.956.413 1.446.857 3.267 1.423 7.109 2.396 10.37-.009.129.028.303-.042.372.506.65 1.138 1.177 1.777 1.694-.088-.349-.455-.606-.785-.909-.42-.386-.994-.683-.868-1.405.133-.037.288.165.413.29.382.381.83.916 1.281 1.238-.22-1.034-1.665-1.2-1.776-2.478.076-.059.306.154.454.288.134.122.262.316.413.456.448.41 1.002.633 1.033 1.487.036.992-.067 2.373-.413 3.098-.732.136-1.48.475-2.148.538.266-.395.98-.343 1.28-.703h.248c.052-.196.274-.222.414-.33-.301-.111-.618.094-.91.164a57.215 57.215 0 0 1-7.271 1.24c.834-.156 1.656-.508 2.438-.743.227-.068.627-.019.702-.33-.371-.104-.74.09-1.115.164-1.551.304-3.075.761-5.082.66-1.91-.093-3.405-1.026-4.916-1.445-.153.086.125.174 0 .248-.952.286-1.475 1.003-2.19 1.529-.318.028-.537-.041-.826-.041-.036-.174.332-.36.537-.537.598-.518 1.356-1.116 1.942-1.653-.195-.124-.326.168-.537.165-.353-.253-.738-.474-1.033-.785-.128.02-.148-.104-.082-.165-.1-.053-.25-.053-.331-.125-2.293-1.995-4.013-5.316-4.297-9.212-.033-.457-.096-.927-.041-1.364.05-.389.29-.771.413-1.197.359-1.249.43-2.77.62-4.173 2.676.491 6.11.496 9.42.496 3.356 0 5.663.063 7.725-1.405.491-.35.638 1.41.661 1.9a.999.999 0 0 1-.042.372z"/></g><g><path fill="#fefefe" d="M6.654 37.622c.153.222-.097.398-.207.495"/></g><g><path fill="#fefefe" d="M27.31 37.704c.337.38.904.529.91 1.24"/></g><g><path fill="#fefefe" d="M7.315 37.786c.331.183-.072.475-.206.579"/></g><g><path fill="#fefefe" d="M7.273 46.628c-.241.09-.307.353-.536.454.036-.652.114-1.263.496-1.57-.096-.119-.26.261-.331.166-.182-.447.056-.946.165-1.405.461-1.942.959-3.969 1.074-6.156.189.143.404.257.702.29-.134 1.627-.464 3.06-.619 4.668-.093-.018-.001-.22-.083-.248-.335 1.196-.207 2.844 0 4.131-.128.217-.434.474-.578.537-.032-.642.244-1.4.082-1.9-.44.786-.105 2.566-.991 2.768-.047-.832.147-1.421.62-1.735z"/></g><g><path fill="#fefefe" d="M6.613 38.365c-.078.24-.05.584-.33.62"/></g><g><path fill="#fefefe" d="M7.315 38.613c.152.374-.158.64-.413.744"/></g><g><path fill="#fefefe" d="M27.476 38.737c.36.398.982.533.991 1.28"/></g><g><path fill="#fefefe" d="M6.365 39.315c.155.165-.049.662-.248.744"/></g><g><path fill="#fefefe" d="M7.233 39.48c.104.367-.18.702-.496.785"/></g><g><path fill="#fefefe" d="M27.6 39.646c.34.362.835.569 1.074 1.033"/></g><g><path fill="#fefefe" d="M6.24 40.224c.079.244-.086.601-.288.703-.11-.154.082-.356.04-.58.14.017.177-.07.248-.123z"/></g><g><path fill="#fefefe" d="M7.067 40.39c.15.292-.148.839-.454.95"/></g><g><path fill="#fefefe" d="M27.764 40.513c.347.33.96.39 1.075.95"/></g><g><path fill="#fefefe" d="M27.93 41.216c.349.285.798.47 1.074.826-.325-.087-.519-.307-.867-.371.169.381.663.438.992.66.042.232.11.44.206.62-.35-.01-.791-.282-1.034-.537-.028-.111.086-.08.125-.124-.058-.08-.214-.062-.29-.124-.034-.351-.182-.589-.206-.95z"/></g><g><path fill="#fefefe" d="M6.86 41.423c.083.414-.11.908-.495.991"/></g><g><path fill="#fefefe" d="M5.167 43.447c.202.022.36-.216.454-.166-.046.408-.482.427-.661.703.118-.598.244-1.546.826-1.818.25.557-.381.938-.62 1.28z"/></g><g><path fill="#fefefe" d="M6.695 42.538c-.007.308-.207.426-.412.537"/></g><g><path fill="#fefefe" d="M28.302 42.785c.306.067.711.391 1.116.496.086.23.128.505.248.703-.394-.089-.819-.503-1.24-.703-.038-.169-.04-.372-.124-.496z"/></g><g><path fill="#fefefe" d="M6.489 43.075c.14.215-.075.775-.414.785"/></g><g><path fill="#fefefe" d="M28.508 43.57c.456.289 1.007.482 1.282.95"/></g><g><path fill="#fefefe" d="M5.414 43.901c.205.401-.362.736-.66.91"/></g><g><path fill="#fefefe" d="M6.283 44.025c.178.201-.178.56-.373.661"/></g><g><path fill="#fefefe" d="M28.633 44.067c.427.247.813.535 1.28.743.032.286.147.487.207.744-.105.073-.229-.115-.33-.207-.215-.193-.99-.685-1.116-.95-.055-.115-.009-.23-.041-.33z"/></g><g><path fill="#fefefe" d="M5.167 44.81c.218.416-.405.694-.62.95-.1-.458.361-.712.62-.95z"/></g><g><path fill="#fefefe" d="M5.662 45.553c-.103-.325.205-.593.413-.743"/></g><g><path fill="#fefefe" d="M28.798 44.851c.59.58 1.425.915 1.652 1.859-.113.057-.265-.14-.372-.248-.335-.334-.77-.783-1.156-1.074-.022-.198-.088-.353-.124-.537z"/></g><g><path fill="#fefefe" d="M4.919 45.678c.16.344-.323.748-.579.95"/></g><g><path fill="#fefefe" d="M5.043 47.743c-.055-.482.281-.93.62-1.157"/></g><g><path fill="#fefefe" d="M4.175 47.454c-.144-.379.244-.581.414-.785"/></g><g><path fill="#fefefe" d="M7.976 47.495c.122.347-.06 1.094-.496 1.157"/></g><g><path fill="#fefefe" d="M8.225 47.62c.005.388.363.912.288 1.28-.055.27-.332.25-.454.496-.039-.329-.013-.95.206-1.157-.227-.052-.034-.413-.04-.62z"/></g><g><path fill="#fefefe" d="M4.34 47.66c.033.364-.148.87-.413 1.075"/></g><g><path fill="#fefefe" d="M5.373 47.784c.23.468-.323.858-.66 1.033"/></g><g><path fill="#fefefe" d="M29.5 48.115c.729.663 1.646 1.136 1.818 2.355-.16.054-.282-.2-.413-.33-.397-.398-.923-.88-1.28-1.323-.044-.232-.098-.453-.125-.702z"/></g><g><path fill="#fefefe" d="M7.15 48.321c.132.533-.22.937-.537 1.157"/></g><g><path fill="#fefefe" d="M7.81 48.735c.073.431-.093 1.2-.454 1.198"/></g><g><path fill="#fefefe" d="M5.208 48.775c.066.137-.08.415-.082.621-.253.078-.413.248-.58.413-.14-.54.408-.75.662-1.034z"/></g><g><path fill="#fefefe" d="M4.01 48.982c.032.171-.048.585-.247.662"/></g><g><path fill="#fefefe" d="M6.2 49.272c.162.576-.302.883-.538 1.198"/></g><g><path fill="#fefefe" d="M8.513 49.272c.026.605-.174 1.562-.661 1.653"/></g><g><path fill="#fefefe" d="M29.706 49.272c.338.806 1.038 1.25 1.695 1.735.085.451.183.89.289 1.322-.155.066-.282-.172-.413-.29-.402-.36-.918-.792-1.322-1.156-.045-.574-.156-1.083-.249-1.611z"/></g><g><path fill="#fefefe" d="M6.985 49.478c.154.433-.107 1.158-.538 1.28"/></g><g><path fill="#fefefe" d="M8.678 49.644c.119.075.134.252.166.413-.055.042-.125.068-.166.124-.127-.144.046-.338 0-.537z"/></g><g><path fill="#fefefe" d="M5.002 49.685c.182.113-.071.47 0 .743-.237.177-.524.303-.703.537-.135-.632.393-.956.703-1.28z"/></g><g><path fill="#fefefe" d="M3.803 49.933c.05.148-.052.497-.165.62"/></g><g><path fill="#fefefe" d="M7.191 51.585c-.015-.483.004-1.29.413-1.487"/></g><g><path fill="#fefefe" d="M8.885 50.304c.387.385.535 1.008.826 1.487-.522.25-.962.8-1.363 1.033.049-.391.082-.798.124-1.197.24-.215.53-.378.66-.703-.24-.09-.387.238-.619.29-.057-.484.197-.658.372-.91z"/></g><g><path fill="#fefefe" d="M6.117 50.387c.07.69-.244.996-.537 1.322"/></g><g><path fill="#fefefe" d="M4.919 50.717c.061.118-.04.428 0 .662a1.012 1.012 0 0 0-.33.248c-.064-.313.085-.769.33-.91z"/></g><g><path fill="#fefefe" d="M6.819 50.8c.014.524.006 1.382-.495 1.529"/></g><g><path fill="#fefefe" d="M3.597 50.841c.081.221-.024.61-.124.786"/></g><g><path fill="#fefefe" d="M8.265 50.965c.186.49-.255.708-.537.868"/></g><g><path fill="#fefefe" d="M4.258 51.255c.124.081-.066.53-.124.702"/></g><g><path fill="#fefefe" d="M5.952 51.585c.084.594-.075 1.522-.538 1.57"/></g><g><path fill="#fefefe" d="M7.397 51.75c.175.21-.126.64-.371.703"/></g><g><path fill="#fefefe" d="M4.836 51.791c.095.194.014.565.041.827-.218.113-.344.317-.578.414.043-.55.135-1.05.537-1.24z"/></g><g><path fill="#fefefe" d="M9.753 51.833c.162.225.334.438.454.702-.722.518-1.383 1.316-2.025 1.777.036-.28.09-.544.083-.868.496-.537 1.124-.94 1.488-1.61z"/></g><g><path fill="#fefefe" d="M3.432 51.875c.04.33-.047.89-.165 1.197"/></g><g><path fill="#fefefe" d="M7.522 53.61c.101-.684.077-1.493.619-1.735"/></g><g><path fill="#fefefe" d="M6.571 52.494c.195.203-.144.565-.288.702"/></g><g><path fill="#fefefe" d="M3.969 52.618c.126.084-.045.552-.042.785"/></g><g><path fill="#fefefe" d="M6.86 54.354c-.035-.587-.01-1.47.413-1.736.048-.006.075.01.084.042-.122.61-.058 1.403-.496 1.694z"/></g><g><path fill="#fefefe" d="M10.62 53.073c-1.038.614-1.751 1.554-2.561 2.396-.078-.763.584-1.118 1.115-1.612.46-.428.854-.768 1.156-1.116.168.041.222.194.29.331z"/></g><g><path fill="#fefefe" d="M4.836 52.948c.168.039.062.43.207.372-.086.493-.521.637-.826.91-.128-.761.316-.951.619-1.282z"/></g><g><path fill="#fefefe" d="M5.787 53.197c.172.435-.251.63-.414.868"/></g><g><path fill="#fefefe" d="M3.267 53.32c.054.152.02.57-.083.702"/></g><g><path fill="#fefefe" d="M6.489 53.362c.061.378-.11.88-.083 1.363-.106.046-.226.077-.29.165.012-.457-.048-1.343.373-1.528z"/></g><g><path fill="#fefefe" d="M8.018 53.651a1.581 1.581 0 0 1-.621 1.529"/></g><g><path fill="#fefefe" d="M11.157 53.692c.149.14.332.246.413.455-1.265.841-2.229 1.985-3.388 2.933-.081-.173.156-.313.249-.413.354-.386.715-.823 1.115-1.24.556-.578 1.223-1.081 1.611-1.735z"/></g><g><path fill="#fefefe" d="M3.844 53.857c.122-.004-.083 1.172-.04.372"/></g><g><path fill="#fefefe" d="M4.877 54.022c.242.589-.433.97-.702 1.323"/></g><g><path fill="#fefefe" d="M5.662 54.271c.182.596-.12 1.42-.536 1.693"/></g><g><path fill="#fefefe" d="M3.225 54.312c.098.634-.013.975.165 1.528-.12.011-.126-.093-.248-.083.045-.464-.095-1.114.083-1.445z"/></g><g><path fill="#fefefe" d="M7.026 54.601c.2.466-.05 1.188-.372 1.404"/></g><g><path fill="#fefefe" d="M3.763 54.973c.213.266-.032.814.123 1.074"/></g><g><path fill="#fefefe" d="M4.754 55.097c.1.377-.1.81-.083 1.24-.286-.004-.421-.158-.661-.207-.02-.186.02-.31.041-.455.343-.005.463-.36.703-.578z"/></g><g><path fill="#fefefe" d="M6.283 55.386c.051.374.114.971-.042 1.198.237-.024.46-.42.702-.579.08.193.053.631 0 .827-.553.077-1.125-.164-1.652-.248.038-.196.202-.266.289-.413.093.071.027.303.165.33.445-.106.128-.974.538-1.115z"/></g><g><path fill="#fefefe" d="M5.538 55.716c.098.174-.327.522-.412.786"/></g><g><path fill="#fefefe" d="M15.95 56.46c-.984.262-1.251 1.443-2.645 1.157.563-.594 1.299-1.015 1.942-1.528.284.074.437.278.703.37z"/></g><g><path fill="#fefefe" d="M16.404 56.667c-.643.292-.889.984-1.777 1.033.417-.437 1.008-.7 1.405-1.157.125.039.246.083.372.124z"/></g><g><path fill="#fefefe" d="M15.495 57.74c-.076-.179.263-.273.455-.412.257-.188.452-.394.702-.538 1.229.451 2.376.985 4.13.91.075-.012.086.039.042.04-1.72.098-3.592.021-5.33 0z"/></g><g><path fill="#fefefe" d="M4.63 56.956c.455-.042.87.314 1.198.537.141.018.124-.123.206-.165.282.035.46.173.62.33.379-.272.765.088 1.033.29-1.015-.168-2.372-.355-3.057-.992z"/></g><g><path fill="#fefefe" d="M28.798 57.121c.088.062-.03.1.042.207-.279.01-.454.124-.703.165-.037-.381.48-.209.661-.372z"/></g><g><path fill="#fefefe" d="M27.683 57.41c-.04.47-.769.251-1.033.496-.122-.073.024-.22 0-.33.344-.056.654-.146 1.033-.166z"/></g><g><path fill="#fefefe" d="M26.237 57.658c-.07.11-.096.263-.166.372-.292.065-.606.11-.867.206-.16-.532.564-.536 1.033-.578z"/></g><g><path fill="#fefefe" d="M7.77 57.782c.312-.092.65.149.784.373-.21.058-.541-.12-.826-.125.064-.01.148-.204.042-.248z"/></g><g><path fill="#fefefe" d="M8.72 57.906c.337.008.542.146.66.372-.158.102-.392-.074-.619-.041.114-.119-.023-.22-.041-.33z"/></g><g><path fill="#fefefe" d="M24.667 58.32c-.227.034-.476.047-.661.123-.133-.095.088-.185.04-.33.326-.057.9-.352.621.207z"/></g><g><path fill="#fefefe" d="M9.546 58.03c.353.02.665.079.744.372-.111.054-.433-.035-.62-.041-.006-.147-.119-.186-.124-.33z"/></g><g><path fill="#fefefe" d="M10.578 58.155c.18.054.425.043.62.081.014.152.102.229.124.372-.368-.03-.684-.113-.744-.453z"/></g><g><path fill="#fefefe" d="M23.469 58.196c.182-.059 0 .247.123.248-.118.114-.36.107-.578.124.007-.118.076-.173.082-.29.14-.012.283-.02.373-.082z"/></g><g><path fill="#fefefe" d="M11.488 58.32c.11-.096.398-.015.578-.042.075.146.201.24.248.413-.252.032-.387-.055-.62-.041-.088-.091-.114-.244-.206-.33z"/></g><g><path fill="#fefefe" d="M12.479 58.32h.372c.09.157.155.34.29.454-.35.14-.593-.179-.662-.455z"/></g><g><path fill="#fefefe" d="M13.223 58.403c.403-.197.556.214.702.412-.071.095-.315.015-.454.041a1.082 1.082 0 0 0-.248-.453z"/></g><g><path fill="#fefefe" d="M22.601 58.36c.033.143-.061.16-.042.29-.206-.028-.32.038-.495.04.046-.078.053-.194.082-.288.17.005.26-.072.455-.042z"/></g><g><path fill="#fefefe" d="M14.008 58.443c.043-.095.26-.015.372-.04.054.137.036.348.123.453-.305.167-.34-.292-.495-.413z"/></g><g><path fill="#fefefe" d="M14.751 58.485c.098-.095.372-.015.538-.042.027.152.044.314.082.454h-.495c-.05-.13-.047-.311-.125-.413z"/></g><g><path fill="#fefefe" d="M19.42 58.567v.247c-1.085.171-2.64.06-3.76.083-.062-.116-.04-.318-.083-.454 1.24.082 2.613.031 3.843.124z"/></g><g><path fill="#fefefe" d="M21.692 58.444c.02.13-.074.145-.042.289-.126-.03-.15.04-.247.04-.057-.052-.04-.179-.042-.288.06-.064.212-.037.33-.042z"/></g><g><path fill="#fefefe" d="M20.08 58.856h-.289v-.33c.276-.101.322.033.29.33z"/></g><g><path fill="#fefefe" d="M20.411 58.485h.579c-.005.118.023.27-.042.33-.208-.026-.489.039-.578 0 .025-.1.06-.189.041-.33z"/></g><g><path fill="#fefefe" d="M15.247 60.137c.288-.107.723-.006.992.041.114.246.302.415.413.661-.57-.13-1.075-.33-1.405-.702z"/></g><g><path fill="#fefefe" d="M18.552 60.137c.037.176-.255.379-.413.496-.174-.019-.19-.196-.331-.248.224-.106.578-.083.744-.248z"/></g><g><path fill="#fefefe" d="M16.61 60.302c.302-.067.466.361.62.579"/></g><g><path fill="#fefefe" d="M17.272 60.385c.006-.048.075-.034.124-.041.16.129.324.253.412.454-.058-.004-.117-.007-.123.04-.21-.077-.252-.324-.413-.453z"/></g><g><path fill="#fefefe" d="M17.974 62.202h.082c-.032.896.27 2.505.192 3.833-.245 4.108-1 7.947-1.018-.651-.002-1.034.16-2.112.166-3.098.155-.065.435-.005.578-.084z"/></g><g><path fill="#fefefe" d="M16.982 62.285c.03.635-.444.767-.62 1.198"/></g><g><path fill="#fefefe" d="M16.9 63.153c.094.521-.451.76-.62 1.156"/></g><g><path fill="#fefefe" d="M16.817 63.98c.21.65-.368.87-.537 1.28"/></g><g><path fill="#fefefe" d="M16.776 65.012c.207.649-.284.956-.496 1.322"/></g><g><path fill="#fefefe" d="M16.693 66.169c.168.457-.255.682-.454.91"/></g><g><path fill="#fefefe" d="M16.652 67.078c.136.467-.17.849-.372 1.115"/></g><g><path fill="#fefefe" d="M16.569 68.235c.171.35-.223.492-.29.743"/></g><g><path fill="#fefefe" d="M13.595.894c-.096.153-.364.132-.33.413h-.249c.212-.118.31-.351.579-.413z"/></g><g><path fill="#fefefe" d="M30.368 14.486c-.305.377-.152 1.194-.372 1.818-.211.6-.617 1.166-.867 1.776a35.094 35.094 0 0 0-1.612 5c-.075.305-.32.648-.165.99.289-.092.253-.483.33-.702.237-.673.615-1.412.785-2.189.873.848 1.533 1.91 2.272 2.892a2.233 2.233 0 0 0-.247.413c-.688-.91-1.18-2.015-2.025-2.768-.07.264.182.568.33.785.49.716 1.117 1.506 1.53 2.314-.095.14-.205.263-.249.454-.755-.774-1.196-1.861-1.982-2.603.46 1.096 1.22 1.892 1.817 2.85-.044.232-.163.388-.247.58-.563-.76-1.064-1.582-1.694-2.273.298.914 1.118 1.662 1.61 2.52-.432 1.316-1.012 2.484-1.363 3.883-.357-.207-.525-.604-.867-.826-.12.174.193.34.33.496.166.188.31.404.455.537 0 .178-.096.262-.083.454-.44-.345-.717-.853-1.157-1.198.014.805 1.167.983 1.033 1.942-.31-.171-.405-.559-.743-.702-.048.612.807.68.66 1.528-.337-.145-.405-.558-.785-.66.008.584.873.669.744 1.528-.309-.27-.72-.436-.702-1.034-.103-.113-.062.267-.289.166-.038.19.103.2.083.372-.256 1.281-.201 3.19-.083 4.586-1.533.041-3.069.69-4.875.785-1.642.086-3.505-.036-5.164.041-2.534.118-5.216-.117-7.437-.455-.049-1.148.13-2.525-.247-3.346-.272.885-.088 2.226-.207 3.264-.31-.022-.474-.187-.744-.248.026-2.532-.11-4.902-.868-6.652.07-.212.324-.39.497-.578.153-.168.298-.49.454-.413-.073.299-.183.56-.248.868.47-.314.504-1.066.744-1.612.188.06.383.113.578.166-.141.275.011.64-.124.867.243-.197.191-.69.496-.826.214-.026.061.085.083.206.177 0 .152-.206.33-.206 1.715.096 3.05-.22 4.255-.743-.006-.09-.104-.09-.207-.083.688-.863 1.267-1.841 1.86-2.85.16-.273.303-.802.743-.786-.559 1.218-1.372 2.18-1.776 3.553.87-1.003 1.423-2.323 2.066-3.553h.454c-.557 1.192-1.216 2.282-1.735 3.511.798-.853 1.328-2.335 1.942-3.51.115-.05.285-.046.454-.042-.487.89-.977 1.777-1.446 2.685.772-.729 1.141-1.861 1.776-2.727.408.061.62.318.951.455-.413.44-.916.792-1.322 1.24.091-.419.55-.827.702-1.323-.706.506-.994 1.43-1.446 2.19.427-.334 1.115-.967 1.694-1.487.288-.259.509-.678.91-.372-.784.787-1.637 1.503-2.273 2.437.815-.603 1.59-1.622 2.437-2.354.165.096.361.161.537.247-.826.675-1.648 1.354-2.355 2.149.51-.16.9-.63 1.322-.992.436-.373.898-.727 1.322-1.074.151 0 .186.117.29.165.003-.233.094-.118.371-.124-.146-.074-.329-.112-.495-.165-.048-.06-.048-.104 0-.165-.353.1-.426-.388-.703-.496.473.161 1.37.255 1.818.579-.095-.348-.544-.434-.868-.579-.325-.146-.68-.289-1.032-.413-.89-.314-1.579-.637-2.562-.826-.334-.065-.86-.287-1.198-.248-.318.037-.755.409-1.115.62-1.084.633-2.282 1.213-3.554 1.528-.132.036-.056-.136-.165-.124-.2-.022-.182.176-.372.165-1.229.074-1.827-.485-2.685-.784.014-.152.163-.167.125-.372-.305-.044-.346.306-.62.165-.08-.102.183-.172 0-.29-.448.228-.757.594-1.116.91-.09-.655.641-.847.867-1.323-.267-.092-.4.28-.62.372-.091-.191.094-.434 0-.66-.296.364-.227 1.093-.702 1.28-.034-.545.288-1.089.62-1.405-.23-.012-.313.337-.495.124-.1.3-.442.577-.62.661-.014-.619.434-.777.62-1.198-.547.033-.81.705-1.282.95.103-.338.062-.82.413-.908.001.11-.022.243.083.247.049-.861-.44-1.542-.454-2.479.222.674.41 1.382.743 1.942-.046-1.22-.624-2.538-.66-3.966-.03-1.15-.009-2.34.206-3.47.09-.131.232-.21.29-.371-.346-.777.628-1.22.825-1.86-.2-.138-.268.157-.371.248.129-.436.447-1.04.867-1.322-.202-.118-.162-.111-.165-.33-.831.417-1.454 1.091-2.107 1.694-.331.305-.631.632-.95.95-.305.305-.592.722-1.033.867.2-.618.75-.997 1.198-1.404.446-.406.865-.848 1.322-1.24.923-.79 1.984-1.429 2.768-2.354-.411.12-.749.42-1.115.66-1.371.895-2.66 2.055-3.76 3.264.424-1.325 1.84-2.016 2.85-2.892-.676.19-1.442.65-1.94 1.157-.095-.165.109-.386.082-.62 1.32-.63 2.677-1.28 3.883-2.065C9.472 9.264 10.641 8.709 11.735 8c.182-.118.383-.364.62-.29-.14.264-.497.381-.785.538-.824.45-1.838.925-2.561 1.528.849-.212 1.743-.836 2.561-1.28.236-.128.572-.41.826-.207-1.059.745-2.493 1.115-3.47 1.942.679-.096 1.252-.521 1.859-.826.62-.312 1.254-.599 1.9-.868-.006.103.064.13.125.166-1.096.748-2.486 1.204-3.595 1.941 1.337-.495 2.52-1.143 3.76-1.735 1.249 1.005 4.184 1.677 6.198.909.187-.041.309.108.37-.042-.05-.228-.268-.1-.412-.123-.85-.135-2.103-.194-3.181-.207-.228-.379-.99-.222-1.157-.661.628.095 1.677.451 2.52.207-.59-.333-1.686-.16-2.231-.537-.213-1-.525-1.899-.785-2.851.058.92.483 1.83.662 2.768-.149.01-.152-.124-.29-.124-.351-1.37-.762-2.68-1.157-4.007.09 1.288.623 2.49.91 3.718-.082.16-.265-.248-.414-.29.195.438.621.647.66 1.24-.172.022-.23-.072-.37-.083-.286-.893-.533-1.785-.827-2.768-.091-.303-.275-.63-.29-.908-.03-.6.292-1.168.249-1.86 1.6.009 3.887.023 5.453-.454-1.312-.158-2.867.003-4.297-.082-.6-.036-1.192-.269-1.693-.29-.391-.016-.807-.012-1.074-.289.08-.162.29-.008.413 0 .409.028.83-.018 1.239 0 .761.035 1.5.192 2.273.248 1.9.138 3.777-.121 5.742-.165.007 2.251.097 4.42.95 5.825-.15-1.793-.485-3.757-.372-5.949.155-.038.292-.094.454-.124-.172 2.162.091 4.19.661 5.742.044.138.126.003.249.083.939 1.019 1.903 2.021 3.139 2.727 1.187.677 2.297 1.69 3.843 1.983.225.256.498.465.743.702.203.847.876 1.432.867 2.355-.483-.77-.835-1.67-1.28-2.479-.112.613.248 1.167.495 1.694.247.524.657 1.038.62 1.652-.502-.778-.843-1.718-1.363-2.478-.127.252.091.513.165.702-.14.118-.171-.103-.29-.207zM21.36 7.96c-.39.338-.824.635-1.24.95-.101.118-.39.049-.371.29.806-.037 1.633-.405 1.86-1.158-.075-.037-.106-.115-.25-.082zm2.892 1.983c.136-.083-.102-.177 0-.207.1-.017.09.076.207.041-.157-.463-.758-.481-.95-.909-.154.03-.178-.07-.33-.041-.043-.082-.072-.177-.166-.206.246.608.594 1.113 1.239 1.322zm-12.229.702c-.62.012.058.098.331 0zm.166.702c.535.533 1.408.811 2.23 1.074.832.267 1.763.586 2.644.497a4.925 4.925 0 0 1-.702-.208c1.217.12 2.845.214 4.09.124.566-.04 1.423.056 1.612-.33-.315-.316-1.06.123-1.53-.083.864-.32 1.701-.668 2.438-1.115-.7-.116-1.381.248-2.065.454-2.612.788-6.365.616-8.139-.743-.056.345.37.428.372.578-.376-.084-.646-.31-.95-.248zM28.3 26.013c-.196-.181-.353-.41-.371-.661-1.091 1.167-1.986 2.53-3.14 3.635-1.264-.085-2.353-.376-3.304-.661-.182-.384-.664-.467-1.199-.496.353-.284.76-.588 1.199-.909.457-.335 1.073-.935 1.61-.95-.154-.025-.45.092-.371-.165-.198.122-.44.22-.744.124-.02-.137.232-.18.042-.248-.863.652-1.872 1.159-2.52 2.024.368-.12.766-.462 1.238-.826.368-.283 1.095-1.08 1.529-.785-.84.522-1.59 1.137-2.313 1.777-.354.017-.644.099-.95.165.18.324.451.21.867.289 1.727.326 3.709 1.367 5.618 1.198.234-.02.498-.039.703-.206-.238-.231-.743-.193-1.116-.29 1.078-.96 1.895-2.18 2.768-3.346.084.206.25.328.331.537-.513.81-1.232 1.412-1.735 2.231.494-.233.676-.586 1.115-1.116.096-.115.71-.992.785-.991.227.003.204.489.413.537.168-.334-.581-.579-.206-.868.238.12.26.456.578.496-.306-.713-.943-1.095-1.28-1.777h-.125c.015.544.842.865.578 1.281zm-7.27 1.652c.554-.329 1.181-.831 1.694-1.198.172-.124.469-.216.413-.413-.76.48-1.52.96-2.107 1.611zm5.33-1.528a21.663 21.663 0 0 0-1.364 1.735 4.462 4.462 0 0 0 1.487-1.694c-.053-.002-.057-.053-.123-.041zm-4.875 1.776zm.908-.661c.368-.316.828-.666.91-.992-.584.574-1.336.978-1.818 1.653.335-.113.616-.41.908-.661zm-.29.826h.001zm1.488-1.363c-.004-.05-.012-.098-.082-.083-.456.494-1.102.799-1.405 1.446.57-.382 1.05-.85 1.487-1.363zm-.62 1.28c.41-.252.904-.638 1.033-1.032zm-6.486 0c.024.294.516.118.785.166"/></g><g><path fill="#fefefe" d="M11.818 6.843c.126-.015.086.135.124.207-.077.005-.138.026-.165.082-.088-.038.078-.166.041-.289z"/></g><g><path fill="#fefefe" d="M12.355 7.091v.206c.037-.018.074-.036.083-.082.084.08.123.207.124.372-.11-.091-.457-.438-.207-.496z"/></g><g><path fill="#fefefe" d="M12.107 7.34c.076.216-.241.253-.372.33-.422.248-.935.595-1.363.867-.046-.09.212-.228.248-.372.591-.152.982-.726 1.487-.826z"/></g><g><path fill="#fefefe" d="M6.571 12.71c-.425.378-.495 1.096-.784 1.61-.455.809-1.72 1.414-2.108 2.315.688-.319 1.28-1.309 1.9-1.695-.014.22-.129.338-.123.579-.619.51-1.12 1.139-1.693 1.694.03-.34-.213-.351-.331-.62-.008-.174.202-.128.165-.33-.07-.22-.269.089-.372-.042a.416.416 0 0 0-.124-.248 89.351 89.351 0 0 1 3.47-3.264z"/></g><g><path fill="#fefefe" d="M31.608 13.66c.022-.12.064.063.123.041-.03.137.197.376.083.33-.075-.118-.11-.276-.207-.371z"/></g><g><path fill="#fefefe" d="M1.118 15.519v-.124c.202.914.513 1.938.537 2.892.158.212.29.756.165.991.19.355.434 1.178.165 1.488-.455-1.583-.456-3.62-.867-5.247z"/></g><g><path fill="#fefefe" d="M29.831 18.617c.038.599.49 1.134.744 1.653-.38-.378-.704-1.169-1.116-1.653.038-.209.148-.348.207-.537.246.29.39.685.578 1.033-.131-.007-.212-.42-.413-.496z"/></g><g><path fill="#fefefe" d="M4.175 18.824c-.396.623-.834 1.204-1.24 1.817-.217-1.03.612-1.371.91-2.024.05.088.155.12.165.248.122-.098-.05-.25-.042-.372.105.075.103.256.207.33z"/></g><g><path fill="#fefefe" d="M5.414 22.212c.34.542-.083 1.542-.578 1.776.088-.477.18-.949.496-1.198-.085-.123-.214.059-.248.124-.026-.206.324-.391.33-.702z"/></g><g><path fill="#fefefe" d="M5.952 24.112c.04.51-.37.925-.661 1.24"/></g><g><path fill="#fefefe" d="M14.131 25.352c.048.007.023.04 0 .04-.464.952-1.065 1.828-1.61 2.727-.166.273-.257.69-.62.785.68-1.067 1.278-2.219 1.859-3.387.142-.037.257-.1.371-.165z"/></g><g><path fill="#fefefe" d="M12.644 25.971c-.023.158-.129.257-.289.165-.246.86-.765 1.508-1.198 2.231-.127.213-.19.575-.496.62.278-1.293 1.184-1.956 1.736-2.975.126.03.121-.071.247-.041z"/></g><g><path fill="#fefefe" d="M8.1 26.26c-.14.577-.658.774-.867 1.28"/></g><g><path fill="#fefefe" d="M8.885 27.5c.016.264-.191.662-.248.991-.25-.121-.513-.23-.744-.372.098-.824.871-1.194 1.28-1.57-.157.71-.808.926-.99 1.612.267-.022.486-.45.702-.662z"/></g><g><path fill="#fefefe" d="M10.083 26.92c-.109.416-.475.932-.703 1.364.062.164.173-.175.207-.04a4.089 4.089 0 0 1-.165.495c-.16-.074-.388-.08-.537-.165.125-.825.79-1.11 1.198-1.653z"/></g><g><path fill="#fefefe" d="M6.943 27.83c.03.582-.377 1.083-.743 1.405"/></g><g><path fill="#fefefe" d="M7.108 27.83c.194.082.303.249.496.33-.05.72-.412 1.13-.743 1.571.211-.008.26-.18.372-.29.037.163-.104.502-.166.703-.12-.127-.153-.344-.289-.454a.415.415 0 0 1 .124-.249c-.01-.059-.123-.014-.124-.082.022-.598.35-.89.579-1.28-.167.053-.214.227-.331.33-.051-.108.096-.37.082-.579z"/></g><g><path fill="#fefefe" d="M6.571 30.35c-.07-.033-.026-.298.083-.289.023.266.16.418.207.66-.214.105-.349.286-.496.456-.113-.334.245-.554.33-.827-.009-.053-.123-.054-.124 0z"/></g><g><path fill="#fefefe" d="M6.117 41.133c-.061.449-.203.816-.537.991"/></g><g><path fill="#fefefe" d="M5.993 45.595c.002.512-.319.7-.62.91"/></g><g><path fill="#fefefe" d="M29.088 45.842c.516.476 1.028.955 1.528 1.446"/></g><g><path fill="#fefefe" d="M29.129 46.38c.818.599 1.881 1.312 1.941 2.809-.249-.08-.294-.296-.495-.495-.347-.343-1.012-.646-1.198-1.075-.161-.368-.039-.805-.248-1.24z"/></g><g><path fill="#fefefe" d="M5.91 49.313c.053-.732.333-1.595.537-2.314-.039-.171.124-.008 0 0-.113.837-.009 1.892-.537 2.314z"/></g><g><path fill="#fefefe" d="M7.687 56.254c.154-.104-.026.043 0 .165.21-.025.208-.26.248-.455.876-.969 1.915-1.775 2.685-2.85.223.094.332.3.455.496-1.187 1.03-2.24 2.194-3.223 3.428-.235-.054-.504-.074-.743-.124.127-.286.416-.41.578-.66z"/></g><g><path fill="#fefefe" d="M10.703 57.37c-.737-.008-1.308-.18-2.025-.207.368-.534.954-.97 1.487-1.447.533-.474 1.081-.965 1.53-1.487.237.12.397.319.619.455-.908.827-2.052 1.419-2.727 2.479 1.012-.6 1.927-1.653 3.016-2.313.38.308.921.455 1.364.702a20.402 20.402 0 0 0-2.19 1.941c-.305.002-.56-.047-.826-.082.77-.73 1.62-1.383 2.437-2.066-1.112.292-1.85 1.318-2.685 2.024z"/></g><g><path fill="#fefefe" d="M7.893 55.138c.044.69-.405.889-.66 1.28"/></g></g></g></svg>