<svg xmlns="http://www.w3.org/2000/svg" width="26" height="54" viewBox="0 0 26 54"><g><g><g><path fill="#262523" d="M12.294 46.061c-.655-.283-1.18-.695-1.224-1.59-1.935-.123-4.045-.57-5.751-1.071-.626-.184-1.308-.268-1.775-.49-.11-.051-.251-.188-.397-.275-.507-.302-1.07-.694-1.255-1.285.252-3.454.876-6.623 1.744-9.453.146-.476.284-.963.428-1.438.252-.832.424-1.503.55-2.54.048-.379.15-.758.154-1.1.004-.374-.102-.803-.153-1.224a41.33 41.33 0 0 0-.582-3.549c-.328-1.55-.705-3.035-1.315-4.16-.155-.286-.347-.552-.643-.704.007-.15-.072-.214-.153-.276a43.18 43.18 0 0 1-1.04-4.68C.797 11.719.585 11.01.7 10.574c.1-.383.845-.976 1.131-1.194.217-.164.489-.277.735-.428.24-.148.466-.336.673-.46 1.589-.939 3.014-1.38 4.222-2.569.5-.492 1.212-1.152 1.285-1.958.062-.693.066-1.875 0-2.57-.011-.118-.104-.292-.092-.428.03-.324.471-.434.734-.643.121-.095.103-.182.214-.214.416-.12 1.222-.015 1.775-.03.597-.017 1.167.037 1.743 0 1.347-.087 2.522-.111 3.58-.031.657.05 1.123.323 1.469.673-.211.473-.153 1.307-.153 2.264 0 .624-.07 1.253.03 1.652.061.246.384.477.55.734.182.279.306.617.49.796.14.134.667.426.857.52.543.267 1.12.5 1.682.795 1.526.8 3.377 1.719 4.375 2.968.025 1.79-.51 4-.979 5.72-.06.219-.051.475-.122.643-.094.223-.336.382-.459.581-.809 1.313-1.322 2.682-1.774 4.406-.245.931-.494 1.919-.643 2.845-.254 1.592.084 3.446.46 4.865.867 3.279 1.91 6.317 2.477 10.004.056.366.074.755.092 1.162.018.393.109.838.061 1.163-.029.197-.186.234-.122.428a.376.376 0 0 0-.245.214c-2.768.975-5.742 1.743-9.208 2.02-.166.68-.488 1.204-1.102 1.437.334 10.528-2.908 8.952-2.142.122z"/></g><g><path fill="#fefefe" d="M13.823.63c-.268.181-.339.559-.825.52"/></g><g><path fill="#fefefe" d="M15.292.63c.003.123-.136.349-.153.551-.535.015-.985-.054-1.53-.03.306-.423.77-.621 1.683-.52z"/></g><g><path fill="#fefefe" d="M15.873.661c-.07.143-.143.286-.214.429-.173-.021-.25.055-.398.06.047-.187.168-.301.214-.489.193.009.245-.027.398 0z"/></g><g><path fill="#fefefe" d="M10.275.661c-.165.08-.209.282-.459.276"/></g><g><path fill="#fefefe" d="M11.162.661c.151.026-.12.086-.092.184.01.04.053.048.061.092.344.007.34-.335.765-.245-.12.135-.314.196-.429.336-.202-.042-.47-.018-.672-.06.095-.13.237-.212.367-.307z"/></g><g><path fill="#fefefe" d="M12.6.661c-.23.17-.39.462-.765.398"/></g><g><path fill="#fefefe" d="M13.18.661c-.225.172-.4.394-.733.46"/></g><g><path fill="#fefefe" d="M16.057.661h.306c-.125.16-.186.386-.49.367.048-.136.155-.212.184-.367z"/></g><g><path fill="#fefefe" d="M17.097.723c-.191.125-.479.153-.734.214"/></g><g><path fill="#fefefe" d="M9.448 2.008c.05-.01.053.028.093.03.009.162-.054.253-.062.398-.07-.082-.01-.295-.03-.428z"/></g><g><path fill="#fefefe" d="M9.693 2.13c.04.01.048.054.092.061-.033.742-.217 1.598-.397 2.295-.188-.087-.065-.336-.031-.49.115-.534.253-1.203.336-1.774V2.13z"/></g><g><path fill="#fefefe" d="M9.938 2.252c.103.05.235.072.337.122-.105.854-.276 1.642-.398 2.479-.155-.14-.037-.392 0-.582.107-.55.273-1.276.214-1.927-.188.852-.286 1.795-.49 2.631-.087-.869.384-1.693.337-2.723z"/></g><g><path fill="#fefefe" d="M10.397 2.405h.092c-.054.354-.036.78-.184 1.04-.018-.395.11-.645.092-1.04z"/></g><g><path fill="#fefefe" d="M10.244 3.629c.093.307-.07.623-.092.917"/></g><g><path fill="#fefefe" d="M10.366 4.118c.261.76.472 1.569.704 2.356a3.022 3.022 0 0 1-.367-.122c-.021-.147-.14-.274-.061-.429-.244-.254-.26-.739-.428-1.07.062-.234.12-.472.152-.735z"/></g><g><path fill="#fefefe" d="M10.06 4.761c.083.144-.062.325-.03.52"/></g><g><path fill="#fefefe" d="M9.724 4.914c.093-.001.076.107.092.183h-.154c.018-.063.077-.087.062-.183z"/></g><g><path fill="#fefefe" d="M9.204 5.067c.07.222-.097.473-.306.52"/></g><g><path fill="#fefefe" d="M10.152 5.097c.12.249.18.556.275.826-.054-.004-.064.038-.122.031-.164-.216-.32-.562-.153-.857z"/></g><g><path fill="#fefefe" d="M10.122 6.046c-.116.014-.144-.06-.214-.092"/></g><g><path fill="#fefefe" d="M10.458 6.076c.062.04.068.136.092.214-.062-.029-.121-.062-.184-.091-.027-.098.08-.064.092-.123z"/></g><g><path fill="#fefefe" d="M3.79 8.983c.013.283-.122.572-.246.764-.04-.153.074-.414.061-.642.052-.05.138-.067.184-.122z"/></g><g><path fill="#fefefe" d="M3.422 9.166c.093.14-.109.5-.092.765"/></g><g><path fill="#fefefe" d="M2.902 9.534c-.032.346.037 1.056-.337 1.162"/></g><g><path fill="#fefefe" d="M2.473 9.84c.083.144-.083.466 0 .611-.008.063-.082.06-.091.123.004.075.004.147-.03.183v.153c.003.076-.038.052-.031 0-.004-.376.03-.6 0-.948.045-.046.128-.055.152-.123z"/></g><g><path fill="#fefefe" d="M24.44 10.329c.094-.023.058.084.152.06.015.098-.055.109-.03.215-.07-.064-.096-.17-.123-.275z"/></g><g><path fill="#fefefe" d="M25.357 10.635c-.298 1.925-.523 4.188-.948 6.088-.319-.395-.013-1.14.091-1.744.23-1.326.504-2.804.674-4.16.011-.111.188-.057.183-.184z"/></g><g><path fill="#fefefe" d="M2.718 10.849c.09.072-.037.185-.03.275"/></g><g><path fill="#fefefe" d="M23.4 11.002c.273.501.489 1.06.795 1.53-.04.072-.013.211-.062.275-.286-.57-.833-1.03-.734-1.805z"/></g><g><path fill="#fefefe" d="M2.382 11.247c.106.016.08.164.122.244-.08.015-.103.169-.183.092a.53.53 0 0 1 .06-.336z"/></g><g><path fill="#fefefe" d="M23.277 11.736c.119.105.273.419.428.704.197.361.423.545.337 1.01-.373-.372-.572-.917-.887-1.347.037-.126.104-.222.122-.367z"/></g><g><path fill="#fefefe" d="M2.565 11.767c.145.08-.121.179-.122.306"/></g><g><path fill="#fefefe" d="M4.584 11.828c.08.712-.518 1.01-.887 1.377-.052-.081-.07-.195-.122-.276.274-.43.69-.717 1.01-1.101z"/></g><g><path fill="#fefefe" d="M2.688 12.042c.066.066.086.179.122.276-.059.155-.203.224-.275.367-.17-.232.024-.519.153-.643z"/></g><g><path fill="#fefefe" d="M23.093 12.226c.325.47.56 1.031.888 1.498-.015.16-.07.278-.061.46-.38-.447-.623-1.03-.98-1.5.029-.175.133-.275.153-.458z"/></g><g><path fill="#fefefe" d="M2.902 12.593c.309.291-.162.501-.245.764"/></g><g><path fill="#fefefe" d="M4.492 12.654c.17.567-.348.712-.52 1.04-.089-.043-.097-.168-.153-.245.174-.316.464-.515.673-.795z"/></g><g><path fill="#fefefe" d="M22.88 12.807c.125.169.3.536.489.856.256.437.605.68.428 1.285-.4-.539-.71-1.165-1.07-1.743.04-.143.104-.263.152-.398z"/></g><g><path fill="#fefefe" d="M3.085 13.052c.105-.023.05.112.123.122-.16.247-.312.505-.52.704-.03-.438.278-.538.397-.826z"/></g><g><path fill="#fefefe" d="M3.269 13.358c.063.05.077.147.122.214-.197.303-.379.62-.642.857-.026-.557.345-.716.52-1.071z"/></g><g><path fill="#fefefe" d="M4.492 13.358c.084.389.062.938-.275 1.01-.03-.185-.126-.303-.184-.46.104-.232.316-.357.46-.55z"/></g><g><path fill="#fefefe" d="M22.39 13.939c.026-.006.028.012.03.03.358.603.651 1.227 1.04 1.836.12.186.343.387.245.642-.542-.66-.917-1.49-1.438-2.172.04-.113.098-.208.123-.336z"/></g><g><path fill="#fefefe" d="M3.82 14.183c.09.044.104.182.06.276"/></g><g><path fill="#fefefe" d="M3.728 14.306c.082.399-.247.65-.398.918"/></g><g><path fill="#fefefe" d="M4.462 14.306c.126.18.036.576.092.826"/></g><g><path fill="#fefefe" d="M23.155 14.336c.229.332.533.589.611 1.071"/></g><g><path fill="#fefefe" d="M22.176 14.459c.275.346.752 1.217 1.1 1.744.2.301.428.439.337.795-.404-.41-.765-1.097-1.162-1.682-.185-.273-.504-.503-.275-.857z"/></g><g><path fill="#fefefe" d="M3.973 14.55c.033.008.02.062.06.062-.03.102-.122.142-.152.244.19 0-.026.154-.061.276-.061-.184.036-.472.153-.581z"/></g><g><path fill="#fefefe" d="M4.095 14.917c.13.064.133.255.183.399-.173.254-.303.553-.55.734-.147-.535.236-.776.367-1.132z"/></g><g><path fill="#fefefe" d="M22.023 14.918c.025-.006.028.012.03.03.418.654.77 1.315 1.224 1.958.134.19.415.396.275.704-.219-.055-.299-.315-.428-.49-.384-.516-.847-1.1-1.315-1.56a9.29 9.29 0 0 1 .214-.642z"/></g><g><path fill="#fefefe" d="M3.269 14.98c.08.375-.239.617-.367.886"/></g><g><path fill="#fefefe" d="M3.605 15.07c.046.089.028.374-.092.399"/></g><g><path fill="#fefefe" d="M2.32 15.438c-.01.18.173.493-.03.581a1.807 1.807 0 0 0-.153-.52c.038-.044.105-.058.184-.061z"/></g><g><path fill="#fefefe" d="M4.309 15.499c.35.288-.024.692-.184.918"/></g><g><path fill="#fefefe" d="M3.269 15.56c.18.14.018.33-.061.459"/></g><g><path fill="#fefefe" d="M3.116 15.805c.069.182-.071.418-.153.55"/></g><g><path fill="#fefefe" d="M4.064 15.866c.021.195-.072.54-.122.765"/></g><g><path fill="#fefefe" d="M3.422 15.989c.135.356-.108.79-.367.948"/></g><g><path fill="#fefefe" d="M2.412 16.08c.121.267.158.618.276.888"/></g><g><path fill="#fefefe" d="M4.554 16.08c.193.176-.008.367-.062.551"/></g><g><path fill="#fefefe" d="M4.34 16.264c.042.298-.082.693-.245.887"/></g><g><path fill="#fefefe" d="M24.164 16.54c.209.125.067.322-.061.428"/></g><g><path fill="#fefefe" d="M3.575 16.57c.265.315.064.64-.122.887"/></g><g><path fill="#fefefe" d="M4.89 16.906c.082.07.062.203 0 .276"/></g><g><path fill="#fefefe" d="M3.3 16.937c.037.15-.054.435-.092.612"/></g><g><path fill="#fefefe" d="M3.758 17.212c.195.353-.167.638-.275.887"/></g><g><path fill="#fefefe" d="M4.523 17.702c.037.15.014.503-.153.55"/></g><g><path fill="#fefefe" d="M3.911 17.763c.161.14.074.424-.06.52"/></g><g><path fill="#fefefe" d="M3.697 17.977c.065.117-.065.301-.03.49-.08-.043-.087-.159-.123-.245.07-.063.109-.157.153-.245z"/></g><g><path fill="#fefefe" d="M5.472 18.069c-.038.289-.074.844-.429.918"/></g><g><path fill="#fefefe" d="M3.85 18.925c-.16-.126-.1-.51.061-.58"/></g><g><path fill="#fefefe" d="M6.726 18.405c-.21.362-.73.677-.979 1.102-.036-.576.625-.721.857-1.132.054-.004.064.037.122.03z"/></g><g><path fill="#fefefe" d="M12.63 18.405c-.407.919-1.094 1.823-1.651 2.693-.21-.006-.351.057-.52.091.406-.566.855-1.262 1.254-1.957.232-.406.385-.755.917-.827z"/></g><g><path fill="#fefefe" d="M11.896 18.68c-.518.9-1.109 1.727-1.682 2.57-.113.021-.206.06-.337.062.322-.564.81-1.329 1.193-2.02.198-.357.335-.942.826-.611z"/></g><g><path fill="#fefefe" d="M7.032 18.589c.058.013.076.066.153.061-.032.08-.121.103-.153.184-.086-.05.043-.138 0-.245z"/></g><g><path fill="#fefefe" d="M5.716 18.62c.041.224-.113.519-.275.642"/></g><g><path fill="#fefefe" d="M6.848 18.711c.033.39-.445.697-.642.857"/></g><g><path fill="#fefefe" d="M4.83 18.773c.073.146-.041.367-.123.458"/></g><g><path fill="#fefefe" d="M7.552 18.834c-.057.093-.145-.036-.245 0"/></g><g><path fill="#fefefe" d="M4.217 18.803c.19.23-.082.448-.184.581"/></g><g><path fill="#fefefe" d="M7.338 18.987c-.184.112-.294.297-.49.397"/></g><g><path fill="#fefefe" d="M10.642 18.987c.055-.01.062.029.03.03-.38.639-.753 1.305-1.162 1.958-.115.185-.249.528-.55.49-.023-.085.092-.226.183-.367.13-.203.262-.419.428-.582.148-.534.472-.894.673-1.376.157-.027.277-.09.398-.153z"/></g><g><path fill="#fefefe" d="M7.705 19.109c-.328.345-.722.624-1.01 1.01-.03-.52.598-.647.765-1.071.112-.01.17.034.245.061z"/></g><g><path fill="#fefefe" d="M5.196 19.078c.161.188-.198.369-.306.49"/></g><g><path fill="#fefefe" d="M7.889 19.17c.072 0 .09.053.183.03-.062.194-.285.226-.367.398-.065-.147.125-.302.184-.428z"/></g><g><path fill="#fefefe" d="M8.44 19.262c-.176.366-.693.653-.918 1.07-.017-.515.569-.694.795-1.07h.122z"/></g><g><path fill="#fefefe" d="M9.602 19.323c-.117.333-.523.64-.704 1.01-.076-.373.293-.564.367-.887-.15-.028-.117.128-.245.122-.07-.228.441-.126.581-.245z"/></g><g><path fill="#fefefe" d="M8.837 19.354c-.16.259-.41.427-.582.673-.102-.01.093-.145-.06-.122.194-.204.37-.425.642-.551z"/></g><g><path fill="#fefefe" d="M5.533 19.384c.057.04-.029.195-.03.276-.055-.004-.065.037-.123.03-.014-.027-.027-.054-.061-.06.02-.133.18-.127.214-.246z"/></g><g><path fill="#fefefe" d="M6.114 19.415c.015.328-.194.655-.52.673"/></g><g><path fill="#fefefe" d="M4.156 19.446c.093.056-.035.145 0 .244"/></g><g><path fill="#fefefe" d="M4.462 19.63c.204.195-.038.41-.214.489"/></g><g><path fill="#fefefe" d="M8.868 19.63c-.105.476-.652.776-.857 1.253"/></g><g><path fill="#fefefe" d="M5.074 19.66c.04.142-.04.428-.214.459"/></g><g><path fill="#fefefe" d="M5.104 20.608c-.056-.22.066-.525.245-.612"/></g><g><path fill="#fefefe" d="M6.45 20.088c.08.193-.097.392-.091.612-.14-.023-.204-.122-.306-.184.114-.16.283-.267.397-.428z"/></g><g><path fill="#fefefe" d="M4.493 20.18c.026.078.007.374-.123.398"/></g><g><path fill="#fefefe" d="M5.9 20.18c.093.038-.033.106 0 .184"/></g><g><path fill="#fefefe" d="M8.653 20.272c.042.47-.339.782-.52 1.131-.099-.013-.166-.058-.275-.06.226-.397.522-.722.795-1.071z"/></g><g><path fill="#fefefe" d="M5.594 20.333c.036.076.167.057.214.122-.096.129-.294.155-.336.337-.075-.147.04-.367.122-.459z"/></g><g><path fill="#fefefe" d="M4.768 20.516c.204.287-.11.528-.214.704"/></g><g><path fill="#fefefe" d="M5.196 20.73c.083.318-.212.523-.336.735-.022-.257.16-.574.336-.734z"/></g><g><path fill="#fefefe" d="M6.45 21.006c.053.04.12.063.123.153-.061.03-.13.053-.153.122-.077-.06.036-.186.03-.275z"/></g><g><path fill="#fefefe" d="M6.94 21.434c-.12.492-.612.775-.857 1.04.118-.484.193-1.01.551-1.254.11.064.196.15.306.214z"/></g><g><path fill="#fefefe" d="M4.707 21.25c.048.081-.006.32-.031.429"/></g><g><path fill="#fefefe" d="M8.44 21.25c.067.004.012.13.03.184-.04.042-.133.03-.214.03.042-.09.14-.123.183-.213z"/></g><g><path fill="#fefefe" d="M7.185 21.342c.115-.072.258.088.428.061"/></g><g><path fill="#fefefe" d="M5.012 21.495c.032.216-.058.574-.244.673"/></g><g><path fill="#fefefe" d="M5.043 22.566c-.18-.364.41-1.059.429-.612"/></g><g><path fill="#fefefe" d="M5.35 22.352c.073.298-.193.52-.337.703-.205-.316.275-.451.336-.703z"/></g><g><path fill="#fefefe" d="M5.716 22.933c.047.129-.087.341-.092.52-.065-.066-.014-.25-.091-.306.042-.09.141-.123.183-.214z"/></g><g><path fill="#fefefe" d="M5.135 23.178c.079.061-.032.191-.061.245"/></g><g><path fill="#fefefe" d="M5.35 23.3c.098.252-.003.569-.215.612"/></g><g><path fill="#fefefe" d="M5.93 23.484c.098.266-.069.383-.244.459"/></g><g><path fill="#fefefe" d="M5.992 23.912c.072.06.052.213.091.306-.113.06-.173.174-.306.214a.764.764 0 0 1-.03-.305c.092-.062.191-.115.245-.215z"/></g><g><path fill="#fefefe" d="M5.38 23.943c.15.141.013.411-.153.428"/></g><g><path fill="#fefefe" d="M5.502 24.401c.062.262-.02.36-.153.49"/></g><g><path fill="#fefefe" d="M6.083 24.463c.08.173.075.395-.091.459-.104-.02-.04-.205-.123-.245.052-.091.14-.146.214-.214z"/></g><g><path fill="#fefefe" d="M20.738 24.463c.23.27.575.424.489 1.01"/></g><g><path fill="#fefefe" d="M5.38 25.472c-.025-.264-.042-.405.122-.52"/></g><g><path fill="#fefefe" d="M6.053 25.472c-.117-.082-.037-.441.061-.428"/></g><g><path fill="#fefefe" d="M20.738 25.228c.192.276.541.397.489.917-.045.038-.44-.275-.49-.458-.038-.14.028-.283 0-.46z"/></g><g><path fill="#fefefe" d="M5.563 25.564c.158.13.013.423-.091.49"/></g><g><path fill="#fefefe" d="M6.144 25.595c.045.116.099.505-.122.459"/></g><g><path fill="#fefefe" d="M20.738 25.993c.195.283.57.387.52.918"/></g><g><path fill="#fefefe" d="M5.594 26.115c.076.167.069.368-.061.459"/></g><g><path fill="#fefefe" d="M6.144 26.237c.061.093.057.382-.06.398"/></g><g><path fill="#fefefe" d="M20.738 26.696c.181.228.444.372.55.673"/></g><g><path fill="#fefefe" d="M5.594 26.727c.158.116.023.444-.061.52"/></g><g><path fill="#fefefe" d="M6.144 26.818c.037.13.113.561-.121.52"/></g><g><path fill="#fefefe" d="M20.799 27.216c.061.051.142.083.153.184-.053-.002-.08.023-.092.061-.07-.031-.063-.14-.061-.245z"/></g><g><path fill="#fefefe" d="M5.686 27.308c-.008.196-.057.351-.184.429-.091-.104.041-.244 0-.398.094.022.09-.053.184-.03z"/></g><g><path fill="#fefefe" d="M21.38 27.859c-.1-.094-.226-.162-.275-.306"/></g><g><path fill="#fefefe" d="M20.707 29.511c.078.135.215.437.092.58.2.318.21.708.306 1.072.635 2.419 1.053 5.264 1.774 7.679-.006.096.02.224-.03.275.374.482.841.872 1.315 1.254-.065-.258-.337-.448-.581-.672-.312-.286-.736-.506-.643-1.04.098-.028.213.12.306.213.283.283.615.68.948.918-.162-.766-1.232-.888-1.315-1.835.057-.044.227.114.336.213.1.09.194.234.306.337.332.304.742.47.765 1.102.027.734-.05 1.757-.306 2.294-.542.1-1.096.352-1.59.398.197-.293.725-.254.948-.52h.183c.039-.146.203-.165.307-.245-.223-.082-.458.07-.674.122-1.66.398-3.509.721-5.384.918.617-.115 1.226-.376 1.805-.55.168-.05.464-.014.52-.245-.275-.077-.549.068-.826.122-1.149.225-2.277.563-3.763.49-1.414-.07-2.521-.761-3.64-1.071-.114.063.092.129 0 .183-.706.212-1.093.743-1.622 1.132-.236.022-.398-.03-.612-.03-.027-.13.246-.267.397-.398.443-.383 1.005-.826 1.439-1.224-.144-.092-.241.125-.398.122-.262-.187-.547-.35-.765-.58-.095.013-.11-.078-.06-.123-.075-.039-.186-.04-.246-.093-1.698-1.477-2.971-3.936-3.181-6.821-.025-.339-.072-.687-.031-1.01.037-.289.215-.571.306-.887.265-.925.318-2.05.459-3.09 1.981.364 4.524.367 6.975.367 2.486 0 4.194.047 5.721-1.04.364-.26.473 1.044.49 1.407a.739.739 0 0 1-.031.275z"/></g><g><path fill="#fefefe" d="M5.594 27.859c.113.165-.072.295-.153.367"/></g><g><path fill="#fefefe" d="M20.89 27.92c.25.28.67.392.673.918"/></g><g><path fill="#fefefe" d="M6.083 27.98c.246.136-.053.352-.152.43"/></g><g><path fill="#fefefe" d="M6.053 34.528c-.18.066-.228.262-.398.337.027-.483.085-.936.367-1.163-.07-.088-.191.193-.245.123-.134-.331.042-.7.123-1.04.341-1.439.71-2.94.795-4.559.14.106.3.19.52.214-.1 1.205-.344 2.267-.458 3.457-.07-.013-.001-.162-.062-.184-.248.887-.153 2.106 0 3.06-.094.16-.322.35-.428.397-.023-.475.18-1.037.061-1.407-.326.582-.078 1.9-.734 2.05-.035-.616.11-1.052.458-1.285z"/></g><g><path fill="#fefefe" d="M5.563 28.41c-.057.177-.036.432-.244.459"/></g><g><path fill="#fefefe" d="M6.083 28.593c.113.277-.116.474-.306.551"/></g><g><path fill="#fefefe" d="M21.013 28.685c.266.295.727.394.734.948-.258-.303-.757-.365-.734-.948z"/></g><g><path fill="#fefefe" d="M5.38 29.113c.115.122-.036.49-.184.55"/></g><g><path fill="#fefefe" d="M6.022 29.235c.077.272-.133.52-.367.581"/></g><g><path fill="#fefefe" d="M21.105 29.358c.252.268.619.421.795.765"/></g><g><path fill="#fefefe" d="M5.288 29.786c.058.18-.064.445-.214.52-.082-.114.061-.264.03-.428.104.012.131-.053.184-.092z"/></g><g><path fill="#fefefe" d="M5.9 29.908c.11.217-.11.622-.337.705"/></g><g><path fill="#fefefe" d="M21.227 30c.256.244.71.29.795.704"/></g><g><path fill="#fefefe" d="M21.35 30.52c.258.211.59.348.795.612-.24-.064-.384-.227-.642-.275.125.283.49.325.734.49.031.172.082.325.153.459-.26-.008-.586-.21-.765-.398-.021-.082.063-.06.092-.092-.043-.06-.159-.046-.214-.092-.026-.26-.136-.436-.154-.703z"/></g><g><path fill="#fefefe" d="M5.747 30.674c.061.306-.081.672-.367.734"/></g><g><path fill="#fefefe" d="M4.492 32.173c.15.016.268-.16.337-.123-.034.303-.357.316-.49.52.088-.443.181-1.144.613-1.346.185.412-.283.695-.46.949z"/></g><g><path fill="#fefefe" d="M5.624 31.5c-.005.228-.153.315-.305.397"/></g><g><path fill="#fefefe" d="M21.625 31.683c.226.05.526.29.826.367.064.17.095.374.184.52-.292-.065-.607-.372-.919-.52-.028-.125-.03-.275-.091-.367z"/></g><g><path fill="#fefefe" d="M5.472 31.897c.103.16-.056.574-.307.582"/></g><g><path fill="#fefefe" d="M21.778 32.264c.337.214.745.356.949.704-.319-.233-.756-.347-.95-.704z"/></g><g><path fill="#fefefe" d="M4.676 32.509c.151.297-.269.545-.489.673"/></g><g><path fill="#fefefe" d="M5.319 32.6c.132.15-.131.416-.276.49"/></g><g><path fill="#fefefe" d="M21.87 32.632c.316.183.602.396.948.55.023.212.109.36.153.55-.078.055-.17-.084-.244-.152-.16-.143-.733-.507-.826-.704-.041-.085-.007-.17-.031-.244z"/></g><g><path fill="#fefefe" d="M4.493 33.182c.162.308-.3.514-.46.703"/></g><g><path fill="#fefefe" d="M4.86 33.733c-.077-.241.151-.44.305-.551"/></g><g><path fill="#fefefe" d="M21.992 33.213c.436.43 1.056.678 1.224 1.376-.084.042-.197-.104-.276-.183-.248-.248-.57-.58-.856-.795-.016-.148-.065-.262-.092-.398z"/></g><g><path fill="#fefefe" d="M4.309 33.824c.12.256-.239.555-.428.704"/></g><g><path fill="#fefefe" d="M4.401 35.354c-.04-.357.208-.69.459-.857"/></g><g><path fill="#fefefe" d="M3.758 35.14c-.107-.28.181-.43.306-.581"/></g><g><path fill="#fefefe" d="M6.573 35.17c.09.257-.044.81-.367.857"/></g><g><path fill="#fefefe" d="M6.757 35.262c.004.288.269.676.214.949-.041.2-.246.184-.337.367-.029-.244-.01-.703.153-.857-.169-.039-.025-.306-.03-.459z"/></g><g><path fill="#fefefe" d="M3.88 35.293c.025.269-.11.644-.305.796"/></g><g><path fill="#fefefe" d="M4.646 35.385c.17.346-.24.635-.49.764"/></g><g><path fill="#fefefe" d="M22.512 35.63c.54.49 1.22.84 1.346 1.743-.118.04-.209-.147-.306-.244-.294-.295-.683-.651-.948-.98-.032-.172-.072-.335-.092-.52z"/></g><g><path fill="#fefefe" d="M5.961 35.782c.098.395-.163.694-.398.857"/></g><g><path fill="#fefefe" d="M6.45 36.089c.054.319-.069.888-.336.887"/></g><g><path fill="#fefefe" d="M4.523 36.119c.049.1-.059.307-.06.46-.188.057-.307.183-.43.305-.104-.4.302-.556.49-.765z"/></g><g><path fill="#fefefe" d="M3.636 36.272c.024.126-.035.432-.183.49"/></g><g><path fill="#fefefe" d="M5.257 36.486c.12.427-.223.654-.397.887"/></g><g><path fill="#fefefe" d="M6.97 36.486c.02.448-.128 1.157-.489 1.224"/></g><g><path fill="#fefefe" d="M22.665 36.486c.25.597.768.925 1.255 1.285.063.334.135.66.213.98-.114.048-.208-.128-.305-.215-.298-.267-.68-.587-.98-.857-.033-.425-.115-.802-.183-1.193z"/></g><g><path fill="#fefefe" d="M5.839 36.64c.114.32-.079.857-.398.947"/></g><g><path fill="#fefefe" d="M7.093 36.761c.088.056.099.187.122.306-.04.031-.092.05-.122.092-.094-.107.034-.25 0-.398z"/></g><g><path fill="#fefefe" d="M4.37 36.792c.135.084-.052.348 0 .55-.175.131-.387.225-.52.398-.1-.467.291-.708.52-.948z"/></g><g><path fill="#fefefe" d="M3.483 36.976c.037.109-.039.368-.122.458"/></g><g><path fill="#fefefe" d="M5.992 38.2c-.011-.359.003-.956.306-1.102"/></g><g><path fill="#fefefe" d="M7.246 37.25c.286.286.397.746.612 1.102-.387.185-.713.592-1.01.765.037-.29.06-.592.092-.887.178-.16.393-.28.49-.52-.179-.068-.288.175-.46.214-.042-.358.147-.486.276-.674z"/></g><g><path fill="#fefefe" d="M5.196 37.312c.052.51-.18.737-.398.979"/></g><g><path fill="#fefefe" d="M4.309 37.557c.045.087-.03.316 0 .49a.75.75 0 0 0-.245.183c-.047-.231.063-.569.245-.673z"/></g><g><path fill="#fefefe" d="M5.716 37.618c.01.388.005 1.023-.367 1.132"/></g><g><path fill="#fefefe" d="M3.33 37.648c.06.164-.018.451-.092.582"/></g><g><path fill="#fefefe" d="M6.787 37.74c.138.363-.189.524-.398.643"/></g><g><path fill="#fefefe" d="M3.82 37.954c.091.06-.049.393-.092.52"/></g><g><path fill="#fefefe" d="M5.074 38.2c.062.44-.056 1.126-.398 1.162"/></g><g><path fill="#fefefe" d="M6.144 38.322c.13.155-.093.473-.275.52"/></g><g><path fill="#fefefe" d="M4.248 38.352c.07.143.01.418.03.612-.161.083-.255.234-.428.306.032-.407.1-.778.398-.918z"/></g><g><path fill="#fefefe" d="M7.889 38.383c.12.166.247.324.336.52-.535.383-1.024.974-1.5 1.315.027-.207.067-.402.062-.642.367-.398.832-.697 1.102-1.193z"/></g><g><path fill="#fefefe" d="M3.208 38.414c.03.244-.035.658-.123.887"/></g><g><path fill="#fefefe" d="M6.237 39.699c.075-.507.056-1.106.458-1.285"/></g><g><path fill="#fefefe" d="M5.533 38.872c.144.15-.107.419-.214.52"/></g><g><path fill="#fefefe" d="M3.605 38.964c.094.062-.033.409-.03.58"/></g><g><path fill="#fefefe" d="M5.747 40.25c-.027-.435-.008-1.09.306-1.286.035-.005.054.008.061.03-.09.452-.042 1.04-.367 1.256z"/></g><g><path fill="#fefefe" d="M8.531 39.3c-.769.455-1.297 1.152-1.897 1.775-.057-.565.433-.828.826-1.193.341-.317.632-.57.856-.827.124.03.164.143.215.246z"/></g><g><path fill="#fefefe" d="M4.248 39.209c.124.028.045.318.153.274-.064.366-.386.472-.612.674-.095-.563.234-.704.459-.948z"/></g><g><path fill="#fefefe" d="M4.952 39.393c.127.322-.186.467-.306.643"/></g><g><path fill="#fefefe" d="M3.085 39.484c.04.112.015.422-.061.52"/></g><g><path fill="#fefefe" d="M5.472 39.515c.045.28-.082.652-.062 1.01-.078.033-.167.056-.214.121.008-.338-.036-.994.276-1.131z"/></g><g><path fill="#fefefe" d="M6.604 39.729c.08.487-.16.922-.46 1.132"/></g><g><path fill="#fefefe" d="M8.929 39.76c.11.103.246.181.305.336-.937.623-1.65 1.47-2.508 2.172-.06-.128.115-.232.184-.306.262-.285.529-.61.826-.918.411-.428.905-.8 1.193-1.284z"/></g><g><path fill="#fefefe" d="M3.513 39.882c.09-.003-.061.867-.03.275"/></g><g><path fill="#fefefe" d="M4.278 40.004c.179.436-.32.718-.52.979"/></g><g><path fill="#fefefe" d="M4.86 40.188c.134.441-.089 1.052-.398 1.254"/></g><g><path fill="#fefefe" d="M3.055 40.218c.072.47-.01.722.122 1.132-.09.008-.094-.07-.184-.061.034-.344-.07-.825.062-1.07z"/></g><g><path fill="#fefefe" d="M5.87 40.433c.148.345-.037.88-.276 1.04"/></g><g><path fill="#fefefe" d="M3.453 40.708c.158.197-.024.603.091.796"/></g><g><path fill="#fefefe" d="M4.187 40.8c.074.279-.074.6-.062.918-.212-.003-.311-.117-.49-.153-.014-.138.016-.23.032-.337.253-.004.342-.267.52-.428z"/></g><g><path fill="#fefefe" d="M5.319 41.013c.038.277.085.72-.031.888.175-.018.34-.312.52-.43.06.144.039.468 0 .613-.41.057-.833-.12-1.224-.183.03-.145.15-.197.214-.306.07.053.02.225.123.245.33-.079.094-.722.398-.827z"/></g><g><path fill="#fefefe" d="M4.768 41.258c.072.13-.243.387-.306.582"/></g><g><path fill="#fefefe" d="M12.477 41.81c-.728.193-.926 1.067-1.958.856.417-.44.962-.752 1.438-1.132.21.055.324.206.52.275z"/></g><g><path fill="#fefefe" d="M12.814 41.962c-.476.217-.658.73-1.316.765.31-.323.747-.519 1.04-.857l.276.092z"/></g><g><path fill="#fefefe" d="M12.14 42.757c-.055-.132.196-.202.337-.305.191-.14.336-.292.52-.398.91.334 1.76.729 3.06.674.054-.01.063.028.03.03-1.274.072-2.66.015-3.946 0z"/></g><g><path fill="#fefefe" d="M4.095 42.177c.337-.032.644.232.887.397.105.013.092-.091.153-.122.209.026.34.128.459.244.28-.201.567.065.765.214-.752-.124-1.757-.262-2.264-.733z"/></g><g><path fill="#fefefe" d="M21.992 42.3c.065.044-.022.073.03.152-.205.008-.335.092-.52.122-.027-.282.356-.154.49-.275z"/></g><g><path fill="#fefefe" d="M21.166 42.513c-.03.348-.57.186-.765.367-.09-.054.018-.163 0-.245.255-.041.485-.107.765-.122z"/></g><g><path fill="#fefefe" d="M20.095 42.696c-.051.081-.07.195-.122.276-.217.048-.449.081-.642.152-.12-.394.418-.397.764-.428z"/></g><g><path fill="#fefefe" d="M6.42 42.788c.231-.068.481.11.581.276-.156.043-.4-.088-.612-.092.047-.007.11-.151.031-.184z"/></g><g><path fill="#fefefe" d="M7.124 42.88c.25.006.401.109.49.276-.118.075-.291-.055-.46-.031.085-.087-.017-.162-.03-.245z"/></g><g><path fill="#fefefe" d="M18.933 43.186c-.168.026-.352.035-.49.092-.098-.071.065-.137.03-.245.242-.042.667-.26.46.153z"/></g><g><path fill="#fefefe" d="M7.735 42.972c.262.014.493.059.551.276-.082.04-.32-.027-.459-.031-.004-.109-.088-.137-.092-.245z"/></g><g><path fill="#fefefe" d="M8.5 43.064c.133.04.314.032.46.06.01.113.075.17.091.275-.273-.022-.507-.083-.55-.335z"/></g><g><path fill="#fefefe" d="M18.046 43.094c.134-.043 0 .183.091.184-.088.085-.267.08-.428.092.005-.087.056-.128.06-.215.104-.008.21-.015.277-.061z"/></g><g><path fill="#fefefe" d="M9.173 43.186c.082-.07.295-.01.429-.03.055.107.149.177.183.305-.186.024-.286-.04-.458-.03-.066-.068-.085-.181-.153-.245z"/></g><g><path fill="#fefefe" d="M9.907 43.186h.276c.067.117.115.252.214.336-.258.105-.438-.131-.49-.336z"/></g><g><path fill="#fefefe" d="M10.458 43.248c.299-.146.412.158.52.305-.052.07-.233.011-.336.03a.8.8 0 0 0-.184-.335z"/></g><g><path fill="#fefefe" d="M17.403 43.216c.025.106-.045.118-.03.214-.154-.02-.237.03-.368.03.034-.057.04-.143.061-.212.126.003.192-.055.337-.032z"/></g><g><path fill="#fefefe" d="M11.04 43.278c.032-.07.192-.012.275-.03.04.101.027.258.092.335-.227.124-.253-.216-.367-.305z"/></g><g><path fill="#fefefe" d="M11.59 43.308c.073-.07.275-.01.398-.03.02.112.033.232.061.336h-.367c-.036-.096-.034-.23-.092-.306z"/></g><g><path fill="#fefefe" d="M15.048 43.37v.183c-.804.126-1.956.043-2.785.06-.046-.085-.029-.235-.061-.335.919.06 1.935.022 2.845.092z"/></g><g><path fill="#fefefe" d="M16.73 43.278c.015.096-.055.108-.03.214-.094-.022-.112.03-.184.03-.042-.039-.03-.132-.031-.213.044-.048.157-.028.245-.031z"/></g><g><path fill="#fefefe" d="M15.537 43.584h-.215v-.245c.204-.075.238.024.215.245z"/></g><g><path fill="#fefefe" d="M15.781 43.309h.429c-.004.087.017.2-.03.244-.155-.019-.363.029-.43 0 .02-.074.045-.14.031-.244z"/></g><g><path fill="#fefefe" d="M11.957 44.532c.213-.08.535-.005.735.03.084.182.224.308.306.49-.422-.097-.796-.244-1.04-.52z"/></g><g><path fill="#fefefe" d="M14.404 44.532c.028.13-.188.28-.305.367-.129-.014-.141-.145-.245-.184.166-.078.428-.06.55-.183z"/></g><g><path fill="#fefefe" d="M12.967 44.655c.223-.05.344.267.459.428"/></g><g><path fill="#fefefe" d="M13.456 44.715c.005-.035.056-.025.092-.03.12.096.24.188.306.336-.043-.002-.087-.005-.091.03-.156-.057-.187-.24-.306-.336z"/></g><g><path fill="#fefefe" d="M13.976 46.062h.061c-.023.663.2 1.854.142 2.838-.18 3.042-.74 5.884-.753-.483-.002-.765.118-1.563.122-2.294.115-.048.323-.003.428-.061z"/></g><g><path fill="#fefefe" d="M13.242 46.123c.022.47-.329.568-.458.887"/></g><g><path fill="#fefefe" d="M13.18 46.765c.07.386-.333.564-.458.857"/></g><g><path fill="#fefefe" d="M13.12 47.377c.155.482-.273.645-.398.949"/></g><g><path fill="#fefefe" d="M13.09 48.142c.153.48-.21.708-.368.979"/></g><g><path fill="#fefefe" d="M13.028 48.999c.124.338-.189.505-.336.673"/></g><g><path fill="#fefefe" d="M12.998 49.672c.1.346-.127.629-.276.826"/></g><g><path fill="#fefefe" d="M12.936 50.529c.127.258-.165.364-.214.55"/></g><g><path fill="#fefefe" d="M10.734.661c-.071.113-.27.098-.245.306h-.184c.157-.087.23-.26.429-.306z"/></g><g><path fill="#fefefe" d="M23.155 10.727c-.227.279-.113.884-.276 1.346-.156.444-.456.863-.642 1.315a25.99 25.99 0 0 0-1.194 3.702c-.055.226-.237.48-.122.734.214-.069.188-.358.245-.52.175-.499.455-1.046.581-1.621.646.628 1.135 1.414 1.683 2.141-.073.09-.13.196-.184.306-.51-.674-.873-1.492-1.499-2.05-.052.196.135.42.245.582.363.53.826 1.115 1.132 1.713-.07.104-.151.195-.184.336-.56-.572-.885-1.378-1.468-1.927.34.811.903 1.4 1.346 2.11-.033.172-.121.288-.183.43-.417-.563-.788-1.171-1.255-1.683.221.677.828 1.23 1.193 1.866-.32.975-.75 1.84-1.01 2.876-.264-.154-.388-.448-.642-.612-.089.129.143.252.245.367.122.139.23.3.337.397 0 .133-.072.194-.062.337-.325-.256-.53-.632-.856-.887.01.596.863.727.764 1.438-.23-.127-.3-.414-.55-.52-.035.453.597.503.49 1.131-.25-.107-.301-.413-.582-.489.006.433.646.496.55 1.132-.228-.2-.533-.323-.52-.765-.076-.084-.045.197-.213.122-.029.14.076.148.06.276-.189.949-.148 2.362-.06 3.396-1.136.03-2.273.511-3.61.58-1.216.065-2.596-.026-3.825.032-1.876.087-3.862-.087-5.507-.337-.036-.85.096-1.87-.183-2.478-.201.655-.065 1.648-.153 2.417-.229-.016-.35-.139-.55-.183.018-1.876-.083-3.63-.643-4.926.052-.157.24-.289.367-.428.114-.125.22-.363.337-.306-.055.22-.136.414-.184.642.349-.232.373-.789.55-1.193.14.044.285.083.429.122-.105.204.008.474-.092.643.18-.147.142-.512.367-.612.159-.02.046.063.062.153.131-.001.112-.153.244-.153 1.27.071 2.259-.163 3.15-.55-.003-.068-.076-.067-.152-.062.509-.639.938-1.363 1.377-2.11.119-.203.224-.595.55-.582-.413.901-1.016 1.614-1.315 2.63.644-.742 1.054-1.72 1.53-2.63h.336c-.412.882-.9 1.69-1.284 2.6.59-.632.983-1.73 1.438-2.6.085-.037.21-.034.336-.03-.36.658-.724 1.315-1.07 1.988.571-.54.844-1.379 1.315-2.02.301.045.458.236.704.337-.307.326-.679.587-.98.918.068-.31.408-.612.52-.98-.523.375-.735 1.06-1.07 1.622.316-.247.825-.716 1.254-1.101.213-.192.377-.502.673-.275-.58.582-1.212 1.113-1.682 1.805.603-.447 1.178-1.202 1.804-1.744.122.071.268.12.398.183-.612.5-1.22 1.003-1.744 1.591.377-.117.666-.465.979-.734.323-.277.665-.538.98-.795.11 0 .137.086.213.122.003-.173.07-.088.276-.092-.109-.055-.244-.083-.367-.122-.036-.045-.036-.077 0-.123-.261.074-.316-.287-.52-.367.35.12 1.014.19 1.345.429-.07-.258-.402-.321-.642-.429a10.196 10.196 0 0 0-.765-.306c-.659-.232-1.169-.471-1.897-.611-.247-.048-.636-.213-.887-.184-.235.027-.559.303-.826.459-.802.469-1.69.899-2.631 1.132-.098.027-.042-.1-.122-.092-.15-.016-.135.13-.276.122-.91.055-1.353-.359-1.988-.58.01-.113.12-.124.092-.276-.226-.033-.256.227-.46.122-.058-.076.137-.127 0-.214-.33.168-.56.44-.825.673-.067-.485.475-.627.642-.979-.198-.068-.297.208-.459.275-.068-.141.069-.321 0-.49-.22.27-.169.81-.52.95-.026-.404.213-.807.46-1.041-.171-.01-.233.25-.368.092-.074.222-.327.427-.46.49-.01-.46.323-.576.46-.888-.404.025-.6.522-.949.704.076-.25.046-.607.306-.673 0 .081-.017.18.062.183.036-.638-.327-1.142-.337-1.835.165.498.303 1.022.55 1.438-.034-.904-.462-1.88-.489-2.937-.022-.853-.006-1.733.153-2.57.066-.097.172-.155.214-.275-.255-.576.466-.904.612-1.377-.148-.103-.199.116-.275.184.095-.323.331-.77.642-.98-.15-.087-.12-.082-.122-.244-.616.309-1.077.808-1.56 1.254-.246.227-.468.468-.704.703-.226.227-.438.535-.765.643.148-.458.556-.738.887-1.04.33-.3.64-.627.98-.918.683-.585 1.469-1.058 2.05-1.743-.306.089-.555.312-.827.489-1.015.662-1.969 1.521-2.784 2.417.314-.981 1.363-1.493 2.111-2.142a3.532 3.532 0 0 0-1.437.857c-.07-.123.08-.286.06-.459.978-.466 1.983-.949 2.876-1.53.772-.501 1.638-.913 2.448-1.438.134-.087.283-.269.459-.214-.103.195-.369.282-.582.398-.61.333-1.361.685-1.896 1.132.628-.158 1.29-.62 1.896-.949.175-.094.424-.303.612-.152-.784.551-1.846.825-2.57 1.438.503-.071.928-.386 1.377-.612.46-.231.929-.444 1.408-.643-.006.077.047.096.091.123-.811.554-1.84.891-2.661 1.437.99-.366 1.865-.846 2.784-1.284.924.744 3.098 1.241 4.59.673.138-.03.228.08.274-.031-.037-.169-.199-.075-.306-.092-.629-.1-1.557-.143-2.355-.153-.169-.28-.733-.164-.857-.49.465.07 1.242.335 1.866.154-.437-.247-1.248-.118-1.652-.398-.158-.74-.389-1.406-.581-2.11.043.68.357 1.354.49 2.049-.11.008-.113-.092-.215-.092-.26-1.015-.564-1.985-.856-2.967.066.954.46 1.843.673 2.753-.06.12-.196-.183-.306-.214.144.324.46.478.489.918-.128.016-.17-.054-.275-.062-.211-.66-.394-1.321-.612-2.05-.068-.224-.204-.466-.214-.672-.022-.444.216-.865.183-1.377 1.185.006 2.879.017 4.039-.337-.972-.117-2.123.003-3.182-.06-.445-.027-.883-.2-1.254-.215-.29-.012-.597-.009-.796-.214.06-.12.215-.006.306 0 .303.021.615-.014.918 0 .564.026 1.111.142 1.683.184 1.407.102 2.798-.09 4.252-.123.005 1.668.072 3.274.704 4.314-.11-1.328-.359-2.782-.276-4.405.115-.028.216-.07.337-.092-.128 1.601.067 3.103.49 4.252.032.102.092.002.183.061.696.755 1.41 1.497 2.325 2.02.88.501 1.7 1.252 2.845 1.468.167.19.37.344.551.52.15.628.648 1.06.642 1.744-.358-.57-.619-1.237-.948-1.836-.083.454.183.865.367 1.254.183.389.486.77.46 1.224-.373-.576-.625-1.272-1.01-1.835-.095.186.067.38.122.52-.104.087-.127-.076-.214-.153zm-6.67-4.834c-.29.25-.61.47-.918.703-.075.088-.29.037-.275.215.596-.027 1.21-.3 1.377-.857-.055-.027-.078-.086-.184-.061zm2.141 1.468c.101-.06-.075-.13 0-.153.074-.012.067.056.153.03-.116-.342-.56-.356-.703-.672-.114.021-.131-.053-.245-.031-.03-.06-.053-.13-.122-.153.182.45.44.825.917.98zm-9.055.52c-.46.01.042.073.245 0zm.122.52c.397.395 1.043.6 1.652.796.616.197 1.305.434 1.958.367a3.645 3.645 0 0 1-.52-.153c.901.088 2.107.158 3.03.092.417-.03 1.052.04 1.192-.245-.233-.234-.785.091-1.132-.061.64-.237 1.26-.495 1.805-.826-.518-.086-1.023.184-1.53.336-1.934.583-4.713.456-6.026-.55-.042.255.273.317.275.428-.279-.062-.479-.23-.704-.184zm11.931 10.861c-.145-.134-.261-.303-.275-.49-.808.865-1.47 1.875-2.325 2.693-.936-.063-1.742-.278-2.447-.49-.134-.284-.492-.345-.888-.367.262-.21.564-.435.888-.673.339-.248.795-.693 1.193-.704-.115-.018-.333.069-.275-.122-.147.09-.325.163-.551.092-.016-.102.172-.133.03-.184-.638.483-1.385.859-1.866 1.5.273-.09.568-.343.918-.612.273-.21.81-.8 1.132-.582-.623.387-1.177.842-1.713 1.316-.262.013-.477.073-.704.122.133.24.335.156.643.214 1.278.242 2.746 1.012 4.16.887.173-.015.369-.028.52-.152-.176-.171-.55-.143-.826-.215.798-.711 1.404-1.615 2.05-2.478.062.153.185.243.245.398-.38.6-.912 1.046-1.285 1.652.366-.172.501-.434.826-.826.07-.085.525-.735.581-.734.168.002.151.362.306.397.125-.247-.43-.428-.153-.642.177.089.193.337.429.367-.227-.528-.699-.81-.949-1.316h-.092c.011.403.624.64.428.949zm-5.384 1.224zm1.255-.888c.127-.091.347-.16.305-.305-.562.355-1.125.71-1.56 1.193.41-.244.875-.616 1.255-.888zm2.692-.244c-.36.405-.69.84-1.01 1.285.467-.32.838-.733 1.102-1.255-.04-.001-.043-.039-.092-.03zm-3.61 1.315c.249-.083.457-.304.673-.49.272-.233.613-.492.673-.734-.431.425-.989.725-1.346 1.224zm.459.123zm1.101-1.01c-.003-.037-.009-.072-.061-.061-.338.366-.816.591-1.04 1.07.421-.282.777-.629 1.101-1.009zm-.459.948c.303-.186.67-.472.765-.764zm-4.803 0c.018.218.382.088.581.123"/></g><g><path fill="#fefefe" d="M9.418 5.067c.093-.011.064.1.092.153-.057.004-.102.02-.122.06-.066-.027.057-.122.03-.213z"/></g><g><path fill="#fefefe" d="M9.816 5.25v.153c.027-.013.054-.027.061-.06.062.059.091.153.092.275-.082-.068-.339-.324-.153-.368z"/></g><g><path fill="#fefefe" d="M9.632 5.434c.056.16-.179.188-.275.245-.313.184-.693.44-1.01.642-.034-.066.157-.169.184-.275.438-.113.727-.538 1.101-.612z"/></g><g><path fill="#fefefe" d="M5.533 9.41c-.316.282-.367.813-.581 1.194-.337.598-1.274 1.047-1.56 1.714.508-.236.947-.97 1.406-1.255-.01.162-.096.25-.091.428-.458.379-.83.844-1.254 1.255.023-.252-.158-.26-.245-.46-.006-.128.15-.094.122-.244-.052-.163-.199.066-.275-.03a.308.308 0 0 0-.092-.184 66.182 66.182 0 0 1 2.57-2.417z"/></g><g><path fill="#fefefe" d="M24.073 10.115c.017-.09.047.046.09.03-.022.102.147.279.062.245-.055-.088-.08-.205-.152-.275z"/></g><g><path fill="#fefefe" d="M1.495 11.491V11.4c.15.676.38 1.435.397 2.141.117.157.215.56.122.734.141.263.322.872.123 1.102-.338-1.172-.338-2.68-.643-3.886z"/></g><g><path fill="#fefefe" d="M22.757 13.786c.028.443.363.84.551 1.224-.281-.28-.522-.866-.827-1.224.029-.155.11-.258.154-.398.182.215.288.507.428.765-.097-.006-.157-.312-.306-.367z"/></g><g><path fill="#fefefe" d="M3.758 13.939c-.293.461-.617.892-.918 1.346-.16-.763.453-1.016.673-1.5.038.066.115.09.123.185.09-.073-.037-.186-.03-.276.076.056.075.19.152.245z"/></g><g><path fill="#fefefe" d="M4.676 16.448c.252.4-.062 1.141-.428 1.315.065-.353.133-.703.367-.888-.063-.09-.158.044-.183.093-.02-.153.24-.29.244-.52z"/></g><g><path fill="#fefefe" d="M5.074 17.855c.03.377-.274.685-.49.918"/></g><g><path fill="#fefefe" d="M11.131 18.773c.035.005.017.03 0 .03-.344.705-.789 1.353-1.193 2.02-.122.201-.19.51-.459.58.505-.79.947-1.642 1.377-2.508.105-.027.19-.074.275-.122z"/></g><g><path fill="#fefefe" d="M10.03 19.231c-.017.117-.095.19-.214.123-.183.636-.567 1.116-.887 1.652-.095.157-.141.426-.368.459.206-.958.877-1.449 1.285-2.203.094.022.09-.053.184-.03z"/></g><g><path fill="#fefefe" d="M6.665 19.446c-.104.427-.488.573-.642.948"/></g><g><path fill="#fefefe" d="M7.246 20.363c.012.196-.142.49-.184.735-.185-.09-.38-.171-.55-.276.072-.61.645-.884.948-1.162-.117.526-.599.685-.734 1.193.198-.016.36-.333.52-.49z"/></g><g><path fill="#fefefe" d="M8.133 19.935c-.08.307-.351.689-.52 1.01.046.12.128-.13.153-.03-.034.128-.075.25-.122.366-.119-.054-.288-.06-.398-.122.093-.61.585-.823.887-1.224z"/></g><g><path fill="#fefefe" d="M5.808 20.608c.023.43-.28.802-.55 1.04"/></g><g><path fill="#fefefe" d="M5.93 20.608c.144.06.224.184.368.245-.038.533-.306.836-.55 1.162.156-.006.191-.133.275-.214.027.12-.077.372-.123.52-.09-.093-.113-.254-.214-.336a.308.308 0 0 1 .091-.184c-.007-.044-.09-.01-.091-.061.016-.442.259-.658.428-.948-.123.04-.158.168-.245.244-.038-.08.072-.274.062-.428z"/></g><g><path fill="#fefefe" d="M5.533 22.474c-.052-.024-.02-.22.061-.214.017.197.118.31.153.49-.158.076-.258.21-.367.336-.084-.247.181-.41.244-.612-.006-.039-.09-.04-.091 0z"/></g><g><path fill="#fefefe" d="M5.196 30.459c-.045.332-.15.604-.398.734"/></g><g><path fill="#fefefe" d="M5.104 33.763c.002.38-.236.52-.458.674"/></g><g><path fill="#fefefe" d="M22.207 33.947c.381.352.76.707 1.13 1.07"/></g><g><path fill="#fefefe" d="M22.237 34.344c.606.444 1.393.972 1.438 2.08-.185-.06-.218-.218-.367-.366-.257-.254-.75-.478-.887-.796-.12-.273-.029-.596-.184-.918z"/></g><g><path fill="#fefefe" d="M5.043 36.516c.04-.542.247-1.18.398-1.713-.03-.127.091-.006 0 0-.084.62-.007 1.4-.398 1.713z"/></g><g><path fill="#fefefe" d="M6.359 41.656c.114-.076-.02.033 0 .123.155-.02.154-.193.183-.337.65-.717 1.419-1.315 1.99-2.11.164.069.245.222.336.366-.88.763-1.659 1.626-2.387 2.54-.174-.04-.373-.055-.55-.092.094-.212.308-.304.428-.49z"/></g><g><path fill="#fefefe" d="M8.592 42.482c-.546-.005-.968-.133-1.499-.153.273-.395.706-.718 1.101-1.071.395-.352.8-.715 1.133-1.1.175.088.294.235.458.335-.672.613-1.519 1.051-2.019 1.836.75-.444 1.427-1.224 2.233-1.712.282.227.682.336 1.01.52-.573.446-1.121.917-1.621 1.437-.226 0-.414-.035-.612-.061.57-.54 1.2-1.024 1.804-1.53-.823.216-1.37.976-1.988 1.499z"/></g><g><path fill="#fefefe" d="M6.512 40.83c.032.512-.3.659-.49.949"/></g></g></g></svg>