<svg xmlns="http://www.w3.org/2000/svg" width="66" height="137" viewBox="0 0 66 137"><g><g><g><path fill="#262523" d="M30.068 118.489c-1.684-.728-3.036-1.79-3.148-4.092-4.978-.316-10.405-1.464-14.794-2.755-1.61-.472-3.363-.69-4.565-1.259-.282-.133-.648-.484-1.023-.707-1.305-.78-2.753-1.787-3.228-3.307.65-8.884 2.255-17.036 4.487-24.316.375-1.224.73-2.48 1.102-3.7.648-2.14 1.09-3.867 1.416-6.532.12-.976.382-1.95.393-2.833.012-.96-.26-2.063-.393-3.148-.387-3.153-.866-6.152-1.496-9.128-.844-3.986-1.814-7.809-3.383-10.704-.398-.733-.892-1.419-1.654-1.809.018-.386-.185-.55-.394-.709-1.045-3.632-1.947-7.732-2.675-12.04-.22-1.303-.765-3.125-.471-4.25.255-.984 2.172-2.51 2.91-3.07.556-.422 1.256-.712 1.89-1.102.617-.38 1.198-.865 1.731-1.182 4.087-2.416 7.754-3.552 10.86-6.61 1.287-1.265 3.12-2.962 3.305-5.036.162-1.784.17-4.824 0-6.61-.027-.304-.267-.753-.236-1.103.079-.832 1.212-1.116 1.89-1.653.31-.245.263-.468.55-.55 1.07-.309 3.142-.04 4.565-.08 1.537-.042 3.001.097 4.485 0C35.657-.018 38.678-.08 41.4.126c1.69.13 2.89.832 3.778 1.732-.542 1.218-.393 3.364-.393 5.825 0 1.604-.178 3.222.079 4.248.156.633.986 1.228 1.416 1.89.465.715.784 1.587 1.26 2.046.357.346 1.713 1.097 2.202 1.337 1.398.688 2.883 1.288 4.328 2.047 3.924 2.056 8.687 4.421 11.254 7.634.063 4.605-1.31 10.289-2.518 14.717-.154.56-.133 1.219-.315 1.651-.24.574-.865.984-1.18 1.496-2.081 3.376-3.4 6.899-4.565 11.333-.628 2.396-1.27 4.936-1.652 7.319-.654 4.094.215 8.864 1.18 12.513 2.233 8.436 4.916 16.252 6.375 25.735.144.942.19 1.942.235 2.99.047 1.01.28 2.156.159 2.99-.075.51-.48.603-.315 1.103-.314.081-.497.29-.63.55-7.12 2.507-14.772 4.483-23.688 5.195-.427 1.75-1.255 3.099-2.833 3.697.86 27.083-7.482 23.028-5.51.315z"/></g><g><path fill="#fefefe" d="M34.003 1.623c-.69.464-.872 1.436-2.124 1.338"/></g><g><path fill="#fefefe" d="M37.781 1.623c.007.315-.35.894-.394 1.416-1.375.038-2.535-.14-3.934-.079.785-1.088 1.98-1.597 4.328-1.337z"/></g><g><path fill="#fefefe" d="M39.276 1.7l-.55 1.103c-.447-.053-.645.142-1.024.157.12-.482.43-.777.55-1.26.497.022.63-.068 1.023 0z"/></g><g><path fill="#fefefe" d="M24.875 1.7c-.423.209-.537.725-1.18.71"/></g><g><path fill="#fefefe" d="M27.156 1.7c.39.067-.306.22-.236.474.028.103.138.123.157.235.885.02.873-.86 1.968-.63-.31.347-.807.505-1.102.867-.52-.109-1.21-.049-1.731-.158.245-.33.61-.544.944-.787z"/></g><g><path fill="#fefefe" d="M30.856 1.7c-.59.44-1.001 1.189-1.969 1.024"/></g><g><path fill="#fefefe" d="M32.35 1.7c-.581.443-1.033 1.014-1.888 1.182"/></g><g><path fill="#fefefe" d="M39.748 1.7h.788c-.322.414-.478.993-1.26.945.122-.35.399-.545.473-.944z"/></g><g><path fill="#fefefe" d="M42.425 1.859c-.492.321-1.233.395-1.89.55"/></g><g><path fill="#fefefe" d="M22.749 5.164c.127-.022.136.074.237.08.023.415-.137.65-.159 1.023-.18-.213-.027-.76-.079-1.102z"/></g><g><path fill="#fefefe" d="M23.38 5.479c.103.028.122.138.235.157-.086 1.909-.559 4.11-1.023 5.903-.482-.222-.164-.863-.08-1.26.298-1.372.652-3.095.867-4.564v-.236z"/></g><g><path fill="#fefefe" d="M24.01 5.794c.262.13.601.183.865.314-.27 2.197-.71 4.223-1.023 6.375-.4-.359-.096-1.007 0-1.495.274-1.417.702-3.283.55-4.958-.484 2.192-.735 4.617-1.26 6.768-.224-2.235.986-4.355.867-7.004z"/></g><g><path fill="#fefefe" d="M25.19 6.188h.235c-.138.909-.092 2.004-.472 2.674-.046-1.016.281-1.658.237-2.674z"/></g><g><path fill="#fefefe" d="M24.796 9.334c.24.792-.18 1.604-.236 2.361"/></g><g><path fill="#fefefe" d="M25.11 10.594c.67 1.953 1.213 4.035 1.81 6.06a7.794 7.794 0 0 1-.944-.315c-.054-.378-.36-.703-.157-1.102-.629-.655-.67-1.902-1.102-2.755.16-.6.309-1.212.393-1.888z"/></g><g><path fill="#fefefe" d="M24.323 12.247c.212.372-.16.836-.08 1.338"/></g><g><path fill="#fefefe" d="M23.458 12.64c.239-.002.195.277.236.473h-.395c.047-.165.196-.225.16-.472z"/></g><g><path fill="#fefefe" d="M22.12 13.034c.178.573-.25 1.217-.788 1.338"/></g><g><path fill="#fefefe" d="M24.56 13.112c.305.639.46 1.43.707 2.125-.14-.01-.165.096-.314.08-.423-.556-.823-1.446-.393-2.204z"/></g><g><path fill="#fefefe" d="M24.481 15.552c-.298.036-.37-.155-.551-.236"/></g><g><path fill="#fefefe" d="M25.346 15.631c.158.104.176.35.236.55-.16-.074-.312-.16-.472-.236-.07-.252.205-.163.236-.314z"/></g><g><path fill="#fefefe" d="M8.19 23.107c.036.728-.312 1.473-.63 1.967-.103-.393.19-1.066.158-1.652.132-.13.353-.172.472-.315z"/></g><g><path fill="#fefefe" d="M7.245 23.58c.24.359-.278 1.285-.235 1.968"/></g><g><path fill="#fefefe" d="M5.908 24.524c-.081.89.095 2.717-.866 2.99"/></g><g><path fill="#fefefe" d="M4.805 25.311c.215.373-.212 1.2 0 1.574-.022.16-.212.154-.234.315.01.194.011.378-.08.472v.394c.01.194-.096.133-.078 0-.009-.967.076-1.544 0-2.44.117-.118.331-.142.392-.315z"/></g><g><path fill="#fefefe" d="M61.312 26.57c.242-.058.15.215.393.157.038.249-.141.278-.079.55-.178-.162-.245-.435-.314-.708z"/></g><g><path fill="#fefefe" d="M63.673 27.356c-.767 4.954-1.345 10.775-2.44 15.662-.819-1.016-.033-2.932.236-4.485.592-3.411 1.296-7.213 1.731-10.703.03-.285.485-.145.473-.473z"/></g><g><path fill="#fefefe" d="M5.436 27.908c.233.186-.096.476-.079.708"/></g><g><path fill="#fefefe" d="M58.636 28.302c.704 1.289 1.26 2.727 2.046 3.934-.103.186-.033.545-.158.709-.736-1.468-2.144-2.65-1.888-4.643z"/></g><g><path fill="#fefefe" d="M4.57 28.931c.274.041.206.423.315.63-.208.038-.266.434-.472.236-.055-.396.047-.635.157-.866z"/></g><g><path fill="#fefefe" d="M58.321 30.19c.306.269.703 1.077 1.102 1.81.506.93 1.088 1.402.866 2.597-.96-.954-1.472-2.358-2.282-3.462.095-.325.268-.572.314-.945z"/></g><g><path fill="#fefefe" d="M5.042 30.27c.374.205-.311.46-.315.786"/></g><g><path fill="#fefefe" d="M10.236 30.427c.206 1.832-1.333 2.6-2.283 3.541-.132-.208-.18-.5-.314-.71.706-1.103 1.776-1.844 2.597-2.832z"/></g><g><path fill="#fefefe" d="M5.357 30.977c.17.17.223.46.315.709-.152.398-.523.577-.708.944-.437-.596.061-1.333.393-1.653z"/></g><g><path fill="#fefefe" d="M57.85 31.45c.834 1.21 1.437 2.653 2.281 3.855-.036.41-.177.715-.156 1.18-.977-1.148-1.6-2.649-2.52-3.855.074-.452.34-.71.394-1.18z"/></g><g><path fill="#fefefe" d="M5.908 32.394c.795.749-.416 1.29-.63 1.967"/></g><g><path fill="#fefefe" d="M10 32.552c.436 1.459-.897 1.83-1.337 2.675-.23-.111-.25-.433-.394-.63.446-.813 1.192-1.326 1.731-2.045z"/></g><g><path fill="#fefefe" d="M57.298 32.945c.324.433.776 1.379 1.26 2.203.658 1.123 1.557 1.748 1.1 3.305-1.026-1.386-1.828-2.997-2.752-4.485.105-.367.267-.676.392-1.023z"/></g><g><path fill="#fefefe" d="M6.38 33.574c.268-.058.13.29.316.315-.414.635-.802 1.299-1.339 1.81-.077-1.126.717-1.382 1.024-2.125z"/></g><g><path fill="#fefefe" d="M6.852 34.361c.162.128.199.379.315.55-.507.78-.975 1.597-1.653 2.205-.066-1.43.887-1.842 1.338-2.755z"/></g><g><path fill="#fefefe" d="M10 34.361c.215 1.002.158 2.413-.708 2.597-.078-.473-.324-.778-.473-1.18.267-.599.811-.92 1.18-1.417z"/></g><g><path fill="#fefefe" d="M56.04 35.856c.065-.015.073.031.078.08.92 1.549 1.673 3.154 2.675 4.721.305.478.881.995.63 1.653-1.394-1.701-2.36-3.833-3.7-5.588.102-.292.253-.535.316-.866z"/></g><g><path fill="#fefefe" d="M8.269 36.486c.231.112.267.466.157.708"/></g><g><path fill="#fefefe" d="M8.033 36.801c.212 1.026-.635 1.674-1.023 2.36"/></g><g><path fill="#fefefe" d="M9.922 36.801c.323.462.09 1.482.236 2.125"/></g><g><path fill="#fefefe" d="M58.007 36.88c.59.853 1.372 1.512 1.573 2.754"/></g><g><path fill="#fefefe" d="M55.488 37.195c.708.89 1.936 3.13 2.833 4.485.513.775 1.1 1.13.866 2.046-1.041-1.054-1.968-2.823-2.99-4.328-.476-.701-1.297-1.292-.709-2.203z"/></g><g><path fill="#fefefe" d="M8.663 37.43c.085.02.053.157.156.158-.077.263-.314.366-.393.629.488-.002-.066.395-.157.709-.156-.473.095-1.216.395-1.495z"/></g><g><path fill="#fefefe" d="M8.978 38.374c.334.164.341.655.47 1.024-.444.655-.78 1.423-1.415 1.889-.378-1.375.609-1.995.945-2.913z"/></g><g><path fill="#fefefe" d="M55.095 38.374c.066-.014.073.031.078.08 1.074 1.68 1.982 3.38 3.148 5.036.344.487 1.068 1.019.708 1.81-.563-.14-.769-.81-1.101-1.26-.987-1.329-2.178-2.829-3.384-4.012a24.1 24.1 0 0 1 .55-1.654z"/></g><g><path fill="#fefefe" d="M6.852 38.533c.207.967-.613 1.59-.944 2.282"/></g><g><path fill="#fefefe" d="M7.718 38.768c.117.226.072.961-.237 1.023"/></g><g><path fill="#fefefe" d="M4.413 39.713c-.027.461.445 1.268-.08 1.495a4.65 4.65 0 0 0-.393-1.339c.097-.111.27-.148.473-.156z"/></g><g><path fill="#fefefe" d="M9.528 39.87c.9.74-.06 1.78-.473 2.361"/></g><g><path fill="#fefefe" d="M6.852 40.028c.464.358.046.85-.157 1.18"/></g><g><path fill="#fefefe" d="M6.46 40.657c.176.468-.184 1.074-.395 1.417"/></g><g><path fill="#fefefe" d="M8.899 40.815c.053.5-.186 1.387-.316 1.967"/></g><g><path fill="#fefefe" d="M7.245 41.13c.35.916-.277 2.033-.944 2.439"/></g><g><path fill="#fefefe" d="M4.649 41.366c.31.686.405 1.588.708 2.282"/></g><g><path fill="#fefefe" d="M10.158 41.366c.496.45-.021.943-.158 1.416"/></g><g><path fill="#fefefe" d="M9.606 41.838c.11.767-.21 1.783-.628 2.282"/></g><g><path fill="#fefefe" d="M60.603 42.546c.538.324.172.83-.157 1.102"/></g><g><path fill="#fefefe" d="M7.64 42.625c.68.81.164 1.649-.314 2.281"/></g><g><path fill="#fefefe" d="M11.024 43.49c.21.179.16.522 0 .71"/></g><g><path fill="#fefefe" d="M6.931 43.569c.096.386-.139 1.12-.235 1.574"/></g><g><path fill="#fefefe" d="M8.111 44.277c.502.907-.43 1.64-.708 2.282"/></g><g><path fill="#fefefe" d="M10.079 45.536c.094.385.036 1.294-.393 1.416"/></g><g><path fill="#fefefe" d="M8.504 45.693c.415.363.19 1.09-.157 1.338"/></g><g><path fill="#fefefe" d="M7.953 46.245c.167.3-.166.774-.078 1.258-.205-.108-.222-.406-.314-.629.178-.162.279-.403.392-.629z"/></g><g><path fill="#fefefe" d="M12.519 46.48c-.097.745-.19 2.172-1.103 2.362"/></g><g><path fill="#fefefe" d="M8.347 48.684c-.414-.325-.258-1.313.157-1.495"/></g><g><path fill="#fefefe" d="M15.745 47.346c-.542.93-1.879 1.74-2.518 2.834-.092-1.483 1.608-1.855 2.204-2.912.14-.01.165.096.314.078z"/></g><g><path fill="#fefefe" d="M30.934 47.346c-1.048 2.362-2.815 4.687-4.249 6.926-.539-.015-.902.148-1.338.236a61.108 61.108 0 0 0 3.226-5.037c.598-1.043.992-1.94 2.36-2.125z"/></g><g><path fill="#fefefe" d="M29.046 48.054c-1.334 2.314-2.854 4.442-4.329 6.611-.29.053-.53.154-.866.158.828-1.452 2.083-3.419 3.07-5.194.51-.92.861-2.425 2.124-1.575z"/></g><g><path fill="#fefefe" d="M16.532 47.818c.15.034.197.17.395.158-.083.207-.313.265-.395.472-.221-.126.112-.354 0-.63z"/></g><g><path fill="#fefefe" d="M13.148 47.898c.105.576-.29 1.334-.709 1.652"/></g><g><path fill="#fefefe" d="M16.06 48.133c.085 1.003-1.146 1.792-1.653 2.204"/></g><g><path fill="#fefefe" d="M10.866 48.291c.19.378-.103.944-.315 1.18"/></g><g><path fill="#fefefe" d="M17.87 48.448c-.146.24-.373-.09-.629 0"/></g><g><path fill="#fefefe" d="M9.292 48.37c.489.589-.212 1.152-.473 1.495"/></g><g><path fill="#fefefe" d="M17.32 48.842c-.473.289-.756.765-1.26 1.023"/></g><g><path fill="#fefefe" d="M25.819 48.842c.14-.023.16.074.078.079-.978 1.641-1.939 3.355-2.99 5.036-.297.476-.64 1.359-1.416 1.259-.057-.218.238-.581.471-.944.337-.521.675-1.076 1.102-1.496.382-1.375 1.215-2.299 1.732-3.54.404-.069.712-.233 1.023-.394z"/></g><g><path fill="#fefefe" d="M18.264 49.156c-.844.888-1.858 1.606-2.598 2.597-.077-1.338 1.537-1.663 1.967-2.754.29-.026.437.088.631.157z"/></g><g><path fill="#fefefe" d="M11.81 49.078c.415.482-.509.947-.786 1.26"/></g><g><path fill="#fefefe" d="M18.736 49.314c.186-.002.232.135.471.079-.158.496-.731.58-.943 1.022-.167-.379.322-.777.472-1.101z"/></g><g><path fill="#fefefe" d="M20.153 49.55c-.452.942-1.782 1.679-2.36 2.755-.043-1.328 1.464-1.788 2.044-2.755h.316z"/></g><g><path fill="#fefefe" d="M23.143 49.708c-.3.855-1.346 1.644-1.81 2.596-.197-.958.754-1.45.943-2.282-.385-.072-.3.33-.63.315-.178-.587 1.136-.324 1.496-.63z"/></g><g><path fill="#fefefe" d="M21.175 49.786c-.41.665-1.054 1.097-1.495 1.731-.263-.025.237-.372-.158-.314.5-.524.955-1.092 1.653-1.417z"/></g><g><path fill="#fefefe" d="M12.676 49.865c.148.104-.073.5-.079.708-.14-.01-.166.096-.314.079-.035-.07-.069-.14-.157-.157.054-.34.464-.324.55-.63z"/></g><g><path fill="#fefefe" d="M14.171 49.943c.038.843-.5 1.686-1.337 1.732"/></g><g><path fill="#fefefe" d="M9.134 50.022c.24.146-.09.374 0 .63"/></g><g><path fill="#fefefe" d="M9.922 50.494c.525.504-.097 1.056-.552 1.26"/></g><g><path fill="#fefefe" d="M21.255 50.494c-.269 1.226-1.675 1.998-2.205 3.227"/></g><g><path fill="#fefefe" d="M11.496 50.573c.101.366-.104 1.102-.552 1.18"/></g><g><path fill="#fefefe" d="M11.574 53.013c-.145-.567.169-1.352.63-1.574"/></g><g><path fill="#fefefe" d="M15.037 51.675c.206.496-.251 1.007-.236 1.574-.36-.06-.525-.315-.788-.473.295-.413.73-.688 1.024-1.102z"/></g><g><path fill="#fefefe" d="M10 51.911c.068.202.02.963-.314 1.023"/></g><g><path fill="#fefefe" d="M13.621 51.911c.24.098-.086.271 0 .472"/></g><g><path fill="#fefefe" d="M20.702 52.147c.11 1.211-.871 2.014-1.336 2.911-.255-.034-.427-.15-.71-.157.582-1.018 1.345-1.856 2.046-2.754z"/></g><g><path fill="#fefefe" d="M12.834 52.305c.093.196.429.147.55.314-.246.33-.755.398-.865.866-.193-.377.102-.944.315-1.18z"/></g><g><path fill="#fefefe" d="M10.708 52.776c.525.738-.281 1.358-.55 1.812"/></g><g><path fill="#fefefe" d="M11.81 53.327c.214.817-.545 1.344-.866 1.89"/></g><g><path fill="#fefefe" d="M15.037 54.036c.136.101.31.163.314.394-.156.08-.336.135-.393.314-.198-.153.093-.48.079-.708z"/></g><g><path fill="#fefefe" d="M16.297 55.138c-.311 1.264-1.576 1.992-2.205 2.675.303-1.246.496-2.6 1.417-3.226.283.163.504.387.788.55z"/></g><g><path fill="#fefefe" d="M10.55 54.665c.126.207-.013.823-.078 1.102"/></g><g><path fill="#fefefe" d="M20.153 54.665c.174.01.033.335.079.473-.103.108-.343.077-.552.078.11-.232.363-.319.473-.55z"/></g><g><path fill="#fefefe" d="M16.927 54.901c.295-.187.663.226 1.1.157"/></g><g><path fill="#fefefe" d="M11.337 55.295c.082.554-.15 1.475-.629 1.731"/></g><g><path fill="#fefefe" d="M11.416 58.05c-.461-.938 1.056-2.724 1.103-1.574"/></g><g><path fill="#fefefe" d="M12.204 57.499c.19.766-.495 1.34-.866 1.809"/></g><g><path fill="#fefefe" d="M13.148 58.994c.12.33-.224.876-.237 1.338-.168-.172-.035-.646-.235-.788.11-.23.364-.317.472-.55z"/></g><g><path fill="#fefefe" d="M11.653 59.623c.203.158-.081.492-.157.63"/></g><g><path fill="#fefefe" d="M12.204 59.938c.254.648-.007 1.463-.551 1.573"/></g><g><path fill="#fefefe" d="M13.7 60.41c.25.684-.178.985-.63 1.18"/></g><g><path fill="#fefefe" d="M13.857 61.511c.184.157.134.55.235.789-.292.152-.445.445-.787.55-.082-.207-.094-.483-.078-.786.237-.159.492-.296.63-.553z"/></g><g><path fill="#fefefe" d="M12.283 61.59c.384.364.033 1.06-.394 1.103"/></g><g><path fill="#fefefe" d="M12.597 62.77c.158.673-.052.928-.393 1.261"/></g><g><path fill="#fefefe" d="M14.092 62.929c.203.444.193 1.016-.235 1.18-.266-.049-.103-.527-.315-.63.132-.235.36-.374.55-.55z"/></g><g><path fill="#fefefe" d="M51.79 62.929c.592.693 1.48 1.09 1.257 2.596"/></g><g><path fill="#fefefe" d="M12.283 65.525c-.064-.68-.109-1.044.314-1.337"/></g><g><path fill="#fefefe" d="M14.013 65.525c-.299-.212-.094-1.136.159-1.1"/></g><g><path fill="#fefefe" d="M51.79 64.896c.494.712 1.392 1.022 1.257 2.36-.114.097-1.13-.708-1.257-1.18-.1-.358.07-.727 0-1.18z"/></g><g><path fill="#fefefe" d="M12.755 65.762c.406.336.031 1.089-.236 1.26"/></g><g><path fill="#fefefe" d="M14.249 65.84c.116.3.254 1.3-.313 1.18"/></g><g><path fill="#fefefe" d="M51.79 66.864c.502.73 1.467.997 1.337 2.361"/></g><g><path fill="#fefefe" d="M12.834 67.179c.195.428.177.946-.158 1.18"/></g><g><path fill="#fefefe" d="M14.249 67.493c.157.238.145.982-.157 1.023"/></g><g><path fill="#fefefe" d="M51.79 68.673c.466.585 1.143.956 1.416 1.732"/></g><g><path fill="#fefefe" d="M12.833 68.753c.407.299.06 1.143-.157 1.338"/></g><g><path fill="#fefefe" d="M14.249 68.988c.095.333.29 1.442-.313 1.338"/></g><g><path fill="#fefefe" d="M51.947 70.011c.157.131.366.212.394.473-.136-.004-.204.058-.237.157-.182-.08-.163-.361-.157-.63z"/></g><g><path fill="#fefefe" d="M13.07 70.248c-.021.503-.146.903-.473 1.102-.235-.268.106-.626 0-1.024.242.058.232-.135.473-.078z"/></g><g><path fill="#fefefe" d="M53.442 71.664c-.258-.24-.58-.415-.708-.786"/></g><g><path fill="#fefefe" d="M51.71 75.915c.2.347.553 1.125.237 1.494.516.815.542 1.82.787 2.754 1.633 6.224 2.71 13.542 4.564 19.754-.017.246.053.578-.079.708.963 1.24 2.166 2.244 3.384 3.227-.167-.664-.867-1.154-1.495-1.73-.802-.736-1.893-1.301-1.653-2.677.253-.07.549.313.787.55.727.728 1.58 1.748 2.44 2.361-.419-1.97-3.172-2.285-3.385-4.721.147-.112.584.293.866.55.255.232.499.6.787.867.853.78 1.908 1.206 1.968 2.833.068 1.889-.129 4.52-.787 5.902-1.395.258-2.82.905-4.092 1.023.507-.752 1.866-.652 2.439-1.338h.472c.1-.374.521-.424.788-.63-.574-.21-1.176.181-1.732.315a109.035 109.035 0 0 1-13.852 2.36c1.589-.296 3.156-.968 4.644-1.415.432-.13 1.194-.035 1.339-.63-.709-.196-1.413.175-2.126.315-2.955.578-5.857 1.45-9.68 1.258-3.637-.179-6.486-1.955-9.365-2.754-.29.164.238.332 0 .473-1.814.545-2.81 1.91-4.17 2.912-.607.054-1.024-.079-1.575-.079-.07-.331.633-.685 1.023-1.023 1.139-.985 2.584-2.126 3.699-3.149-.37-.236-.62.322-1.023.315-.673-.48-1.406-.902-1.967-1.494-.245.035-.282-.2-.157-.315-.19-.1-.476-.102-.63-.239-4.369-3.8-7.644-10.126-8.185-17.547-.063-.871-.183-1.767-.079-2.598.096-.742.554-1.47.788-2.282.682-2.378.817-5.275 1.18-7.949 5.097.936 11.637.945 17.944.945 6.393 0 10.788.12 14.716-2.677.936-.666 1.216 2.687 1.26 3.62.016.366-.04.594-.08.71z"/></g><g><path fill="#fefefe" d="M12.834 71.664c.29.425-.185.758-.395.945"/></g><g><path fill="#fefefe" d="M52.182 71.822c.642.722 1.722 1.007 1.732 2.361"/></g><g><path fill="#fefefe" d="M14.092 71.978c.632.349-.137.905-.393 1.103"/></g><g><path fill="#fefefe" d="M14.013 88.82c-.46.17-.585.674-1.021.866.068-1.241.216-2.406.944-2.99-.183-.227-.493.497-.63.315-.347-.852.107-1.802.315-2.676.878-3.699 1.826-7.56 2.045-11.726.36.271.77.49 1.338.55-.256 3.1-.885 5.831-1.18 8.894-.177-.034-.002-.417-.158-.473-.639 2.28-.393 5.418 0 7.87-.243.413-.828.902-1.102 1.023-.059-1.223.466-2.668.158-3.62-.838 1.497-.202 4.888-1.89 5.273-.088-1.585.282-2.707 1.18-3.305z"/></g><g><path fill="#fefefe" d="M12.755 73.08c-.148.456-.094 1.113-.63 1.182"/></g><g><path fill="#fefefe" d="M14.092 73.553c.29.711-.3 1.22-.787 1.417"/></g><g><path fill="#fefefe" d="M52.497 73.79c.685.759 1.87 1.014 1.889 2.438"/></g><g><path fill="#fefefe" d="M12.283 74.891c.296.314-.093 1.26-.473 1.416"/></g><g><path fill="#fefefe" d="M13.936 75.205c.198.699-.344 1.336-.944 1.495"/></g><g><path fill="#fefefe" d="M52.734 75.52c.648.69 1.592 1.084 2.046 1.968"/></g><g><path fill="#fefefe" d="M12.046 76.623c.149.464-.165 1.145-.55 1.338-.21-.293.157-.679.078-1.103.265.031.336-.136.472-.235z"/></g><g><path fill="#fefefe" d="M13.62 76.937c.286.557-.283 1.599-.865 1.81"/></g><g><path fill="#fefefe" d="M53.047 77.173c.66.627 1.829.743 2.047 1.811"/></g><g><path fill="#fefefe" d="M53.362 78.512c.665.542 1.52.894 2.047 1.573-.62-.166-.989-.584-1.652-.707.322.726 1.262.836 1.889 1.259.08.442.212.836.393 1.18-.666-.019-1.507-.538-1.969-1.023-.054-.212.164-.153.237-.237-.11-.151-.407-.117-.55-.235-.067-.67-.348-1.122-.395-1.81z"/></g><g><path fill="#fefefe" d="M13.227 78.905c.158.789-.21 1.73-.944 1.889"/></g><g><path fill="#fefefe" d="M10 82.76c.386.043.687-.41.866-.314-.088.778-.918.813-1.26 1.338.225-1.14.465-2.945 1.575-3.462.477 1.06-.727 1.786-1.181 2.44z"/></g><g><path fill="#fefefe" d="M12.911 81.03c-.014.587-.393.811-.785 1.022"/></g><g><path fill="#fefefe" d="M54.07 81.501c.583.128 1.355.744 2.126.945.166.438.245.962.473 1.338-.75-.169-1.56-.958-2.362-1.338-.072-.322-.078-.709-.236-.945z"/></g><g><path fill="#fefefe" d="M12.519 82.053c.266.41-.143 1.476-.788 1.495"/></g><g><path fill="#fefefe" d="M54.465 82.997c.866.55 1.917.916 2.44 1.81"/></g><g><path fill="#fefefe" d="M10.472 83.627c.389.764-.69 1.401-1.258 1.731"/></g><g><path fill="#fefefe" d="M12.126 83.862c.34.384-.338 1.068-.71 1.26"/></g><g><path fill="#fefefe" d="M54.701 83.942c.815.47 1.55 1.02 2.44 1.416.059.544.28.927.394 1.416-.201.14-.437-.218-.63-.392-.41-.37-1.884-1.307-2.125-1.81-.105-.22-.017-.44-.079-.63z"/></g><g><path fill="#fefefe" d="M10 85.358c.417.792-.77 1.322-1.18 1.81-.19-.872.688-1.357 1.18-1.81z"/></g><g><path fill="#fefefe" d="M10.944 86.774c-.197-.619.39-1.13.787-1.416"/></g><g><path fill="#fefefe" d="M55.016 85.437c1.123 1.106 2.715 1.743 3.148 3.54-.215.11-.505-.268-.709-.471-.638-.637-1.467-1.492-2.203-2.046-.041-.379-.168-.672-.236-1.023z"/></g><g><path fill="#fefefe" d="M9.528 87.01c.306.657-.614 1.427-1.102 1.81"/></g><g><path fill="#fefefe" d="M9.765 90.945c-.106-.919.535-1.772 1.18-2.203"/></g><g><path fill="#fefefe" d="M8.111 90.395c-.275-.722.465-1.108.788-1.496"/></g><g><path fill="#fefefe" d="M15.351 90.473c.233.66-.113 2.084-.944 2.204"/></g><g><path fill="#fefefe" d="M15.825 90.71c.01.74.692 1.739.55 2.44-.105.513-.632.474-.866.944-.074-.626-.023-1.808.393-2.205-.433-.098-.064-.786-.077-1.18z"/></g><g><path fill="#fefefe" d="M8.426 90.789c.062.691-.282 1.656-.787 2.046"/></g><g><path fill="#fefefe" d="M10.394 91.024c.438.891-.616 1.634-1.26 1.967"/></g><g><path fill="#fefefe" d="M56.353 91.653c1.388 1.263 3.136 2.165 3.463 4.486-.304.104-.537-.379-.787-.629-.756-.758-1.757-1.674-2.44-2.519-.082-.442-.185-.863-.236-1.338z"/></g><g><path fill="#fefefe" d="M13.778 92.047c.253 1.015-.42 1.784-1.023 2.203"/></g><g><path fill="#fefefe" d="M15.037 92.834c.138.822-.179 2.286-.865 2.282"/></g><g><path fill="#fefefe" d="M10.079 92.912c.125.26-.151.79-.157 1.182-.481.148-.787.472-1.103.786-.267-1.028.775-1.43 1.26-1.968z"/></g><g><path fill="#fefefe" d="M7.797 93.306c.06.326-.091 1.114-.471 1.26"/></g><g><path fill="#fefefe" d="M11.968 93.857c.31 1.099-.575 1.682-1.024 2.283"/></g><g><path fill="#fefefe" d="M16.375 93.857c.048 1.153-.331 2.976-1.26 3.149"/></g><g><path fill="#fefefe" d="M56.747 93.857c.642 1.536 1.975 2.38 3.227 3.305.162.86.35 1.697.55 2.52-.293.125-.536-.328-.786-.552-.766-.686-1.748-1.51-2.519-2.204-.085-1.094-.296-2.063-.472-3.069z"/></g><g><path fill="#fefefe" d="M13.463 94.25c.294.825-.202 2.207-1.024 2.44"/></g><g><path fill="#fefefe" d="M16.69 94.566c.225.142.253.48.314.787-.104.08-.237.129-.314.236-.243-.274.087-.645 0-1.023z"/></g><g><path fill="#fefefe" d="M9.686 94.644c.346.217-.135.895 0 1.416-.45.337-.998.578-1.339 1.024-.257-1.204.749-1.822 1.339-2.44z"/></g><g><path fill="#fefefe" d="M7.403 95.116c.096.282-.1.947-.315 1.18"/></g><g><path fill="#fefefe" d="M13.857 98.264c-.028-.92.008-2.457.787-2.832"/></g><g><path fill="#fefefe" d="M17.083 95.824c.737.733 1.02 1.919 1.574 2.833-.995.475-1.833 1.524-2.597 1.968.094-.747.156-1.522.237-2.282.457-.409 1.01-.72 1.258-1.338-.458-.173-.74.452-1.18.55-.11-.92.375-1.25.708-1.731z"/></g><g><path fill="#fefefe" d="M11.81 95.981c.133 1.315-.465 1.897-1.023 2.518"/></g><g><path fill="#fefefe" d="M9.528 96.61c.117.226-.076.815 0 1.261-.243.125-.463.271-.63.473-.12-.596.163-1.464.63-1.733z"/></g><g><path fill="#fefefe" d="M13.148 96.769c.027.998.011 2.633-.944 2.911"/></g><g><path fill="#fefefe" d="M7.01 96.847c.155.42-.046 1.16-.236 1.497"/></g><g><path fill="#fefefe" d="M15.902 97.083c.355.932-.486 1.348-1.023 1.654"/></g><g><path fill="#fefefe" d="M8.269 97.635c.236.155-.125 1.01-.236 1.337"/></g><g><path fill="#fefefe" d="M11.496 98.264c.16 1.132-.143 2.9-1.024 2.992"/></g><g><path fill="#fefefe" d="M14.249 98.579c.334.4-.24 1.218-.708 1.338"/></g><g><path fill="#fefefe" d="M9.37 98.657c.182.37.028 1.075.079 1.574-.415.215-.656.603-1.102.788.082-1.047.258-2 1.023-2.362z"/></g><g><path fill="#fefefe" d="M18.736 98.737c.309.427.637.833.865 1.336-1.374.988-2.635 2.508-3.856 3.385.068-.534.17-1.035.157-1.653.945-1.022 2.142-1.791 2.834-3.068z"/></g><g><path fill="#fefefe" d="M6.696 98.815c.077.63-.09 1.695-.315 2.282"/></g><g><path fill="#fefefe" d="M14.487 102.121c.192-1.302.146-2.844 1.179-3.305"/></g><g><path fill="#fefefe" d="M12.676 99.995c.37.388-.274 1.077-.55 1.338"/></g><g><path fill="#fefefe" d="M7.718 100.232c.241.16-.086 1.052-.079 1.495"/></g><g><path fill="#fefefe" d="M13.227 103.538c-.069-1.118-.02-2.801.786-3.306.091-.013.141.02.159.079-.231 1.16-.11 2.673-.944 3.227z"/></g><g><path fill="#fefefe" d="M20.389 101.098c-1.978 1.169-3.336 2.96-4.88 4.564-.148-1.454 1.113-2.13 2.124-3.07.878-.815 1.627-1.464 2.204-2.126.318.078.421.368.552.63z"/></g><g><path fill="#fefefe" d="M9.37 100.861c.32.073.118.82.395.707-.165.94-.993 1.213-1.574 1.734-.244-1.45.602-1.812 1.18-2.44z"/></g><g><path fill="#fefefe" d="M11.18 101.334c.33.829-.477 1.201-.786 1.654"/></g><g><path fill="#fefefe" d="M6.38 101.568c.104.29.038 1.087-.157 1.338"/></g><g><path fill="#fefefe" d="M12.519 101.648c.117.72-.21 1.678-.158 2.597-.202.087-.43.147-.551.315.02-.872-.093-2.558.709-2.912z"/></g><g><path fill="#fefefe" d="M15.431 102.2c.206 1.254-.41 2.372-1.182 2.912"/></g><g><path fill="#fefefe" d="M21.411 102.278c.284.267.634.468.787.866-2.41 1.603-4.245 3.781-6.453 5.588-.156-.33.296-.598.473-.787.675-.735 1.362-1.568 2.125-2.363 1.059-1.1 2.328-2.06 3.069-3.304z"/></g><g><path fill="#fefefe" d="M7.481 102.592c.232-.007-.158 2.232-.078.71"/></g><g><path fill="#fefefe" d="M9.449 102.907c.46 1.12-.826 1.847-1.338 2.519"/></g><g><path fill="#fefefe" d="M10.944 103.381c.345 1.135-.227 2.705-1.022 3.224"/></g><g><path fill="#fefefe" d="M6.301 103.458c.187 1.209-.024 1.857.314 2.911-.23.022-.24-.177-.471-.157.085-.884-.181-2.122.157-2.754z"/></g><g><path fill="#fefefe" d="M13.541 104.01c.383.887-.093 2.262-.708 2.674"/></g><g><path fill="#fefefe" d="M7.326 104.719c.407.506-.061 1.549.235 2.045"/></g><g><path fill="#fefefe" d="M9.214 104.955c.192.717-.19 1.54-.159 2.36-.544-.006-.802-.299-1.258-.393-.039-.355.039-.591.078-.867.653-.01.881-.687 1.339-1.1z"/></g><g><path fill="#fefefe" d="M12.126 105.504c.099.712.218 1.85-.08 2.282.451-.046.877-.801 1.338-1.102.153.367.1 1.201 0 1.575-1.053.146-2.143-.312-3.148-.473.074-.372.385-.506.55-.786.18.136.053.578.316.63.848-.203.243-1.857 1.024-2.126z"/></g><g><path fill="#fefefe" d="M10.708 106.133c.186.332-.624.993-.786 1.497"/></g><g><path fill="#fefefe" d="M30.54 107.55c-1.873.5-2.381 2.748-5.036 2.204 1.071-1.131 2.473-1.934 3.698-2.911.541.142.833.53 1.339.707z"/></g><g><path fill="#fefefe" d="M31.406 107.945c-1.224.557-1.692 1.875-3.384 1.967.794-.832 1.92-1.334 2.676-2.204.237.075.47.16.708.237z"/></g><g><path fill="#fefefe" d="M29.674 109.99c-.144-.341.501-.522.867-.785.49-.359.862-.75 1.338-1.025 2.34.86 4.526 1.875 7.869 1.733.14-.023.162.074.079.076-3.279.187-6.843.04-10.153 0z"/></g><g><path fill="#fefefe" d="M8.978 108.495c.867-.08 1.656.599 2.282 1.023.269.034.236-.235.393-.314.537.066.877.329 1.18.628.721-.517 1.458.167 1.968.551-1.934-.32-4.519-.674-5.824-1.888z"/></g><g><path fill="#fefefe" d="M55.016 108.81c.168.117-.056.191.079.394-.53.02-.865.237-1.338.314-.071-.726.915-.397 1.259-.708z"/></g><g><path fill="#fefefe" d="M52.892 109.36c-.077.896-1.465.479-1.968.945-.233-.139.045-.42 0-.63.655-.106 1.246-.276 1.968-.314z"/></g><g><path fill="#fefefe" d="M50.137 109.832c-.133.209-.183.501-.315.71-.557.124-1.155.21-1.652.392-.306-1.014 1.075-1.022 1.967-1.102z"/></g><g><path fill="#fefefe" d="M14.958 110.069c.595-.176 1.238.283 1.496.71-.402.11-1.032-.228-1.575-.237.122-.02.282-.39.08-.473z"/></g><g><path fill="#fefefe" d="M16.769 110.306c.641.014 1.033.278 1.259.707-.303.195-.748-.14-1.181-.079.217-.225-.044-.416-.078-.628z"/></g><g><path fill="#fefefe" d="M47.147 111.093c-.433.067-.906.09-1.26.236-.252-.183.168-.353.078-.63.62-.107 1.713-.67 1.182.394z"/></g><g><path fill="#fefefe" d="M18.342 110.541c.673.036 1.267.15 1.417.71-.211.101-.824-.068-1.18-.08-.012-.278-.227-.353-.237-.63z"/></g><g><path fill="#fefefe" d="M20.31 110.778c.342.103.807.082 1.18.156.026.29.194.435.237.708-.702-.059-1.305-.215-1.418-.864z"/></g><g><path fill="#fefefe" d="M44.864 110.856c.346-.111 0 .47.235.473-.226.218-.687.204-1.101.236.012-.224.144-.33.156-.552.266-.022.539-.04.71-.157z"/></g><g><path fill="#fefefe" d="M22.041 111.092c.21-.18.758-.027 1.102-.08.143.28.383.457.472.788-.48.062-.737-.103-1.18-.078-.168-.174-.217-.466-.393-.63z"/></g><g><path fill="#fefefe" d="M23.93 111.092h.708c.173.3.295.65.552.866-.664.269-1.128-.34-1.26-.866z"/></g><g><path fill="#fefefe" d="M25.347 111.25c.767-.373 1.06.409 1.338.786-.136.181-.601.029-.866.08a2.061 2.061 0 0 0-.472-.865z"/></g><g><path fill="#fefefe" d="M43.211 111.17c.064.273-.116.304-.08.551-.392-.053-.608.074-.943.079.088-.15.101-.372.157-.55.324.009.493-.139.866-.08z"/></g><g><path fill="#fefefe" d="M26.843 111.328c.082-.18.494-.029.707-.078.104.263.069.665.236.865-.582.318-.648-.557-.943-.787z"/></g><g><path fill="#fefefe" d="M28.258 111.407c.187-.18.707-.028 1.024-.079.051.289.084.598.156.865h-.943c-.094-.247-.089-.593-.237-.786z"/></g><g><path fill="#fefefe" d="M37.152 111.565v.47c-2.067.326-5.031.113-7.162.158-.12-.221-.075-.607-.158-.864 2.363.155 4.977.058 7.32.236z"/></g><g><path fill="#fefefe" d="M41.48 111.33c.038.247-.142.276-.08.55-.24-.057-.286.078-.471.078-.108-.101-.078-.343-.08-.55.115-.122.404-.071.63-.08z"/></g><g><path fill="#fefefe" d="M38.41 112.115h-.552v-.63c.526-.192.614.063.552.63z"/></g><g><path fill="#fefefe" d="M39.04 111.407h1.102c-.01.227.043.515-.079.63-.396-.05-.931.073-1.102 0 .048-.19.113-.36.079-.63z"/></g><g><path fill="#fefefe" d="M29.203 114.555c.548-.205 1.376-.013 1.888.079.217.467.577.789.788 1.258-1.086-.25-2.047-.628-2.676-1.337z"/></g><g><path fill="#fefefe" d="M35.497 114.555c.072.335-.485.72-.786.944-.33-.036-.362-.373-.63-.473.427-.201 1.1-.157 1.416-.47z"/></g><g><path fill="#fefefe" d="M31.8 114.87c.575-.13.886.688 1.18 1.102"/></g><g><path fill="#fefefe" d="M33.059 115.026c.012-.09.144-.064.236-.078.306.246.619.483.786.866-.111-.007-.222-.013-.234.078-.402-.148-.481-.62-.788-.866z"/></g><g><path fill="#fefefe" d="M34.396 118.489h.157c-.06 1.706.516 4.77.365 7.3-.465 7.826-1.903 15.138-1.938-1.24-.004-1.97.303-4.022.315-5.902.296-.123.83-.008 1.101-.158z"/></g><g><path fill="#fefefe" d="M32.508 118.647c.056 1.21-.847 1.461-1.18 2.282"/></g><g><path fill="#fefefe" d="M32.35 120.3c.18.993-.858 1.449-1.18 2.203-.206-1.018.816-1.492 1.18-2.203z"/></g><g><path fill="#fefefe" d="M32.193 121.874c.4 1.238-.7 1.658-1.023 2.44"/></g><g><path fill="#fefefe" d="M32.115 123.84c.395 1.237-.54 1.822-.945 2.52"/></g><g><path fill="#fefefe" d="M31.958 126.045c.32.871-.486 1.3-.867 1.731"/></g><g><path fill="#fefefe" d="M31.879 127.777c.26.89-.325 1.617-.709 2.125"/></g><g><path fill="#fefefe" d="M31.72 129.98c.326.666-.423.938-.55 1.416"/></g><g><path fill="#fefefe" d="M26.055 1.7c-.182.292-.693.253-.63.788h-.472c.404-.225.59-.67 1.102-.787z"/></g><g><path fill="#fefefe" d="M58.006 27.593c-.581.718-.29 2.275-.709 3.463-.401 1.142-1.173 2.22-1.651 3.384-1.23 2.99-2.225 6.095-3.07 9.523-.144.581-.611 1.236-.314 1.888.55-.177.482-.92.63-1.338.45-1.283 1.17-2.69 1.494-4.17 1.662 1.616 2.92 3.637 4.328 5.508a4.255 4.255 0 0 0-.472.787c-1.31-1.733-2.247-3.839-3.856-5.272-.135.503.347 1.081.63 1.495.933 1.365 2.126 2.868 2.911 4.407-.179.266-.389.503-.472.865-1.44-1.473-2.278-3.545-3.777-4.958.876 2.088 2.324 3.604 3.463 5.43-.085.44-.312.739-.472 1.103-1.073-1.447-2.026-3.012-3.227-4.329.568 1.742 2.13 3.166 3.069 4.8-.824 2.508-1.93 4.733-2.597 7.398-.681-.394-1-1.15-1.652-1.574-.23.332.368.648.63.944.314.358.589.77.865 1.024 0 .34-.183.498-.158.865-.837-.657-1.366-1.625-2.203-2.282.025 1.533 2.221 1.872 1.967 3.699-.592-.326-.772-1.065-1.416-1.338-.09 1.166 1.537 1.296 1.259 2.911-.643-.276-.773-1.062-1.496-1.259.015 1.114 1.663 1.276 1.417 2.912-.59-.512-1.374-.83-1.338-1.968-.196-.215-.118.507-.55.315-.073.362.196.381.157.709-.487 2.44-.383 6.078-.157 8.735-2.92.08-5.846 1.316-9.287 1.496-3.128.164-6.677-.069-9.837.079-4.827.224-9.935-.223-14.166-.867-.094-2.187.246-4.81-.472-6.374-.517 1.686-.167 4.24-.394 6.217-.589-.04-.902-.357-1.417-.471.049-4.824-.21-9.338-1.653-12.672.134-.404.617-.742.945-1.1.293-.322.568-.934.867-.788-.14.569-.35 1.066-.473 1.653.896-.598.96-2.03 1.416-3.07.36.114.73.214 1.101.315-.268.525.022 1.22-.235 1.653.463-.377.364-1.316.945-1.574.407-.05.117.163.157.393.339-.002.29-.393.63-.393 3.267.183 5.81-.418 8.104-1.416-.01-.173-.197-.17-.393-.158 1.31-1.643 2.413-3.507 3.543-5.43.304-.52.576-1.527 1.416-1.495-1.065 2.318-2.615 4.153-3.384 6.768 1.657-1.911 2.71-4.425 3.935-6.768h.866c-1.062 2.27-2.317 4.347-3.305 6.688 1.52-1.627 2.529-4.448 3.698-6.688.22-.095.543-.088.866-.079-.928 1.695-1.862 3.385-2.754 5.115 1.47-1.389 2.173-3.545 3.383-5.195.776.117 1.179.606 1.81.866-.787.84-1.743 1.51-2.518 2.362.174-.797 1.048-1.574 1.337-2.52-1.345.965-1.892 2.724-2.754 4.172.813-.636 2.124-1.841 3.228-2.833.547-.493.969-1.29 1.731-.708-1.492 1.498-3.117 2.863-4.329 4.643 1.554-1.15 3.03-3.09 4.643-4.486.314.184.688.309 1.023.472-1.574 1.286-3.14 2.58-4.486 4.093.97-.303 1.713-1.198 2.518-1.89.83-.71 1.71-1.384 2.519-2.045.287.002.354.223.55.315.008-.444.181-.226.71-.236-.28-.142-.628-.214-.945-.316-.092-.115-.092-.197 0-.314-.67.19-.81-.739-1.338-.944.9.306 2.61.486 3.462 1.102-.181-.662-1.035-.826-1.653-1.102-.62-.278-1.294-.55-1.966-.788-1.695-.597-3.007-1.213-4.88-1.573-.636-.123-1.637-.547-2.282-.473-.606.07-1.438.78-2.125 1.181-2.064 1.207-4.346 2.312-6.769 2.911-.252.07-.107-.258-.315-.235-.382-.042-.347.334-.708.315-2.341.139-3.481-.925-5.114-1.496.025-.288.31-.318.237-.708-.581-.084-.66.584-1.183.315-.15-.195.35-.328 0-.552-.851.434-1.44 1.13-2.124 1.732-.171-1.247 1.221-1.613 1.652-2.518-.508-.176-.763.534-1.18.708-.175-.365.177-.827 0-1.26-.566.695-.434 2.085-1.338 2.44-.066-1.038.548-2.074 1.181-2.676-.439-.023-.596.642-.944.236-.191.573-.842 1.1-1.182 1.26-.025-1.18.829-1.48 1.182-2.282-1.04.063-1.544 1.343-2.441 1.81.196-.644.117-1.562.787-1.731.001.208-.043.462.158.472.093-1.642-.839-2.938-.865-4.723.423 1.283.78 2.631 1.415 3.7-.088-2.325-1.19-4.836-1.259-7.555-.056-2.193-.015-4.457.394-6.611.17-.25.441-.399.55-.708-.656-1.48 1.199-2.325 1.575-3.542-.382-.263-.512.3-.709.473.246-.831.852-1.981 1.652-2.519-.384-.224-.308-.212-.313-.629-1.584.794-2.77 2.079-4.014 3.226-.631.583-1.203 1.204-1.81 1.81-.581.582-1.128 1.376-1.968 1.653.38-1.177 1.43-1.9 2.283-2.676.848-.773 1.647-1.614 2.518-2.36 1.757-1.507 3.78-2.722 5.273-4.486-.784.23-1.426.803-2.125 1.259-2.611 1.703-5.065 3.913-7.161 6.216.808-2.522 3.504-3.839 5.43-5.509-1.29.364-2.748 1.24-3.698 2.204-.18-.314.207-.735.156-1.18 2.515-1.199 5.1-2.44 7.398-3.934 1.984-1.29 4.212-2.35 6.295-3.7.346-.224.73-.693 1.182-.55-.266.5-.948.724-1.496 1.022-1.57.858-3.502 1.762-4.879 2.912 1.617-.405 3.32-1.593 4.88-2.44.448-.243 1.09-.78 1.573-.393-2.018 1.42-4.75 2.123-6.61 3.7 1.293-.183 2.385-.994 3.54-1.574a55.98 55.98 0 0 1 3.621-1.653c-.013.196.121.246.237.315-2.088 1.426-4.735 2.293-6.848 3.698 2.547-.943 4.8-2.177 7.163-3.305 2.378 1.914 7.969 3.194 11.805 1.731.357-.078.589.206.707-.079-.096-.434-.511-.191-.786-.235-1.618-.257-4.005-.37-6.06-.394-.433-.72-1.885-.422-2.203-1.26 1.196.181 3.194.86 4.8.395-1.124-.635-3.211-.305-4.25-1.024-.405-1.902-1-3.616-1.494-5.43.109 1.753.919 3.487 1.259 5.273-.283.02-.29-.236-.552-.236-.669-2.61-1.45-5.107-2.203-7.634.17 2.454 1.185 4.743 1.731 7.083-.154.306-.502-.472-.786-.55.372.833 1.183 1.23 1.258 2.36-.33.042-.44-.137-.708-.157-.542-1.701-1.013-3.4-1.574-5.273-.174-.579-.524-1.2-.551-1.731-.057-1.142.556-2.225.472-3.541 3.049.016 7.405.043 10.39-.867-2.501-.3-5.462.007-8.187-.156-1.143-.069-2.27-.512-3.225-.552-.745-.031-1.537-.023-2.047-.55.153-.309.553-.017.788 0 .778.054 1.582-.036 2.36 0 1.45.065 2.859.365 4.33.472 3.62.263 7.196-.231 10.939-.315.012 4.289.183 8.42 1.809 11.097-.284-3.416-.923-7.158-.708-11.333.295-.072.555-.178.865-.236-.33 4.12.173 7.982 1.26 10.939.083.263.238.005.472.157 1.79 1.941 3.625 3.85 5.98 5.194 2.262 1.29 4.375 3.222 7.32 3.778.43.488.95.886 1.416 1.338.387 1.614 1.668 2.727 1.652 4.485-.92-1.466-1.591-3.181-2.44-4.721-.212 1.167.473 2.223.944 3.226.471 1 1.252 1.978 1.182 3.148-.956-1.483-1.606-3.273-2.598-4.721-.242.48.175.977.315 1.337-.266.225-.326-.196-.55-.393zM40.85 15.16c-.744.645-1.57 1.21-2.36 1.81-.195.224-.746.093-.709.551 1.535-.069 3.112-.77 3.542-2.204-.14-.07-.2-.22-.473-.157zm5.51 3.777c.259-.156-.195-.336 0-.394.189-.032.17.144.393.08-.299-.883-1.443-.918-1.81-1.732-.292.055-.337-.135-.63-.08-.08-.156-.136-.336-.314-.392.468 1.158 1.13 2.121 2.36 2.518zm-23.295 1.338c-1.183.024.109.186.63 0zm.314 1.337c1.02 1.016 2.684 1.546 4.25 2.047 1.584.508 3.357 1.116 5.036.945a9.382 9.382 0 0 1-1.337-.394c2.318.227 5.418.407 7.792.236 1.076-.077 2.71.106 3.069-.63-.599-.6-2.019.235-2.913-.157 1.645-.61 3.24-1.273 4.643-2.124-1.333-.222-2.631.472-3.934.865-4.975 1.5-12.124 1.172-15.504-1.416-.106.657.703.815.71 1.101-.718-.16-1.232-.591-1.812-.473zm30.692 27.94c-.375-.345-.673-.78-.708-1.26-2.078 2.224-3.784 4.821-5.981 6.925-2.407-.161-4.482-.715-6.295-1.26-.345-.73-1.264-.888-2.283-.943a65.025 65.025 0 0 1 2.283-1.732c.872-.638 2.045-1.782 3.068-1.81-.293-.047-.856.176-.707-.315-.377.234-.836.418-1.417.237-.04-.262.443-.342.08-.472-1.644 1.242-3.565 2.207-4.802 3.855.702-.23 1.46-.88 2.36-1.573.702-.539 2.086-2.057 2.912-1.495-1.601.993-3.027 2.165-4.405 3.383-.675.034-1.228.19-1.811.315.343.619.86.4 1.652.55 3.29.623 7.066 2.605 10.703 2.283.445-.04.948-.074 1.338-.393-.452-.44-1.416-.367-2.125-.551 2.053-1.83 3.61-4.155 5.273-6.374.159.392.477.625.63 1.022-.978 1.542-2.347 2.69-3.305 4.25.94-.444 1.288-1.115 2.124-2.125.182-.219 1.351-1.891 1.496-1.889.432.007.389.932.787 1.023.32-.636-1.108-1.102-.394-1.652.454.228.497.867 1.102.944-.584-1.358-1.797-2.086-2.44-3.385h-.236c.028 1.036 1.604 1.647 1.1 2.44zm-13.85 3.147c1.056-.627 2.25-1.584 3.227-2.283.328-.235.893-.411.787-.786-1.447.915-2.896 1.827-4.014 3.069zm10.153-2.912c-.925 1.043-1.775 2.161-2.598 3.306a8.5 8.5 0 0 0 2.834-3.227c-.101-.004-.11-.101-.236-.079zm-9.286 3.384c.64-.215 1.174-.782 1.73-1.26.7-.6 1.576-1.267 1.732-1.888-1.11 1.092-2.544 1.863-3.462 3.148zm1.18.315zm2.833-2.597c-.009-.095-.023-.186-.158-.158-.868.942-2.1 1.522-2.676 2.755 1.085-.727 2-1.62 2.834-2.597zm-1.181 2.44c.779-.481 1.721-1.217 1.967-1.968zm-12.356 0c.046.558.983.224 1.496.314"/></g><g><path fill="#fefefe" d="M22.67 13.034c.24-.03.164.257.237.393-.147.011-.263.051-.315.157-.167-.071.148-.316.079-.55z"/></g><g><path fill="#fefefe" d="M23.694 13.506v.393c.07-.035.14-.069.157-.157.16.154.235.395.237.709-.21-.174-.871-.834-.394-.945z"/></g><g><path fill="#fefefe" d="M23.222 13.979c.143.412-.46.483-.71.629-.804.473-1.781 1.134-2.595 1.653-.088-.17.403-.435.472-.709 1.126-.29 1.87-1.383 2.833-1.573z"/></g><g><path fill="#fefefe" d="M12.676 24.209c-.811.721-.944 2.09-1.495 3.069-.866 1.54-3.277 2.693-4.014 4.408 1.31-.607 2.439-2.493 3.62-3.228-.029.418-.247.645-.236 1.103-1.178.972-2.134 2.169-3.225 3.226.059-.649-.406-.668-.63-1.18-.016-.33.384-.243.314-.63-.134-.42-.512.17-.709-.078-.036-.202-.11-.362-.236-.473 2.156-2.12 4.34-4.21 6.61-6.218z"/></g><g><path fill="#fefefe" d="M60.368 26.02c.044-.23.123.12.235.078-.059.261.376.716.157.63-.141-.227-.207-.528-.392-.71z"/></g><g><path fill="#fefefe" d="M2.288 29.56v-.236c.385 1.741.977 3.692 1.022 5.51.3.403.553 1.439.315 1.888.363.677.827 2.243.315 2.833-.868-3.014-.87-6.894-1.652-9.994z"/></g><g><path fill="#fefefe" d="M56.984 35.463c.071 1.14.933 2.16 1.417 3.148-.723-.72-1.342-2.226-2.126-3.148.073-.399.281-.663.395-1.023.469.553.74 1.304 1.1 1.967-.25-.014-.402-.802-.786-.944z"/></g><g><path fill="#fefefe" d="M8.111 35.856c-.755 1.187-1.589 2.294-2.361 3.463-.414-1.962 1.165-2.613 1.731-3.856.097.167.296.229.316.473.232-.188-.096-.478-.08-.71.2.143.196.488.394.63z"/></g><g><path fill="#fefefe" d="M10.472 42.31c.649 1.032-.158 2.937-1.102 3.384.167-.91.344-1.808.945-2.283-.163-.233-.407.113-.472.237-.05-.393.617-.745.629-1.338z"/></g><g><path fill="#fefefe" d="M11.496 45.93c.077.97-.705 1.762-1.26 2.361"/></g><g><path fill="#fefefe" d="M27.077 48.291c.09.015.044.079 0 .079-.885 1.812-2.029 3.48-3.068 5.193-.316.52-.49 1.315-1.181 1.496 1.297-2.034 2.436-4.227 3.541-6.453.271-.07.491-.191.708-.315z"/></g><g><path fill="#fefefe" d="M24.244 49.471c-.043.3-.245.489-.55.315-.47 1.638-1.458 2.871-2.283 4.25-.242.405-.362 1.095-.944 1.18.529-2.463 2.256-3.726 3.306-5.666.24.057.232-.136.471-.079z"/></g><g><path fill="#fefefe" d="M15.589 50.022c-.267 1.1-1.255 1.475-1.653 2.44"/></g><g><path fill="#fefefe" d="M17.083 52.383c.03.503-.364 1.262-.473 1.89-.477-.233-.977-.44-1.416-.71.187-1.57 1.66-2.274 2.44-2.99-.3 1.352-1.54 1.764-1.89 3.07.511-.042.929-.856 1.339-1.26z"/></g><g><path fill="#fefefe" d="M19.365 51.28c-.206.791-.904 1.773-1.338 2.598.118.31.329-.335.394-.078a7.799 7.799 0 0 1-.315.944c-.305-.14-.74-.153-1.023-.314.238-1.572 1.504-2.117 2.282-3.15z"/></g><g><path fill="#fefefe" d="M13.384 53.013c.059 1.108-.719 2.061-1.416 2.676"/></g><g><path fill="#fefefe" d="M13.7 53.013c.368.155.575.473.944.63-.098 1.37-.785 2.152-1.417 2.99.404-.015.495-.344.709-.551.07.309-.198.956-.315 1.338-.231-.241-.292-.655-.551-.866.036-.201.11-.362.235-.472-.018-.113-.234-.027-.235-.158.041-1.137.667-1.693 1.102-2.439-.318.102-.407.433-.63.63-.098-.206.183-.706.157-1.102z"/></g><g><path fill="#fefefe" d="M12.676 57.813c-.134-.064-.05-.568.158-.55.043.506.304.797.393 1.258-.406.198-.663.544-.944.866-.215-.636.467-1.054.628-1.574-.016-.1-.234-.103-.235 0z"/></g><g><path fill="#fefefe" d="M11.81 78.354c-.116.854-.387 1.554-1.023 1.888"/></g><g><path fill="#fefefe" d="M11.574 86.853c.005.976-.607 1.335-1.18 1.732"/></g><g><path fill="#fefefe" d="M55.568 87.324c.983.906 1.958 1.82 2.91 2.755"/></g><g><path fill="#fefefe" d="M55.646 88.348c1.56 1.142 3.585 2.5 3.699 5.352-.475-.154-.56-.564-.944-.944-.66-.653-1.928-1.23-2.282-2.047-.307-.701-.074-1.533-.473-2.361z"/></g><g><path fill="#fefefe" d="M11.416 93.935c.1-1.394.635-3.037 1.023-4.406-.074-.327.236-.017 0 0-.216 1.593-.017 3.603-1.023 4.406z"/></g><g><path fill="#fefefe" d="M14.801 107.157c.294-.197-.05.084 0 .316.399-.049.397-.496.472-.867 1.669-1.846 3.649-3.381 5.116-5.429.424.178.632.572.866.944-2.261 1.962-4.267 4.18-6.14 6.531-.447-.102-.96-.141-1.416-.236.243-.545.794-.78 1.102-1.259z"/></g><g><path fill="#fefefe" d="M20.546 109.282c-1.404-.013-2.491-.342-3.856-.394.7-1.016 1.816-1.846 2.832-2.755 1.015-.904 2.06-1.839 2.913-2.832.452.229.758.606 1.18.865-1.729 1.577-3.908 2.703-5.194 4.722 1.927-1.143 3.67-3.149 5.744-4.405.725.586 1.755.866 2.598 1.337-1.475 1.148-2.885 2.36-4.171 3.698-.58.003-1.065-.09-1.574-.157 1.468-1.39 3.086-2.634 4.643-3.935-2.118.556-3.524 2.51-5.115 3.856z"/></g><g><path fill="#fefefe" d="M15.194 105.032c.084 1.316-.773 1.694-1.258 2.44"/></g></g></g></svg>