<svg xmlns="http://www.w3.org/2000/svg" width="43" height="35" viewBox="0 0 43 35"><g><g><path fill="#fff" d="M28.732 28.268l-10.024-4.255V21.22l9.763 4.146a.84.84 0 0 0 .757-.05l8.047-4.735 2.666 1.093zM39.94 26.3l-11.21 6.592-10.023-4.254v-2.792l9.755 4.103a.84.84 0 0 0 .756-.05l8.048-4.734zM17.397 14.628a.84.84 0 0 0-.37.698V27.94l-4.28-1.817V13.266l11.141-7.425 4.146 1.682zM2.807 8.02l11.117-6.248 8.064 3.305-10.158 6.778zm8.25 8.123l-8.25-3.498 2.834-1.59 5.424 2.305zm0 4.625l-8.25-3.507 2.834-1.606 5.424 2.304zm0 4.625l-8.25-3.507 2.834-1.589 5.424 2.304zm28.917-12.975l-11.242 6.6-9.107-3.867 10.259-6.853zm-.033 4.633l-11.21 6.601-10.023-4.255v-2.8l9.755 4.146a.842.842 0 0 0 .756-.05l8.048-4.735zm2.621 4.08a.841.841 0 0 0-.41-.355l-3.06-1.253 3.17-1.866a.84.84 0 0 0-.11-1.506l-3.06-1.253 3.17-1.866a.84.84 0 0 0 .403-.8.841.841 0 0 0-.521-.714l-12.05-4.936-5.937-2.523A.841.841 0 0 0 23.855 4L14.185.064a.84.84 0 0 0-.732.042L.495 7.388a.84.84 0 0 0 .084 1.54l3.128 1.294-3.212 1.791a.841.841 0 0 0 .084 1.505l3.128 1.295-3.195 1.791a.84.84 0 0 0 .067 1.573l3.128 1.286-3.195 1.792a.841.841 0 0 0 .084 1.505l10.872 4.616c.04.03.082.054.126.076l5.946 2.522 10.931 4.65a.84.84 0 0 0 .757-.05l13.033-7.669a.84.84 0 0 0-.109-1.505l-3.06-1.253 3.17-1.867a.84.84 0 0 0 .3-1.15z"/></g></g></svg>