<svg xmlns="http://www.w3.org/2000/svg" width="46" height="42" viewBox="0 0 46 42"><g><g><path fill="#fff" d="M18.953 14.7a.724.724 0 1 0 0-1.45H9.756a.725.725 0 1 0 0 1.45zm0 3.532a.722.722 0 0 0 .722-.726.723.723 0 0 0-.722-.723h-5.069a.724.724 0 1 0 0 1.45zm7.61-3.533h8.482v2.084h-8.482zm9.203 3.533a.724.724 0 0 0 .728-.726v-3.53a.725.725 0 0 0-.728-.726h-9.925a.725.725 0 0 0-.727.727v3.529c0 .404.323.726.727.726zM25.258 31.57a.66.66 0 1 0 0-1.322h-4.52a.658.658 0 0 0-.659.658c0 .37.295.664.658.664zM6.945 4.947c.025-3.035 2.23-3.486 3.538-3.486h25.191c1.532 0 3.355.603 3.377 3.486zm-.001 1.617h32.113l-.005 3.707H6.944zm.006 5.196h32.107l-.005 7.107c0 1.328-.468 3.545-3.545 3.545H10.495c-1.328 0-3.545-.467-3.545-3.545zM1.996 6.27H5.5v12.638c0 3.678 2.58 4.988 4.994 4.988h25.012c3.677 0 4.994-2.58 4.994-4.988V6.27h3.504v21.183H1.995zm0 22.505h42.01v4.268H1.996zm18.13 5.584h5.75v2.893h-5.75zm-5.393 6.282a2.74 2.74 0 0 1 2.65-2.073h11.236a2.74 2.74 0 0 1 2.65 2.073zm17.275 1.322a.662.662 0 0 0 .658-.664 4.048 4.048 0 0 0-4.047-4.047h-1.427v-2.893h17.472a.637.637 0 0 0 .467-.191.659.659 0 0 0 .19-.467V5.605c0-.173-.068-.34-.19-.46a.642.642 0 0 0-.467-.198H40.5C40.475 1.88 38.673.04 35.674.04h-25.18C8.1.039 5.54 1.332 5.502 4.947H1.338a.642.642 0 0 0-.468.198.634.634 0 0 0-.196.46v28.096c0 .178.069.346.196.467a.637.637 0 0 0 .468.191h17.471v2.893h-1.426a4.048 4.048 0 0 0-4.048 4.047.662.662 0 0 0 .658.664z"/></g></g></svg>